<?xml version="1.0" encoding="UTF-8" standalone="no"?>
<!-- Created with Inkscape (http://www.inkscape.org/) -->

<svg
   version="1.1"
   id="svg2"
   width="4000"
   height="2666.6667"
   viewBox="0 0 4000 2666.6667"
   sodipodi:docname="11879390_Work_3.eps"
   xmlns:inkscape="http://www.inkscape.org/namespaces/inkscape"
   xmlns:sodipodi="http://sodipodi.sourceforge.net/DTD/sodipodi-0.dtd"
   xmlns="http://www.w3.org/2000/svg"
   xmlns:svg="http://www.w3.org/2000/svg">
  <defs
     id="defs6">
    <clipPath
       clipPathUnits="userSpaceOnUse"
       id="clipPath254">
      <path
         d="m 7557.07,12051.7 c -59.82,0 -108.56,47.3 -109.13,106.4 -0.57,59.4 47.95,108.2 108.37,108.9 0.43,0 0.86,0 1.29,0 59.83,0 108.57,-47.4 109.14,-106.4 0.57,-59.5 -47.95,-108.3 -108.37,-108.9 -0.43,0 -0.86,0 -1.3,0"
         id="path252" />
    </clipPath>
  </defs>
  <sodipodi:namedview
     id="namedview4"
     pagecolor="#ffffff"
     bordercolor="#000000"
     borderopacity="0.25"
     inkscape:showpageshadow="2"
     inkscape:pageopacity="0.0"
     inkscape:pagecheckerboard="0"
     inkscape:deskcolor="#d1d1d1" />
  <g
     id="g8"
     inkscape:groupmode="layer"
     inkscape:label="ink_ext_XXXXXX"
     transform="matrix(1.3333333,0,0,-1.3333333,0,2666.6667)">
    <g
       id="g10"
       transform="scale(0.1)">
      <path
         d="M 0,0 H 30000 V 20000 H 0 Z"
         style="fill:#ffffff;fill-opacity:1;fill-rule:nonzero;stroke:none"
         id="path12" />
      <path
         d="m 13403.6,2760 h 3105.7 v 4560 h -3105.7 z"
         style="fill:#d3dfff;fill-opacity:1;fill-rule:nonzero;stroke:none"
         id="path14" />
      <path
         d="m 16509.3,5986.7 v 0 431.6 -431.6"
         style="fill:#bbc4db;fill-opacity:1;fill-rule:nonzero;stroke:none"
         id="path16" />
      <path
         d="m 13403.6,5986.7 h 3105.7 v 431.602 h -3105.7 z"
         style="fill:#9daedb;fill-opacity:1;fill-rule:nonzero;stroke:none"
         id="path18" />
      <path
         d="m 15786.5,6370 c 0,-458.4 -371.6,-830 -830,-830 -458.4,0 -830,371.6 -830,830 0,458.4 371.6,830 830,830 458.4,0 830,-371.6 830,-830"
         style="fill:#ffffff;fill-opacity:1;fill-rule:nonzero;stroke:none"
         id="path20" />
      <path
         d="m 7297.22,6418.3 h 15318.5 V 16514.9 H 7297.22 Z"
         style="fill:#d3dfff;fill-opacity:1;fill-rule:nonzero;stroke:none"
         id="path22" />
      <path
         d="m 7811.57,6995.5 h 14289.7 v 9137.14 H 7811.57 Z"
         style="fill:#ffffff;fill-opacity:1;fill-rule:nonzero;stroke:none"
         id="path24" />
      <path
         d="m 18160,2760 h -6426.7 v 617.4 H 18160 V 2760"
         style="fill:#708cd5;fill-opacity:1;fill-rule:nonzero;stroke:none"
         id="path26" />
      <path
         d="m 11626.7,11546.7 276.2,1993.3 c -130.3,26.1 -265,40 -402.9,40 -1126.7,0 -2040,-913.3 -2040,-2040 0,-1126.7 913.3,-2040 2040,-2040 1126.7,0 2040,913.3 2040,2040 0,74 -4.2,147.1 -11.9,219.1 l -1901.4,-212.4"
         style="fill:#ffffff;fill-opacity:1;fill-rule:nonzero;stroke:none"
         id="path28" />
      <path
         d="m 11626.7,11546.7 19.8,-2.8 278.8,2012 -18.5,3.7 c -131.5,26.4 -267.5,40.4 -406.8,40.4 -1137.7,0 -2059.99,-922.3 -2060,-2060 0.01,-1137.7 922.3,-2060 2060,-2060 1137.7,0 2060,922.3 2060,2060 0,74.8 -4.2,148.5 -12,221.2 l -2.1,20 -1921.5,-214.6 2.3,-19.9 19.8,-2.8 -19.8,2.8 2.2,-19.9 1901.5,212.4 -2.3,19.9 -19.9,-2.2 c 7.7,-71.3 11.8,-143.6 11.8,-216.9 0,-557.9 -226.1,-1062.7 -591.6,-1428.4 -365.7,-365.5 -870.5,-591.6 -1428.4,-591.6 -557.9,0 -1062.7,226.1 -1428.4,591.6 -365.54,365.7 -591.59,870.5 -591.6,1428.4 0.01,557.9 226.06,1062.7 591.6,1428.4 365.7,365.5 870.5,591.6 1428.4,591.6 136.6,0 269.9,-13.7 398.9,-39.6 l 4,19.6 -19.9,2.8 -279.7,-2018.9 25.6,2.9 -2.2,19.9"
         style="fill:#708cd5;fill-opacity:1;fill-rule:nonzero;stroke:none"
         id="path30" />
      <path
         d="m 13868.1,12119.1 c -95,889.4 -761.5,1607.9 -1625.2,1780.9 l -276.2,-1993.3 1901.4,212.4"
         style="fill:#ffffff;fill-opacity:1;fill-rule:nonzero;stroke:none"
         id="path32" />
      <path
         d="m 13868.1,12119.1 19.9,2.1 c -96,898.3 -768.9,1623.7 -1641.2,1798.4 l -20.8,4.2 -282.7,-2039.9 1946.8,217.5 -2.1,19.8 -19.9,-2.1 -2.2,19.8 -1875.9,-209.5 272.7,1967.9 -19.8,2.7 -4,-19.6 c 855.3,-171.3 1515.3,-882.8 1609.3,-1763.5 l 19.9,2.2 -2.2,19.8 2.2,-19.8"
         style="fill:#708cd5;fill-opacity:1;fill-rule:nonzero;stroke:none"
         id="path34" />
      <path
         d="m 11503.4,10589.2 c 0,55.3 -21.6,83 -54.5,83 -32.1,0 -54.6,-26.9 -54.6,-83 0,-56 22.5,-82.9 54.6,-82.9 32.9,0 54.5,27.6 54.5,82.9 z m -183.8,0 c 0,88.2 53.8,144.2 129.3,144.2 76.2,0 130,-56 130,-144.2 0,-88.1 -53.8,-144.2 -130,-144.2 -75.5,0 -129.3,56.1 -129.3,144.2 z m 86,384.8 h 88.9 l -357.2,-523 h -88.9 z m -257.1,-138.2 c 0,56.1 -21.6,82.9 -54.5,82.9 -32.2,0 -54.6,-27.6 -54.6,-82.9 0,-55.3 22.4,-82.9 54.6,-82.9 32.9,0 54.5,26.9 54.5,82.9 z m -184.5,0 c 0,88.2 53.8,144.2 130,144.2 76.2,0 129.2,-55.3 129.2,-144.2 0,-88.9 -53,-144.2 -129.2,-144.2 -76.2,0 -130,56 -130,144.2"
         style="fill:#708cd5;fill-opacity:1;fill-rule:nonzero;stroke:none"
         id="path36" />
      <path
         d="m 20254.2,9613.9 h -5204.5 v 3838.8 h 5204.5 V 9613.9"
         style="fill:#ffffff;fill-opacity:1;fill-rule:nonzero;stroke:none"
         id="path38" />
      <path
         d="m 20254.2,9613.9 v 20 h -5184.5 v 3798.8 h 5164.5 V 9613.9 h 20 v 20 -20 h 19.9 v 3858.8 H 15029.7 V 9593.9 h 5244.4 v 20 h -19.9"
         style="fill:#708cd5;fill-opacity:1;fill-rule:nonzero;stroke:none"
         id="path40" />
      <path
         d="m 15901.9,10370 h -340 v 629.3 h 340 V 10370"
         style="fill:#d3dfff;fill-opacity:1;fill-rule:nonzero;stroke:none"
         id="path42" />
      <path
         d="m 16541.9,10370 h -340 v 1398.4 h 340 V 10370"
         style="fill:#d3dfff;fill-opacity:1;fill-rule:nonzero;stroke:none"
         id="path44" />
      <path
         d="m 17181.9,10370 h -340 v 2125.2 h 340 V 10370"
         style="fill:#d3dfff;fill-opacity:1;fill-rule:nonzero;stroke:none"
         id="path46" />
      <path
         d="m 17821.9,10370 h -340 v 1576.5 h 340 V 10370"
         style="fill:#d3dfff;fill-opacity:1;fill-rule:nonzero;stroke:none"
         id="path48" />
      <path
         d="m 18461.9,10370 h -340 v 1706.4 h 340 V 10370"
         style="fill:#d3dfff;fill-opacity:1;fill-rule:nonzero;stroke:none"
         id="path50" />
      <path
         d="m 19101.9,10370 h -340 v 1678.6 h 340 V 10370"
         style="fill:#d3dfff;fill-opacity:1;fill-rule:nonzero;stroke:none"
         id="path52" />
      <path
         d="m 19741.9,10370 h -340 v 2418.1 h 340 V 10370"
         style="fill:#d3dfff;fill-opacity:1;fill-rule:nonzero;stroke:none"
         id="path54" />
      <path
         d="m 15725,10586.8 -30,26.4 681.6,771.9 684.9,470.2 598.1,-528.2 446.7,420.8 27.4,-29.1 -473.3,-445.9 -601.9,531.8 -655.1,-449.8 -678.4,-768.1"
         style="fill:#708cd5;fill-opacity:1;fill-rule:nonzero;stroke:none"
         id="path56" />
      <path
         d="m 17825.9,14945.4 h -5605.5 v 631.9 h 5605.5 v -631.9"
         style="fill:#708cd5;fill-opacity:1;fill-rule:nonzero;stroke:none"
         id="path58" />
      <path
         d="m 19663.1,14226.3 h -9320 v 87.7 h 9320 v -87.7"
         style="fill:#d3dfff;fill-opacity:1;fill-rule:nonzero;stroke:none"
         id="path60" />
      <path
         d="m 19663.1,14486.3 h -9320 v 87.7 h 9320 v -87.7"
         style="fill:#d3dfff;fill-opacity:1;fill-rule:nonzero;stroke:none"
         id="path62" />
      <path
         d="m 19663.1,8166.3 h -9320 v 87.7 h 9320 v -87.7"
         style="fill:#d3dfff;fill-opacity:1;fill-rule:nonzero;stroke:none"
         id="path64" />
      <path
         d="m 19663.1,7899.7 h -9320 v 87.7 h 9320 v -87.7"
         style="fill:#d3dfff;fill-opacity:1;fill-rule:nonzero;stroke:none"
         id="path66" />
      <path
         d="m 19663.1,7633 h -9320 v 87.7 h 9320 V 7633"
         style="fill:#d3dfff;fill-opacity:1;fill-rule:nonzero;stroke:none"
         id="path68" />
      <path
         d="m 12520,8890 h -2120 v 273.3 h 2120 V 8890"
         style="fill:#d3dfff;fill-opacity:1;fill-rule:nonzero;stroke:none"
         id="path70" />
      <path
         d="m 18711.9,8890 h -2120 v 273.3 h 2120 V 8890"
         style="fill:#d3dfff;fill-opacity:1;fill-rule:nonzero;stroke:none"
         id="path72" />
      <path
         d="m 3641.56,4520.8 h -68.38 v 3694.6 h 68.38 V 4520.8"
         style="fill:#1f3c88;fill-opacity:1;fill-rule:nonzero;stroke:none"
         id="path74" />
      <path
         d="m 2976.36,7721.4 c 387.08,-112.5 589.62,37.6 684.68,100 33.11,21.7 37.69,66.8 11.07,102.4 -92.76,124.3 -308.2,352 -626.95,429.2 -411.81,99.8 -788.16,-77.1 -788.16,-77.1 0,0 420.37,-467.6 719.36,-554.5"
         style="fill:#1f3c88;fill-opacity:1;fill-rule:nonzero;stroke:none"
         id="path76" />
      <path
         d="m 3280.59,7192.8 c 432.9,260.7 507.24,568.7 548,706.6 14.2,48.1 -14.47,89.2 -64.57,94.2 -174.63,17.5 -562.23,101.5 -907.51,-125.8 -446.09,-293.6 -631.97,-875.8 -631.97,-875.8 0,0 721.66,-0.5 1056.05,200.8"
         style="fill:#708cd5;fill-opacity:1;fill-rule:nonzero;stroke:none"
         id="path78" />
      <path
         d="m 3385.49,7061.7 c -99.75,431.7 101.42,673.6 186.06,786.6 29.48,39.3 84.54,48 125.26,20.4 141.9,-95.9 397.45,-323.5 460.93,-680.1 82.02,-460.7 -168.15,-902.5 -168.15,-902.5 0,0 -527.06,442.2 -604.1,775.6"
         style="fill:#1f3c88;fill-opacity:1;fill-rule:nonzero;stroke:none"
         id="path80" />
      <path
         d="m 3090.89,8425.8 c 147.29,-382.4 426.78,-463.4 550.14,-506.1 42.95,-14.8 89.63,7.1 106.55,49.3 58.95,147 136.78,453.7 0.57,759.8 -175.97,395.4 -596.51,604.1 -596.51,604.1 0,0 -174.53,-611.9 -60.75,-907.1"
         style="fill:#d3dfff;fill-opacity:1;fill-rule:nonzero;stroke:none"
         id="path82" />
      <path
         d="m 4798.82,8137.8 c -437.04,-470.9 -863.67,-449.4 -1056.26,-449.7 -67.07,-0.1 -116.17,53.8 -112.57,121.9 12.56,237.6 99.53,711.1 474,1079.1 483.79,475.5 1179.93,566.3 1179.93,566.3 0,0 -147.53,-954 -485.1,-1317.6"
         style="fill:#708cd5;fill-opacity:1;fill-rule:nonzero;stroke:none"
         id="path84" />
      <path
         d="m 4586.22,7729.1 c -390.75,320.4 -739.85,237.1 -898.12,207.8 -55.11,-10.2 -91.85,-62.1 -84.3,-117.7 26.28,-193.6 129.55,-569.9 461.97,-815.3 429.46,-316.9 1007.57,-284.7 1007.57,-284.7 0,0 -185.31,762.5 -487.12,1009.9"
         style="fill:#d3dfff;fill-opacity:1;fill-rule:nonzero;stroke:none"
         id="path86" />
      <path
         d="M 4324.14,2753.6 H 2875.86 L 2581.3,5115.4 H 4618.7 L 4324.14,2753.6"
         style="fill:#ffffff;fill-opacity:1;fill-rule:nonzero;stroke:none"
         id="path88" />
      <path
         d="m 4324.14,2753.6 v 20 H 2893.52 l -289.57,2321.8 h 1992.1 l -291.76,-2339.3 19.85,-2.5 v 20 -20 l 19.84,-2.5 297.37,2384.3 H 2558.65 L 2858.2,2733.6 h 1483.6 l 2.18,17.5 -19.84,2.5"
         style="fill:#708cd5;fill-opacity:1;fill-rule:nonzero;stroke:none"
         id="path90" />
      <path
         d="M 4818.26,4723 H 2381.74 l 40,392.4 h 2356.52 l 40,-392.4"
         style="fill:#ffffff;fill-opacity:1;fill-rule:nonzero;stroke:none"
         id="path92" />
      <path
         d="m 4818.26,4723 v 20 H 2403.89 l 35.92,352.4 h 2320.38 l 38.17,-374.5 19.9,2.1 v 20 -20 l 19.89,2 -41.83,410.4 H 2403.68 L 2359.6,4703 h 2480.8 l -2.25,22 -19.89,-2"
         style="fill:#708cd5;fill-opacity:1;fill-rule:nonzero;stroke:none"
         id="path94" />
      <path
         d="M 4429.13,2735.2 H 2770.87 c -220.66,0 -399.54,178.9 -399.54,399.5 h 2457.34 c 0,-220.6 -178.88,-399.5 -399.54,-399.5"
         style="fill:#708cd5;fill-opacity:1;fill-rule:nonzero;stroke:none"
         id="path96" />
      <path
         d="m 23984.7,8533.3 116.9,-169.5 c 280.1,17.7 530.1,-188.1 519.8,-270.9 H 23879 l -237,396.5 342.7,43.9"
         style="fill:#f9b384;fill-opacity:1;fill-rule:nonzero;stroke:none"
         id="path98" />
      <path
         d="m 19021.8,11378.9 -229.8,528.2 -505.9,87.7 c 0,0 6.2,-134 368.1,-180.6 l 72.4,-95.4 295.2,-339.9"
         style="fill:#e28b6d;fill-opacity:1;fill-rule:nonzero;stroke:none"
         id="path100" />
      <path
         d="m 18855,11450.7 -167.5,442.5 -397.5,-160 c 0,0 60,-85 325,-40 l 73.6,-52.8 166.4,-189.7"
         style="fill:#e28b6d;fill-opacity:1;fill-rule:nonzero;stroke:none"
         id="path102" />
      <path
         d="m 18943.3,11427 -257.5,396.9 -354.5,-240.6 c 0,0 76.6,-70.4 326.1,29.8 l 83.2,-35.9 202.7,-150.2"
         style="fill:#e28b6d;fill-opacity:1;fill-rule:nonzero;stroke:none"
         id="path104" />
      <path
         d="m 19363.2,12119.9 -1119.6,-416.7 -48.8,130.9 1119.7,416.8 48.7,-131"
         style="fill:#708cd5;fill-opacity:1;fill-rule:nonzero;stroke:none"
         id="path106" />
      <path
         d="m 18194.8,11834.1 -94.7,-106.1 143.5,-24.8"
         style="fill:#102048;fill-opacity:1;fill-rule:nonzero;stroke:none"
         id="path108" />
      <path
         d="m 19021.8,11378.9 c 0,0 -179.2,268.8 -261.3,323.7 -82,54.8 -185.3,92.9 -218.5,168.2 -33.2,75.3 -90.4,3.8 -90.8,-25.1 -0.8,-68.6 20.1,-165.8 136.1,-236.8 0,0 98.6,-311.2 266.4,-334.3 l 168.1,104.3"
         style="fill:#f9b384;fill-opacity:1;fill-rule:nonzero;stroke:none"
         id="path110" />
      <path
         d="m 19021.8,11378.9 160.3,-129.4 67.9,-273.8 -212.5,-112.5 -297.5,525 281.8,-9.3"
         style="fill:#f9b384;fill-opacity:1;fill-rule:nonzero;stroke:none"
         id="path112" />
      <path
         d="m 20068.7,2759.7 c 404,69.9 616,220.1 833.1,368.2 v -368.2 h 67.8 l 96.4,652.9 c -214.3,-154.5 -491.8,-304.5 -720.9,-345.3 l -276.4,-307.6"
         style="fill:#102048;fill-opacity:1;fill-rule:nonzero;stroke:none"
         id="path114" />
      <path
         d="m 20737.1,5743.5 -67.8,-2315.3 -324.2,-360.9 c 229.1,40.8 506.6,190.8 720.9,345.3 l 392.8,2660.3 -721.7,-329.4"
         style="fill:#f9b384;fill-opacity:1;fill-rule:nonzero;stroke:none"
         id="path116" />
      <path
         d="m 22173.9,6407.5 -471.8,-393 1197.9,-2466.3 -56.6,-449.7 c 180.8,184.3 331.4,405.7 440,613.7 -261.9,911.9 -533.4,1857.8 -1109.5,2695.3"
         style="fill:#f9b384;fill-opacity:1;fill-rule:nonzero;stroke:none"
         id="path118" />
      <path
         d="m 22843.4,3098.5 -42.1,-335.1 c 336.1,235 385.3,395 436.8,611.9 l 156.5,-333.2 61.4,28.8 c -54.3,214.4 -111.4,428.2 -172.6,641.3 -108.6,-208 -259.2,-429.4 -440,-613.7"
         style="fill:#102048;fill-opacity:1;fill-rule:nonzero;stroke:none"
         id="path120" />
      <path
         d="m 22560,6040 c -666.8,-266.8 -1298,-155.6 -1822.8,-296.4 -222,557.2 -365.2,1254.8 -109.2,2662.4 19.6,107.2 46.8,212.8 81.2,316.4 l 216.4,656.8 5.2,16.4 749.2,234.4 403.6,-273.2 6.8,-20.8 8.4,-24.8 c 81.6,-248.4 185.2,-488.4 302.8,-721.6 433.2,-858 452.4,-1737.2 158.4,-2549.6"
         style="fill:#1f3c88;fill-opacity:1;fill-rule:nonzero;stroke:none"
         id="path122" />
      <path
         d="m 24098.8,8504.4 -455.6,-252 -1240,1937.6 c -49.2,-302.8 -152.4,-572 -304.8,-810 -4.8,-8 -9.6,-15.6 -14.8,-23.2 -440,-120 -774.4,-129.2 -1152.8,38.8 -5.2,8.8 -10.4,17.6 -15.6,26.4 -154.8,263.2 -269.2,590.4 -362,952 l -435.6,-271.6 c -168.4,-105.2 -386.4,-82.4 -529.2,55.2 l -793.6,764 314.8,392.4 881.6,-615.2 551.2,402.4 c 157.2,114.8 336,196.4 525.6,240.4 l 298.8,69.2 310,28.8 385.2,-134 c 289.2,-101.2 534.4,-300.4 692.4,-563.2 l 1344.4,-2238"
         style="fill:#ee6f57;fill-opacity:1;fill-rule:nonzero;stroke:none"
         id="path124" />
      <path
         d="m 22224.2,12851.3 c -8.2,-170.7 -162.2,-272.1 -322.9,-264.4 -160.8,7.7 -217.7,143.4 -263.1,308.1 -50.9,184.8 98.1,283.7 259.1,286.3 197.7,3.1 335,-159.4 326.9,-330"
         style="fill:#102048;fill-opacity:1;fill-rule:nonzero;stroke:none"
         id="path126" />
      <path
         d="m 21806,11907.6 -26.8,-459.6 c -10,-174 -157.2,-307.6 -330,-299.2 -115.6,5.6 -205.6,101.2 -205.6,216.4 0,3.6 0.4,7.6 0.4,11.2 l 0.4,5.6 15.2,325.6 193.2,70.8 353.2,129.2"
         style="fill:#f9b384;fill-opacity:1;fill-rule:nonzero;stroke:none"
         id="path128" />
      <path
         d="m 21686.8,11750 c 0,0 -134.4,-271.6 -442.4,-368 l 15.2,325.6 193.2,70.8 234,-28.4"
         style="fill:#102048;fill-opacity:1;fill-rule:nonzero;stroke:none"
         id="path130" />
      <path
         d="m 21898,12344.8 -74.4,-442.8 c 0,0 -254,-377.6 -617.2,-344.4 -149.6,13.6 -219.2,108.4 -249.2,214.8 -23.2,83.2 -22.4,174 -16.8,238.4 4.8,54 12.4,90 12.4,90 l -48.8,228.8 124.4,236 482.4,159.6 387.2,-380.4"
         style="fill:#f9b384;fill-opacity:1;fill-rule:nonzero;stroke:none"
         id="path132" />
      <path
         d="m 21912.7,12124.2 c 35.4,83.1 81.7,142.7 83.1,357.6 -10.6,305.4 -275.7,540.7 -636.9,461.3 -22.1,-4.8 -44.1,-11.8 -65.3,-19.9 -514.8,-197.7 -514.7,-577.9 -364.6,-723.7 85.8,248.4 300.9,308.2 544.3,310.5 79.1,-246.3 260,-386.7 386.3,-377 l 53.1,-8.8"
         style="fill:#1f3c88;fill-opacity:1;fill-rule:nonzero;stroke:none"
         id="path134" />
      <path
         d="m 21973.3,12020 c -19.7,-82.5 -83,-156.5 -137.3,-149 -54.3,7.6 -89.3,78.4 -78.2,158.3 11.1,79.9 64.1,138.6 118.4,131 54.3,-7.5 120.6,-42.1 97.1,-140.3"
         style="fill:#f9b384;fill-opacity:1;fill-rule:nonzero;stroke:none"
         id="path136" />
      <path
         d="m 21826.6,12002.4 -19.9,1.9 c 0.3,2.8 7.1,68.9 46.5,91.4 18.3,10.4 40,9.8 64.4,-1.6 l -8.5,-18.2 c -18.5,8.7 -33.5,9.5 -46,2.4 -25.3,-14.4 -34.9,-59.7 -36.5,-75.9"
         style="fill:#e28b6d;fill-opacity:1;fill-rule:nonzero;stroke:none"
         id="path138" />
      <path
         d="m 21136.7,12117.1 c 0,-26.4 -13.5,-47.9 -30,-47.9 -16.6,0 -30,21.5 -30,47.9 0,26.5 13.4,47.9 30,47.9 16.5,0 30,-21.4 30,-47.9"
         style="fill:#102048;fill-opacity:1;fill-rule:nonzero;stroke:none"
         id="path140" />
      <path
         d="m 21460,12135.8 c 0,-29 -13.4,-52.5 -30,-52.5 -16.6,0 -30,23.5 -30,52.5 0,29 13.4,52.5 30,52.5 16.6,0 30,-23.5 30,-52.5"
         style="fill:#102048;fill-opacity:1;fill-rule:nonzero;stroke:none"
         id="path142" />
      <path
         d="m 21274,12139.9 c -7.2,-26.3 -21.8,-49.6 -36.7,-71.1 -14.8,-21.7 -31.2,-42 -43.6,-62.9 -6.1,-10.4 -11.2,-21.1 -12.2,-30.8 -1.6,-9.8 1.7,-17.8 8.6,-26.2 16.4,-18.5 35.6,-35.5 56.2,-49.9 l -4.3,-9.3 c -25.7,9.5 -48.3,24.6 -68.3,43.3 -5.4,5.2 -10.6,11.9 -13.8,19.7 -3.4,7.9 -4.4,16.7 -3.8,24.8 1.6,16.3 8.1,29.7 15.1,41.6 14.5,23.7 31.8,43.4 48.3,63.2 16.5,19.8 32.5,39.4 45,61.4 l 9.5,-3.8"
         style="fill:#102048;fill-opacity:1;fill-rule:nonzero;stroke:none"
         id="path144" />
      <path
         d="m 21163.3,11808.2 c 18.1,-2.6 37.1,-2.6 55,-0.3 18.1,2.4 35.7,6.9 52.5,13.5 8.2,4 16.8,7 24.6,11.9 3.9,2.3 8.2,4.1 12,6.7 3.8,2.5 7.6,5.1 11.6,7.5 4,2.3 7.7,5.2 11.4,8.1 l 11.4,8.3 c 7.4,5.8 14.5,12.1 22.5,17.8 l 8,-6.8 c -5.4,-8.4 -11.2,-16.6 -17.5,-24.5 -7,-7.3 -13.5,-15.2 -21.5,-21.6 -15.4,-13.6 -33.5,-24.1 -52.7,-32.1 -19.4,-7.4 -40.2,-11.7 -61,-11.6 -20.8,0.1 -41.3,3.7 -60.1,13.4 l 3.8,9.7"
         style="fill:#102048;fill-opacity:1;fill-rule:nonzero;stroke:none"
         id="path146" />
      <path
         d="m 21015.2,12195.4 c 8.4,16.1 22,29.3 37.5,39.4 15.7,10 33.7,16.5 52.3,19.2 18.6,2.7 37.8,1.4 55.6,-4.1 17.8,-5.5 34.3,-14.8 46.7,-28.1 l -7.9,-13.5 c -16.3,3.3 -31.1,6 -45.8,7.1 -14.6,1.1 -29,0.8 -43.2,-1 -14.2,-1.8 -28.3,-5.2 -42.1,-10.2 -14,-4.8 -27.5,-11.6 -41.8,-19.6 l -11.3,10.8"
         style="fill:#102048;fill-opacity:1;fill-rule:nonzero;stroke:none"
         id="path148" />
      <path
         d="m 21331.1,12219.5 c 2,4.4 4.5,8.8 7.1,13.2 3.2,3.9 6.8,7.5 10.3,11.3 3.9,3.1 8.2,5.9 12.4,8.9 4.2,2.5 8.8,4.4 13.3,6.6 18.4,7.4 37.6,9.7 56.2,9.4 18.7,-0.3 37,-3.5 54.4,-9.5 4.3,-1.6 8.6,-3.4 12.9,-5.2 4.2,-2.1 8.3,-4.2 12.4,-6.5 8.1,-5.2 16.2,-10.3 22.6,-19.4 l -10.4,-11.6 c -13.9,3.9 -30.2,6.4 -45.9,8.4 -15.8,2 -31.5,3.4 -47,4 -15.5,0.4 -30.7,0 -45.2,-2.4 -14.5,-2.3 -27.7,-6.8 -40.3,-16.2 l -12.8,9"
         style="fill:#102048;fill-opacity:1;fill-rule:nonzero;stroke:none"
         id="path150" />
      <path
         d="m 21567.5,11835 c -66.3,0 -120,53.7 -120,120 0,66.3 53.7,120 120,120 66.3,0 120,-53.7 120,-120 0,-66.3 -53.7,-120 -120,-120"
         style="fill:#f59872;fill-opacity:1;fill-rule:nonzero;stroke:none"
         id="path152" />
      <path
         d="m 20960,11772.4 h -2.8 v 0 c -15.2,54.6 -20.1,112.5 -20.1,164 0,27 1.4,52.3 3.3,74.4 6.4,1.2 12.8,1.6 19.6,1.6 66.4,0 120,-53.6 120,-120 0,-66 -53.6,-120 -120,-120"
         style="fill:#f59872;fill-opacity:1;fill-rule:nonzero;stroke:none"
         id="path154" />
      <path
         d="m 21547.7,9076.8 c -241.5,0 -495.2,95.9 -622.1,302.4 l 5.2,16.4 c 2.6,-1.1 5.2,-2.3 7.8,-3.5 196,-85.8 380.4,-124.2 574.2,-124.2 0,0 0.1,0 0.2,0 v 0 0 c 0.1,0 0.2,0 0.3,0 168.7,0 344.3,29.1 541,81 5.3,1.4 10.7,2.9 16.1,4.3 1,0.3 2,0.6 3,0.8 2.3,0.6 4.5,1.2 6.8,1.9 1.1,0.3 2.3,0.6 3.4,0.9 l 6.8,-20.8 c -84,-168.3 -307.6,-259.2 -542.7,-259.2"
         style="fill:#162b62;fill-opacity:1;fill-rule:nonzero;stroke:none"
         id="path156" />
      <path
         d="m 21513,9267.9 v 0 c 0.1,0 0.2,0 0.3,0 -0.1,0 -0.2,0 -0.3,0 m -0.2,0 c -193.8,0 -378.2,38.4 -574.2,124.2 196,-85.8 380.4,-124.2 574.2,-124.2 m 541.5,81 c 5.3,1.4 10.7,2.9 16.1,4.3 -5.4,-1.4 -10.8,-2.9 -16.1,-4.3 m 19.1,5.1 c 2.3,0.6 4.5,1.2 6.8,1.9 -2.3,-0.7 -4.5,-1.3 -6.8,-1.9"
         style="fill:#69404e;fill-opacity:1;fill-rule:nonzero;stroke:none"
         id="path158" />
      <path
         d="m 20639.7,10027 c -76.1,163.8 -122.3,394.5 -141.3,705.4 l 29.9,1.9 c 18.8,-307.1 64.2,-534.3 138.6,-694.6 l -27.2,-12.7"
         style="fill:#6f3428;fill-opacity:1;fill-rule:nonzero;stroke:none"
         id="path160" />
      <path
         d="m 22347.9,9883 -29.1,7.3 c 4.4,17.5 8.9,34.8 13.3,52.1 42.8,164.8 86.9,335.2 59.6,696.5 l 29.9,2.2 c 27.7,-366.2 -17.1,-539.1 -60.4,-706.3 -4.5,-17.2 -8.9,-34.4 -13.3,-51.8"
         style="fill:#6f3428;fill-opacity:1;fill-rule:nonzero;stroke:none"
         id="path162" />
      <path
         d="m 9995,10755 c 54,121.7 31.1,272.4 -215,507.5 l -20,-312.5 235,-195"
         style="fill:#6f3428;fill-opacity:1;fill-rule:nonzero;stroke:none"
         id="path164" />
      <path
         d="m 10565.1,11408.5 c -11.1,-4.8 -485,-341.6 -506.8,-349.9 -11.3,-4.3 -198.13,116.5 -232.83,171.6 -6.49,10.3 65.5,575.9 128.51,548.9 80.62,-34.7 39.48,-192 36.7,-242.5 14.92,1.1 8,1.6 23.22,2.7 1,0.1 1.8,-0.1 3,-0.1 70.3,118.6 140.7,237.4 211,356.1 4,7 9.3,11.7 15.1,14.7 20.7,10.7 43.7,-6 45.4,-28.9 4.8,-68.9 -64.2,-216.9 -91.3,-274.6 75.4,63.4 186.4,177.7 264.4,238.2 36.2,27.9 71.8,-15.4 45,-58 -25,-40 -161.2,-197.9 -219.7,-257 63.5,28.9 248.9,154.1 258.8,145.5 25.7,-2.1 46.8,-33 23,-57 -76.8,-77.8 -136.4,-138.7 -226.2,-198.8 77.1,10.7 129.2,24.3 202.6,55.8 42,18.2 62,-48.8 20.1,-66.7"
         style="fill:#f9b384;fill-opacity:1;fill-rule:nonzero;stroke:none"
         id="path166" />
      <path
         d="m 9858.9,11369.5 -173.9,-237.4 101.22,-543.8 456.38,625.7 -383.7,155.5"
         style="fill:#f9b384;fill-opacity:1;fill-rule:nonzero;stroke:none"
         id="path168" />
      <path
         d="m 10057.7,11327.5 -20.3,8.6 c 37.4,88.5 -32.6,173.6 -33.3,174.5 l 16.9,14.1 c 3.3,-3.8 79.3,-96.5 36.7,-197.2"
         style="fill:#e28b6d;fill-opacity:1;fill-rule:nonzero;stroke:none"
         id="path170" />
      <path
         d="m 10313.3,11364.6 c -37.4,95.2 -89.6,156.4 -159.8,187.1 l 8.9,20.2 c 74.7,-32.7 132.4,-99.8 171.4,-199.3 l -20.5,-8"
         style="fill:#e28b6d;fill-opacity:1;fill-rule:nonzero;stroke:none"
         id="path172" />
      <path
         d="m 7741.67,11667.2 c 126.56,19.7 327.48,9.3 524.44,-23.1 248.15,-40.8 464.58,-191.8 596.11,-406.1 l 341.11,-550.8 576.67,575.3 c 29.76,-199.3 102.57,-367.6 215,-507.5 l -641.65,-675.2 c -108.85,-98.1 -273.34,-101.3 -385.85,-7.3 l -447.5,331.4 -500,156.6 -278.33,1106.7"
         style="fill:#ee6f57;fill-opacity:1;fill-rule:nonzero;stroke:none"
         id="path174" />
      <path
         d="m 7386.5,3642.3 282.13,435.1 -358.63,303.1 -263.8,-402.6 c 89.07,-120.4 204.07,-234.6 340.3,-335.6"
         style="fill:#e28b6d;fill-opacity:1;fill-rule:nonzero;stroke:none"
         id="path176" />
      <path
         d="m 7386.5,3642.3 c -136.23,101 -251.23,215.2 -340.3,335.6 L 6740,3510.5 7575.93,2764 C 7630,3000.5 7472.2,3386.4 7340,3570.5 l 46.5,71.8"
         style="fill:#102048;fill-opacity:1;fill-rule:nonzero;stroke:none"
         id="path178" />
      <path
         d="m 8553.33,2767.2 c -160,186.7 -540,313.3 -753.33,360 l -4.27,102.4 c -133.38,0.8 -273.04,16.4 -396.9,49.2 l 27.84,-511.6 h 1126.66"
         style="fill:#1f3c88;fill-opacity:1;fill-rule:nonzero;stroke:none"
         id="path180" />
      <path
         d="m 7795.73,3229.6 -22.4,537.6 -400,-20 25.5,-468.4 c 123.86,-32.8 263.52,-48.4 396.9,-49.2"
         style="fill:#f9b384;fill-opacity:1;fill-rule:nonzero;stroke:none"
         id="path182" />
      <path
         d="M 8843.83,7282.9 8570,9140.5 l -1000,-50 206.79,-1726.3 0.12,-2.3 229.71,-523.1 c 25.71,-59.2 27.68,-125.9 5.51,-186.4 l -235.34,-633.6 -0.03,5.2 -786.76,-1823.5 660,-510 1025.03,2336.2 c 173.14,394.6 231.64,829.9 168.8,1256.2"
         style="fill:#1f3c88;fill-opacity:1;fill-rule:nonzero;stroke:none"
         id="path184" />
      <path
         d="m 6960,9160.5 -110.54,-696.4 c -59.37,-374 -67.97,-754.3 -25.57,-1130.6 l 429.44,-3859.6 h 700 l -66.66,4606.1 760,526.7 L 8560,9200 6960,9160.5"
         style="fill:#708cd5;fill-opacity:1;fill-rule:nonzero;stroke:none"
         id="path186" />
      <path
         d="m 6760,8894 c 0,0 -120,86.4 -30,236.4 2.8,4.8 5.6,10.8 8,18 21.6,62 24.4,206 17.6,377.2 -16.4,405.2 -85.6,964.8 -85.6,964.8 l 170,760 353.2,336.8 866.8,6.8 433.2,-580 113.59,-1333.6 c 0,0 20,-220 126.42,-446.4 C 8928.4,8819.6 6926.4,8734.8 6760,8894"
         style="fill:#ee6f57;fill-opacity:1;fill-rule:nonzero;stroke:none"
         id="path188" />
      <path
         d="m 8411.68,10532.6 -33.33,673.3 29.97,1.5 33.33,-673.3 -29.97,-1.5"
         style="fill:#6f3428;fill-opacity:1;fill-rule:nonzero;stroke:none"
         id="path190" />
      <path
         d="m 8782.79,9573.5 -1003.73,-141.2 8.68,1394.9 1003.73,141.2 -8.68,-1394.9"
         style="fill:#f6f5f5;fill-opacity:1;fill-rule:nonzero;stroke:none"
         id="path192" />
      <path
         d="m 7972.84,10548.4 -5.94,44.2 684.15,97.1 5.93,-44.2 -684.14,-97.1"
         style="fill:#708cd5;fill-opacity:1;fill-rule:nonzero;stroke:none"
         id="path194" />
      <path
         d="m 7971.97,10358.6 -5.93,44.2 684.14,97.1 5.93,-44.2 -684.14,-97.1"
         style="fill:#708cd5;fill-opacity:1;fill-rule:nonzero;stroke:none"
         id="path196" />
      <path
         d="m 7976.46,10157.5 -5.93,44.3 684.16,97.1 5.94,-44.2 -684.17,-97.2"
         style="fill:#708cd5;fill-opacity:1;fill-rule:nonzero;stroke:none"
         id="path198" />
      <path
         d="m 7975.47,9939.8 -5.93,44.3 684.16,97.1 5.93,-44.2 -684.16,-97.2"
         style="fill:#d3dfff;fill-opacity:1;fill-rule:nonzero;stroke:none"
         id="path200" />
      <path
         d="m 7974.56,9738.8 -5.94,44.3 684.14,97.1 5.94,-44.2 -684.14,-97.2"
         style="fill:#d3dfff;fill-opacity:1;fill-rule:nonzero;stroke:none"
         id="path202" />
      <path
         d="m 7475,9530.5 c 0,0 265,231.2 118.33,589.5 L 7310,9800.7 7475,9530.5"
         style="fill:#6f3428;fill-opacity:1;fill-rule:nonzero;stroke:none"
         id="path204" />
      <path
         d="m 6882.38,9837.3 32.42,896.6 c 100.53,-222.4 193.81,-648.2 110.06,-845.2 -21.12,-49.7 -104.82,-28.2 -142.48,-51.4"
         style="fill:#c85d49;fill-opacity:1;fill-rule:nonzero;stroke:none"
         id="path206" />
      <path
         d="m 6738,9148.4 c 14.93,42.9 20.88,124.9 20.88,228.1 0,46 -1.18,96.3 -3.28,149.1 l 719.6,4.8 c 0,0 -139.6,-312 -737.2,-382"
         style="fill:#c85d49;fill-opacity:1;fill-rule:nonzero;stroke:none"
         id="path208" />
      <path
         d="m 7769.65,10173.8 -464.08,-178.6 17.88,-410.2 557.3,235.1 -111.1,353.7"
         style="fill:#f9b384;fill-opacity:1;fill-rule:nonzero;stroke:none"
         id="path210" />
      <path
         d="m 8295.35,10075.4 c -16.53,-3.5 -33.43,-5.1 -50.16,-7.6 22.6,-30.1 11.62,-87.8 -38.53,-95.9 -3.78,-0.6 -7.6,-1 -11.38,-1.6 4.56,-17.8 3.51,-32.1 -8.97,-48.4 -8.41,-11.1 -80.14,-59.2 -109.3,-73.1 -438.15,-208.6 -512.53,30.8 -491.36,113.5 16.46,63.9 84.73,137.6 140.42,195.9 177.93,150.2 289.44,213.4 469.01,243.1 72.2,12 64.07,-57.3 4.45,-94 -27.46,-17 -58.66,-32 -88.78,-41.6 -1.2,-1.3 -2.59,-2.6 -4.21,-3.6 -47.72,-34.1 -92.82,-71.1 -135.15,-111.2 57.37,1.6 365.29,36.8 396.85,-9.1 10.98,-16 -31.42,-57.6 -72.89,-66.4"
         style="fill:#f9b384;fill-opacity:1;fill-rule:nonzero;stroke:none"
         id="path212" />
      <path
         d="m 7994.65,10034.9 -1.92,22.2 251.5,21.8 1.91,-22.2 -251.49,-21.8"
         style="fill:#e28b6d;fill-opacity:1;fill-rule:nonzero;stroke:none"
         id="path214" />
      <path
         d="m 7995.32,9929.5 -3.25,22 201.59,29.8 3.25,-22 -201.59,-29.8"
         style="fill:#e28b6d;fill-opacity:1;fill-rule:nonzero;stroke:none"
         id="path216" />
      <path
         d="m 7446.67,11707.2 c -242.16,-19.5 -459.19,-96.4 -641.9,-200.8 -291.81,-166.8 -473.02,-475.9 -481.43,-812 -7.1,-284.3 -16.7,-668.2 -24.3,-972.1 -6.27,-250.8 225.85,-439.9 470.27,-383.3 L 7475,9530.5 c -23.14,183.5 31.57,384.4 130,595 l -730,-115 18.33,716.7 680,133.3 -126.66,846.7"
         style="fill:#ee6f57;fill-opacity:1;fill-rule:nonzero;stroke:none"
         id="path218" />
      <path
         d="m 6685.64,9935 -11.68,27.6 c 219.69,92.8 612.11,143.8 929.44,177.8 l 3.2,-29.8 c -315.28,-33.8 -704.89,-84.3 -920.96,-175.6"
         style="fill:#6f3428;fill-opacity:1;fill-rule:nonzero;stroke:none"
         id="path220" />
      <path
         d="m 7649.69,11237.6 c -94.76,0 -187.05,31.9 -259.18,90.8 l 18.98,23.2 c 78.66,-64.2 183.37,-93.8 287.32,-81.2 94.84,11.5 175.76,56 227.87,125.3 l 23.97,-18 c -57.05,-75.9 -145.21,-124.6 -248.23,-137.1 -16.92,-2 -33.87,-3 -50.73,-3"
         style="fill:#6f3428;fill-opacity:1;fill-rule:nonzero;stroke:none"
         id="path222" />
      <path
         d="M 7866.79,12097.5 V 11738 c 0,-15.4 -1.22,-30.5 -3.68,-45.1 -20.55,-135.5 -133.1,-238.9 -268.67,-238.9 -150.34,0 -271.94,127 -271.94,284 v 359.5 h 544.29"
         style="fill:#f9b384;fill-opacity:1;fill-rule:nonzero;stroke:none"
         id="path224" />
      <path
         d="m 7866.8,11969.6 v -250.8 c 0,-14.4 -1.2,-28.4 -3.6,-42 -321.2,-6.8 -423.2,265.7 -423.2,265.7 l 426.8,27.1"
         style="fill:#102048;fill-opacity:1;fill-rule:nonzero;stroke:none"
         id="path226" />
      <path
         d="m 8091.6,12106.8 c -8.8,-93.2 -44.8,-188.8 -138,-257.6 -133.6,-99.2 -427.21,-123.6 -706.41,332.4 l -7.19,634.4 443.21,73.2 365.99,-154 -12,-310 c 0,0 18.8,-42.4 34.8,-106.4 14.4,-58.4 26.8,-134.4 19.6,-212"
         style="fill:#f9b384;fill-opacity:1;fill-rule:nonzero;stroke:none"
         id="path228" />
      <path
         d="m 7325.42,12253.7 c -29.88,178.5 42.89,321.9 171.62,390.5 188.12,-65.2 469.76,-91.3 610.01,38.9 150.24,112.6 111.03,501 -222.81,490.6 -123.18,-17.1 -172.39,-83.1 -184.92,-173.3 -561.21,335.2 -965.1,-467.2 -502.19,-721.8 l 128.29,-24.9"
         style="fill:#102048;fill-opacity:1;fill-rule:nonzero;stroke:none"
         id="path230" />
      <path
         d="m 7398.99,12183.9 c 4.71,-91.5 -66.3,-143.8 -139.51,-147.5 -73.22,-3.7 -169.88,91.5 -174.58,183 -4.71,91.5 57.71,135.2 130.92,138.9 73.22,3.7 178.47,-83 183.17,-174.4"
         style="fill:#f9b384;fill-opacity:1;fill-rule:nonzero;stroke:none"
         id="path232" />
      <path
         d="m 7297.92,12206.1 c -9.8,13.1 -19.65,26.2 -30.06,37.8 -10.45,11.5 -21.64,22 -33.46,27.8 -11.75,5.9 -23.16,6.6 -36,2.2 -12.73,-4.9 -25.69,-14 -38.82,-24.2 l -9.16,7.3 c 7.66,15.8 19.37,30.6 36.74,40.7 8.79,4.9 19.3,8 30.14,8.2 10.83,-0.1 21.55,-2.8 30.56,-7.6 18.14,-9.5 30.84,-23.9 40.46,-39 9.63,-15.2 16.64,-31.2 20.43,-48.7 l -10.83,-4.5"
         style="fill:#e28b6d;fill-opacity:1;fill-rule:nonzero;stroke:none"
         id="path234" />
      <path
         d="m 7917.14,12381.6 c 1.94,-25.9 15.73,-46 30.78,-44.9 15.07,1.2 25.7,23.2 23.76,49.1 -1.94,25.9 -15.72,46 -30.78,44.9 -15.07,-1.2 -25.7,-23.1 -23.76,-49.1"
         style="fill:#102048;fill-opacity:1;fill-rule:nonzero;stroke:none"
         id="path236" />
      <path
         d="m 7626.89,12355.1 c 1.94,-26 15.72,-46.1 30.79,-44.9 15.05,1.1 25.69,23.1 23.75,49.1 -1.94,25.9 -15.72,46 -30.79,44.8 -15.05,-1.1 -25.69,-23.1 -23.75,-49"
         style="fill:#102048;fill-opacity:1;fill-rule:nonzero;stroke:none"
         id="path238" />
      <path
         d="m 7803.47,12347.7 c 13,-18.7 28.96,-34.8 45.34,-51.3 16.4,-16.5 33.45,-32.8 48.36,-53.2 7.21,-10.4 14.17,-22.1 16.71,-37.1 1.07,-7.5 0.57,-15.7 -2.07,-23.2 -2.55,-7.4 -7.1,-13.8 -11.71,-18.8 -17.01,-18 -36.63,-32.9 -59.35,-42.8 l -5.02,8.9 c 17.4,14.5 33.5,31.1 47.01,48.6 5.74,8 7.92,14.9 5.98,23.1 -1.4,8.3 -6.73,17.4 -12.86,26.2 -12.54,17.8 -28.84,34.8 -43.71,53.3 -14.91,18.4 -29.7,38.4 -37.87,61.8 l 9.19,4.5"
         style="fill:#102048;fill-opacity:1;fill-rule:nonzero;stroke:none"
         id="path240" />
      <path
         d="m 7922.67,12025.3 c -15.46,-11.7 -33.3,-18.2 -51.99,-21.5 -18.65,-3.4 -38,-2.8 -56.66,0.8 -18.49,4.1 -36.47,10.7 -52.37,20.5 -8.23,4.4 -15.29,10.6 -22.7,16 -6.89,6.2 -13.4,12.7 -19.47,19.5 l 6.5,7.9 c 8.16,-3.7 15.53,-8.2 23.16,-12.2 l 11.56,-5.5 c 3.76,-1.9 7.49,-3.9 11.48,-5.3 3.93,-1.4 7.74,-3.1 11.57,-4.8 3.82,-1.6 7.9,-2.6 11.78,-4 7.68,-3.1 15.85,-4.4 23.74,-6.6 16.05,-3.4 32.4,-4.6 48.91,-4.1 16.4,0.6 33.38,3.3 49.29,8.1 l 5.2,-8.8"
         style="fill:#102048;fill-opacity:1;fill-rule:nonzero;stroke:none"
         id="path242" />
      <path
         d="m 7988.9,12463 c -12.69,4.3 -23.92,7.8 -35.13,9.4 -11.09,1.9 -21.86,2.4 -32.3,1.3 -10.44,-1 -20.45,-3.5 -30.26,-7.3 -9.84,-4 -19.25,-9.5 -29.53,-17.6 l -13.85,7.2 c 2.15,15.7 11.84,30.2 24.79,40.3 12.98,10.2 29.2,16 45.38,17.2 32.45,2.7 65.29,-12.7 81.05,-38.6 l -10.15,-11.9"
         style="fill:#102048;fill-opacity:1;fill-rule:nonzero;stroke:none"
         id="path244" />
      <path
         d="m 7744.07,12433.8 c -15.96,5.5 -30.44,9.9 -45.25,11.9 -14.66,2.3 -29.47,1.9 -44.28,0.5 -14.82,-1.6 -29.73,-4.7 -44.75,-8.7 -14.88,-4 -30.34,-8.9 -44.45,-15 l -11.22,10.9 c 10.68,17.3 26.18,28.1 42.62,36.9 16.59,8.5 34.95,13.9 53.97,15.6 18.95,1.6 38.76,0 56.91,-7 18.06,-7 34.29,-18.1 45.89,-32.6 l -9.44,-12.5"
         style="fill:#102048;fill-opacity:1;fill-rule:nonzero;stroke:none"
         id="path246" />
      <g
         id="g248">
        <g
           id="g250"
           clip-path="url(#clipPath254)">
          <path
             d="m 7447.37,12051.7 h 219.938 v 215.348 H 7447.37 Z"
             style="fill:#f59872;fill-opacity:1;fill-rule:nonzero;stroke:none"
             id="path256" />
        </g>
      </g>
      <path
         d="m 8091.6,12106.8 c -57.2,2.8 -103.2,48.8 -103.6,106.4 -0.8,51.2 35.61,94.4 84,105.6 11.47,-46.5 21.68,-104.2 21.71,-165 0.01,-15.5 -0.65,-31.2 -2.11,-47 v 0"
         style="fill:#f59872;fill-opacity:1;fill-rule:nonzero;stroke:none"
         id="path258" />
      <path
         d="m 26040,2820.8 h 40 v 5200 h -40 z"
         style="fill:#102048;fill-opacity:1;fill-rule:nonzero;stroke:none"
         id="path260" />
      <path
         d="m 28346.7,7876.2 h -4573.4 v 238 h 4573.4 v -238"
         style="fill:#d3dfff;fill-opacity:1;fill-rule:nonzero;stroke:none"
         id="path262" />
      <path
         d="m 27027.6,2736 h -1935.2 c 0,171.1 138.7,309.7 309.8,309.7 h 1315.6 c 171.1,0 309.8,-138.6 309.8,-309.7"
         style="fill:#708cd5;fill-opacity:1;fill-rule:nonzero;stroke:none"
         id="path264" />
      <path
         d="m 26450,8114.2 h -1366.7 v 200 H 26450 v -200"
         style="fill:#102048;fill-opacity:1;fill-rule:nonzero;stroke:none"
         id="path266" />
      <path
         d="m 27099.2,8114.2 h -1559.1 l 640.6,1521.6 h 1559.1 l -640.6,-1521.6"
         style="fill:#708cd5;fill-opacity:1;fill-rule:nonzero;stroke:none"
         id="path268" />
      <path
         d="m 0,2736 h 30000 v 48 H 0 Z"
         style="fill:#102048;fill-opacity:1;fill-rule:nonzero;stroke:none"
         id="path270" />
      <path
         d="m 25124.7,14461.2 c -694.2,0 -1257,-562.8 -1257,-1256.9 0,-198.9 46.4,-386.8 128.6,-553.9 l -375.2,-403 541.1,148.8 c 230.6,-274.3 576.1,-448.8 962.5,-448.8 694.1,0 1256.9,562.7 1256.9,1256.9 0,694.1 -562.8,1256.9 -1256.9,1256.9"
         style="fill:#ffffff;fill-opacity:1;fill-rule:nonzero;stroke:none"
         id="path272" />
      <path
         d="m 25124.7,14461.2 v 20 c -705.3,0 -1276.9,-571.7 -1277,-1276.9 0,-202 47.1,-393 130.6,-562.8 l 18,8.9 -14.6,13.6 -423.3,-454.6 609.1,167.5 -5.3,19.3 -15.3,-12.9 c 234.2,-278.6 585.3,-455.9 977.8,-455.9 705.2,0 1276.9,571.6 1276.9,1276.9 0,705.2 -571.7,1276.9 -1276.9,1276.9 v -20 -20 c 341.6,0 650.7,-138.4 874.6,-362.3 223.9,-223.9 362.3,-533 362.3,-874.6 0,-341.7 -138.4,-650.8 -362.3,-874.7 -223.9,-223.8 -533,-362.2 -874.6,-362.2 -380.3,0 -720.2,171.6 -947.2,441.6 l -8.2,9.9 -485.5,-133.6 336.5,361.5 -6.1,12.4 c -80.9,164.5 -126.5,349.4 -126.5,545.1 0.1,341.6 138.5,650.7 362.3,874.6 223.9,223.9 533,362.3 874.7,362.3 v 20"
         style="fill:#708cd5;fill-opacity:1;fill-rule:nonzero;stroke:none"
         id="path274" />
      <path
         d="m 24700,13204.3 c 0,-95.8 -77.6,-173.4 -173.3,-173.4 -95.8,0 -173.4,77.6 -173.4,173.4 0,95.7 77.6,173.3 173.4,173.3 95.7,0 173.3,-77.6 173.3,-173.3"
         style="fill:#708cd5;fill-opacity:1;fill-rule:nonzero;stroke:none"
         id="path276" />
      <path
         d="m 25293.3,13204.3 c 0,-95.8 -77.6,-173.4 -173.3,-173.4 -95.7,0 -173.3,77.6 -173.3,173.4 0,95.7 77.6,173.3 173.3,173.3 95.7,0 173.3,-77.6 173.3,-173.3"
         style="fill:#d3dfff;fill-opacity:1;fill-rule:nonzero;stroke:none"
         id="path278" />
      <path
         d="m 25886.7,13204.3 c 0,-95.8 -77.6,-173.4 -173.4,-173.4 -95.7,0 -173.3,77.6 -173.3,173.4 0,95.7 77.6,173.3 173.3,173.3 95.8,0 173.4,-77.6 173.4,-173.3"
         style="fill:#d3dfff;fill-opacity:1;fill-rule:nonzero;stroke:none"
         id="path280" />
      <path
         d="m 4409.21,14783.2 c 694.18,0 1256.92,-562.7 1256.92,-1256.9 0,-198.8 -46.34,-386.7 -128.55,-553.9 l 375.21,-403 -541.12,148.8 c -230.57,-274.3 -576.07,-448.8 -962.46,-448.8 -694.17,0 -1256.91,562.8 -1256.91,1256.9 0,694.2 562.74,1256.9 1256.91,1256.9"
         style="fill:#ffffff;fill-opacity:1;fill-rule:nonzero;stroke:none"
         id="path282" />
      <path
         d="m 4409.21,14783.2 v -20 c 341.63,0 650.73,-138.4 874.63,-362.2 223.87,-223.9 362.28,-533 362.29,-874.7 -0.01,-195.7 -45.6,-380.6 -126.49,-545 l -6.09,-12.4 336.55,-361.5 -485.5,133.5 -8.25,-9.8 c -226.97,-270 -566.85,-441.7 -947.14,-441.7 -341.62,0 -650.73,138.4 -874.63,362.3 -223.87,223.9 -362.27,533 -362.28,874.6 0.01,341.7 138.41,650.8 362.28,874.7 223.9,223.8 533,362.2 874.63,362.2 v 20 20 c -705.22,0 -1276.9,-571.6 -1276.91,-1276.9 0.01,-705.2 571.68,-1276.9 1276.91,-1276.9 392.49,0 743.61,177.3 977.77,456 l -15.31,12.8 -5.31,-19.3 609.12,-167.5 -423.26,454.7 -14.64,-13.7 17.95,-8.8 c 83.51,169.8 130.6,360.8 130.6,562.7 -0.02,705.3 -571.69,1276.9 -1276.92,1276.9 v -20"
         style="fill:#708cd5;fill-opacity:1;fill-rule:nonzero;stroke:none"
         id="path284" />
      <path
         d="m 4826.67,13560 c 0,-95.7 77.6,-173.3 173.33,-173.3 95.73,0 173.33,77.6 173.33,173.3 0,95.7 -77.6,173.3 -173.33,173.3 -95.73,0 -173.33,-77.6 -173.33,-173.3"
         style="fill:#708cd5;fill-opacity:1;fill-rule:nonzero;stroke:none"
         id="path286" />
      <path
         d="m 4233.33,13560 c 0,-95.7 77.61,-173.3 173.34,-173.3 95.73,0 173.33,77.6 173.33,173.3 0,95.7 -77.6,173.3 -173.33,173.3 -95.73,0 -173.34,-77.6 -173.34,-173.3"
         style="fill:#d3dfff;fill-opacity:1;fill-rule:nonzero;stroke:none"
         id="path288" />
      <path
         d="m 3640,13560 c 0,-95.7 77.6,-173.3 173.33,-173.3 95.73,0 173.34,77.6 173.34,173.3 0,95.7 -77.61,173.3 -173.34,173.3 -95.73,0 -173.33,-77.6 -173.33,-173.3"
         style="fill:#d3dfff;fill-opacity:1;fill-rule:nonzero;stroke:none"
         id="path290" />
    </g>
  </g>
</svg>
