<?xml version="1.0" encoding="UTF-8" standalone="no"?>
<!-- Created with Inkscape (http://www.inkscape.org/) -->

<svg
   version="1.1"
   id="svg2"
   width="3120.7334"
   height="2080"
   viewBox="0 0 3120.7334 2080"
   sodipodi:docname="reshot-illustration-social-media-management-agency-4QS9ZWCVTP.eps"
   xmlns:inkscape="http://www.inkscape.org/namespaces/inkscape"
   xmlns:sodipodi="http://sodipodi.sourceforge.net/DTD/sodipodi-0.dtd"
   xmlns="http://www.w3.org/2000/svg"
   xmlns:svg="http://www.w3.org/2000/svg">
  <defs
     id="defs6" />
  <sodipodi:namedview
     id="namedview4"
     pagecolor="#ffffff"
     bordercolor="#000000"
     borderopacity="0.25"
     inkscape:showpageshadow="2"
     inkscape:pageopacity="0.0"
     inkscape:pagecheckerboard="0"
     inkscape:deskcolor="#d1d1d1" />
  <g
     id="g8"
     inkscape:groupmode="layer"
     inkscape:label="ink_ext_XXXXXX"
     transform="matrix(1.3333333,0,0,-1.3333333,0,2080)">
    <g
       id="g10"
       transform="scale(0.1)">
      <path
         d="M 0,0 H 23398.8 V 15600 H 0 Z"
         style="fill:#483498;fill-opacity:1;fill-rule:nonzero;stroke:none"
         id="path12" />
      <path
         d="m 8749.6,12873.5 c 0,-209.2 -169.61,-378.8 -378.82,-378.8 -209.22,0 -378.82,169.6 -378.82,378.8 0,209.2 169.6,378.9 378.82,378.9 209.21,0 378.82,-169.7 378.82,-378.9"
         style="fill:#d4ccea;fill-opacity:1;fill-rule:nonzero;stroke:none"
         id="path14" />
      <path
         d="m 9701.75,13006 c 0,-140 -113.53,-253.6 -253.59,-253.6 -140.05,0 -253.58,113.6 -253.58,253.6 0,140.1 113.53,253.6 253.58,253.6 140.06,0 253.59,-113.5 253.59,-253.6"
         style="fill:#d4ccea;fill-opacity:1;fill-rule:nonzero;stroke:none"
         id="path16" />
      <path
         d="m 8945.48,3330.7 c 0,0 -2577.14,-302.5 -2450.39,-3245.8992 h 2070.15 c 0,0 -971.7,1619.2992 380.24,3245.8992"
         style="fill:#d4ccea;fill-opacity:1;fill-rule:nonzero;stroke:none"
         id="path18" />
      <path
         d="m 8229.06,2869.8 -68.89,34.9 c -4.04,-7 -26.82,-33.9 -48.85,-59.9 -122.92,-145.1 -410.77,-484.8 -607.52,-966.9 -24.8,-60.8 -47.15,-121.6 -67.25,-182.4 l -310.21,391.7 -60.57,-48 342.94,-433 C 7305.5,1253.7 7281.18,901.102 7335.73,551.699 l -422.54,235.602 -37.62,-67.5 454.79,-253.5 15.19,27.199 c 25.65,-141.301 64.07,-282.098 115.61,-422.0977 l 72.5,26.6993 C 7422.3,400.602 7372.67,704 7384.36,1007.2 l 539.13,449 -49.44,59.4 -483.2,-402.5 c 48.3,563.4 308.59,1126.1 779.42,1681.7 38.65,45.7 52.34,62.1 58.79,75"
         style="fill:#ffffff;fill-opacity:1;fill-rule:nonzero;stroke:none"
         id="path20" />
      <path
         d="m 9897.69,2696.9 c 0,0 2076.01,-243.6 1973.91,-2614.7008 H 10204 c 0,0 782.8,1304.4008 -306.31,2614.7008"
         style="fill:#d4ccea;fill-opacity:1;fill-rule:nonzero;stroke:none"
         id="path22" />
      <path
         d="m 10474.8,2325.7 55.5,28.1 c 3.3,-5.7 21.6,-27.3 39.4,-48.3 99,-116.8 330.9,-390.5 489.3,-778.9 20,-48.9 38,-97.9 54.2,-146.9 l 249.9,315.5 48.8,-38.6 -276.2,-348.9 c 83.1,-283.9 102.7,-567.899 58.7,-849.302 l 340.4,189.704 30.3,-54.403 -366.3,-204.199 -12.3,22 c -20.6,-113.898 -51.6,-227.301 -93.1,-340.0977 l -58.4,21.5 C 11124.7,336.602 11164.7,581 11155.3,825.199 L 10721,1187 l 39.8,47.8 389.2,-324.198 c -38.9,453.798 -248.5,907.098 -627.8,1354.698 -31.2,36.8 -42.2,50 -47.4,60.4"
         style="fill:#ffffff;fill-opacity:1;fill-rule:nonzero;stroke:none"
         id="path24" />
      <path
         d="m 9977.87,1801.5 c 0,0 -1363.38,-160 -1296.33,-1717.1992 h 1095.17 c 0,0 -514.06,856.6992 201.16,1717.1992"
         style="fill:#d4ccea;fill-opacity:1;fill-rule:nonzero;stroke:none"
         id="path26" />
      <path
         d="m 9598.86,1557.7 -36.44,18.5 c -2.14,-3.8 -14.19,-18 -25.85,-31.7 -65.02,-76.8 -217.3,-256.5 -321.39,-511.6 -13.12,-32.1 -24.94,-64.298 -35.58,-96.498 l -164.1,207.298 -32.05,-25.4 181.43,-229.101 c -54.61,-186.5 -67.47,-373 -38.61,-557.797 L 8902.73,456 l -19.9,-35.699 240.6,-134.102 8.03,14.403 c 13.57,-74.801 33.89,-149.301 61.16,-223.3012 l 38.36,14.1015 c -58.92,159.9997 -85.17,320.4957 -78.99,480.8987 l 285.21,237.601 -26.15,31.399 -255.62,-212.903 c 25.55,298.004 163.25,595.702 412.33,889.602 20.45,24.2 27.69,32.9 31.1,39.7"
         style="fill:#ffffff;fill-opacity:1;fill-rule:nonzero;stroke:none"
         id="path28" />
      <path
         d="m 13329.3,1801.5 c 0,0 -1363.4,-160 -1296.3,-1717.1992 h 1095.2 c 0,0 -514.1,856.6992 201.1,1717.1992"
         style="fill:#d4ccea;fill-opacity:1;fill-rule:nonzero;stroke:none"
         id="path30" />
      <path
         d="m 12950.3,1557.7 -36.4,18.5 c -2.2,-3.8 -14.2,-18 -25.9,-31.7 -65,-76.8 -217.3,-256.5 -321.4,-511.6 -13.1,-32.1 -24.9,-64.298 -35.5,-96.498 l -164.2,207.298 -32,-25.4 181.4,-229.101 c -54.6,-186.5 -67.4,-373 -38.6,-557.797 L 12254.2,456 l -19.9,-35.699 240.6,-134.102 8,14.403 c 13.6,-74.801 33.9,-149.301 61.2,-223.3012 l 38.3,14.1015 c -58.9,159.9997 -85.1,320.4957 -79,480.8987 l 285.3,237.601 -26.2,31.399 -255.6,-212.903 c 25.5,298.004 163.2,595.702 412.3,889.602 20.5,24.2 27.7,32.9 31.1,39.7"
         style="fill:#ffffff;fill-opacity:1;fill-rule:nonzero;stroke:none"
         id="path32" />
      <path
         d="m 5132.95,1801.5 c 0,0 1363.38,-160 1296.32,-1717.1992 H 5334.1 c 0,0 514.07,856.6992 -201.15,1717.1992"
         style="fill:#d4ccea;fill-opacity:1;fill-rule:nonzero;stroke:none"
         id="path34" />
      <path
         d="m 5511.96,1557.7 36.44,18.5 c 2.13,-3.8 14.19,-18 25.85,-31.7 65.02,-76.8 217.3,-256.5 321.39,-511.6 13.12,-32.1 24.94,-64.298 35.58,-96.498 l 164.1,207.298 32.05,-25.4 -181.43,-229.101 c 54.6,-186.5 67.47,-373 38.61,-557.797 L 6208.09,456 l 19.9,-35.699 -240.6,-134.102 -8.03,14.403 c -13.57,-74.801 -33.9,-149.301 -61.16,-223.3012 l -38.36,14.1015 c 58.92,159.9997 85.17,320.4957 78.99,480.8987 l -285.22,237.601 26.16,31.399 255.62,-212.903 C 5929.84,926.402 5792.14,1224.1 5543.06,1518 c -20.45,24.2 -27.7,32.9 -31.1,39.7"
         style="fill:#ffffff;fill-opacity:1;fill-rule:nonzero;stroke:none"
         id="path36" />
      <path
         d="M 4719.45,0 H 0 V 3124.2 C 516.891,3814.9 1341.54,4261.9 2270.6,4261.9 3835.9,4261.9 5104.83,2993 5104.83,1427.7 5104.83,907.102 4964.42,419.301 4719.45,0"
         style="fill:#816bbc;fill-opacity:1;fill-rule:nonzero;stroke:none"
         id="path38" />
      <path
         d="M 18800.9,0 V 0 L 16044.4,1457.5 18800.9,0 m 4583.9,1457.5 H 16044.4 L 8576.57,5406.1 c -193.89,102.5 -337.78,245.12 -431.34,407.13 57.32,92.19 89.16,199.97 89.16,312.24 v 782.33 c 80.29,98.85 182.73,187.01 307.39,258.55 l 2270.42,1302.72 v -81.11 c 0,-148.25 79.1,-285.2 207.6,-359.16 L 16939,4621.4 c 35.2,-20.2 72.5,-29.5 108.8,-29.5 47.8,0 93.9,16 131.4,43.9 l 107.9,62.6 c 63.6,36.8 102.7,104.7 102.7,178.2 v 4501.15 c 0.1,139.97 -76.4,272.37 -200.5,343.98 l -2091.1,1206.67 8141.6,4671.6 h 149 l -4,-14142.5"
         style="fill:#816bbc;fill-opacity:1;fill-rule:nonzero;stroke:none"
         id="path40" />
      <path
         d="m 23400.9,10188.2 c 10.3,4.7 0,-10170.5984 0,-10170.5984 h -8021.5 c 0,0 520.6,3316.4984 4270.4,3836.0984 3749.7,519.6 1151,5152.92 3751.1,6334.5"
         style="fill:#cbc0e5;fill-opacity:1;fill-rule:nonzero;stroke:none"
         id="path42" />
      <path
         d="m 3838.08,11783.4 c -177.2,0 -347.23,14.1 -507.19,37.5 -577.26,84.4 -1125.35,307.9 -1601.34,645.2 L 1557,12588.4 C 580.395,13280.4 0,14403.1 0,15600 h 11587.5 l -491.1,-1333.8 c -178.3,-769 -946.1,-772.7 -1905.3,-772.7 -4.59,0 -9.23,0 -13.83,0 -5.24,0 -10.45,0 -15.7,0 -995.58,0 -2191.29,-4.4 -3147.15,-854.9 -736.48,-655.3 -1508.34,-855.2 -2176.34,-855.2"
         style="fill:#816bbc;fill-opacity:1;fill-rule:nonzero;stroke:none"
         id="path44" />
      <path
         d="M 7941.36,5614.89 6075.3,4534.4 c -174.91,-102.2 -394.73,23.9 -394.73,226.5 v 5597.7 c 0,215.7 114.46,415.1 300.63,523.8 l 1829.05,1059 c 187.94,109.8 424.14,-25.8 424.14,-243.5 V 6125.47 c 0,-210.17 -111.56,-404.56 -293.03,-510.58"
         style="fill:#6d64b8;fill-opacity:1;fill-rule:nonzero;stroke:none"
         id="path46" />
      <path
         d="m 5680.59,4762.5 v 5597.7 c 0,215.7 114.46,415.1 300.63,523.9 l 1846.82,1067.2 c 57.56,33.6 141.48,43.5 229.06,10.2 -224.13,114.6 -437.87,137.5 -625.04,28.1 l -1695.74,-979.9 c -186.19,-108.7 -300.63,-308.2 -300.63,-523.8 V 4829.8 c 0,-48.6 26.45,-93.4 69.04,-117 l 294.32,-169.7 c -69.77,45.7 -118.46,124.1 -118.46,219.4"
         style="fill:#20224e;fill-opacity:1;fill-rule:nonzero;stroke:none"
         id="path48" />
      <path
         d="m 6000.14,4730.5 c -86.36,0 -141.53,73.6 -141.53,198.2 v 5378.6 c 0,185.9 98.7,357.8 259.23,451.6 l 348.72,201.4 0.07,-48.4 c 0.06,-44.6 36.65,-76.4 76.52,-76.4 12.71,0 25.76,3.2 38.06,10.3 l 810.92,467.8 c 37.61,21.7 60.79,61.8 60.79,105.2 v 110.9 l 285.77,165 c 62.28,36.8 118.25,53.2 165.39,53.2 97.08,0 156.67,-69.6 156.67,-174.1 V 6189.15 c 0,-181.24 -96.2,-348.85 -252.68,-440.27 L 6117.86,4767.6 c -43.25,-25.2 -83,-37.1 -117.72,-37.1"
         style="fill:#c8b8e2;fill-opacity:1;fill-rule:nonzero;stroke:none"
         id="path50" />
      <path
         d="M 5994.92,10072.1 V 9008.69 l 920.46,532.41 v 1062.6 l -920.46,-531.6"
         style="fill:#6d64b8;fill-opacity:1;fill-rule:nonzero;stroke:none"
         id="path52" />
      <path
         d="m 6061.12,10033.8 v -910.41 l 788.07,455.83 V 10489 l -788.07,-455.2"
         style="fill:#ffffff;fill-opacity:1;fill-rule:nonzero;stroke:none"
         id="path54" />
      <path
         d="M 5994.92,6239.2 V 5175.8 l 1974.31,1144.36 v 1062.6 L 5994.92,6239.2"
         style="fill:#6d64b8;fill-opacity:1;fill-rule:nonzero;stroke:none"
         id="path56" />
      <path
         d="M 6061.12,6200.96 V 5290.5 l 1841.91,1067.79 v 909.77 L 6061.12,6200.96"
         style="fill:#ffffff;fill-opacity:1;fill-rule:nonzero;stroke:none"
         id="path58" />
      <path
         d="m 6368.46,9906.46 c -42.25,-81.55 -30.46,-171.51 26.32,-200.93 56.78,-29.41 137.07,12.85 179.31,94.4 42.25,81.55 30.46,171.5 -26.32,200.97 -56.78,29.4 -137.06,-12.9 -179.31,-94.44"
         style="fill:#6d64b8;fill-opacity:1;fill-rule:nonzero;stroke:none"
         id="path60" />
      <path
         d="m 6215.95,9136.53 c -25.64,91.43 -11.89,209.23 45.62,320.24 96.69,186.63 280.42,283.34 410.37,216.02 70.01,-36.27 110.07,-112.77 117.07,-204.79 l -573.06,-331.47"
         style="fill:#6d64b8;fill-opacity:1;fill-rule:nonzero;stroke:none"
         id="path62" />
      <path
         d="M 7936.13,11163.1 V 11031 l -859.02,-497.4 v 132 l 859.02,497.5"
         style="fill:#f0379f;fill-opacity:1;fill-rule:nonzero;stroke:none"
         id="path64" />
      <path
         d="m 7936.13,8079.96 v -320.1 L 5994.92,6648.96 v 320 l 1941.21,1111"
         style="fill:#f0379f;fill-opacity:1;fill-rule:nonzero;stroke:none"
         id="path66" />
      <path
         d="m 7943.4,10805 v -3.3 c 0,-4.6 -2.46,-8.9 -6.47,-11.2 l -578.61,-335.3 c -8.66,-5 -19.5,1.3 -19.5,11.3 v 3.2 c 0,4.6 2.46,8.9 6.47,11.2 l 578.61,335.3 c 8.66,5 19.5,-1.2 19.5,-11.2"
         style="fill:#ffffff;fill-opacity:1;fill-rule:nonzero;stroke:none"
         id="path68" />
      <path
         d="m 7671.96,10416.3 v -3.2 c 0,-4.7 -2.47,-8.9 -6.48,-11.3 l -578.61,-335.2 c -8.66,-5.1 -19.5,1.2 -19.5,11.2 v 3.2 c 0,4.7 2.47,8.9 6.48,11.3 l 578.6,335.3 c 8.66,5 19.51,-1.3 19.51,-11.3"
         style="fill:#ffffff;fill-opacity:1;fill-rule:nonzero;stroke:none"
         id="path70" />
      <path
         d="m 7945.87,10649.5 v -3.2 c 0,-4.6 -2.47,-8.9 -6.48,-11.3 l -578.6,-335.2 c -8.66,-5.1 -19.51,1.2 -19.51,11.2 v 3.2 c 0,4.7 2.47,9 6.48,11.3 l 578.6,335.3 c 8.67,5 19.51,-1.3 19.51,-11.3"
         style="fill:#ffffff;fill-opacity:1;fill-rule:nonzero;stroke:none"
         id="path72" />
      <path
         d="m 7317.84,10443.5 v -3.3 c 0,-4.6 -2.47,-8.9 -6.48,-11.2 l -224.49,-129.2 c -8.66,-5.1 -19.5,1.2 -19.5,11.2 v 3.2 c 0,4.7 2.47,9 6.48,11.3 l 224.49,129.2 c 8.66,5 19.5,-1.2 19.5,-11.2"
         style="fill:#ffffff;fill-opacity:1;fill-rule:nonzero;stroke:none"
         id="path74" />
      <path
         d="m 7658.38,10560.7 v -3.3 c 0,-4.6 -2.46,-8.9 -6.47,-11.2 l -224.5,-129.2 c -8.66,-5 -19.5,1.2 -19.5,11.2 v 3.2 c 0,4.7 2.47,9 6.48,11.3 l 224.49,129.2 c 8.66,5 19.5,-1.2 19.5,-11.2"
         style="fill:#ffffff;fill-opacity:1;fill-rule:nonzero;stroke:none"
         id="path76" />
      <path
         d="m 7317.84,10292.9 v -3.2 c 0,-4.6 -2.47,-8.9 -6.48,-11.2 l -224.49,-129.3 c -8.66,-5 -19.5,1.3 -19.5,11.3 v 3.2 c 0,4.6 2.47,8.9 6.48,11.2 l 224.49,129.3 c 8.66,5 19.5,-1.3 19.5,-11.3"
         style="fill:#ffffff;fill-opacity:1;fill-rule:nonzero;stroke:none"
         id="path78" />
      <path
         d="m 7945.87,10574.3 v -3.3 c 0,-4.6 -2.47,-8.9 -6.48,-11.2 l -224.49,-129.2 c -8.66,-5.1 -19.5,1.2 -19.5,11.2 v 3.2 c 0,4.7 2.47,8.9 6.48,11.3 l 224.48,129.2 c 8.67,5 19.51,-1.2 19.51,-11.2"
         style="fill:#ffffff;fill-opacity:1;fill-rule:nonzero;stroke:none"
         id="path80" />
      <path
         d="m 7383.23,10402.8 v -3.3 c 0,-4.6 -2.47,-8.9 -6.47,-11.2 l -289.89,-167.5 c -8.66,-5 -19.5,1.2 -19.5,11.2 v 3.3 c 0,4.6 2.47,8.9 6.48,11.2 l 289.88,167.5 c 8.66,5 19.5,-1.2 19.5,-11.2"
         style="fill:#ffffff;fill-opacity:1;fill-rule:nonzero;stroke:none"
         id="path82" />
      <path
         d="m 7945.87,10728.5 v -3.2 c 0,-4.7 -2.47,-9 -8.94,-13.8 l -224.5,-129.2 c -6.19,-2.5 -17.03,3.7 -17.03,13.7 v 3.3 c 0,4.6 2.47,8.9 6.48,11.2 l 224.48,129.2 c 8.67,5 19.51,-1.2 19.51,-11.2"
         style="fill:#ffffff;fill-opacity:1;fill-rule:nonzero;stroke:none"
         id="path84" />
      <path
         d="m 7658.38,10020.3 v -3.3 c 0,-4.6 -2.46,-8.9 -6.47,-11.2 l -224.5,-129.25 c -8.66,-5.02 -19.5,1.23 -19.5,11.24 v 3.23 c 0,4.64 2.47,8.92 6.48,11.24 l 224.49,129.24 c 8.66,5 19.5,-1.2 19.5,-11.2"
         style="fill:#ffffff;fill-opacity:1;fill-rule:nonzero;stroke:none"
         id="path86" />
      <path
         d="m 7383.23,9862.32 v -3.24 c 0,-4.63 -2.47,-8.91 -6.47,-11.24 l -289.89,-167.47 c -8.66,-5.02 -19.5,1.23 -19.5,11.24 v 3.23 c 0,4.63 2.47,8.92 6.48,11.24 l 289.88,167.48 c 8.66,5.02 19.5,-1.23 19.5,-11.24"
         style="fill:#ffffff;fill-opacity:1;fill-rule:nonzero;stroke:none"
         id="path88" />
      <path
         d="m 7945.87,10188.1 v -3.3 c 0,-4.6 -2.47,-8.9 -8.94,-13.7 l -224.5,-129.2 c -6.19,-2.6 -17.03,3.7 -17.03,13.7 v 3.2 c 0,4.7 2.47,8.9 6.48,11.3 l 224.48,129.2 c 8.67,5 19.51,-1.2 19.51,-11.2"
         style="fill:#ffffff;fill-opacity:1;fill-rule:nonzero;stroke:none"
         id="path90" />
      <path
         d="m 7943.4,10497.8 v -3.3 c 0,-4.6 -2.46,-8.9 -6.47,-11.2 L 7358.32,10148 c -8.66,-5 -19.5,1.2 -19.5,11.2 v 3.3 c 0,4.6 2.46,8.9 6.47,11.2 l 578.61,335.3 c 8.66,5 19.5,-1.2 19.5,-11.2"
         style="fill:#ffffff;fill-opacity:1;fill-rule:nonzero;stroke:none"
         id="path92" />
      <path
         d="m 7671.96,10109.1 v -3.2 c 0,-4.7 -2.47,-9 -6.48,-11.3 l -578.61,-335.27 c -8.66,-5.01 -19.5,1.23 -19.5,11.24 v 3.23 c 0,4.64 2.47,8.92 6.48,11.25 l 578.6,335.25 c 8.66,5 19.51,-1.2 19.51,-11.2"
         style="fill:#ffffff;fill-opacity:1;fill-rule:nonzero;stroke:none"
         id="path94" />
      <path
         d="m 7945.87,10342.3 v -3.2 c 0,-4.7 -2.47,-9 -6.48,-11.3 l -578.6,-335.27 c -8.66,-5.01 -19.51,1.23 -19.51,11.27 v 3.2 c 0,4.6 2.47,8.9 6.48,11.2 l 578.6,335.3 c 8.67,5 19.51,-1.2 19.51,-11.2"
         style="fill:#ffffff;fill-opacity:1;fill-rule:nonzero;stroke:none"
         id="path96" />
      <path
         d="m 7317.84,10136.2 v -3.2 c 0,-4.6 -2.47,-8.9 -6.48,-11.2 l -224.49,-129.27 c -8.66,-5.01 -19.5,1.23 -19.5,11.27 v 3.2 c 0,4.6 2.47,8.9 6.48,11.2 l 224.49,129.3 c 8.66,5 19.5,-1.3 19.5,-11.3"
         style="fill:#ffffff;fill-opacity:1;fill-rule:nonzero;stroke:none"
         id="path98" />
      <path
         d="m 7658.38,10253.4 v -3.2 c 0,-4.6 -2.46,-8.9 -6.47,-11.2 l -224.5,-129.2 c -8.66,-5.1 -19.5,1.2 -19.5,11.2 v 3.2 c 0,4.7 2.47,8.9 6.48,11.3 l 224.49,129.2 c 8.66,5 19.5,-1.2 19.5,-11.3"
         style="fill:#ffffff;fill-opacity:1;fill-rule:nonzero;stroke:none"
         id="path100" />
      <path
         d="m 7317.84,9985.7 v -3.23 c 0,-4.64 -2.47,-8.92 -6.48,-11.24 L 7086.87,9842 c -8.66,-5.02 -19.5,1.23 -19.5,11.24 v 3.24 c 0,4.62 2.47,8.91 6.48,11.24 l 224.49,129.22 c 8.66,5.06 19.5,-1.23 19.5,-11.24"
         style="fill:#ffffff;fill-opacity:1;fill-rule:nonzero;stroke:none"
         id="path102" />
      <path
         d="m 7945.87,10267 v -3.2 c 0,-4.6 -2.47,-8.9 -6.48,-11.2 l -224.49,-129.3 c -8.66,-5 -19.5,1.3 -19.5,11.3 v 3.2 c 0,4.6 2.47,8.9 6.48,11.2 l 224.48,129.3 c 8.67,5 19.51,-1.3 19.51,-11.3"
         style="fill:#ffffff;fill-opacity:1;fill-rule:nonzero;stroke:none"
         id="path104" />
      <path
         d="m 7383.23,10095.5 v -3.2 c 0,-4.6 -2.47,-8.9 -6.47,-11.3 l -289.89,-167.43 c -8.66,-5.02 -19.5,1.23 -19.5,11.24 v 3.23 c 0,4.63 2.47,8.91 6.48,11.24 l 289.88,167.52 c 8.66,5 19.5,-1.3 19.5,-11.3"
         style="fill:#ffffff;fill-opacity:1;fill-rule:nonzero;stroke:none"
         id="path106" />
      <path
         d="m 7945.87,10421.3 v -3.3 c 0,-4.6 -2.47,-8.9 -8.94,-13.7 l -224.5,-129.2 c -6.19,-2.6 -17.03,3.7 -17.03,13.7 v 3.2 c 0,4.7 2.47,8.9 6.48,11.3 l 224.48,129.2 c 8.67,5 19.51,-1.2 19.51,-11.2"
         style="fill:#ffffff;fill-opacity:1;fill-rule:nonzero;stroke:none"
         id="path108" />
      <path
         d="m 7950.94,9920.5 v -4.57 c 0,-6.54 -3.49,-12.6 -9.16,-15.88 L 6022.49,8786.1 c -12.24,-7.09 -27.57,1.74 -27.57,15.89 v 4.57 c 0,6.56 3.49,12.61 9.16,15.89 l 1919.29,1113.94 c 12.24,7.1 27.57,-1.74 27.57,-15.89"
         style="fill:#ffffff;fill-opacity:1;fill-rule:nonzero;stroke:none"
         id="path110" />
      <path
         d="m 7950.94,9778.14 v -4.56 c 0,-6.56 -3.49,-12.61 -9.16,-15.89 L 6022.49,8643.75 c -12.24,-7.1 -27.57,1.73 -27.57,15.89 v 4.56 c 0,6.55 3.49,12.61 9.16,15.89 l 1919.29,1113.94 c 12.24,7.09 27.57,-1.74 27.57,-15.89"
         style="fill:#ffffff;fill-opacity:1;fill-rule:nonzero;stroke:none"
         id="path112" />
      <path
         d="m 7950.94,9620.26 v -4.58 c 0,-6.55 -3.49,-12.6 -9.16,-15.89 L 6022.49,8485.85 c -12.24,-7.09 -27.57,1.74 -27.57,15.89 v 4.57 c 0,6.55 3.49,12.61 9.16,15.89 l 1919.29,1113.94 c 12.24,7.09 27.57,-1.74 27.57,-15.88"
         style="fill:#ffffff;fill-opacity:1;fill-rule:nonzero;stroke:none"
         id="path114" />
      <path
         d="m 7950.94,9472.95 v -4.57 c 0,-6.55 -3.49,-12.61 -9.16,-15.89 L 6022.49,8338.55 c -12.24,-7.1 -27.57,1.73 -27.57,15.88 v 4.58 c 0,6.55 3.49,12.6 9.16,15.88 l 1919.29,1113.94 c 12.24,7.1 27.57,-1.73 27.57,-15.88"
         style="fill:#ffffff;fill-opacity:1;fill-rule:nonzero;stroke:none"
         id="path116" />
      <path
         d="m 7950.94,9315.85 v -4.56 c 0,-6.56 -3.49,-12.61 -9.16,-15.89 L 6022.49,8181.45 c -12.24,-7.09 -27.57,1.74 -27.57,15.89 v 4.57 c 0,6.55 3.49,12.61 9.16,15.89 l 1919.29,1113.94 c 12.24,7.09 27.57,-1.74 27.57,-15.89"
         style="fill:#ffffff;fill-opacity:1;fill-rule:nonzero;stroke:none"
         id="path118" />
      <path
         d="m 7950.94,9146.5 v -4.57 c 0,-6.55 -3.49,-12.61 -9.16,-15.89 L 6022.49,8012.1 c -12.24,-7.1 -27.57,1.73 -27.57,15.88 v 4.57 c 0,6.55 3.49,12.61 9.16,15.89 l 1919.29,1113.94 c 12.24,7.1 27.57,-1.73 27.57,-15.88"
         style="fill:#ffffff;fill-opacity:1;fill-rule:nonzero;stroke:none"
         id="path120" />
      <path
         d="m 7950.94,9004.13 v -4.57 c 0,-6.55 -3.49,-12.6 -9.16,-15.89 L 6022.49,7869.73 c -12.24,-7.09 -27.57,1.75 -27.57,15.89 v 4.57 c 0,6.55 3.49,12.61 9.16,15.89 l 1919.29,1113.94 c 12.24,7.1 27.57,-1.74 27.57,-15.89"
         style="fill:#ffffff;fill-opacity:1;fill-rule:nonzero;stroke:none"
         id="path122" />
      <path
         d="m 7950.94,8846.24 v -4.57 c 0,-6.55 -3.49,-12.6 -9.16,-15.89 L 6022.49,7711.84 c -12.24,-7.09 -27.57,1.74 -27.57,15.89 v 4.57 c 0,6.55 3.49,12.61 9.16,15.89 l 1919.29,1113.94 c 12.24,7.09 27.57,-1.74 27.57,-15.89"
         style="fill:#ffffff;fill-opacity:1;fill-rule:nonzero;stroke:none"
         id="path124" />
      <path
         d="m 7950.94,8698.94 v -4.57 c 0,-6.55 -3.49,-12.61 -9.16,-15.89 L 6022.49,7564.54 c -12.24,-7.1 -27.57,1.74 -27.57,15.89 v 4.57 c 0,6.54 3.49,12.6 9.16,15.89 l 1919.29,1113.94 c 12.24,7.09 27.57,-1.74 27.57,-15.89"
         style="fill:#ffffff;fill-opacity:1;fill-rule:nonzero;stroke:none"
         id="path126" />
      <path
         d="m 7950.94,8541.84 v -4.57 c 0,-6.55 -3.49,-12.6 -9.16,-15.89 L 6022.49,7407.44 c -12.24,-7.09 -27.57,1.75 -27.57,15.89 v 4.57 c 0,6.55 3.49,12.61 9.16,15.89 l 1919.29,1113.94 c 12.24,7.1 27.57,-1.74 27.57,-15.89"
         style="fill:#ffffff;fill-opacity:1;fill-rule:nonzero;stroke:none"
         id="path128" />
      <path
         d="m 7950.94,8381.21 v -4.57 c 0,-6.55 -3.49,-12.6 -9.16,-15.89 L 6022.49,7246.81 c -12.24,-7.09 -27.57,1.74 -27.57,15.89 v 4.57 c 0,6.55 3.49,12.6 9.16,15.89 L 7923.37,8397.1 c 12.24,7.1 27.57,-1.74 27.57,-15.89"
         style="fill:#ffffff;fill-opacity:1;fill-rule:nonzero;stroke:none"
         id="path130" />
      <path
         d="m 6061.12,5290.5 c 0,0 -21.22,620.26 421.5,834.48 442.72,214.22 399.87,-157.09 756.9,104.73 357.04,261.82 579.64,242.87 663.51,128.58 L 6061.12,5290.5"
         style="fill:#6d64b8;fill-opacity:1;fill-rule:nonzero;stroke:none"
         id="path132" />
      <path
         d="m 9793.27,10764 -1184.65,-691.9 c -39.69,-23.2 -64.02,-65.8 -63.85,-111.73 l 2.9,-818.17 c 0.35,-99.29 108.16,-160.87 193.87,-110.74 l 52.87,30.92 c -11.84,-97.54 -25.93,-231.3 -25.93,-231.3 l 283.5,381.95 874.11,511.25 c 39.64,23.19 63.94,65.72 63.78,111.64 l -2.81,817.28 c -0.34,99.2 -108.08,160.8 -193.79,110.8"
         style="fill:#ffffff;fill-opacity:1;fill-rule:nonzero;stroke:none"
         id="path134" />
      <path
         d="m 8547.67,9142.2 -2.9,818.17 c -0.17,45.93 24.16,88.53 63.85,111.73 l 1184.65,691.9 c 29.28,17.1 61.13,21.1 90.4,15.1 -39.18,38 -101.43,50.4 -155.06,19.1 l -1184.65,-691.9 c -39.69,-23.2 -64.02,-65.8 -63.85,-111.73 l 2.91,-818.17 c 0.28,-81.64 101.6,-163.69 185.26,-162.44 -63.75,4.26 -120.35,56.35 -120.61,128.24"
         style="fill:#6d64b8;fill-opacity:1;fill-rule:nonzero;stroke:none"
         id="path136" />
      <path
         d="m 8741.54,9031.46 c -7.64,-4.47 -15.46,-8.01 -23.36,-10.76 -9.86,-94.59 -14.35,-155.42 -14.35,-155.42 l 64.65,-34.2 c 0,0 14.09,133.76 25.93,231.3 l -52.87,-30.92"
         style="fill:#6d64b8;fill-opacity:1;fill-rule:nonzero;stroke:none"
         id="path138" />
      <path
         d="m 9144.29,10186.3 c -42.25,-81.6 -30.46,-171.5 26.32,-200.94 56.79,-29.42 137.07,12.84 179.31,94.44 42.25,81.5 30.46,171.5 -26.32,200.9 -56.78,29.4 -137.06,-12.9 -179.31,-94.4"
         style="fill:#6d64b8;fill-opacity:1;fill-rule:nonzero;stroke:none"
         id="path140" />
      <path
         d="m 8991.78,9416.36 c -25.63,91.41 -11.88,209.23 45.62,320.23 96.69,186.63 280.42,283.31 410.37,216.02 70.01,-36.27 110.07,-112.77 117.07,-204.78 l -573.06,-331.47"
         style="fill:#6d64b8;fill-opacity:1;fill-rule:nonzero;stroke:none"
         id="path142" />
      <path
         d="m 4947.51,8193.35 -654.77,-384.96 c -86.59,-50.01 -139.93,-142.41 -139.93,-242.4 V 6283.3 c 0,-159.48 172.66,-259.15 310.77,-179.4 l 654.76,377.86 c 86.63,50.03 139.98,142.47 139.95,242.51 l -0.37,1295.08 c -0.04,159.47 -172.32,253.77 -310.41,174"
         style="fill:#ffffff;fill-opacity:1;fill-rule:nonzero;stroke:none"
         id="path144" />
      <path
         d="m 4223.64,7845.36 656.13,386.53 c 92.85,53.63 229.7,17.38 309.42,-60.6 -63,54.56 -157.54,70.73 -239.82,23.2 l -656.14,-386.52 c -86.58,-50.02 -139.92,-142.42 -139.92,-242.41 V 6282.88 c 0,-142.97 138.74,-237.84 266.97,-198.52 l -0.05,-0.03 c -130.78,-43.22 -336.51,31.02 -336.51,235.94 v 1282.69 c 0,99.99 53.33,192.39 139.92,242.4"
         style="fill:#6d64b8;fill-opacity:1;fill-rule:nonzero;stroke:none"
         id="path146" />
      <path
         d="m 4912.97,10263.2 -654.78,-384.95 c -86.59,-50.02 -139.92,-142.42 -139.92,-242.41 V 8353.16 c 0,-159.49 172.65,-259.16 310.76,-179.41 l 654.76,377.86 c 86.63,50.03 139.99,142.48 139.96,242.51 l -0.38,1295.08 c -0.04,159.5 -172.32,253.8 -310.4,174"
         style="fill:#ffffff;fill-opacity:1;fill-rule:nonzero;stroke:none"
         id="path148" />
      <path
         d="m 4189.09,9915.22 656.13,386.48 c 92.85,53.7 229.7,17.4 309.42,-60.6 -63,54.6 -157.54,70.8 -239.82,23.3 L 4258.68,9877.82 C 4172.1,9827.8 4118.77,9735.4 4118.77,9635.41 V 8352.73 c 0,-142.97 138.73,-237.84 266.96,-198.52 l -0.05,-0.03 c -130.78,-43.22 -336.51,31.02 -336.51,235.94 V 9672.8 c 0,100 53.33,192.4 139.92,242.42"
         style="fill:#6d64b8;fill-opacity:1;fill-rule:nonzero;stroke:none"
         id="path150" />
      <path
         d="m 4862.65,7631 v 0 -125.27 c 0,0 -111.43,-104.05 -111.43,-178.29 0,0 -120.55,76.22 -148.39,48.38 l -9.28,117.15 -35.54,-28.02 c -16.11,-12.7 -27.79,-30.16 -33.39,-49.89 l -93.46,-329.22 99.76,-44.09 c 0,0 41.75,127.6 41.75,120.64 0,-6.96 -20.88,-352.62 -71.92,-470.93 -51.03,-118.31 110.85,-70.86 236.77,-0.19 138.63,77.8 243.45,83.7 257.37,130.1 13.92,46.39 -11.6,141.51 -48.72,206.47 -37.12,64.95 -27.84,301.58 -27.84,301.58 l 53.36,-97.44 90.48,95.12 -122.42,273.98 c -13.15,29.42 -47.54,42.77 -77.1,29.92"
         style="fill:#6d64b8;fill-opacity:1;fill-rule:nonzero;stroke:none"
         id="path152" />
      <path
         d="m 4734.8,9638.64 h 80.31 c 33.22,0 65.05,-13.32 88.37,-36.98 l 121.31,-123.08 -134.55,-99.76 -44.09,46.4 c 0,0 28.07,-124.5 7.07,-242.51 -19.59,-207.93 6.86,-235.39 6.86,-235.39 0,0 -366.54,-227.35 -366.54,-220.39 0,3.85 25.74,171.3 0,304.69 -21.69,112.34 0,217.29 0,217.29 l -25.59,-67.07 -150.72,11.39 47.29,161.46 c 12.95,44.19 40.32,82.78 77.75,109.61 l 81.42,58.35 c 0,0 139.2,-150.79 211.11,115.99"
         style="fill:#f0379f;fill-opacity:1;fill-rule:nonzero;stroke:none"
         id="path154" />
      <path
         d="m 9793.27,12594.5 -1184.65,-691.9 c -39.69,-23.2 -64.02,-65.7 -63.85,-111.7 l 2.9,-818.2 c 0.35,-99.3 108.16,-160.8 193.87,-110.7 l 52.87,30.9 c -11.84,-97.5 -25.93,-231.3 -25.93,-231.3 l 283.5,382 874.11,511.2 c 39.64,23.2 63.94,65.7 63.78,111.7 l -2.81,817.2 c -0.34,99.3 -108.08,160.9 -193.79,110.8"
         style="fill:#ffffff;fill-opacity:1;fill-rule:nonzero;stroke:none"
         id="path156" />
      <path
         d="m 8547.67,10972.7 -2.9,818.2 c -0.17,46 24.16,88.5 63.85,111.7 l 1184.65,691.9 c 29.28,17.1 61.13,21.2 90.4,15.2 -39.18,37.9 -101.43,50.3 -155.06,19 l -1184.65,-691.9 c -39.69,-23.2 -64.02,-65.7 -63.85,-111.7 l 2.91,-818.2 c 0.28,-81.6 101.6,-163.7 185.26,-162.4 -63.75,4.3 -120.35,56.3 -120.61,128.2"
         style="fill:#6d64b8;fill-opacity:1;fill-rule:nonzero;stroke:none"
         id="path158" />
      <path
         d="m 8741.54,10862 c -7.64,-4.5 -15.46,-8 -23.36,-10.8 -9.86,-94.5 -14.35,-155.4 -14.35,-155.4 l 64.65,-34.2 c 0,0 14.09,133.8 25.93,231.3 l -52.87,-30.9"
         style="fill:#6d64b8;fill-opacity:1;fill-rule:nonzero;stroke:none"
         id="path160" />
      <path
         d="m 9554.28,11800.3 0.03,-9.8 c 0.05,-14.1 -7.42,-27.2 -19.61,-34.3 l -682.51,-396 c -26.33,-15.4 -59.42,3.5 -59.53,34 l -0.03,9.9 c -0.05,14.1 7.43,27.1 19.61,34.3 l 682.51,396 c 26.33,15.4 59.43,-3.6 59.53,-34.1"
         style="fill:#6d64b8;fill-opacity:1;fill-rule:nonzero;stroke:none"
         id="path162" />
      <path
         d="m 9752.34,12135.5 0.03,-9.8 c 0.05,-14.1 -7.42,-27.2 -19.61,-34.3 l -881.32,-513.2 c -26.33,-15.4 -59.42,3.5 -59.52,34 l -0.04,9.9 c -0.05,14.1 7.42,27.1 19.62,34.3 l 881.31,513.2 c 26.33,15.3 59.42,-3.6 59.53,-34.1"
         style="fill:#6d64b8;fill-opacity:1;fill-rule:nonzero;stroke:none"
         id="path164" />
      <path
         d="m 10935.1,8451.09 -31.2,4673.31 96.6,56.6 c 59.4,34.9 133,35.1 192.6,0.7 l 5996.2,-3459.97 c 124.1,-71.61 200.6,-204.01 200.5,-343.98 V 4876.6 c 0,-73.5 -39.1,-141.4 -102.7,-178.2 l -126.6,-73.4 -6017.7,3466.93 c -128.5,73.96 -207.7,210.92 -207.7,359.16"
         style="fill:#6d64b8;fill-opacity:1;fill-rule:nonzero;stroke:none"
         id="path166" />
      <path
         d="m 10812.2,8387.96 v 4586.54 c 0,130.3 141,211.8 253.9,146.6 l 6000.3,-3462.5 c 124.1,-71.62 200.5,-204.02 200.5,-347.31 V 4811 c 0,-168.3 -182,-273.5 -327.9,-189.6 l -5919.2,3407.4 c -128.5,73.96 -207.6,210.91 -207.6,359.16"
         style="fill:#20224e;fill-opacity:1;fill-rule:nonzero;stroke:none"
         id="path168" />
      <path
         d="m 16953.2,4787.6 c -34.4,0 -69.7,8.8 -103,28 l -5711.9,3304.65 c -121.6,69.99 -196.5,199.62 -196.5,339.93 v 4311.12 c 0,93.5 76.7,160.4 160.4,160.4 26.7,0 54.1,-6.8 79.9,-21.7 l 5788.7,-3356.86 c 117.4,-67.78 189.8,-193.1 189.8,-328.71 V 4995 c 0,-120.8 -99.2,-207.4 -207.4,-207.4 M 15061.3,8780.54 V 6135.84 L 16823.9,5116.7 v 4044.99 l -534.3,308.61 417.5,234.47 -159.1,92.25 -417.9,-234.63 -280,161.7 418.5,234.98 -140.5,81.53 -418.8,-235.17 -280,161.72 419.3,235.45 -571.7,331.6 -1017.3,-571.23 -1378.6,796.23 v -69.3 l 1317.8,-761.09 -198.5,-111.48 -1119.3,646.47 v -69.4 l 1058.4,-611.24 -191.8,-107.72 -866.6,500.46 v -69.3 l 805.7,-465.33 -191.9,-107.72 -613.8,354.53 v -69.38 l 553,-319.33 -380.6,-213.67 -172.4,99.57 v -69.39 l 111.5,-64.38 -494.1,-277.42 v 598.72 l -1331.1,768.9 V 8804.94 l 182.8,-105.71 v 0 l 139.1,-80.49 185.4,-107.23 -604.4,-339.38 c 22.2,-21.09 47,-39.77 74.3,-55.43 l 487.4,-282.04 615.4,345.58 251.1,-145.25 v 286.27 l 382.6,214.86 v -67.59 l 220.5,-127.33 -191.8,-107.69 -28.7,16.56 v -32.66 l -969.6,-544.44 141,-81.57 937.4,526.44 279.8,-161.57 -191.8,-107.7 -196.8,113.65 v -69.38 l 135.9,-78.47 -685.1,-384.65 159.6,-92.33 685.2,384.76 1226.9,-708.54 v 69.28 l -1166,673.46 191.8,107.71 974.2,-562.61 v 69.29 l -913.3,527.5 191.8,107.72 721.5,-416.66 v 69.29 l -660.6,381.55 177.6,99.75 483,-278.93 v 69.28 l -422.2,243.82 191.9,107.74 230.3,-132.99 v 69.28 l -169.5,97.87 827.3,464.58 m -1730.8,-790.08 -279.7,161.59 191.7,107.7 279.8,-161.58 -191.8,-107.71 m 252.7,141.89 -279.8,161.59 177.6,99.74 279.8,-161.6 -177.6,-99.73 m 238.5,133.91 -279.8,161.6 191.8,107.73 279.9,-161.61 -191.9,-107.72 m -659.3,109.14 -279.8,161.6 177.6,99.72 279.8,-161.6 -177.6,-99.72 m 912,32.74 -279.8,161.62 191.8,107.74 279.9,-161.62 -191.9,-107.74 m -673.5,101.17 -279.8,161.62 191.8,107.7 279.8,-161.61 -191.8,-107.71 m 926.2,40.72 -279.8,161.63 1014,569.45 v -318.84 l -734.2,-412.24 m -673.5,101.16 -279.8,161.63 191.8,107.72 279.9,-161.63 -191.9,-107.72 m 252.7,141.89 -279.8,161.64 380.5,213.71 279.9,-161.65 -380.6,-213.7 m 441.4,247.85 -279.9,161.66 191.9,107.74 143.8,-83.01 v 69.28 l -83,47.89 740.8,416 v -318.9 l -713.6,-400.66"
         style="fill:#b4a4d9;fill-opacity:1;fill-rule:nonzero;stroke:none"
         id="path170" />
      <path
         d="m 12881,11334.9 v -69.3 l 1522.5,-879.3 v 69.3 l -1522.5,879.3"
         style="fill:#ffffff;fill-opacity:1;fill-rule:nonzero;stroke:none"
         id="path172" />
      <path
         d="m 12881,11047.1 v -69.4 l 1522.5,-879.2 v 69.3 l -1522.5,879.3"
         style="fill:#ffffff;fill-opacity:1;fill-rule:nonzero;stroke:none"
         id="path174" />
      <path
         d="m 12881,10759.2 v -69.3 l 1522.5,-879.28 v 69.28 l -1522.5,879.3"
         style="fill:#ffffff;fill-opacity:1;fill-rule:nonzero;stroke:none"
         id="path176" />
      <path
         d="m 12881,10463.8 v -69.4 l 1522.5,-879.24 v 69.29 L 12881,10463.8"
         style="fill:#ffffff;fill-opacity:1;fill-rule:nonzero;stroke:none"
         id="path178" />
      <path
         d="m 12881,10175.9 v -69.3 l 1522.5,-879.28 v 69.28 l -1522.5,879.3"
         style="fill:#ffffff;fill-opacity:1;fill-rule:nonzero;stroke:none"
         id="path180" />
      <path
         d="m 12881,9888.08 v -69.38 l 1522.5,-879.23 v 69.28 L 12881,9888.08"
         style="fill:#ffffff;fill-opacity:1;fill-rule:nonzero;stroke:none"
         id="path182" />
      <path
         d="m 12881,9385.27 v -69.39 l 1522.5,-879.22 v 69.28 L 12881,9385.27"
         style="fill:#ffffff;fill-opacity:1;fill-rule:nonzero;stroke:none"
         id="path184" />
      <path
         d="m 12881,9097.42 v -69.38 l 1522.5,-879.23 v 69.28 L 12881,9097.42"
         style="fill:#ffffff;fill-opacity:1;fill-rule:nonzero;stroke:none"
         id="path186" />
      <path
         d="m 12881,8809.58 v -69.39 l 1522.5,-879.23 v 69.28 L 12881,8809.58"
         style="fill:#ffffff;fill-opacity:1;fill-rule:nonzero;stroke:none"
         id="path188" />
      <path
         d="m 12881,8537.92 v -69.39 l 1522.5,-879.23 v 69.29 L 12881,8537.92"
         style="fill:#ffffff;fill-opacity:1;fill-rule:nonzero;stroke:none"
         id="path190" />
      <path
         d="m 12881,8250.07 v -69.39 l 1522.5,-879.23 v 69.29 L 12881,8250.07"
         style="fill:#ffffff;fill-opacity:1;fill-rule:nonzero;stroke:none"
         id="path192" />
      <path
         d="m 12881,7962.22 v -69.38 l 1522.5,-879.23 v 69.28 L 12881,7962.22"
         style="fill:#ffffff;fill-opacity:1;fill-rule:nonzero;stroke:none"
         id="path194" />
      <path
         d="m 12498.4,11559.2 v -1537.8 l -1331.1,770 v 1536.7 l 1331.1,-768.9"
         style="fill:#6d64b8;fill-opacity:1;fill-rule:nonzero;stroke:none"
         id="path196" />
      <path
         d="m 12402.7,11503.9 v -1316.6 l -1139.7,659.2 v 1315.7 l 1139.7,-658.3"
         style="fill:#ffffff;fill-opacity:1;fill-rule:nonzero;stroke:none"
         id="path198" />
      <path
         d="M 16823.9,9161.69 V 5116.7 l -1762.6,1019.14 v 4043.86 l 1762.6,-1018.01"
         style="fill:#6d64b8;fill-opacity:1;fill-rule:nonzero;stroke:none"
         id="path200" />
      <path
         d="M 16728.2,9106.39 V 5282.6 L 15157,6190.98 v 3822.82 l 1571.2,-907.41"
         style="fill:#ffffff;fill-opacity:1;fill-rule:nonzero;stroke:none"
         id="path202" />
      <path
         d="M 12498.4,9572.8 V 8034.99 l -1331.1,769.95 v 1536.76 l 1331.1,-768.9"
         style="fill:#6d64b8;fill-opacity:1;fill-rule:nonzero;stroke:none"
         id="path204" />
      <path
         d="M 12402.7,9517.5 V 8200.86 L 11263,8860.08 v 1315.72 l 1139.7,-658.3"
         style="fill:#ffffff;fill-opacity:1;fill-rule:nonzero;stroke:none"
         id="path206" />
      <path
         d="m 11360.3,10889.6 945.2,-547.9 -185.8,609.4 -205.3,-130.8 -295,740.2 -259.1,-670.9"
         style="fill:#6d64b8;fill-opacity:1;fill-rule:nonzero;stroke:none"
         id="path208" />
      <path
         d="m 12199.3,11359.2 c 27.2,-52.5 19.6,-110.4 -16.9,-129.4 -36.6,-18.9 -88.3,8.3 -115.5,60.8 -27.2,52.5 -19.6,110.5 16.9,129.4 36.6,19 88.3,-8.2 115.5,-60.8"
         style="fill:#6d64b8;fill-opacity:1;fill-rule:nonzero;stroke:none"
         id="path210" />
      <path
         d="m 11958.2,9333.31 c 61.1,-117.93 44.1,-248.02 -38,-290.56 -82.1,-42.54 -198.2,18.57 -259.3,136.5 -61.1,117.93 -44.1,248.03 38,290.57 82.1,42.54 198.2,-18.57 259.3,-136.51"
         style="fill:#6d64b8;fill-opacity:1;fill-rule:nonzero;stroke:none"
         id="path212" />
      <path
         d="m 15595.2,8986.41 c 61.1,-117.92 44,-248.02 -38.1,-290.56 -82.1,-42.54 -198.2,18.57 -259.3,136.5 -61.1,117.94 -44,248.02 38.1,290.57 82.1,42.55 198.2,-18.57 259.3,-136.51"
         style="fill:#6d64b8;fill-opacity:1;fill-rule:nonzero;stroke:none"
         id="path214" />
      <path
         d="m 12178.8,8219.88 c 37.1,132.2 17.2,302.57 -66,463.11 -139.8,269.9 -405.5,409.76 -593.4,312.4 -101.3,-52.45 -159.2,-163.08 -169.3,-296.16 l 828.7,-479.35"
         style="fill:#6d64b8;fill-opacity:1;fill-rule:nonzero;stroke:none"
         id="path216" />
      <path
         d="m 15351.4,9658.34 v -132.07 l 1182.4,-683.74 v 131.96 l -1182.4,683.85"
         style="fill:#6d64b8;fill-opacity:1;fill-rule:nonzero;stroke:none"
         id="path218" />
      <path
         d="M 15687.8,8952.86 V 8820.8 l 479.2,-275.84 v 131.96 l -479.2,275.94"
         style="fill:#6d64b8;fill-opacity:1;fill-rule:nonzero;stroke:none"
         id="path220" />
      <path
         d="m 15687.8,8708.49 v -69.38 l 846,-494.77 v 69.28 l -846,494.87"
         style="fill:#6d64b8;fill-opacity:1;fill-rule:nonzero;stroke:none"
         id="path222" />
      <path
         d="m 15595.2,8359.98 c 61.1,-117.93 44,-248.03 -38.1,-290.57 -82.1,-42.54 -198.2,18.57 -259.3,136.51 -61.1,117.93 -44,248.02 38.1,290.56 82.1,42.54 198.2,-18.57 259.3,-136.5"
         style="fill:#6d64b8;fill-opacity:1;fill-rule:nonzero;stroke:none"
         id="path224" />
      <path
         d="m 15687.8,8326.42 v -132.06 l 479.2,-275.84 v 131.96 l -479.2,275.94"
         style="fill:#6d64b8;fill-opacity:1;fill-rule:nonzero;stroke:none"
         id="path226" />
      <path
         d="m 15687.8,8082.06 v -69.39 l 846,-494.77 v 69.28 l -846,494.88"
         style="fill:#6d64b8;fill-opacity:1;fill-rule:nonzero;stroke:none"
         id="path228" />
      <path
         d="m 12052.4,7591.4 -141,81.57 969.6,544.44 v -36.73 l 108.8,-62.84 -937.4,-526.44 m 998.4,560.65 -141.1,81.46 191.8,107.69 141,-81.45 -191.7,-107.7 m 252.6,141.89 -141,81.46 177.6,99.72 141,-81.44 -177.6,-99.74 m 238.5,133.92 -141,81.45 191.8,107.71 141,-81.43 -191.8,-107.73 m 252.7,141.9 -141,81.43 191.9,107.72 140.9,-81.41 -191.8,-107.74 m 252.7,141.9 -141,81.42 380.6,213.7 116.6,-67.31 v 69.28 l -55.8,32.18 713.6,400.66 v -160.48 l -1014,-569.45"
         style="fill:#dfd7ef;fill-opacity:1;fill-rule:nonzero;stroke:none"
         id="path230" />
      <path
         d="m 14403.5,8939.47 -116.6,67.31 60.8,34.15 55.8,-32.18 v -69.28"
         style="fill:#ffffff;fill-opacity:1;fill-rule:nonzero;stroke:none"
         id="path232" />
      <path
         d="m 13986.4,8677.5 -140.9,81.41 60.8,34.17 141,-81.42 -60.9,-34.16"
         style="fill:#ffffff;fill-opacity:1;fill-rule:nonzero;stroke:none"
         id="path234" />
      <path
         d="m 13733.7,8535.59 -141,81.43 60.9,34.17 141,-81.43 -60.9,-34.17"
         style="fill:#ffffff;fill-opacity:1;fill-rule:nonzero;stroke:none"
         id="path236" />
      <path
         d="m 13481,8393.68 -141,81.44 60.9,34.19 141,-81.45 -60.9,-34.18"
         style="fill:#ffffff;fill-opacity:1;fill-rule:nonzero;stroke:none"
         id="path238" />
      <path
         d="m 13242.5,8259.75 -141,81.45 60.9,34.2 141,-81.46 -60.9,-34.19"
         style="fill:#ffffff;fill-opacity:1;fill-rule:nonzero;stroke:none"
         id="path240" />
      <path
         d="m 12989.8,8117.84 -108.8,62.84 v 36.73 l 28.7,16.1 141.1,-81.46 -61,-34.21"
         style="fill:#ffffff;fill-opacity:1;fill-rule:nonzero;stroke:none"
         id="path242" />
      <path
         d="m 15061.3,9281.11 v 160.48 l 95.7,53.75 v -160.47 l -95.7,-53.76"
         style="fill:#c1b8e2;fill-opacity:1;fill-rule:nonzero;stroke:none"
         id="path244" />
      <path
         d="m 15157,9334.87 v 160.47 l 194.4,109.16 v -78.23 l 72.2,-41.72 -266.6,-149.68"
         style="fill:#ffffff;fill-opacity:1;fill-rule:nonzero;stroke:none"
         id="path246" />
      <path
         d="m 15850.1,9724.09 -140.8,81.34 418.8,235.17 140.5,-81.53 -418.5,-234.98"
         style="fill:#dfd7ef;fill-opacity:1;fill-rule:nonzero;stroke:none"
         id="path248" />
      <path
         d="m 15753.1,9669.58 -140.9,81.34 97.1,54.51 140.8,-81.34 -97,-54.51"
         style="fill:#c1b8e2;fill-opacity:1;fill-rule:nonzero;stroke:none"
         id="path250" />
      <path
         d="m 15539.4,9549.61 -140.7,81.41 213.5,119.9 140.9,-81.34 -213.7,-119.97"
         style="fill:#ffffff;fill-opacity:1;fill-rule:nonzero;stroke:none"
         id="path252" />
      <path
         d="m 15423.6,9484.55 -72.2,41.72 v 78.23 l 47.3,26.52 140.7,-81.41 -115.8,-65.06"
         style="fill:#c1b8e2;fill-opacity:1;fill-rule:nonzero;stroke:none"
         id="path254" />
      <path
         d="m 11631.9,7834.66 -487.4,282.04 c -27.3,15.66 -52.1,34.34 -74.3,55.43 l 604.4,339.38 572.7,-331.27 -615.4,-345.58 m 866.5,486.6 v 652.82 l 494.1,277.42 573.1,-330.96 -191.8,-107.72 -492.8,284.6 v -69.38 l 431.9,-249.41 -191.8,-107.7 -240.1,138.65 v -69.39 l 179.2,-103.47 -177.6,-99.72 -1.6,0.92 v -1.8 l -382.6,-214.86 m 1128.1,633.46 -573.1,330.98 380.6,213.67 573,-330.94 -380.5,-213.71 m 441.3,247.87 -573,330.96 191.9,107.72 573,-330.94 -191.9,-107.74 m 252.7,141.9 -572.9,330.95 191.8,107.72 464.1,-268 v 69.29 l -403.2,232.88 198.5,111.48 204.7,-118.19 v 69.28 l -143.9,83.07 1017.3,571.23 571.7,-331.6 -419.3,-235.45 -368,212.55 v -419.21 l -740.8,-416"
         style="fill:#dfd7ef;fill-opacity:1;fill-rule:nonzero;stroke:none"
         id="path256" />
      <path
         d="m 14403.5,9810.62 -204.7,118.19 60.8,34.16 143.9,-83.07 v -69.28"
         style="fill:#ffffff;fill-opacity:1;fill-rule:nonzero;stroke:none"
         id="path258" />
      <path
         d="m 14403.5,9515.16 -464.1,268 60.9,34.17 403.2,-232.88 v -69.29"
         style="fill:#ffffff;fill-opacity:1;fill-rule:nonzero;stroke:none"
         id="path260" />
      <path
         d="m 14259.7,9310.33 -573,330.94 60.9,34.17 572.9,-330.95 -60.8,-34.16"
         style="fill:#ffffff;fill-opacity:1;fill-rule:nonzero;stroke:none"
         id="path262" />
      <path
         d="m 14007,9168.43 -573,330.94 60.8,34.18 573,-330.96 -60.8,-34.16"
         style="fill:#ffffff;fill-opacity:1;fill-rule:nonzero;stroke:none"
         id="path264" />
      <path
         d="m 13565.6,8920.54 -573.1,330.96 60.9,34.2 573.1,-330.98 -60.9,-34.18"
         style="fill:#ffffff;fill-opacity:1;fill-rule:nonzero;stroke:none"
         id="path266" />
      <path
         d="m 13312.9,8778.63 -431.9,249.41 v 69.38 l 492.8,-284.6 -60.9,-34.19"
         style="fill:#ffffff;fill-opacity:1;fill-rule:nonzero;stroke:none"
         id="path268" />
      <path
         d="m 13060.2,8636.72 -179.2,103.47 v 69.39 l 240.1,-138.65 -60.9,-34.21"
         style="fill:#ffffff;fill-opacity:1;fill-rule:nonzero;stroke:none"
         id="path270" />
      <path
         d="m 12881,8536.12 v 1.8 l 1.6,-0.92 -1.6,-0.88"
         style="fill:#ffffff;fill-opacity:1;fill-rule:nonzero;stroke:none"
         id="path272" />
      <path
         d="m 15061.3,9760.49 v 419.21 l 368,-212.55 -97.1,-54.52 -175.2,101.17 v -199.55 l -95.7,-53.76"
         style="fill:#c1b8e2;fill-opacity:1;fill-rule:nonzero;stroke:none"
         id="path274" />
      <path
         d="m 15157,9814.25 v 199.55 l 175.2,-101.17 -175.2,-98.38"
         style="fill:#ffffff;fill-opacity:1;fill-rule:nonzero;stroke:none"
         id="path276" />
      <path
         d="m 12247.3,8180.24 -572.7,331.27 v 0 l 504.2,-291.63 c 8.9,31.63 14.5,65.46 16.7,100.82 l 148.8,-86.02 -97,-54.44 m 155.4,87.27 v 652.83 l 95.7,53.74 v -652.82 l -95.7,-53.75"
         style="fill:#c1b8e2;fill-opacity:1;fill-rule:nonzero;stroke:none"
         id="path278" />
      <path
         d="m 12344.3,8234.68 -148.8,86.02 c 7.2,112.37 -19.4,240.17 -82.7,362.29 -10.1,19.52 -20.9,38.35 -32.2,56.47 l 322.1,180.88 v -652.83 l -58.4,-32.83"
         style="fill:#ffffff;fill-opacity:1;fill-rule:nonzero;stroke:none"
         id="path280" />
      <path
         d="m 12178.8,8219.88 -504.2,291.63 406,227.95 c 11.3,-18.12 22.1,-36.95 32.2,-56.47 63.3,-122.12 89.9,-249.92 82.7,-362.29 -2.2,-35.36 -7.8,-69.19 -16.7,-100.82"
         style="fill:#c1b8e2;fill-opacity:1;fill-rule:nonzero;stroke:none"
         id="path282" />
      <path
         d="m 12491.4,7337.39 -159.6,92.33 685.1,384.65 159.7,-92.22 -685.2,-384.76 m 746.1,418.96 -159.7,92.22 191.8,107.7 159.7,-92.21 -191.8,-107.71 m 252.7,141.89 -159.7,92.22 191.8,107.71 159.7,-92.21 -191.8,-107.72 m 252.7,141.9 -159.7,92.21 177.6,99.73 159.7,-92.19 -177.6,-99.75 m 238.4,133.92 -159.6,92.2 191.9,107.72 159.6,-92.18 -191.9,-107.74 m 252.7,141.9 -159.6,92.18 191.9,107.74 137.2,-79.22 v 69.28 l -76.4,44.09 734.2,412.24 V 8780.54 L 14234,8315.96"
         style="fill:#dfd7ef;fill-opacity:1;fill-rule:nonzero;stroke:none"
         id="path284" />
      <path
         d="m 14403.5,8436.66 -137.2,79.22 60.8,34.15 76.4,-44.09 v -69.28"
         style="fill:#ffffff;fill-opacity:1;fill-rule:nonzero;stroke:none"
         id="path286" />
      <path
         d="m 14173.2,8281.8 -159.6,92.18 60.8,34.16 159.6,-92.18 -60.8,-34.16"
         style="fill:#ffffff;fill-opacity:1;fill-rule:nonzero;stroke:none"
         id="path288" />
      <path
         d="m 13920.5,8139.89 -159.7,92.19 60.9,34.18 159.6,-92.2 -60.8,-34.17"
         style="fill:#ffffff;fill-opacity:1;fill-rule:nonzero;stroke:none"
         id="path290" />
      <path
         d="m 13682,8005.96 -159.7,92.21 60.9,34.18 159.7,-92.21 -60.9,-34.18"
         style="fill:#ffffff;fill-opacity:1;fill-rule:nonzero;stroke:none"
         id="path292" />
      <path
         d="m 13429.3,7864.06 -159.7,92.21 60.9,34.19 159.7,-92.22 -60.9,-34.18"
         style="fill:#ffffff;fill-opacity:1;fill-rule:nonzero;stroke:none"
         id="path294" />
      <path
         d="m 13176.6,7722.15 -159.7,92.22 60.9,34.2 159.7,-92.22 -60.9,-34.2"
         style="fill:#ffffff;fill-opacity:1;fill-rule:nonzero;stroke:none"
         id="path296" />
      <path
         d="m 15061.3,8780.54 v 181.73 l 95.7,53.75 V 8834.3 l -95.7,-53.76"
         style="fill:#c1b8e2;fill-opacity:1;fill-rule:nonzero;stroke:none"
         id="path298" />
      <path
         d="m 15157,8834.3 v 181.72 l 146.3,82.13 c -41.3,-44.22 -53.1,-120.42 -31.5,-199.42 L 15157,8834.3 m 391.9,220.04 c -45.9,51.87 -103.4,82.11 -156,82.11 -8.8,0 -17.5,-0.84 -26,-2.57 l 336.4,188.88 159.4,-92.16 -313.8,-176.26"
         style="fill:#ffffff;fill-opacity:1;fill-rule:nonzero;stroke:none"
         id="path300" />
      <path
         d="m 16289.6,9470.3 -159.5,92.09 417.9,234.63 159.1,-92.25 -417.5,-234.47"
         style="fill:#dfd7ef;fill-opacity:1;fill-rule:nonzero;stroke:none"
         id="path302" />
      <path
         d="m 16192.5,9415.78 -159.5,92.1 97.1,54.51 159.5,-92.09 -97.1,-54.52"
         style="fill:#c1b8e2;fill-opacity:1;fill-rule:nonzero;stroke:none"
         id="path304" />
      <path
         d="m 15978.5,9295.63 -159.3,92.17 213.8,120.08 159.5,-92.1 -214,-120.15"
         style="fill:#ffffff;fill-opacity:1;fill-rule:nonzero;stroke:none"
         id="path306" />
      <path
         d="m 15271.8,8898.73 c -21.6,79 -9.8,155.2 31.5,199.42 l 63.6,35.73 c 8.5,1.73 17.2,2.57 26,2.57 52.6,0 110.1,-30.24 156,-82.11 l -277.1,-155.61"
         style="fill:#c1b8e2;fill-opacity:1;fill-rule:nonzero;stroke:none"
         id="path308" />
      <path
         d="m 15862.7,9230.6 -159.4,92.16 115.9,65.04 159.3,-92.17 -115.8,-65.03"
         style="fill:#c1b8e2;fill-opacity:1;fill-rule:nonzero;stroke:none"
         id="path310" />
      <path
         d="m 15325.1,6824.35 v -4.57 c 0,-6.56 3.5,-12.61 9.2,-15.89 l 818,-473.98 c 12.2,-7.09 27.5,1.74 27.5,15.89 v 4.57 c 0,6.56 -3.5,12.61 -9.1,15.89 l -818,473.98 c -12.2,7.09 -27.6,-1.74 -27.6,-15.89"
         style="fill:#6d64b8;fill-opacity:1;fill-rule:nonzero;stroke:none"
         id="path312" />
      <path
         d="m 15708.9,6274.91 v -4.57 c 0,-6.55 3.5,-12.6 9.1,-15.89 l 818,-473.97 c 12.2,-7.09 27.6,1.74 27.6,15.89 v 4.56 c 0,6.56 -3.5,12.61 -9.2,15.89 l -817.9,473.98 c -12.3,7.09 -27.6,-1.74 -27.6,-15.89"
         style="fill:#6d64b8;fill-opacity:1;fill-rule:nonzero;stroke:none"
         id="path314" />
      <path
         d="M 15321.7,6604.57 V 6600 c 0,-6.55 3.4,-12.6 9.1,-15.89 l 818,-473.97 c 12.2,-7.1 27.5,1.74 27.5,15.89 v 4.57 c 0,6.55 -3.5,12.6 -9.1,15.89 l -818,473.97 c -12.2,7.09 -27.5,-1.74 -27.5,-15.89"
         style="fill:#6d64b8;fill-opacity:1;fill-rule:nonzero;stroke:none"
         id="path316" />
      <path
         d="m 16209.5,6313.28 v -4.57 c 0,-6.55 3.5,-12.61 9.1,-15.89 l 317.4,-182.68 c 12.2,-7.1 27.6,1.74 27.6,15.89 v 4.57 c 0,6.55 -3.5,12.6 -9.2,15.89 l -317.4,182.68 c -12.2,7.1 -27.5,-1.74 -27.5,-15.89"
         style="fill:#6d64b8;fill-opacity:1;fill-rule:nonzero;stroke:none"
         id="path318" />
      <path
         d="m 15728.1,6478.99 v -4.57 c 0,-6.56 3.5,-12.61 9.1,-15.89 l 317.4,-182.69 c 12.2,-7.09 27.5,1.74 27.5,15.89 v 4.57 c 0,6.55 -3.4,12.61 -9.1,15.89 l -317.4,182.68 c -12.2,7.1 -27.5,-1.73 -27.5,-15.88"
         style="fill:#6d64b8;fill-opacity:1;fill-rule:nonzero;stroke:none"
         id="path320" />
      <path
         d="m 16209.5,6100.48 v -4.57 c 0,-6.55 3.5,-12.6 9.1,-15.88 l 317.4,-182.69 c 12.2,-7.09 27.6,1.74 27.6,15.89 v 4.57 c 0,6.55 -3.5,12.61 -9.2,15.89 l -317.4,182.68 c -12.2,7.1 -27.5,-1.73 -27.5,-15.89"
         style="fill:#6d64b8;fill-opacity:1;fill-rule:nonzero;stroke:none"
         id="path322" />
      <path
         d="m 15321.7,6498.17 v -4.57 c 0,-6.55 3.4,-12.6 9.1,-15.89 l 317.4,-182.68 c 12.2,-7.09 27.5,1.74 27.5,15.89 v 4.57 c 0,6.55 -3.5,12.6 -9.1,15.89 l -317.4,182.68 c -12.2,7.09 -27.5,-1.74 -27.5,-15.89"
         style="fill:#6d64b8;fill-opacity:1;fill-rule:nonzero;stroke:none"
         id="path324" />
      <path
         d="m 16117,6255.72 v -4.57 c 0,-6.55 3.5,-12.6 9.2,-15.89 l 409.8,-236.75 c 12.2,-7.1 27.6,1.74 27.6,15.89 v 4.57 c 0,6.54 -3.5,12.6 -9.2,15.88 l -409.8,236.76 c -12.2,7.09 -27.6,-1.74 -27.6,-15.89"
         style="fill:#6d64b8;fill-opacity:1;fill-rule:nonzero;stroke:none"
         id="path326" />
      <path
         d="m 15321.7,6716.2 v -4.57 c 0,-6.55 3.4,-12.6 12.6,-19.37 l 317.4,-182.69 c 8.7,-3.61 24,5.23 24,19.38 v 4.57 c 0,6.55 -3.5,12.6 -9.1,15.89 l -317.4,182.68 c -12.2,7.1 -27.5,-1.74 -27.5,-15.89"
         style="fill:#6d64b8;fill-opacity:1;fill-rule:nonzero;stroke:none"
         id="path328" />
      <path
         d="m 15325.1,6390.03 v -4.57 c 0,-6.55 3.5,-12.61 9.2,-15.89 l 818,-473.97 c 12.2,-7.1 27.5,1.74 27.5,15.89 v 4.57 c 0,6.54 -3.5,12.6 -9.1,15.88 l -818,473.97 c -12.2,7.1 -27.6,-1.73 -27.6,-15.88"
         style="fill:#6d64b8;fill-opacity:1;fill-rule:nonzero;stroke:none"
         id="path330" />
      <path
         d="m 16209.5,5878.97 v -4.57 c 0,-6.56 3.5,-12.61 9.1,-15.89 l 317.4,-182.69 c 12.2,-7.09 27.6,1.74 27.6,15.89 v 4.57 c 0,6.55 -3.5,12.61 -9.2,15.89 l -317.4,182.68 c -12.2,7.09 -27.5,-1.73 -27.5,-15.88"
         style="fill:#6d64b8;fill-opacity:1;fill-rule:nonzero;stroke:none"
         id="path332" />
      <path
         d="m 15728.1,6044.67 v -4.57 c 0,-6.55 3.5,-12.61 9.1,-15.89 l 317.4,-182.69 c 12.2,-7.09 27.5,1.74 27.5,15.89 v 4.57 c 0,6.56 -3.4,12.61 -9.1,15.89 l -317.4,182.69 c -12.2,7.09 -27.5,-1.75 -27.5,-15.89"
         style="fill:#6d64b8;fill-opacity:1;fill-rule:nonzero;stroke:none"
         id="path334" />
      <path
         d="m 16117,5821.4 v -4.56 c 0,-6.56 3.5,-12.61 9.2,-15.89 L 16536,5564.2 c 12.2,-7.1 27.6,1.7 27.6,15.9 v 4.5 c 0,6.6 -3.5,12.7 -9.2,15.94 l -409.8,236.75 c -12.2,7.1 -27.6,-1.74 -27.6,-15.89"
         style="fill:#6d64b8;fill-opacity:1;fill-rule:nonzero;stroke:none"
         id="path336" />
      <path
         d="m 15321.7,6281.89 v -4.57 c 0,-6.56 3.4,-12.61 12.6,-19.38 l 317.4,-182.68 c 8.7,-3.61 24,5.22 24,19.38 v 4.56 c 0,6.55 -3.5,12.61 -9.1,15.89 l -317.4,182.68 c -12.2,7.1 -27.5,-1.74 -27.5,-15.88"
         style="fill:#6d64b8;fill-opacity:1;fill-rule:nonzero;stroke:none"
         id="path338" />
      <path
         d="m 15325.1,7905.53 v -4.57 c 0,-6.55 3.5,-12.6 9.2,-15.89 l 818,-473.97 c 12.2,-7.09 27.5,1.74 27.5,15.89 v 4.57 c 0,6.55 -3.5,12.6 -9.1,15.89 l -818,473.97 c -12.2,7.09 -27.6,-1.74 -27.6,-15.89"
         style="fill:#6d64b8;fill-opacity:1;fill-rule:nonzero;stroke:none"
         id="path340" />
      <path
         d="m 15708.9,7356.09 v -4.57 c 0,-6.55 3.5,-12.6 9.1,-15.88 l 818,-473.98 c 12.2,-7.09 27.6,1.74 27.6,15.89 v 4.57 c 0,6.55 -3.5,12.61 -9.2,15.89 l -817.9,473.97 c -12.3,7.1 -27.6,-1.73 -27.6,-15.89"
         style="fill:#6d64b8;fill-opacity:1;fill-rule:nonzero;stroke:none"
         id="path342" />
      <path
         d="m 15321.7,7685.76 v -4.57 c 0,-6.55 3.4,-12.61 9.1,-15.89 l 818,-473.98 c 12.2,-7.09 27.5,1.74 27.5,15.89 v 4.57 c 0,6.55 -3.5,12.61 -9.1,15.89 l -818,473.98 c -12.2,7.09 -27.5,-1.75 -27.5,-15.89"
         style="fill:#6d64b8;fill-opacity:1;fill-rule:nonzero;stroke:none"
         id="path344" />
      <path
         d="m 16209.5,7394.47 v -4.57 c 0,-6.55 3.5,-12.61 9.1,-15.89 l 317.4,-182.69 c 12.2,-7.09 27.6,1.74 27.6,15.89 v 4.57 c 0,6.55 -3.5,12.61 -9.2,15.89 l -317.4,182.69 c -12.2,7.09 -27.5,-1.75 -27.5,-15.89"
         style="fill:#6d64b8;fill-opacity:1;fill-rule:nonzero;stroke:none"
         id="path346" />
      <path
         d="m 15728.1,7560.17 v -4.57 c 0,-6.55 3.5,-12.61 9.1,-15.89 l 317.4,-182.68 c 12.2,-7.1 27.5,1.74 27.5,15.89 v 4.57 c 0,6.55 -3.4,12.6 -9.1,15.89 l -317.4,182.68 c -12.2,7.1 -27.5,-1.74 -27.5,-15.89"
         style="fill:#6d64b8;fill-opacity:1;fill-rule:nonzero;stroke:none"
         id="path348" />
      <path
         d="m 16209.5,7181.67 v -4.57 c 0,-6.55 3.5,-12.61 9.1,-15.89 l 317.4,-182.68 c 12.2,-7.1 27.6,1.73 27.6,15.89 v 4.57 c 0,6.54 -3.5,12.6 -9.2,15.88 l -317.4,182.69 c -12.2,7.09 -27.5,-1.74 -27.5,-15.89"
         style="fill:#6d64b8;fill-opacity:1;fill-rule:nonzero;stroke:none"
         id="path350" />
      <path
         d="m 15321.7,7579.36 v -4.57 c 0,-6.55 3.4,-12.61 9.1,-15.89 l 317.4,-182.69 c 12.2,-7.09 27.5,1.75 27.5,15.9 v 4.57 c 0,6.54 -3.5,12.6 -9.1,15.88 l -317.4,182.69 c -12.2,7.09 -27.5,-1.74 -27.5,-15.89"
         style="fill:#6d64b8;fill-opacity:1;fill-rule:nonzero;stroke:none"
         id="path352" />
      <path
         d="m 16117,7336.91 v -4.57 c 0,-6.55 3.5,-12.61 9.2,-15.89 l 409.8,-236.76 c 12.2,-7.09 27.6,1.74 27.6,15.89 v 4.57 c 0,6.55 -3.5,12.61 -9.2,15.89 l -409.8,236.75 c -12.2,7.1 -27.6,-1.73 -27.6,-15.88"
         style="fill:#6d64b8;fill-opacity:1;fill-rule:nonzero;stroke:none"
         id="path354" />
      <path
         d="m 15321.7,7797.39 v -4.57 c 0,-6.55 3.4,-12.61 12.6,-19.38 l 317.4,-182.68 c 8.7,-3.61 24,5.23 24,19.37 v 4.57 c 0,6.56 -3.5,12.61 -9.1,15.89 l -317.4,182.69 c -12.2,7.09 -27.5,-1.74 -27.5,-15.89"
         style="fill:#6d64b8;fill-opacity:1;fill-rule:nonzero;stroke:none"
         id="path356" />
      <path
         d="m 15728.1,6796.19 v -4.57 c 0,-6.55 3.5,-12.61 9.1,-15.89 l 317.4,-182.68 c 12.2,-7.1 27.5,1.74 27.5,15.89 v 4.57 c 0,6.55 -3.4,12.6 -9.1,15.89 l -317.4,182.68 c -12.2,7.1 -27.5,-1.74 -27.5,-15.89"
         style="fill:#6d64b8;fill-opacity:1;fill-rule:nonzero;stroke:none"
         id="path358" />
      <path
         d="m 16117,6572.93 v -4.57 c 0,-6.55 3.5,-12.61 9.2,-15.89 l 409.8,-236.76 c 12.2,-7.09 27.6,1.74 27.6,15.89 v 4.57 c 0,6.55 -3.5,12.61 -9.2,15.89 l -409.8,236.75 c -12.2,7.1 -27.6,-1.73 -27.6,-15.88"
         style="fill:#6d64b8;fill-opacity:1;fill-rule:nonzero;stroke:none"
         id="path360" />
      <path
         d="m 15321.7,7033.41 v -4.57 c 0,-6.55 3.4,-12.6 12.6,-19.38 l 317.4,-182.68 c 8.7,-3.61 24,5.23 24,19.37 v 4.57 c 0,6.56 -3.5,12.61 -9.1,15.89 l -317.4,182.69 c -12.2,7.09 -27.5,-1.74 -27.5,-15.89"
         style="fill:#6d64b8;fill-opacity:1;fill-rule:nonzero;stroke:none"
         id="path362" />
      <path
         d="m 15325.1,7471.21 v -4.57 c 0,-6.55 3.5,-12.6 9.2,-15.89 l 818,-473.97 c 12.2,-7.09 27.5,1.74 27.5,15.89 v 4.57 c 0,6.55 -3.5,12.6 -9.1,15.89 l -818,473.97 c -12.2,7.1 -27.6,-1.74 -27.6,-15.89"
         style="fill:#6d64b8;fill-opacity:1;fill-rule:nonzero;stroke:none"
         id="path364" />
      <path
         d="m 15708.9,6921.78 v -4.57 c 0,-6.55 3.5,-12.61 9.1,-15.89 l 818,-473.98 c 12.2,-7.09 27.6,1.74 27.6,15.89 v 4.57 c 0,6.55 -3.5,12.61 -9.2,15.89 l -817.9,473.98 c -12.3,7.09 -27.6,-1.75 -27.6,-15.89"
         style="fill:#6d64b8;fill-opacity:1;fill-rule:nonzero;stroke:none"
         id="path366" />
      <path
         d="m 15321.7,7251.44 v -4.57 c 0,-6.55 3.4,-12.61 9.1,-15.89 l 818,-473.97 c 12.2,-7.1 27.5,1.74 27.5,15.89 v 4.57 c 0,6.55 -3.5,12.6 -9.1,15.89 l -818,473.97 c -12.2,7.09 -27.5,-1.74 -27.5,-15.89"
         style="fill:#6d64b8;fill-opacity:1;fill-rule:nonzero;stroke:none"
         id="path368" />
      <path
         d="m 16209.5,6960.15 v -4.57 c 0,-6.55 3.5,-12.61 9.1,-15.89 l 317.4,-182.68 c 12.2,-7.1 27.6,1.74 27.6,15.89 v 4.57 c 0,6.55 -3.5,12.6 -9.2,15.89 l -317.4,182.68 c -12.2,7.09 -27.5,-1.74 -27.5,-15.89"
         style="fill:#6d64b8;fill-opacity:1;fill-rule:nonzero;stroke:none"
         id="path370" />
      <path
         d="m 15728.1,7125.86 v -4.57 c 0,-6.56 3.5,-12.61 9.1,-15.9 l 317.4,-182.68 c 12.2,-7.09 27.5,1.74 27.5,15.89 v 4.57 c 0,6.55 -3.4,12.6 -9.1,15.89 l -317.4,182.68 c -12.2,7.09 -27.5,-1.74 -27.5,-15.88"
         style="fill:#6d64b8;fill-opacity:1;fill-rule:nonzero;stroke:none"
         id="path372" />
      <path
         d="m 16209.5,6747.35 v -4.57 c 0,-6.55 3.5,-12.6 9.1,-15.88 l 317.4,-182.69 c 12.2,-7.09 27.6,1.74 27.6,15.89 v 4.57 c 0,6.55 -3.5,12.6 -9.2,15.89 l -317.4,182.68 c -12.2,7.09 -27.5,-1.74 -27.5,-15.89"
         style="fill:#6d64b8;fill-opacity:1;fill-rule:nonzero;stroke:none"
         id="path374" />
      <path
         d="m 15321.7,7145.04 v -4.57 c 0,-6.55 3.4,-12.6 9.1,-15.89 l 317.4,-182.68 c 12.2,-7.09 27.5,1.74 27.5,15.89 v 4.56 c 0,6.56 -3.5,12.61 -9.1,15.89 l -317.4,182.69 c -12.2,7.09 -27.5,-1.74 -27.5,-15.89"
         style="fill:#6d64b8;fill-opacity:1;fill-rule:nonzero;stroke:none"
         id="path376" />
      <path
         d="m 16117,6902.59 v -4.57 c 0,-6.55 3.5,-12.6 9.2,-15.89 l 409.8,-236.75 c 12.2,-7.1 27.6,1.74 27.6,15.89 v 4.57 c 0,6.54 -3.5,12.6 -9.2,15.88 l -409.8,236.76 c -12.2,7.09 -27.6,-1.74 -27.6,-15.89"
         style="fill:#6d64b8;fill-opacity:1;fill-rule:nonzero;stroke:none"
         id="path378" />
      <path
         d="m 15321.7,7363.07 v -4.57 c 0,-6.55 3.4,-12.61 12.6,-19.38 l 317.4,-182.68 c 8.7,-3.61 24,5.23 24,19.38 v 4.57 c 0,6.55 -3.5,12.6 -9.1,15.89 l -317.4,182.68 c -12.2,7.1 -27.5,-1.74 -27.5,-15.89"
         style="fill:#6d64b8;fill-opacity:1;fill-rule:nonzero;stroke:none"
         id="path380" />
      <path
         d="m 18033.8,9183.3 1187,-687.83 c 39.8,-23.04 64.3,-65.52 64.3,-111.47 l -0.1,-818.18 c 0,-99.29 -107.6,-161.24 -193.5,-111.41 l -849.3,493.27 c -247.9,-23.11 -334.3,-35.82 -334.3,-35.82 l 76.2,185.58 -79.5,45.72 c -39.7,23.05 -64.2,65.5 -64.2,111.43 v 817.24 c 0,99.26 107.5,161.23 193.4,111.47"
         style="fill:#ffffff;fill-opacity:1;fill-rule:nonzero;stroke:none"
         id="path382" />
      <path
         d="m 19285,7565.82 0.1,818.18 c 0,45.95 -24.5,88.43 -64.3,111.47 l -1187,687.83 c -29.3,17 -61.2,20.94 -90.4,14.83 39,38.12 101.2,50.73 155,19.59 l 1187,-687.83 c 39.8,-23.04 64.2,-65.51 64.2,-111.48 l -0.1,-818.17 c 0,-81.64 -101,-164.04 -184.7,-163.07 63.8,4.48 120.2,56.76 120.2,128.65"
         style="fill:#6d64b8;fill-opacity:1;fill-rule:nonzero;stroke:none"
         id="path384" />
      <path
         d="m 18058.4,8520.59 v -9.85 c 0,-14.11 7.5,-27.16 19.7,-34.24 l 683.9,-393.66 c 26.3,-15.29 59.4,3.75 59.4,34.24 v 9.85 c 0,14.11 -7.5,27.16 -19.8,34.23 l -683.8,393.67 c -26.4,15.28 -59.4,-3.75 -59.4,-34.24"
         style="fill:#6d64b8;fill-opacity:1;fill-rule:nonzero;stroke:none"
         id="path386" />
      <path
         d="m 18058.4,8744.03 v -9.85 c 0,-14.12 7.5,-27.16 19.7,-34.24 l 883.1,-510.18 c 26.3,-15.29 59.4,3.75 59.4,34.24 v 9.85 c 0,14.11 -7.5,27.16 -19.8,34.24 l -883,510.18 c -26.4,15.29 -59.4,-3.75 -59.4,-34.24"
         style="fill:#6d64b8;fill-opacity:1;fill-rule:nonzero;stroke:none"
         id="path388" />
      <path
         d="m 18033.8,7468.93 1187,-687.83 c 39.8,-23.03 64.3,-65.51 64.3,-111.47 l -0.1,-818.17 c 0,-99.3 -107.6,-161.25 -193.5,-111.41 l -849.3,493.26 c -247.9,-23.1 -334.3,-35.81 -334.3,-35.81 l 76.2,185.58 -79.5,45.72 c -39.7,23.05 -64.2,65.5 -64.2,111.42 v 817.25 c 0,99.25 107.5,161.23 193.4,111.46"
         style="fill:#ffffff;fill-opacity:1;fill-rule:nonzero;stroke:none"
         id="path390" />
      <path
         d="m 19285,5851.46 0.1,818.17 c 0,45.96 -24.5,88.44 -64.3,111.47 l -1187,687.83 c -29.3,17 -61.2,20.95 -90.4,14.84 39,38.11 101.2,50.72 155,19.59 l 1187,-687.83 c 39.8,-23.04 64.2,-65.52 64.2,-111.48 l -0.1,-818.17 c 0,-81.65 -101,-164.05 -184.7,-163.08 63.8,4.48 120.2,56.76 120.2,128.66"
         style="fill:#6d64b8;fill-opacity:1;fill-rule:nonzero;stroke:none"
         id="path392" />
      <path
         d="m 18531.1,6834.12 c -44.7,87.27 -161.7,251.16 -285.2,183.05 -123.4,-68.11 0,-306.5 0,-306.5 l 285.2,-498.07 332.1,200.08 c 0,0 87.2,151.12 -66,329.91 -80.6,93.96 -174.6,121.33 -266.1,91.53"
         style="fill:#6d64b8;fill-opacity:1;fill-rule:nonzero;stroke:none"
         id="path394" />
      <path
         d="m 19285,4115.9 0.1,818.2 c 0,45.9 -24.5,88.4 -64.3,111.4 l -1187,687.87 c -29.3,16.99 -61.2,20.94 -90.4,14.82 39,38.12 101.2,50.74 155,19.59 l 1187,-687.78 c 39.8,-23.1 64.2,-65.6 64.2,-111.5 l -0.1,-818.2 c 0,-81.6 -101,-164 -184.7,-163.1 63.8,4.5 120.2,56.8 120.2,128.7"
         style="fill:#6d64b8;fill-opacity:1;fill-rule:nonzero;stroke:none"
         id="path396" />
      <path
         d="m 18033.8,5733.37 1187,-687.87 c 39.8,-23 64.3,-65.5 64.3,-111.4 l -0.1,-818.2 c 0,-99.3 -107.6,-161.3 -193.5,-111.4 l -849.3,493.2 c -247.9,-23.1 -334.3,-35.8 -334.3,-35.8 l 76.2,185.6 -79.5,45.7 c -39.7,23.1 -64.2,65.5 -64.2,111.5 v 817.2 c 0,99.26 107.5,161.23 193.4,111.47"
         style="fill:#ffffff;fill-opacity:1;fill-rule:nonzero;stroke:none"
         id="path398" />
      <path
         d="m 18752.6,4895.4 v -538.9 l 98.1,-55.4 v 537.1 l -98.1,57.2"
         style="fill:#6d64b8;fill-opacity:1;fill-rule:nonzero;stroke:none"
         id="path400" />
      <path
         d="m 18695.7,4929.5 v -538.8 l -308.7,177.9 c -98.2,56.6 -158.7,161.3 -158.7,274.6 v 258.7 c 0,44.3 48.4,71.7 86.4,48.7 l 186.6,-112.7 1.5,203.1 c 0,75.2 99.8,103.4 137.8,38.6 34.5,-58.9 -19.9,-233.2 55.1,-350.1"
         style="fill:#6d64b8;fill-opacity:1;fill-rule:nonzero;stroke:none"
         id="path402" />
      <path
         d="m 9925.19,7230.17 c -36.54,-247.51 -102.68,-477.18 -81.8,-685.42 l 194.81,303.7 c 27.3,42.69 40.9,92.81 38.7,143.48 l -10.5,239.97 -141.21,-1.73"
         style="fill:#f3a89f;fill-opacity:1;fill-rule:nonzero;stroke:none"
         id="path404" />
      <path
         d="m 9758.9,8015.62 -0.4,0.44 0.4,-0.44"
         style="fill:#747cc6;fill-opacity:1;fill-rule:nonzero;stroke:none"
         id="path406" />
      <path
         d="m 9758.91,8015.61 -0.01,0.01 0.01,-0.01"
         style="fill:#747cc6;fill-opacity:1;fill-rule:nonzero;stroke:none"
         id="path408" />
      <path
         d="m 9786.89,7927.04 c 49.43,-45.43 65.47,-95.02 120.79,-165.8 42.08,-187.66 14.88,-393.93 -10.47,-565.6 0,0 32.94,-2.99 93.1,11.63 41.89,10.17 76.09,24.63 76.09,24.63 -6,471.54 -191.3,642.23 -279.51,695.14"
         style="fill:#642491;fill-opacity:1;fill-rule:nonzero;stroke:none"
         id="path410" />
      <path
         d="m 10138.8,3490.7 c 0,-254.3 -399.61,-460.5 -892.58,-460.5 -492.98,0 -892.61,206.2 -892.61,460.5 0,254.4 399.63,460.6 892.61,460.6 492.97,0 892.58,-206.2 892.58,-460.6"
         style="fill:#6d64b8;fill-opacity:1;fill-rule:nonzero;stroke:none"
         id="path412" />
      <path
         d="m 9916.64,3685 c 1.15,-44 1.48,-69.8 0.81,-73.1 -194.17,-201.3 -470.28,-10.7 -470.28,-10.7 l -5.76,365.4 -4.07,2 c -12.76,6.9 -26.18,12.3 -39.93,16.3 -2.02,-148.6 -3.98,-284.6 -5.79,-395 l 248.49,-135.7 c 60.08,-32.8 134.11,-32.9 194.24,-0.2 l 0.28,0.2 c 90.57,49.3 117.86,150.3 82.01,230.8"
         style="fill:#21201f;fill-opacity:1;fill-rule:nonzero;stroke:none"
         id="path414" />
      <path
         d="m 9385.17,3311.4 c -199.51,-114 -493.55,22.6 -493.55,22.6 v 317.1 c -57.93,28.1 -127.13,27 -184.16,-3.5 -130.85,-69.9 -125.24,-230.8 4.9,-301.9 l 390.67,-213.3 c 60.08,-32.8 134.11,-32.9 194.24,-0.2 l 0.28,0.2 c 83.6,45.5 113.27,135 89.16,211.9 -0.57,-18.9 -1.09,-30.2 -1.54,-32.9"
         style="fill:#21201f;fill-opacity:1;fill-rule:nonzero;stroke:none"
         id="path416" />
      <path
         d="m 9392.61,3319.2 c 11.19,-70.5 -20.44,-146.2 -95.06,-186.8 l -0.28,-0.2 c -60.13,-32.7 -134.16,-32.6 -194.24,0.2 l -390.67,213.3 c -85.63,46.8 -114.51,139.7 -86.99,217.7 -48.21,-85 -23.01,-199.3 76.21,-253.5 l 402.51,-219.8 c 56.61,-25.4 138.17,-33.8 200.12,-0.1 l 0.28,0.1 c 90.05,49 119.38,147.6 88.12,229.1"
         style="fill:#eeeff8;fill-opacity:1;fill-rule:nonzero;stroke:none"
         id="path418" />
      <path
         d="m 8862.69,3298.1 c 14.18,14.1 28.36,28.3 42.54,42.5 4.11,4.1 4.42,11.7 0,15.7 -4.44,4.1 -11.33,4.4 -15.72,0 -14.18,-14.2 -28.36,-28.3 -42.54,-42.5 -4.12,-4.1 -4.42,-11.7 0,-15.7 4.44,-4.1 11.32,-4.4 15.72,0"
         style="fill:#eeeff8;fill-opacity:1;fill-rule:nonzero;stroke:none"
         id="path420" />
      <path
         d="m 8915.42,3265.2 c 14.18,14.2 28.36,28.3 42.54,42.5 4.11,4.1 4.42,11.7 0,15.7 -4.44,4.1 -11.33,4.4 -15.72,0 -14.18,-14.1 -28.36,-28.3 -42.54,-42.5 -4.11,-4.1 -4.42,-11.7 0,-15.7 4.44,-4.1 11.32,-4.4 15.72,0"
         style="fill:#eeeff8;fill-opacity:1;fill-rule:nonzero;stroke:none"
         id="path422" />
      <path
         d="m 8796.94,3331.3 c 14.18,14.2 28.36,28.4 42.54,42.6 4.11,4.1 4.42,11.6 0,15.7 -4.44,4 -11.33,4.4 -15.72,0 -14.18,-14.2 -28.36,-28.4 -42.54,-42.6 -4.11,-4.1 -4.42,-11.6 0,-15.7 4.44,-4.1 11.33,-4.4 15.72,0"
         style="fill:#eeeff8;fill-opacity:1;fill-rule:nonzero;stroke:none"
         id="path424" />
      <path
         d="m 8748.87,3371.4 c -6.14,42.9 -3,87.7 13.05,128.2 14.22,35.9 40.58,66.9 74.5,85.5 18.36,10.1 38.77,16.1 59.73,16.8 14.27,0.4 14.34,22.7 0,22.2 -43.1,-1.4 -83.55,-21.7 -113.44,-52.3 -32.97,-33.8 -50.83,-78.5 -56.74,-124.8 -3.46,-27.2 -2.41,-54.5 1.46,-81.5 0.86,-6 8.42,-9.2 13.68,-7.8 6.39,1.8 8.61,7.7 7.76,13.7"
         style="fill:#eeeff8;fill-opacity:1;fill-rule:nonzero;stroke:none"
         id="path426" />
      <path
         d="m 9129.19,3143.8 c 0.9,51.5 2.03,108.6 33.94,151.8 29.35,39.7 83.12,58.8 131.21,58 26.74,-0.5 53.99,-8 72.43,-28.3 9.62,-10.7 25.3,5.1 15.71,15.7 -38.47,42.5 -106.59,40.9 -156.75,23.7 -26.75,-9.2 -52.08,-23.8 -71.25,-44.9 -19.54,-21.4 -31.71,-48.2 -38.28,-76.3 -7.62,-32.6 -8.65,-66.4 -9.23,-99.7 -0.25,-14.3 21.98,-14.3 22.22,0"
         style="fill:#eeeff8;fill-opacity:1;fill-rule:nonzero;stroke:none"
         id="path428" />
      <path
         d="m 9929.69,3641 c 11.19,-70.5 -20.44,-146.2 -95.06,-186.8 l -0.28,-0.2 c -60.13,-32.7 -134.16,-32.6 -194.24,0.2 l -390.67,213.3 c -85.62,46.8 -114.5,139.7 -86.99,217.7 -48.21,-85 -23.01,-199.3 76.22,-253.5 l 402.5,-219.8 c 56.61,-25.4 138.17,-33.8 200.12,-0.1 l 0.28,0.1 c 90.05,49 119.37,147.6 88.12,229.1"
         style="fill:#eeeff8;fill-opacity:1;fill-rule:nonzero;stroke:none"
         id="path430" />
      <path
         d="m 9399.77,3619.9 c 14.18,14.1 28.36,28.3 42.54,42.5 4.11,4.1 4.42,11.6 0,15.7 -4.44,4.1 -11.33,4.4 -15.72,0 -14.18,-14.2 -28.36,-28.4 -42.54,-42.5 -4.12,-4.1 -4.42,-11.7 0,-15.7 4.44,-4.1 11.32,-4.4 15.72,0"
         style="fill:#eeeff8;fill-opacity:1;fill-rule:nonzero;stroke:none"
         id="path432" />
      <path
         d="m 9452.5,3587 c 14.18,14.2 28.36,28.3 42.54,42.5 4.11,4.1 4.42,11.7 0,15.7 -4.44,4.1 -11.33,4.4 -15.72,0 -14.18,-14.1 -28.36,-28.3 -42.54,-42.5 -4.11,-4.1 -4.42,-11.7 0,-15.7 4.44,-4.1 11.33,-4.4 15.72,0"
         style="fill:#eeeff8;fill-opacity:1;fill-rule:nonzero;stroke:none"
         id="path434" />
      <path
         d="m 9334.02,3653.1 c 14.18,14.2 28.36,28.4 42.54,42.6 4.11,4.1 4.42,11.6 0,15.7 -4.44,4 -11.33,4.4 -15.72,0 -14.18,-14.2 -28.36,-28.4 -42.54,-42.6 -4.11,-4.1 -4.42,-11.6 0,-15.7 4.44,-4.1 11.33,-4.4 15.72,0"
         style="fill:#eeeff8;fill-opacity:1;fill-rule:nonzero;stroke:none"
         id="path436" />
      <path
         d="m 9285.95,3693.2 c -6.14,42.9 -3,87.7 13.05,128.2 14.22,35.9 40.58,66.9 74.5,85.5 18.37,10.1 38.77,16.1 59.73,16.8 14.27,0.4 14.34,22.6 0,22.2 -43.1,-1.4 -83.55,-21.7 -113.44,-52.3 -32.97,-33.8 -50.82,-78.5 -56.74,-124.8 -3.46,-27.2 -2.4,-54.5 1.47,-81.5 0.85,-6 8.41,-9.2 13.67,-7.8 6.39,1.8 8.61,7.7 7.76,13.7"
         style="fill:#eeeff8;fill-opacity:1;fill-rule:nonzero;stroke:none"
         id="path438" />
      <path
         d="m 9666.27,3465.6 c 0.9,51.5 2.03,108.6 33.94,151.8 29.35,39.7 83.12,58.8 131.22,58 26.73,-0.5 53.98,-8 72.42,-28.3 9.62,-10.7 25.3,5.1 15.71,15.7 -38.47,42.5 -106.59,40.9 -156.75,23.7 -26.75,-9.2 -52.08,-23.8 -71.25,-44.9 -19.54,-21.4 -31.71,-48.2 -38.28,-76.3 -7.62,-32.6 -8.65,-66.4 -9.23,-99.7 -0.25,-14.3 21.98,-14.3 22.22,0"
         style="fill:#eeeff8;fill-opacity:1;fill-rule:nonzero;stroke:none"
         id="path440" />
      <path
         d="M 8891.62,6197.18 V 3334 c 0,0 294.04,-136.6 493.55,-22.6 7.12,42.7 31.17,2244.4 31.17,2244.4 l 30.83,-1954.6 c 0,0 276.11,-190.6 470.28,10.7 7.13,35.6 -37.41,2800.13 -37.41,2800.13 0,0 -183.25,-340.89 -988.42,-214.85"
         style="fill:#21234f;fill-opacity:1;fill-rule:nonzero;stroke:none"
         id="path442" />
      <path
         d="m 9234.99,5816.3 80.83,-53.9 82.36,99.53 v 170.09 l -163.19,-35.7 z m 82.36,-64.31 -90.18,60.12 v 190.5 l 178.83,39.12 v -182.62 l -88.65,-107.12"
         style="fill:#ffffff;fill-opacity:1;fill-rule:nonzero;stroke:none"
         id="path444" />
      <path
         d="m 9616.79,5892.89 80.84,-53.88 82.36,99.52 v 170.08 l -163.2,-35.69 z m 82.37,-64.3 -90.18,60.12 v 190.5 l 178.83,39.12 v -182.62 l -88.65,-107.12"
         style="fill:#ffffff;fill-opacity:1;fill-rule:nonzero;stroke:none"
         id="path446" />
      <path
         d="m 8950.55,6151.32 c 112.1,-37.83 245.46,-49.79 325.09,-53.52 44.19,-2.07 88.48,0.17 132.17,7.12 363.46,57.8 496.85,200.36 480.04,432.01 -17.73,244.36 42.3,655.72 42.3,655.72 138.35,973.69 -391.85,739.41 -391.85,739.41 -1.57,3.84 -31.2,-13.47 -65.31,-35.01 -61.24,-38.68 -130.29,-63.25 -202.17,-72.22 -93.87,-11.72 -230.61,-58.55 -345.29,-188.71 -501.89,-569.65 -38.81,-700.7 -42.97,-782.73 -4.25,-83.71 2.19,-131.78 4.42,-239.05 0.42,-20.41 4.64,-73.34 -9.83,-214.55 0,0 -15.65,-98.09 1.98,-170.78 8.85,-36.48 35.85,-65.68 71.42,-77.69"
         style="fill:#642491;fill-opacity:1;fill-rule:nonzero;stroke:none"
         id="path448" />
      <path
         d="m 9198.3,7644.82 c 0,0 428.73,-230.07 -249.35,-802.32 -19.37,10.89 -276.84,24.01 -346.58,325.04 0,0 299.64,642.95 595.93,477.28"
         style="fill:#642491;fill-opacity:1;fill-rule:nonzero;stroke:none"
         id="path450" />
      <path
         d="m 9062.75,3432 h -7.83 v 2265.09 h 7.83 V 3432"
         style="fill:#ffffff;fill-opacity:1;fill-rule:nonzero;stroke:none"
         id="path452" />
      <path
         d="m 9601.99,3632.2 -41.35,2013.74 7.82,0.16 41.35,-2013.8 -7.82,-0.1"
         style="fill:#ffffff;fill-opacity:1;fill-rule:nonzero;stroke:none"
         id="path454" />
      <path
         d="m 9048.53,8443.28 c -10.97,-4.05 -76.46,-581.45 194.53,-516.56 0,0 -0.63,-68.03 -23.61,-111.17 0,0 192.3,-69.16 308.26,26.27 20.47,16.84 28.3,44.66 19.87,69.79 -8.13,24.2 -19.99,58.88 -34.42,99.24 -38.2,106.78 56.31,624.81 -464.63,432.43"
         style="fill:#f3a89f;fill-opacity:1;fill-rule:nonzero;stroke:none"
         id="path456" />
      <path
         d="m 9172.3,8155.77 c 19.2,-3.41 17.33,222.57 117.6,-57.37 100.29,-279.93 254.73,-114.56 238.78,-79.6 -15.94,34.96 76.54,152.67 76.41,166.45 -0.14,13.77 109.41,381.6 -220.78,432.99 -330.19,51.39 -177.63,0.52 -232.9,66.3 -55.26,65.79 -345.48,-169.5 -24.36,-291.21 0,0 -17.29,-226.46 45.25,-237.56"
         style="fill:#20224e;fill-opacity:1;fill-rule:nonzero;stroke:none"
         id="path458" />
      <path
         d="m 8665.68,7286.01 c 0,0 99.16,-338.26 376.82,-360.28 1.65,10.38 56.53,55.57 56.53,55.57 0,0 -258.11,-9.8 -389.26,372.85 l -44.09,-68.14"
         style="fill:#ffffff;fill-opacity:1;fill-rule:nonzero;stroke:none"
         id="path460" />
      <path
         d="m 8882.56,6853.39 c 0,0 823.17,-81.15 1037.25,261.25 l -12.76,-111.37 c 0,0 -146.58,-290.61 -1025.7,-227.14 l 1.21,77.26"
         style="fill:#ffffff;fill-opacity:1;fill-rule:nonzero;stroke:none"
         id="path462" />
      <path
         d="m 8606.32,7158.39 c 0,0 -137.22,-206.1 -135.15,-209.45 2.07,-3.35 -327.63,309.73 -327.63,309.73 l -0.05,-0.03 -24.31,121 c -3.76,18.68 -17.1,33.98 -35.08,40.26 l -80.54,28.12 -115.22,174.26 c 0,0 -33.96,2.77 -22.32,-21.08 11.64,-23.84 88.45,-174.17 88.45,-174.17 0,0 -102.9,-80.58 -57.82,-140.01 22.6,-29.78 47.55,-45.33 63.03,-52.78 11.28,-5.44 21.34,-13.06 29.63,-22.43 l 26.63,-29.5 -0.34,-0.2 c 0,0 83.92,-157.25 261.76,-422.56 174,-259.6 340.55,-131.8 340.55,-131.8 l 224.51,249.2 c -81.77,30.53 -194.42,101.54 -236.1,281.44"
         style="fill:#f3a89f;fill-opacity:1;fill-rule:nonzero;stroke:none"
         id="path464" />
      <path
         d="m 9945.45,7323.29 c 0,0 103.15,8.68 115.25,27.21 l 3.6,-52.03 c 0,0 -119.74,-34.3 -124.21,-28.03 l 5.36,52.85"
         style="fill:#ffffff;fill-opacity:1;fill-rule:nonzero;stroke:none"
         id="path466" />
      <path
         d="m 12678.1,6582.78 c 0.9,-0.08 1.9,-0.15 2.8,-0.23 -108.5,9.16 -227.8,37.58 -351.5,98.02 -83.9,-358.22 17.1,-827.33 17.1,-827.33 0,0 46.7,-298.14 23.3,-451.94 -22.2,-146.3 15.5,-300 36.7,-434.1 18.2,-115.1 46.9,-364.5 46.9,-364.5 103.1,-76.7 189.2,-6.8 189.2,-6.8 0,0 59.9,875.3 98.6,1363.19 -33.6,199.54 -71.1,465.6 -63.1,623.69"
         style="fill:#ffffff;fill-opacity:1;fill-rule:nonzero;stroke:none"
         id="path468" />
      <path
         d="m 13782.9,4086.8 c 0,-250.9 -394.4,-454.4 -880.8,-454.4 -486.5,0 -880.8,203.5 -880.8,454.4 0,251 394.3,454.5 880.8,454.5 486.4,0 880.8,-203.5 880.8,-454.5"
         style="fill:#6d64b8;fill-opacity:1;fill-rule:nonzero;stroke:none"
         id="path470" />
      <path
         d="m 12684.3,6383.25 56.9,-424.16 c 0,0 -7.3,-92.89 -6.9,-88.36 0.3,4.52 -75.5,281.69 -50,512.52"
         style="fill:#b1a5d9;fill-opacity:1;fill-rule:nonzero;stroke:none"
         id="path472" />
      <path
         d="m 12678.1,6580.46 c -13.9,-277.3 111.7,-886.84 111.7,-886.84 0,0 54.4,-352.12 31,-505.92 -22.2,-146.4 15.5,-300.1 36.7,-434.2 18.1,-115 46.8,-364.4 46.8,-364.4 103.2,-76.7 189.3,-6.8 189.3,-6.8 0,0 82,1199.7 116.2,1572.93 45.6,498.79 -7.2,723.58 -7.2,723.58 0,0 -220.7,-124.87 -524.5,-98.35"
         style="fill:#ffffff;fill-opacity:1;fill-rule:nonzero;stroke:none"
         id="path474" />
      <path
         d="m 12450.5,4464.3 c -4.5,2.8 -119.3,-47 -62.7,-218.8 5.9,-17.7 12.3,-35.2 12.9,-53.9 l 4.5,-132.3 c 0.3,-7.6 5.7,-14 13.2,-15.4 l 10.7,-2 c 4.5,-0.8 8.7,2.6 8.8,7.1 0.3,26.4 1.4,105.4 1.7,136.5 0.1,11 5.6,21.4 14.9,27.5 16,10.5 43.5,20.8 74.7,-1.6 35.1,-25.2 120.7,-81.5 167.4,-112.1 20,-13 45.5,-14.1 66.5,-2.7 56.9,30.8 165.4,97.9 188.8,171.1 2.4,7.3 -1,15.3 -7.9,18.7 -21.5,10.5 -82,27.7 -224,7.6 0,0 41.8,-73 -1.9,-83.3 -17.1,-4.1 -34.9,3.4 -45.3,17.7 -34.9,47.7 -137.8,183 -222.3,235.9"
         style="fill:#1a1918;fill-opacity:1;fill-rule:nonzero;stroke:none"
         id="path476" />
      <path
         d="m 12642.6,4593.6 c 0.7,-91.4 4.7,-143.1 42.9,-225.9 l 45.1,-96 c 7.9,-20.1 14.7,-48.6 -4.2,-59.1 -2.3,-1.1 -4.8,-2 -7.7,-2.6 -17.2,-3.7 -35,3.5 -45.3,17.7 -34.8,47.7 -137.5,182.6 -221.9,235.7 l -0.4,-0.1 v 0.4 0.1 c -0.4,37.4 7.5,70.2 2.3,136.6 0,0 90.2,-75.2 189.2,-6.8"
         style="fill:#f3a89f;fill-opacity:1;fill-rule:nonzero;stroke:none"
         id="path478" />
      <path
         d="m 12585.8,6171.81 c -1.5,-179.98 -3,-359.97 -4.6,-539.95 -1.5,-179.96 -3,-359.96 -4.6,-539.96 -0.8,-101.2 -1.7,-202.5 -2.5,-303.7 -0.1,-8.2 12.6,-8.2 12.6,0 1.6,180 3.1,360 4.6,539.9 1.6,180 3.1,360 4.6,539.99 0.9,101.24 1.8,202.48 2.6,303.72 0.1,8.17 -12.6,8.17 -12.7,0"
         style="fill:#b1a5d9;fill-opacity:1;fill-rule:nonzero;stroke:none"
         id="path480" />
      <path
         d="m 12901.5,4253 c -4.5,2.8 -119.4,-47.1 -62.7,-218.9 5.9,-17.7 12.2,-35.2 12.9,-53.8 l 4.5,-132.3 c 0.2,-7.6 5.7,-14 13.2,-15.4 l 10.7,-2 c 4.5,-0.9 8.7,2.5 8.7,7.1 0.4,26.4 1.4,105.3 1.8,136.4 0.1,11.1 5.6,21.4 14.8,27.5 16,10.6 43.6,20.9 74.8,-1.6 35,-25.2 120.7,-81.5 167.3,-112 20,-13.1 45.6,-14.2 66.6,-2.8 56.8,30.9 165.4,97.9 188.8,171.1 2.4,7.4 -1,15.3 -8,18.7 -21.4,10.6 -81.9,27.8 -223.9,7.7 0,0 41.8,-73 -1.9,-83.4 -17.1,-4 -35,3.5 -45.3,17.7 -34.9,47.8 -137.9,183.1 -222.3,236"
         style="fill:#1a1918;fill-opacity:1;fill-rule:nonzero;stroke:none"
         id="path482" />
      <path
         d="m 13093.6,4382.3 c 0.7,-91.4 4.7,-143.1 42.8,-226 l 45.2,-96 c 7.9,-20 14.7,-48.5 -4.3,-59.1 -2.2,-1 -4.7,-1.9 -7.6,-2.5 -17.2,-3.8 -35,3.5 -45.4,17.7 -34.8,47.7 -137.4,182.6 -221.8,235.7 l -0.4,-0.1 v 0.4 0 c -0.4,37.5 7.4,70.3 2.2,136.7 0,0 90.3,-75.2 189.3,-6.8"
         style="fill:#f3a89f;fill-opacity:1;fill-rule:nonzero;stroke:none"
         id="path484" />
      <path
         d="m 13036.7,6243.81 c -1.8,-216.67 -3.7,-433.35 -5.5,-650.01 -1.9,-216.7 -3.7,-433.4 -5.5,-650 -1.1,-121.9 -2.1,-243.8 -3.2,-365.7 0,-9.8 15.2,-9.8 15.3,0 1.9,216.7 3.7,433.4 5.5,650 1.9,216.7 3.7,433.4 5.6,650.07 1,121.88 2,243.76 3.1,365.64 0.1,9.83 -15.2,9.84 -15.3,0"
         style="fill:#b1a5d9;fill-opacity:1;fill-rule:nonzero;stroke:none"
         id="path486" />
      <path
         d="m 12329.4,6678.25 c 0,0 13.4,81.02 26.4,129.7 86.4,322.8 -88.9,838.43 -88.9,838.43 -128.9,907.51 365.3,689.15 365.3,689.15 1.4,3.59 29,-12.54 60.8,-32.62 57.1,-36.05 121.5,-58.95 188.5,-67.31 87.4,-10.93 214.9,-54.58 321.8,-175.89 467.8,-530.93 65.1,-450.86 82.2,-525.49 14.2,-62.36 -17.9,-227.62 -52.9,-369.36 -9.3,-37.81 -33.5,-292.92 -30,-486.05 0,0 -405.2,-229.26 -873.2,-0.56"
         style="fill:#f0379f;fill-opacity:1;fill-rule:nonzero;stroke:none"
         id="path488" />
      <path
         d="m 13007.2,8201.67 c 0,0 -22.7,109.61 0,147.56 15.5,1.56 264.3,19.25 49.2,566.51 0,0 -354.8,203.1 -377.9,-372.66 0,0 56,-139.46 14.5,-240.17 8.6,-155.99 314.2,-101.24 314.2,-101.24"
         style="fill:#f3a89f;fill-opacity:1;fill-rule:nonzero;stroke:none"
         id="path490" />
      <path
         d="m 13288.3,7514.29 -377.3,333.15 c 0,0 122.5,-271.16 369.5,-448.23 0,0 11.6,78.47 7.8,115.08"
         style="fill:#da1990;fill-opacity:1;fill-rule:nonzero;stroke:none"
         id="path492" />
      <path
         d="m 13080,8183.79 c 109.2,-38.74 333.6,-165.75 727.1,-574.75 0,0 48.4,-129.51 -20.3,-300.63 0,0 -341.7,35.18 -800.6,431.27 -60.3,52.03 -105.2,119.94 -127.7,196.32 -21.2,72.14 -24.2,156.28 42,214.5 49,43.1 118,55.09 179.5,33.29"
         style="fill:#f0379f;fill-opacity:1;fill-rule:nonzero;stroke:none"
         id="path494" />
      <path
         d="m 13060.2,8719.52 c 4.1,10.81 7.9,21.73 10.8,32.93 11.6,44.35 12.4,91.42 2.5,136.17 -5.4,24.66 -13.1,49.71 -29.2,69.62 -0.6,0.69 -1.2,1.26 -2.3,2.65 -68.9,85.31 -346.6,145.05 -500.9,20.93 -168.8,-135.71 -169.9,-384.79 -170.7,-391.65 -0.9,-6.87 -9.9,-212.33 -189.3,-410.56 -179.4,-198.23 -175.9,-821.11 264.3,-948.13 440.2,-127.01 505.4,332.32 505.4,332.32 0,0 -6.1,163.55 -94,365.38 -87.8,201.83 23.6,327.11 23.6,327.11 0,0 80.6,116.8 66.1,226.94 1.9,-6.33 3.5,-12.83 4.6,-19.43 2.7,-15.29 3.6,-30.87 3.8,-46.38 0.3,-17.62 0,-35.29 -1.6,-52.85 -7.8,-83.5 -41.7,-161.92 -51.7,-245.09 -4.9,-40.56 -2.7,-81.06 7.4,-120.67 9.6,-37.49 25,-73.23 41.5,-108.16 33.9,-72.06 70.3,-142.88 88.4,-221.02 16.8,-72.63 17.4,-152.23 -13.4,-221.41 -3.8,-8.49 -8,-16.76 -12.6,-24.83 -5,-8.54 8.2,-16.24 13.1,-7.71 38.4,66.71 46,146.29 34.7,221.36 -12.3,80.99 -46.2,156.11 -81.6,229.23 -17.4,35.84 -34.9,71.82 -47.4,109.7 -12.8,38.49 -19.3,77.99 -17.1,118.58 4.7,85.86 40.2,166.15 51.8,250.91 4.7,35.04 5.8,71.66 1.7,106.86 -3.7,31.65 -13.3,62.54 -34.8,86.76 -2.6,2.96 -5.4,5.72 -8.3,8.36 -1.6,2.7 -3.2,5.38 -4.9,8.03 0,0 -100,76.71 -49,128.5 4.8,4.84 11,8.06 17.7,8.77 16.1,1.69 46.6,-3.83 68,-61.17 1.8,-4.82 6.8,-7.77 11.8,-6.49 l 0.3,0.06 c 6,1.65 22.1,1.93 25.6,21.47 1.6,8.82 -0.2,17.89 -4.4,25.8 -7.4,13.74 -18.6,44.94 13.6,69.5 27.7,21.16 53.9,56.18 60.6,104.84 0.6,-7.63 0.9,-15.28 0.8,-22.95 -0.1,-21.95 -2.9,-43.79 -8.3,-65.08 -2.7,-10.99 -6.3,-21.75 -10.3,-32.34 -4.2,-10.92 -8.6,-21.79 -11.2,-33.21 -5.9,-25.24 -4.2,-52.16 5,-76.4 1.5,-3.85 5.1,-6.5 9.4,-5.33 3.7,1.02 6.8,5.51 5.3,9.39 -7.9,20.81 -10.1,43.63 -5.6,65.49 2.3,11.44 6.6,22.33 10.8,33.2"
         style="fill:#20224e;fill-opacity:1;fill-rule:nonzero;stroke:none"
         id="path496" />
      <path
         d="m 14599.2,7866.2 c -6,13.41 -24.1,15.52 -33.3,4.1 -38.8,-48.06 -105.5,-40.71 -105.5,-40.71 43.5,162.06 -86,-48.64 -86,-48.64 l -566.8,-173.34 c 4.5,-14.63 40.1,-141.32 -20.8,-299.2 l 621.6,352.02 c 248.2,30.18 217.6,145.12 190.8,205.77"
         style="fill:#f3a89f;fill-opacity:1;fill-rule:nonzero;stroke:none"
         id="path498" />
      <path
         d="m 12329.4,6678.25 c 221.5,-295 820.1,-129.13 873.2,0.56 0,0 -405.2,-229.26 -873.2,-0.56"
         style="fill:#b1a5d9;fill-opacity:1;fill-rule:nonzero;stroke:none"
         id="path500" />
      <path
         d="m 12936.1,7183.37 c 0,-14.31 -11.6,-25.91 -25.9,-25.91 -14.3,0 -25.9,11.6 -25.9,25.91 0,14.31 11.6,25.91 25.9,25.91 14.3,0 25.9,-11.6 25.9,-25.91"
         style="fill:#e3e2e0;fill-opacity:1;fill-rule:nonzero;stroke:none"
         id="path502" />
      <path
         d="m 12883.9,8130.98 c 0,-14.31 -11.6,-25.91 -25.9,-25.91 -14.3,0 -25.9,11.6 -25.9,25.91 0,14.3 11.6,25.91 25.9,25.91 14.3,0 25.9,-11.61 25.9,-25.91"
         style="fill:#e3e2e0;fill-opacity:1;fill-rule:nonzero;stroke:none"
         id="path504" />
      <path
         d="m 13767.6,7599.64 c 0,-14.32 -11.6,-25.91 -25.9,-25.91 -14.3,0 -25.9,11.59 -25.9,25.91 0,14.3 11.6,25.9 25.9,25.9 14.3,0 25.9,-11.6 25.9,-25.9"
         style="fill:#e3e2e0;fill-opacity:1;fill-rule:nonzero;stroke:none"
         id="path506" />
      <path
         d="m 13741.7,7399.21 c 0,-14.31 -11.6,-25.91 -25.9,-25.91 -14.4,0 -25.9,11.6 -25.9,25.91 0,14.3 11.5,25.9 25.9,25.9 14.3,0 25.9,-11.6 25.9,-25.9"
         style="fill:#e3e2e0;fill-opacity:1;fill-rule:nonzero;stroke:none"
         id="path508" />
      <path
         d="m 13482.2,7519.48 c 0,-14.31 -11.6,-25.9 -25.9,-25.9 -14.3,0 -25.9,11.59 -25.9,25.9 0,14.31 11.6,25.91 25.9,25.91 14.3,0 25.9,-11.6 25.9,-25.91"
         style="fill:#e3e2e0;fill-opacity:1;fill-rule:nonzero;stroke:none"
         id="path510" />
      <path
         d="m 13004.5,7529.55 c 0,-14.31 -11.6,-25.91 -25.9,-25.91 -14.3,0 -25.9,11.6 -25.9,25.91 0,14.3 11.6,25.9 25.9,25.9 14.3,0 25.9,-11.6 25.9,-25.9"
         style="fill:#e3e2e0;fill-opacity:1;fill-rule:nonzero;stroke:none"
         id="path512" />
      <path
         d="m 13139.9,8067.49 c 0,-14.31 -11.6,-25.91 -25.9,-25.91 -14.3,0 -25.9,11.6 -25.9,25.91 0,14.3 11.6,25.9 25.9,25.9 14.3,0 25.9,-11.6 25.9,-25.9"
         style="fill:#e3e2e0;fill-opacity:1;fill-rule:nonzero;stroke:none"
         id="path514" />
      <path
         d="m 12643.6,7131.56 c 0,-14.31 -11.6,-25.91 -25.9,-25.91 -14.3,0 -25.9,11.6 -25.9,25.91 0,14.31 11.6,25.9 25.9,25.9 14.3,0 25.9,-11.59 25.9,-25.9"
         style="fill:#e3e2e0;fill-opacity:1;fill-rule:nonzero;stroke:none"
         id="path516" />
      <path
         d="m 12453.7,7051.68 c 0,-14.31 -11.6,-25.91 -25.9,-25.91 -14.3,0 -25.9,11.6 -25.9,25.91 0,14.3 11.6,25.9 25.9,25.9 14.3,0 25.9,-11.6 25.9,-25.9"
         style="fill:#e3e2e0;fill-opacity:1;fill-rule:nonzero;stroke:none"
         id="path518" />
      <path
         d="m 12736,6883.5 c 0,-14.31 -11.5,-25.91 -25.9,-25.91 -14.3,0 -25.9,11.6 -25.9,25.91 0,14.3 11.6,25.91 25.9,25.91 14.4,0 25.9,-11.61 25.9,-25.91"
         style="fill:#e3e2e0;fill-opacity:1;fill-rule:nonzero;stroke:none"
         id="path520" />
      <path
         d="m 12952.7,6961.22 c 0,-14.31 -11.6,-25.91 -25.9,-25.91 -14.3,0 -25.9,11.6 -25.9,25.91 0,14.3 11.6,25.91 25.9,25.91 14.3,0 25.9,-11.61 25.9,-25.91"
         style="fill:#e3e2e0;fill-opacity:1;fill-rule:nonzero;stroke:none"
         id="path522" />
      <path
         d="m 13189.5,7025.77 c 0,-14.31 -11.6,-25.91 -25.9,-25.91 -14.4,0 -26,11.6 -26,25.91 0,14.31 11.6,25.91 26,25.91 14.3,0 25.9,-11.6 25.9,-25.91"
         style="fill:#e3e2e0;fill-opacity:1;fill-rule:nonzero;stroke:none"
         id="path524" />
      <path
         d="m 13287.5,7931.86 c 0,-14.31 -11.6,-25.91 -25.9,-25.91 -14.4,0 -25.9,11.6 -25.9,25.91 0,14.31 11.5,25.9 25.9,25.9 14.3,0 25.9,-11.59 25.9,-25.9"
         style="fill:#e3e2e0;fill-opacity:1;fill-rule:nonzero;stroke:none"
         id="path526" />
      <path
         d="m 12858,6692 c 0,-14.31 -11.6,-25.91 -25.9,-25.91 -14.3,0 -25.9,11.6 -25.9,25.91 0,14.31 11.6,25.91 25.9,25.91 14.3,0 25.9,-11.6 25.9,-25.91"
         style="fill:#e3e2e0;fill-opacity:1;fill-rule:nonzero;stroke:none"
         id="path528" />
      <path
         d="m 12600.9,6630.65 c 0,-14.32 -11.6,-25.91 -25.9,-25.91 -14.3,0 -25.9,11.59 -25.9,25.91 0,14.3 11.6,25.9 25.9,25.9 14.3,0 25.9,-11.6 25.9,-25.9"
         style="fill:#e3e2e0;fill-opacity:1;fill-rule:nonzero;stroke:none"
         id="path530" />
      <path
         d="m 13177.8,7265.37 c 0,-14.31 -11.6,-25.91 -25.9,-25.91 -14.3,0 -25.9,11.6 -25.9,25.91 0,14.3 11.6,25.91 25.9,25.91 14.3,0 25.9,-11.61 25.9,-25.91"
         style="fill:#e3e2e0;fill-opacity:1;fill-rule:nonzero;stroke:none"
         id="path532" />
      <path
         d="m 12952.7,7864.95 c 0,-14.31 -11.6,-25.91 -25.9,-25.91 -14.3,0 -25.9,11.6 -25.9,25.91 0,14.31 11.6,25.91 25.9,25.91 14.3,0 25.9,-11.6 25.9,-25.91"
         style="fill:#e3e2e0;fill-opacity:1;fill-rule:nonzero;stroke:none"
         id="path534" />
      <path
         d="m 13228.5,7467.67 c 0,-14.31 -11.6,-25.91 -25.9,-25.91 -14.3,0 -25.9,11.6 -25.9,25.91 0,14.3 11.6,25.91 25.9,25.91 14.3,0 25.9,-11.61 25.9,-25.91"
         style="fill:#e3e2e0;fill-opacity:1;fill-rule:nonzero;stroke:none"
         id="path536" />
      <path
         d="m 13315,7644.99 c 0,-14.31 -11.6,-25.9 -25.9,-25.9 -14.3,0 -25.9,11.59 -25.9,25.9 0,14.31 11.6,25.91 25.9,25.91 14.3,0 25.9,-11.6 25.9,-25.91"
         style="fill:#e3e2e0;fill-opacity:1;fill-rule:nonzero;stroke:none"
         id="path538" />
      <path
         d="m 13482.2,7794.54 c 0,-14.31 -11.6,-25.91 -25.9,-25.91 -14.3,0 -25.9,11.6 -25.9,25.91 0,14.31 11.6,25.91 25.9,25.91 14.3,0 25.9,-11.6 25.9,-25.91"
         style="fill:#e3e2e0;fill-opacity:1;fill-rule:nonzero;stroke:none"
         id="path540" />
      <path
         d="m 13126,6816.83 c 0,-14.31 -11.6,-25.91 -25.9,-25.91 -14.4,0 -26,11.6 -26,25.91 0,14.31 11.6,25.91 26,25.91 14.3,0 25.9,-11.6 25.9,-25.91"
         style="fill:#e3e2e0;fill-opacity:1;fill-rule:nonzero;stroke:none"
         id="path542" />
      <path
         d="m 12506.1,6816.83 c 0,-14.31 -11.6,-25.91 -25.9,-25.91 -14.3,0 -25.9,11.6 -25.9,25.91 0,14.31 11.6,25.91 25.9,25.91 14.3,0 25.9,-11.6 25.9,-25.91"
         style="fill:#e3e2e0;fill-opacity:1;fill-rule:nonzero;stroke:none"
         id="path544" />
      <path
         d="m 12420.9,2000.6 c 0,-113.2 -177.9,-205 -397.4,-205 -219.4,0 -397.3,91.8 -397.3,205 0,113.2 177.9,205 397.3,205 219.5,0 397.4,-91.8 397.4,-205"
         style="fill:#6d64b8;fill-opacity:1;fill-rule:nonzero;stroke:none"
         id="path546" />
      <path
         d="m 12016.2,3039.1 c -204,0 -372.3,71.1 -396.1,163 -2,2.5 -2.9,3.9 -2.9,3.9 l 197.4,-1262.8 c 0,0 69.1,-60.3 200.4,-60.3 129.9,0 197.3,60.3 197.3,60.3 l 199.6,1257.3 c -25.3,-91.1 -192.8,-161.4 -395.7,-161.4"
         style="fill:#20224e;fill-opacity:1;fill-rule:nonzero;stroke:none"
         id="path548" />
      <path
         d="m 12016.6,2484 c 115.7,0 219.8,22.9 292.6,59.4 l 20.9,131.3 c -73.1,-42.6 -185.8,-69.9 -312.2,-69.9 -128.8,0 -243.4,28.4 -316.3,72.4 l 20.7,-132.9 c 73,-37.1 177.8,-60.3 294.3,-60.3"
         style="fill:#ffffff;fill-opacity:1;fill-rule:nonzero;stroke:none"
         id="path550" />
      <path
         d="m 12016.6,2395.4 c -108.7,0 -207.3,20.2 -279.3,53 l 10,-63.9 c 71.1,-30.5 166.2,-49.2 270.6,-49.2 102.1,0 195.2,17.9 265.8,47.2 l 10.3,65.1 c -71.8,-32.3 -169.6,-52.2 -277.4,-52.2"
         style="fill:#ffffff;fill-opacity:1;fill-rule:nonzero;stroke:none"
         id="path552" />
      <path
         d="m 12415.2,3215.2 c 0,-102.4 -178.6,-185.5 -399,-185.5 -220.3,0 -399,83.1 -399,185.5 0,102.4 178.7,185.5 399,185.5 220.4,0 399,-83.1 399,-185.5"
         style="fill:#6d64b8;fill-opacity:1;fill-rule:nonzero;stroke:none"
         id="path554" />
      <path
         d="m 12354.1,3221.6 c 0,-80.5 -148.7,-145.8 -332.1,-145.8 -183.5,0 -332.2,65.3 -332.2,145.8 0,80.5 148.7,145.8 332.2,145.8 183.4,0 332.1,-65.3 332.1,-145.8"
         style="fill:#ffffff;fill-opacity:1;fill-rule:nonzero;stroke:none"
         id="path556" />
      <path
         d="m 12301.8,3480.1 c 0,0 204.5,-158.2 557.9,63.8 46.4,29.1 91.6,46.5 134.9,54.9 98.4,19.2 116.7,153.2 26,195.9 -142.3,67 -314.9,86.6 -509.4,-11.7 0,0 -200.1,-97.2 -209.4,-302.9"
         style="fill:#9588cc;fill-opacity:1;fill-rule:nonzero;stroke:none"
         id="path558" />
      <path
         d="m 11852.8,3367.5 c 0.6,-29.9 -19.4,-56.4 -48.4,-63.5 -81.7,-19.9 -265.4,-30 -492.6,175.4 -75.7,68.5 -154.2,96.1 -228.6,99.8 -66,3.3 -85.3,91.5 -26.2,121 179.3,89.8 408.5,127.1 639.6,-45.8 0,0 152.4,-110.3 156.2,-286.9"
         style="fill:#9588cc;fill-opacity:1;fill-rule:nonzero;stroke:none"
         id="path560" />
      <path
         d="m 12100.6,3565.9 c 0,0 234.9,6.6 406.5,386.9 37.5,83.1 112.8,143.8 192.6,187.4 84,45.8 48.4,173.7 -47.3,171 -160.7,-4.6 -350.2,-73.5 -495.6,-316.5 0,0 -134.8,-250.1 -56.2,-428.8"
         style="fill:#9588cc;fill-opacity:1;fill-rule:nonzero;stroke:none"
         id="path562" />
      <path
         d="m 11890.9,3711.2 c -2.2,-42.9 -44,-72.4 -85.6,-61.6 -85.9,22.3 -234.3,95.2 -373.4,330.4 -60.5,102.1 -180.7,159.6 -288.3,191.7 -66.9,19.9 -64.5,115.3 3.3,131.8 172.3,42.1 418.1,32.4 627.2,-241.6 1,-1.3 1.9,-2.6 2.8,-4 14.1,-21.1 121.9,-188.1 114,-346.7"
         style="fill:#9588cc;fill-opacity:1;fill-rule:nonzero;stroke:none"
         id="path564" />
      <path
         d="m 11930.9,3788.4 c 36.8,-39.4 100.6,-34.4 130.3,10.5 64.3,97.5 142.9,287 31.2,542.7 -48.2,110.4 -76.9,210.2 -93.5,296 -16.9,88 -141.7,90.4 -162.3,3.3 -15.2,-64.1 -29.8,-140.6 -43,-231.9 -22.9,-158.5 -23,-314.6 33.6,-464.4 20.4,-54.1 61.4,-110.9 103.7,-156.2"
         style="fill:#9588cc;fill-opacity:1;fill-rule:nonzero;stroke:none"
         id="path566" />
      <path
         d="m 12108.1,3079.7 c 31.9,197.1 157.2,375 327.1,478.4 47.8,29.1 98.9,52.1 152.5,68 10.9,3.2 6.3,20.4 -4.8,17.2 -195.7,-58.2 -359.9,-208.9 -442.6,-394.7 -23.3,-52.4 -40.2,-107.5 -49.3,-164.2 -1.9,-11.2 15.3,-16 17.1,-4.7"
         style="fill:#6d64b8;fill-opacity:1;fill-rule:nonzero;stroke:none"
         id="path568" />
      <path
         d="m 11947.9,3078.5 c -30.4,187.9 -149.4,357.3 -311.8,455.4 -45.7,27.7 -94.9,49.5 -146.1,64.7 -11,3.3 -15.7,-13.9 -4.7,-17.2 178.3,-53 326.7,-189.1 401.6,-358.8 20.9,-47.4 35.5,-97.6 43.8,-148.8 1.8,-11.3 19,-6.5 17.2,4.7"
         style="fill:#6d64b8;fill-opacity:1;fill-rule:nonzero;stroke:none"
         id="path570" />
      <path
         d="m 12080.9,3076.1 c -14.4,167.1 -6.8,335.6 32.4,499 35.2,146.7 94.3,287.6 180.9,411.6 47.7,68.1 103.5,130.4 166.5,184.6 8.7,7.5 -3.9,20.1 -12.6,12.7 -112.7,-97.2 -201.7,-219.9 -265.1,-354.2 -68.5,-145.4 -107.6,-304.1 -121.4,-464 -8.2,-96.4 -6.8,-193.3 1.4,-289.7 1,-11.3 18.9,-11.4 17.9,0"
         style="fill:#6d64b8;fill-opacity:1;fill-rule:nonzero;stroke:none"
         id="path572" />
      <path
         d="m 11973.7,3075.8 c 6.2,72.2 8.7,144.8 0.3,216.9 -7.5,65.2 -23.5,128.8 -41.8,191.7 -21.5,73.6 -44.4,146.6 -75.4,216.8 -30.1,68 -66.4,133.3 -109.2,194.2 -48.2,68.7 -104.4,131.7 -168,186.6 -8.7,7.4 -21.3,-5.1 -12.6,-12.6 111.7,-96.3 199.5,-217.4 262.3,-350.6 32.3,-68.6 55.9,-140 77.8,-212.5 19.1,-63.5 37,-127.6 46.5,-193.3 11.3,-78.6 9.1,-158.2 2.3,-237.2 -1,-11.4 16.9,-11.3 17.8,0"
         style="fill:#6d64b8;fill-opacity:1;fill-rule:nonzero;stroke:none"
         id="path574" />
      <path
         d="m 11964,4210.6 c 36.3,-293.2 49,-589.3 37.8,-884.6 -3.2,-83.4 -8.4,-166.7 -15.3,-249.9 -1,-11.4 16.8,-11.3 17.8,0 24.6,294.5 25.6,590.8 2.7,885.4 -6.5,83.3 -14.9,166.3 -25.2,249.1 -1.4,11.3 -19.2,11.4 -17.8,0"
         style="fill:#6d64b8;fill-opacity:1;fill-rule:nonzero;stroke:none"
         id="path576" />
    </g>
  </g>
</svg>
