<?xml version="1.0" encoding="UTF-8" standalone="no"?>
<!-- Created with Inkscape (http://www.inkscape.org/) -->

<svg
   version="1.1"
   id="svg2"
   width="1088.1067"
   height="1304"
   viewBox="0 0 1088.1067 1304"
   sodipodi:docname="reshot-illustration-sending-money-by-email-QJN9E65R37.eps"
   xmlns:inkscape="http://www.inkscape.org/namespaces/inkscape"
   xmlns:sodipodi="http://sodipodi.sourceforge.net/DTD/sodipodi-0.dtd"
   xmlns="http://www.w3.org/2000/svg"
   xmlns:svg="http://www.w3.org/2000/svg">
  <defs
     id="defs6" />
  <sodipodi:namedview
     id="namedview4"
     pagecolor="#ffffff"
     bordercolor="#000000"
     borderopacity="0.25"
     inkscape:showpageshadow="2"
     inkscape:pageopacity="0.0"
     inkscape:pagecheckerboard="0"
     inkscape:deskcolor="#d1d1d1" />
  <g
     id="g8"
     inkscape:groupmode="layer"
     inkscape:label="ink_ext_XXXXXX"
     transform="matrix(1.3333333,0,0,-1.3333333,0,1304)">
    <g
       id="g10"
       transform="scale(0.1)">
      <path
         d="m 4807.14,4276.1 h 3353.7 V 6937.79 H 4807.14 V 4276.1"
         style="fill:#eff7fd;fill-opacity:1;fill-rule:nonzero;stroke:none"
         id="path12" />
      <path
         d="m 4807.14,6620.63 h 3353.7 v 317.16 h -3353.7 v -317.16"
         style="fill:#a4c8ec;fill-opacity:1;fill-rule:nonzero;stroke:none"
         id="path14" />
      <path
         d="m 7928.22,6779.12 c 0,-34.94 28.38,-63.44 63.51,-63.44 34.97,0 63.45,28.5 63.45,63.44 0,35.2 -28.48,63.46 -63.45,63.46 -35.13,0 -63.51,-28.26 -63.51,-63.46"
         style="fill:#516dbe;fill-opacity:1;fill-rule:nonzero;stroke:none"
         id="path16" />
      <path
         d="m 7727.38,6779.12 c 0,-34.94 28.33,-63.44 63.45,-63.44 34.94,0 63.29,28.5 63.29,63.44 0,35.2 -28.35,63.46 -63.29,63.46 -35.12,0 -63.45,-28.26 -63.45,-63.46"
         style="fill:#f8d044;fill-opacity:1;fill-rule:nonzero;stroke:none"
         id="path18" />
      <path
         d="m 7526.49,6779.12 c 0,-34.94 28.35,-63.44 63.41,-63.44 34.97,0 63.42,28.5 63.42,63.44 0,35.2 -28.45,63.46 -63.42,63.46 -35.06,0 -63.41,-28.26 -63.41,-63.46"
         style="fill:#eff7fd;fill-opacity:1;fill-rule:nonzero;stroke:none"
         id="path20" />
      <path
         d="m 672.828,1606.57 c -52.723,0 -135.918,12.03 -208.801,75.5 -104.902,91.2 -150.277,253.51 -134.972,482.15 10.226,154.37 70.988,310.6 135.293,476.15 108.363,278.4 231.011,593.91 166.859,1011.17 l 119.203,18.34 C 819.426,3220.63 684.863,2874.67 576.895,2596.67 513.344,2433.3 458.398,2292.1 449.336,2156.27 437.02,1970.79 469,1838.62 542.125,1774.09 c 69.168,-61.24 155.746,-45.5 159.402,-44.82 l 24.18,-118.18 c -2.211,-0.44 -22.477,-4.52 -52.879,-4.52"
         style="fill:#3b6d83;fill-opacity:1;fill-rule:nonzero;stroke:none"
         id="path22" />
      <path
         d="M 1597.49,649.719 1714.94,470.57 728.434,154.582 c 0,0 -65.938,63.008 176.171,189.539 281.775,147.52 692.885,305.598 692.885,305.598"
         style="fill:#8ec1dd;fill-opacity:1;fill-rule:nonzero;stroke:none"
         id="path24" />
      <path
         d="M 1772.68,649.719 1655.23,470.57 2641.72,154.582 c 0,0 65.87,63.008 -176.18,189.539 -281.82,147.52 -692.86,305.598 -692.86,305.598"
         style="fill:#8ec1dd;fill-opacity:1;fill-rule:nonzero;stroke:none"
         id="path26" />
      <path
         d="m 1788.16,448.59 h -206.14 v 733.94 h 206.14 V 448.59"
         style="fill:#8ec1dd;fill-opacity:1;fill-rule:nonzero;stroke:none"
         id="path28" />
      <path
         d="M 1584.33,611.93 1684.8,441.039 840.348,139.5 c 0,0 -56.379,60.109 150.715,180.941 C 1232.4,461.152 1584.33,611.93 1584.33,611.93"
         style="fill:#b3daf4;fill-opacity:1;fill-rule:nonzero;stroke:none"
         id="path30" />
      <path
         d="M 1785.78,611.93 1685.4,441.039 2529.82,139.5 c 0,0 56.38,60.109 -150.8,180.941 -241.28,140.711 -593.24,291.489 -593.24,291.489"
         style="fill:#b3daf4;fill-opacity:1;fill-rule:nonzero;stroke:none"
         id="path32" />
      <path
         d="M 935.973,71.5391 C 935.973,32.0117 903.832,0 864.359,0 c -39.562,0 -71.66,32.0117 -71.66,71.5391 0,39.6519 32.098,71.7499 71.66,71.7499 39.473,0 71.614,-32.098 71.614,-71.7499"
         style="fill:#17233f;fill-opacity:1;fill-rule:nonzero;stroke:none"
         id="path34" />
      <path
         d="M 2572.28,71.5391 C 2572.28,32.0117 2540.04,0 2500.53,0 c -39.57,0 -71.62,32.0117 -71.62,71.5391 0,39.6519 32.05,71.7499 71.62,71.7499 39.51,0 71.75,-32.098 71.75,-71.7499"
         style="fill:#17233f;fill-opacity:1;fill-rule:nonzero;stroke:none"
         id="path36" />
      <path
         d="M 762.559,71.5391 C 762.559,32.0117 730.512,0 690.945,0 c -39.574,0 -71.668,32.0117 -71.668,71.5391 0,39.6519 32.094,71.7499 71.668,71.7499 39.567,0 71.614,-32.098 71.614,-71.7499"
         style="fill:#3b6d83;fill-opacity:1;fill-rule:nonzero;stroke:none"
         id="path38" />
      <path
         d="M 2745.6,71.5391 C 2745.6,32.0117 2713.51,0 2673.95,0 c -39.49,0 -71.5,32.0117 -71.5,71.5391 0,39.6519 32.01,71.7499 71.5,71.7499 39.56,0 71.65,-32.098 71.65,-71.7499"
         style="fill:#3b6d83;fill-opacity:1;fill-rule:nonzero;stroke:none"
         id="path40" />
      <path
         d="m 1757.83,1187.56 h -150.78 v 263.93 h 150.78 v -263.93"
         style="fill:#3b6d83;fill-opacity:1;fill-rule:nonzero;stroke:none"
         id="path42" />
      <path
         d="m 1870.93,1590.91 c 0,-81.13 -65.87,-146.97 -147.01,-146.97 h -82.96 c -81.15,0 -147,65.84 -147,146.97 v 0 c 0,81.33 65.85,147.08 147,147.08 h 82.96 c 81.14,0 147.01,-65.75 147.01,-147.08 v 0"
         style="fill:#3b6d83;fill-opacity:1;fill-rule:nonzero;stroke:none"
         id="path44" />
      <path
         d="m 2803.2,1725.39 c 3.51,17.32 5.55,125.85 5.55,144.49 0,118.73 -76.65,214.91 -171.38,214.91 H 727.41 c -94.566,0 -171.355,-96.18 -171.355,-214.91 0,-18.64 2.043,-127.17 5.722,-144.49 H 2803.2"
         style="fill:#9dd1f2;fill-opacity:1;fill-rule:nonzero;stroke:none"
         id="path46" />
      <path
         d="m 538.422,1667.22 c 0,-36.38 21.183,-65.89 47.512,-65.89 H 2778.94 c 26.32,0 47.52,29.51 47.52,65.89 v 0 c 0,36.31 -21.2,65.78 -47.52,65.78 H 585.934 c -26.329,0 -47.512,-29.47 -47.512,-65.78 v 0"
         style="fill:#3b6d83;fill-opacity:1;fill-rule:nonzero;stroke:none"
         id="path48" />
      <path
         d="m 645.316,2828.24 c 47.172,-3.45 346.52,-8.75 398.104,-9.4 327.76,-3.95 609.99,57.56 625.72,138.27 64.67,335.39 67.6,679.37 8.47,1014.96 -14.01,80.65 -300.46,142.16 -635.14,138.08 -52.54,-0.64 -358.111,-5.95 -406.177,-9.5 102.668,-418.25 105.637,-854.02 9.023,-1272.41"
         style="fill:#9dd1f2;fill-opacity:1;fill-rule:nonzero;stroke:none"
         id="path50" />
      <path
         d="m 600.297,4100.69 c -36.664,-0.43 -62.27,-17.86 -57.16,-38.88 91.25,-393.35 94.656,-801.44 10.281,-1194.86 -4.652,-21.11 20.723,-38.5 56.605,-38.91 v 0 c 35.899,-0.53 69.153,16.34 73.657,37.46 85.535,394.41 82.941,803.41 -7.785,1197.76 -4.938,21.15 -38.762,37.91 -75.598,37.43 v 0"
         style="fill:#3b6d83;fill-opacity:1;fill-rule:nonzero;stroke:none"
         id="path52" />
      <path
         d="m 585.684,2828.88 c 9.664,-3.12 74.621,-5.52 85.961,-5.75 71.406,-0.86 144.96,62.17 159.156,141.5 59.453,330.39 58.023,669.16 -4.625,999.54 -14.867,79.42 -90.215,142.32 -163.09,141.47 -11.531,-0.19 -77.582,-2.67 -87.477,-5.81 102.871,-417.7 106.207,-853.1 10.075,-1270.95"
         style="fill:#8cc4ec;fill-opacity:1;fill-rule:nonzero;stroke:none"
         id="path54" />
      <path
         d="m 2426.73,5194.31 c 0,0 639.51,618.65 702.06,639.5 62.56,20.86 215.49,48.67 215.49,48.67 0,0 -396.21,-667.31 -479.63,-834.15 -83.41,-166.82 -437.92,145.98 -437.92,145.98"
         style="fill:#ed8656;fill-opacity:1;fill-rule:nonzero;stroke:none"
         id="path56" />
      <path
         d="m 1279.79,4339.32 c 0,0 -157.75,392.36 20.85,500.48 178.6,108.12 559.29,199.62 698.06,222.22 277.54,45.18 560.13,129.99 641.52,-21.31 81.4,-151.29 119.57,-246.75 55.09,-278.8 -64.48,-32.06 -689.38,-806.99 -1415.52,-422.59"
         style="fill:#fabb1c;fill-opacity:1;fill-rule:nonzero;stroke:none"
         id="path58" />
      <path
         d="M 2706.98,141.09 V 1.28906 h 689.01 c 0,0 -109.84,189.73094 -339.52,229.67194 -229.66,39.941 -349.49,-89.871 -349.49,-89.871"
         style="fill:#241717;fill-opacity:1;fill-rule:nonzero;stroke:none"
         id="path60" />
      <path
         d="m 2117.84,2787.27 c 0,0 1534.16,104.46 2017.65,-39.66 167.74,-50 277.65,-2146.969 277.65,-2146.969 l -189.8,-39.95 c 0,0 459.34,-159.761 698.99,-159.761 239.65,0 279.6,-179.739 279.6,-179.739 l -1138.5,-39.941 -39.8,159.77 -387.99,1697.54 -1417.95,-30.17 -99.85,778.88"
         style="fill:#241717;fill-opacity:1;fill-rule:nonzero;stroke:none"
         id="path62" />
      <path
         d="m 1079.33,2287.98 c 0,0 -459.334,-79.87 -559.189,818.83 -99.848,898.7 -129.809,1617.65 -129.809,1617.65 l 569.18,299.57 h 499.268 c 0,0 419.4,-139.8 459.34,-339.51 39.94,-199.71 -99.85,-998.55 -39.94,-1138.36 59.91,-139.79 279.59,-599.13 279.59,-599.13 L 1079.33,2287.98"
         style="fill:#f8a20e;fill-opacity:1;fill-rule:nonzero;stroke:none"
         id="path64" />
      <path
         d="m 1408.86,3596.09 371.12,261.47 68.25,48.08 c 0,0 119.82,-179.73 69.89,-299.57 -49.92,-119.82 -409.4,-199.7 -469.32,-189.71 -59.91,9.98 -39.94,179.73 -39.94,179.73"
         style="fill:#f6ab7a;fill-opacity:1;fill-rule:nonzero;stroke:none"
         id="path66" />
      <path
         d="m 2067.91,3855.72 -29.96,-259.63 -159.77,-49.93 -29.95,359.48 219.68,-49.92"
         style="fill:#ed8656;fill-opacity:1;fill-rule:nonzero;stroke:none"
         id="path68" />
      <path
         d="m 919.566,2347.9 c 0,0 179.744,579.16 738.934,659.04 559.19,79.89 659.04,79.89 659.04,79.89 0,0 379.46,-519.25 778.88,-2756.021 15.7,-87.918 -499.28,-239.6488 -499.28,-239.6488 L 1998.01,2088.27 c 0,0 -758.9,-239.65 -1078.444,259.63"
         style="fill:#4349a6;fill-opacity:1;fill-rule:nonzero;stroke:none"
         id="path70" />
      <path
         d="M 1928.11,2537.63 2597.14,91.1602"
         style="fill:none;stroke:#a4c8ec;stroke-width:24.5561;stroke-linecap:butt;stroke-linejoin:miter;stroke-miterlimit:10;stroke-dasharray:none;stroke-opacity:1"
         id="path72" />
      <path
         d="m 659.941,4514.77 c 0,0 -199.711,289.58 -279.593,209.69 C 300.465,4644.58 -19.0781,3765.85 0.898438,3486.25 20.8672,3206.66 40.3516,2991.29 240.551,2976.99 939.535,2927.06 1488.74,3326.48 1488.74,3326.48 l -49.92,409.41 c 0,0 -798.847,-49.92 -858.761,-109.84 -59.914,-59.92 59.914,589.15 79.882,888.72"
         style="fill:#fabb1c;fill-opacity:1;fill-rule:nonzero;stroke:none"
         id="path74" />
      <path
         d="m 2259.9,5110.9 333.65,271.09 c 0,0 227.46,-131.24 302.45,-208.24 41.48,-42.58 114.63,-31.05 114.63,-93.61 0,-62.56 -489.84,-501.08 -489.84,-501.08 L 2259.9,5110.9"
         style="fill:#fabb1c;fill-opacity:1;fill-rule:nonzero;stroke:none"
         id="path76" />
      <path
         d="m 3240.01,6070.16 156.4,208.53 c 0,0 45.19,34.75 38.23,3.47 -6.95,-31.28 -55.61,-170.3 -69.51,-198.1 -1.74,-3.48 -1.74,-7.44 -0.4,-11.81 9.36,-30.55 138.12,-82.47 141.16,-122 3.48,-45.19 -45.89,-90.95 -76.9,-130.34 -128.59,-163.35 -244.59,-62.56 -244.59,-62.56 0,0 -90.36,-27.8 -69.51,104.27 20.85,132.07 125.12,208.54 125.12,208.54"
         style="fill:#ed8656;fill-opacity:1;fill-rule:nonzero;stroke:none"
         id="path78" />
      <path
         d="m 3108.37,5831.65 37.8,158.56 114.69,57.79 92.54,-67.78 c 0,0 -9.12,-31.71 -57.78,-14.33 -48.66,17.38 -72.98,-10.43 -72.98,-10.43 l 16.07,-49.53 c 0,0 1.74,-67.34 -130.34,-74.28"
         style="fill:#f6ab7a;fill-opacity:1;fill-rule:nonzero;stroke:none"
         id="path80" />
      <path
         d="m 3512.41,5960.67 -147.28,123.39 -16.94,-77.77 61.26,-93.84 c 0,0 74.29,-32.58 102.96,48.22"
         style="fill:#f6ab7a;fill-opacity:1;fill-rule:nonzero;stroke:none"
         id="path82" />
      <path
         d="m 998.855,5351.09 c -40.82,-111.76 -114.464,-312.64 -159.171,-430.03 35.379,-24.69 305.836,-45.23 412.736,0 11.21,101.11 46.4,245.65 66.67,323.92 l -320.235,106.11"
         style="fill:#f6ab7a;fill-opacity:1;fill-rule:nonzero;stroke:none"
         id="path84" />
      <path
         d="m 1569.21,5272.93 c 11.04,-50.19 -20.8,-99.57 -70.78,-110.49 l -408.23,-88.79 c -49.91,-10.96 -99.407,20.9 -110.387,70.97 L 848.375,5749.1 c -11.035,49.99 20.785,99.53 70.98,110.51 l 408.045,88.53 c 50.03,11.03 99.41,-20.71 110.4,-70.85 l 131.41,-604.36"
         style="fill:#f6ab7a;fill-opacity:1;fill-rule:nonzero;stroke:none"
         id="path86" />
      <path
         d="m 1465.45,5752.84 c 0,0 42.08,70.31 44.29,108.57 1.2,19.23 -31.43,84.11 -82.57,100.72 -51.13,16.49 -78.12,-40.73 -78.12,-40.73 0,0 81.14,-24.55 88.18,-38.82 7.08,-14.4 28.22,-129.74 28.22,-129.74"
         style="fill:#1f3b57;fill-opacity:1;fill-rule:nonzero;stroke:none"
         id="path88" />
      <path
         d="m 865.934,5468.16 c 0,0 -112.118,218.82 -115.68,289.24 -3.422,70.69 -6.098,119.45 75.234,145.06 121.934,38.27 129.27,12.27 181.472,63.3 52.26,50.75 141.19,165.52 176.56,182.68 59.13,28.82 161.13,29.18 190.42,-87.17 21.64,-85.88 80.83,-95.14 80,-98.76 -2.61,-11.55 -23.12,-26.41 -58.36,-54.77 -101.15,-81.4 -166.67,-107.53 -258.4,-103.66 -91.95,3.67 -264.325,17.67 -269.258,-50.7 -4.93,-68.36 45.344,-263.2 41.187,-279.9 -4.429,-16.83 -25.492,-13.54 -43.175,-5.32"
         style="fill:#234465;fill-opacity:1;fill-rule:nonzero;stroke:none"
         id="path90" />
      <path
         d="m 1033.99,5314.62 c 3.56,-16.7 -7.1,-33.2 -23.73,-36.82 l -88.143,-19.11 c -16.687,-3.73 -33.183,6.98 -36.863,23.57 l -35.082,161.13 c -3.508,16.75 6.953,33.32 23.641,36.99 l 88.199,19.04 c 16.801,3.62 33.183,-6.95 36.676,-23.55 l 35.302,-161.25"
         style="fill:#f6ab7a;fill-opacity:1;fill-rule:nonzero;stroke:none"
         id="path92" />
      <path
         d="m 1559.54,5429.17 c 3.76,-16.86 -6.88,-33.32 -23.5,-36.88 l -88.08,-19.2 c -16.77,-3.66 -33.28,6.95 -36.95,23.75 l -34.97,161.1 c -3.59,16.55 6.89,33.2 23.58,36.8 l 88.2,19.26 c 16.64,3.5 33.16,-7.18 36.74,-23.79 l 34.98,-161.04"
         style="fill:#f6ab7a;fill-opacity:1;fill-rule:nonzero;stroke:none"
         id="path94" />
      <path
         d="m 916.586,5423.58 c 0,0 51.715,-237.85 68.977,-317.24 15.587,-71.77 78.547,-223 483.717,-134.64 239.89,51.97 192.82,226.41 180.15,284.37 -9.59,44.07 -88.23,165.28 -119.04,185.08 -1.04,0.58 21.33,-98.25 21.33,-98.25 0,0 -70.74,84.8 -184.7,60 -183.98,-39.96 -202.35,-156.74 -283.83,-172.49 -62.83,-12.1 -131.725,79.39 -166.604,193.17"
         style="fill:#234465;fill-opacity:1;fill-rule:nonzero;stroke:none"
         id="path96" />
      <path
         d="m 1325.39,5230.32 125.85,27.43 c 16.68,3.55 27.22,20.05 23.63,36.87 l -3.85,17.65 -186.35,-40.7 3.85,-17.58 c 3.71,-16.68 20.15,-27.3 36.87,-23.67"
         style="fill:#f6ab7a;fill-opacity:1;fill-rule:nonzero;stroke:none"
         id="path98" />
      <path
         d="M 2101.79,12.7109 H 1876.32 L 2248.27,3614.87 h 326.85 L 2101.79,12.7109"
         style="fill:#1f3b57;fill-opacity:1;fill-rule:nonzero;stroke:none"
         id="path100" />
      <path
         d="m 2553.36,3448.85 -143.37,-1090.9 -170.05,1175.64 8.33,81.28 h 285.7 l 19.39,-166.02"
         style="fill:#212a53;fill-opacity:1;fill-rule:nonzero;stroke:none"
         id="path102" />
      <path
         d="M 5121.95,12.7109 H 4896.57 L 5268.49,3614.87 h 326.85 L 5121.95,12.7109"
         style="fill:#1f3b57;fill-opacity:1;fill-rule:nonzero;stroke:none"
         id="path104" />
      <path
         d="m 5573.53,3448.85 -143.33,-1090.9 -170.15,1175.64 8.44,81.28 h 285.69 l 19.35,-166.02"
         style="fill:#212a53;fill-opacity:1;fill-rule:nonzero;stroke:none"
         id="path106" />
      <path
         d="m 7488.73,12.7109 h 225.44 L 7342.25,3614.87 H 7015.38 L 7488.73,12.7109"
         style="fill:#1f3b57;fill-opacity:1;fill-rule:nonzero;stroke:none"
         id="path108" />
      <path
         d="m 7037.19,3448.85 437.47,-1111.69 -124.06,1196.43 -8.35,81.28 h -285.71 l -19.35,-166.02"
         style="fill:#212a53;fill-opacity:1;fill-rule:nonzero;stroke:none"
         id="path110" />
      <path
         d="m 4939.95,3521.31 h 2717.82 v 210.51 H 4939.95 v -210.51"
         style="fill:#516dbe;fill-opacity:1;fill-rule:nonzero;stroke:none"
         id="path112" />
      <path
         d="m 1979.54,3521.31 h 3086.09 v 210.51 H 1979.54 v -210.51"
         style="fill:#8fb0e1;fill-opacity:1;fill-rule:nonzero;stroke:none"
         id="path114" />
      <path
         d="m 2145.77,3794.71 c -0.28,0.54 -0.63,1.19 -0.9,1.71 l 0.9,53.19 h 2202.44 v -53.19 c 0,0 0.35,-1.17 0,-1.71 l -5.62,-9.91 c -28.31,-46.12 -79.07,-54.4 -137.23,-54.4 H 2288.69 c -58.17,0 -108.86,8.28 -137.24,54.4 l -5.68,9.91"
         style="fill:#d3e1e8;fill-opacity:1;fill-rule:nonzero;stroke:none"
         id="path116" />
      <path
         d="m 2676.56,3785.73 c 0,0 0.35,-0.93 0,-1.45 l -5.47,-8.06 c -8.71,-11.86 -19.64,-20.66 -32.2,-27.06 h -334.9 c -55.95,0 -104.79,6.68 -132.01,43.96 l -5.27,8.12 c -0.4,0.43 -0.69,0.87 -1,1.35 l 0.56,26.17 h 510.29 v -43.03"
         style="fill:#b6c2c8;fill-opacity:1;fill-rule:nonzero;stroke:none"
         id="path118" />
      <path
         d="m 2973.87,3799.71 h 1100.49 v 37.59 H 2973.87 v -37.59"
         style="fill:#b6c2c8;fill-opacity:1;fill-rule:nonzero;stroke:none"
         id="path120" />
      <path
         d="m 2688.77,3851.53 285.55,1082.22 c 7.56,28.64 36.78,51.76 65.31,51.76 h 1545.21 c 28.5,0 45.59,-23.12 38.03,-51.76 L 4337.33,3851.53 H 2688.77"
         style="fill:#d9e2e3;fill-opacity:1;fill-rule:nonzero;stroke:none"
         id="path122" />
      <path
         d="m 3562.58,4418.48 c -14.59,-55.19 18.49,-100.01 73.65,-100.01 55.31,0 111.86,44.82 126.47,100.01 14.55,55.34 -18.36,100.16 -73.67,100.16 -55.26,0 -111.87,-44.82 -126.45,-100.16"
         style="fill:#b6c2c8;fill-opacity:1;fill-rule:nonzero;stroke:none"
         id="path124" />
      <path
         d="m 5462.35,7438.39 c 72.69,0 72.69,-143.6 145.45,-143.6 72.72,0 72.72,143.6 145.44,143.6 72.6,0 72.6,-143.6 145.26,-143.6 72.73,0 72.73,143.6 145.42,143.6 72.57,0 72.57,-143.6 145.29,-143.6 72.66,0 72.66,143.6 145.38,143.6 72.7,0 72.7,-143.6 145.41,-143.6 72.73,0 72.73,143.6 145.45,143.6 72.72,0 72.72,-143.6 145.45,-143.6 72.68,0 72.68,143.6 145.38,143.6 72.71,0 72.71,-143.6 145.44,-143.6 72.75,0 72.75,143.6 145.51,143.6 72.81,0 72.81,-143.6 145.62,-143.6 72.78,0 72.78,143.6 145.67,143.6"
         style="fill:none;stroke:#284197;stroke-width:29.3549;stroke-linecap:butt;stroke-linejoin:miter;stroke-miterlimit:10;stroke-dasharray:none;stroke-opacity:1"
         id="path126" />
      <path
         d="M 2249.72,7921.82 H 4285.85"
         style="fill:none;stroke:#cbe6f8;stroke-width:29.3549;stroke-linecap:butt;stroke-linejoin:miter;stroke-miterlimit:10;stroke-dasharray:none;stroke-opacity:1"
         id="path128" />
      <path
         d="M 1593.6,7729.51 H 3629.76"
         style="fill:none;stroke:#cbe6f8;stroke-width:29.3549;stroke-linecap:butt;stroke-linejoin:miter;stroke-miterlimit:10;stroke-dasharray:none;stroke-opacity:1"
         id="path130" />
      <path
         d="M 1955.62,7537.22 H 3991.78"
         style="fill:none;stroke:#cbe6f8;stroke-width:29.3549;stroke-linecap:butt;stroke-linejoin:miter;stroke-miterlimit:10;stroke-dasharray:none;stroke-opacity:1"
         id="path132" />
      <path
         d="M 5967.64,6464.65 H 2847.97 V 8261.48 H 5967.64 V 6464.65"
         style="fill:#fabb1c;fill-opacity:1;fill-rule:nonzero;stroke:none"
         id="path134" />
      <path
         d="M 5965.5,8263.29 H 4559.44 c -41.95,0 -97.53,0 -152.89,0 -55.48,0 -110.84,0 -152.94,0 H 3000.58 2847.64 l 389.75,-348.45 273.38,-244.38 c 31.96,-28.63 74.16,-66.26 116.32,-103.97 l 363.89,-325.4 299.19,-267.48 c 64.05,-57.16 168.68,-57.16 232.76,0 l 299.22,267.48 363.92,325.4 c 42.2,37.71 84.33,75.34 116.33,103.97 l 273.4,244.38 389.7,348.45"
         style="fill:#f8a20e;fill-opacity:1;fill-rule:nonzero;stroke:none"
         id="path136" />
      <path
         d="m 3510.77,7034.67 c 31.96,27.58 74.16,63.9 116.32,100.08 l 363.89,312.8 299.19,257.33 c 64.05,55.07 168.68,55.07 232.76,0 l 299.22,-257.33 363.92,-312.8 c 42.2,-36.18 84.33,-72.5 116.33,-100.08 l 273.4,-235.01 389.7,-335.01 -389.7,348.44 -273.4,244.33 c -32,28.6 -74.13,66.42 -116.33,104.05 l -363.92,325.27 -299.22,267.47 c -64.08,57.21 -168.71,57.21 -232.76,0 l -299.19,-267.47 -363.89,-325.27 c -42.16,-37.63 -84.36,-75.45 -116.32,-104.05 l -273.38,-244.33 -389.75,-348.44 389.75,335.01 273.38,235.01"
         style="fill:#f8a20e;fill-opacity:1;fill-rule:nonzero;stroke:none"
         id="path138" />
      <path
         d="M 5965.5,8263.29 H 4559.44 c -41.95,0 -97.53,0 -152.89,0 -55.48,0 -110.84,0 -152.94,0 H 3000.58 2847.64 l 389.75,-332.47 273.38,-233.22 c 31.96,-27.18 74.16,-63.15 116.32,-99.19 l 363.89,-310.42 299.19,-255.07 c 64.05,-54.65 168.68,-54.65 232.76,0 l 299.22,255.07 363.92,310.42 c 42.2,36.04 84.33,72.01 116.33,99.19 l 273.4,233.22 389.7,332.47"
         style="fill:#f1db65;fill-opacity:1;fill-rule:nonzero;stroke:none"
         id="path140" />
      <path
         d="M 5728.99,8874.74 H 4019.15 V 9780 h 1709.84 v -905.26"
         style="fill:#cbe6f8;fill-opacity:1;fill-rule:nonzero;stroke:none"
         id="path142" />
      <path
         d="m 4637.98,8518.48 v 602.86 h -602.81 z"
         style="fill:#cbe6f8;fill-opacity:1;fill-rule:nonzero;stroke:none"
         id="path144" />
      <path
         d="m 5427.63,9369.22 h -1107 v 82.24 h 1107 v -82.24"
         style="fill:#eff7fd;fill-opacity:1;fill-rule:nonzero;stroke:none"
         id="path146" />
      <path
         d="m 5427.63,9150.01 h -1107 v 82.15 h 1107 v -82.15"
         style="fill:#eff7fd;fill-opacity:1;fill-rule:nonzero;stroke:none"
         id="path148" />
      <path
         d="m 6047.74,9640.91 c -474.84,0 -859.68,-384.71 -859.68,-859.56 0,-212.18 77.07,-405.82 204.64,-555.91 l -200.41,-379.74 364.38,230.81 c 139.16,-97.2 308.27,-154.72 491.07,-154.72 474.55,0 859.38,384.94 859.38,859.56 0,474.85 -384.83,859.56 -859.38,859.56"
         style="fill:#445fb5;fill-opacity:1;fill-rule:nonzero;stroke:none"
         id="path150" />
      <path
         d="m 6047.74,9640.91 c -2.87,0 -5.75,-0.18 -8.66,-0.18 V 7921.94 c 2.91,0 5.79,-0.15 8.66,-0.15 474.55,0 859.38,384.94 859.38,859.56 0,474.85 -384.83,859.56 -859.38,859.56"
         style="fill:#3a52ac;fill-opacity:1;fill-rule:nonzero;stroke:none"
         id="path152" />
      <path
         d="m 5970.59,8187.81 v 138.33 c -97.53,4.38 -192.11,31.95 -247.26,62.39 l 43.66,170.27 c 60.93,-33.4 146.73,-64.02 241.38,-64.02 84.45,0 141.06,33.4 141.06,90.1 0,55.31 -46.45,90.37 -155.67,126.69 -155.61,52.37 -261.77,125 -261.77,266.11 0,129.46 90.24,229.89 245.73,258.86 v 138.33 h 142.56 v -128.11 c 96.12,-2.91 161.53,-24.76 212.57,-48.03 l -43.7,-164.22 c -36.41,17.43 -104.59,50.83 -209.56,50.83 -94.34,0 -125.05,-42.13 -125.05,-82.78 0,-46.65 50.95,-78.66 176.03,-123.78 173.1,-61.08 241.41,-141.19 241.41,-273.47 0,-129.43 -90.17,-240.09 -257.48,-267.72 v -149.78 h -143.91"
         style="fill:#ffffff;fill-opacity:1;fill-rule:nonzero;stroke:none"
         id="path154" />
      <path
         d="m 6130.57,8878.78 c -36.74,13.32 -67.03,25.42 -91.49,37.13 v -220.85 c 76.73,-30.92 110.35,-63.27 110.35,-110.18 0,-49.47 -43.11,-81.25 -110.35,-88.48 v -308.59 h 75.42 v 149.78 c 167.31,27.63 257.48,138.29 257.48,267.72 0,132.28 -68.31,212.39 -241.41,273.47"
         style="fill:#cbe6f8;fill-opacity:1;fill-rule:nonzero;stroke:none"
         id="path156" />
      <path
         d="m 6039.08,9374.87 v -292.74 c 12.03,2.02 25.23,3.21 40.51,3.21 104.97,0 173.15,-33.4 209.56,-50.83 l 43.7,164.22 c -51.04,23.27 -116.45,45.12 -212.57,48.03 v 128.11 h -81.2"
         style="fill:#cbe6f8;fill-opacity:1;fill-rule:nonzero;stroke:none"
         id="path158" />
      <path
         d="m 5622.25,6156.49 209.1,-365.84 209.07,-365.9 178.67,200.87 178.7,200.83 -387.71,165.03 -387.83,165.01"
         style="fill:#a4c8ec;fill-opacity:1;fill-rule:nonzero;stroke:none"
         id="path160" />
      <path
         d="m 5824.28,5537.55 c 0,-381.52 309.26,-690.82 690.88,-690.82 381.52,0 690.78,309.3 690.78,690.82 0,381.52 -309.26,690.84 -690.78,690.84 -381.62,0 -690.88,-309.32 -690.88,-690.84"
         style="fill:#a4c8ec;fill-opacity:1;fill-rule:nonzero;stroke:none"
         id="path162" />
      <path
         d="m 6588.15,5626.3 c -7.5,6.37 -15.24,11.18 -23.36,14.68 -8.05,3.43 -18.15,5.11 -30.22,5.11 -17.24,0 -33.26,-4.84 -47.98,-14.59 -14.7,-9.84 -27.34,-22.54 -38.03,-38.07 -10.65,-15.62 -18.83,-33.01 -24.62,-52.3 -5.81,-19.31 -8.6,-38.17 -8.6,-56.58 0,-19.02 3.85,-34.58 11.66,-46.7 7.72,-12.08 21.22,-18.11 40.18,-18.11 8.05,0 16.65,2.4 25.9,7.36 9.19,4.84 18.16,11.33 26.79,19.38 8.7,8.09 16.97,17.36 25.02,27.64 8.15,10.43 15.34,21.27 21.68,32.99 z m 54.48,104.59 h 60.41 l -41.43,-234.22 c -4.59,-27.1 -4.77,-46.7 -0.39,-58.82 4.28,-12.08 13.93,-18.11 28.93,-18.11 14.94,0 29.67,3.47 44.03,10.33 14.42,6.95 27.4,17.61 38.98,32.06 11.52,14.35 20.85,32.52 28.11,54.38 7.17,21.9 10.78,47.83 10.78,77.81 0,43.16 -7.26,80.07 -21.62,110.6 -14.42,30.55 -34.2,55.77 -59.22,75.64 -25.08,19.87 -54.59,34.42 -88.58,43.61 -34.02,9.23 -70.64,13.82 -109.81,13.82 -44.89,0 -86.71,-8.04 -125.29,-24.16 -38.61,-16.2 -72.2,-38.32 -100.74,-66.56 -28.48,-28.22 -50.8,-61.85 -66.9,-100.69 -16.17,-38.91 -24.23,-81.17 -24.23,-126.58 0,-44.9 6.74,-85.31 20.34,-121.04 13.5,-35.67 33.22,-66.14 59.16,-91.22 25.93,-24.95 58.05,-44.29 96.32,-57.87 38.37,-13.49 82.34,-20.32 131.88,-20.32 16.66,0 35.68,2.01 57.05,6.08 21.31,4.08 40.54,10.08 57.84,18.13 l 26.79,-82.98 c -23.6,-11.51 -47.74,-19.53 -72.17,-24.19 -24.43,-4.59 -52.45,-6.89 -84.24,-6.89 -55.93,0 -107.56,8.09 -155.21,24.18 -47.46,16.17 -88.61,40.04 -123.48,71.75 -34.88,31.67 -62.07,71.02 -81.67,117.98 -19.63,46.96 -29.46,101.26 -29.46,162.9 0,62.8 11.24,119.54 33.78,170.34 22.41,50.62 52.66,93.82 90.75,129.54 38,35.76 82.07,63.24 132.22,82.57 50.09,19.28 103.07,28.9 159.01,28.9 53,0 102.27,-7.63 147.8,-22.87 45.5,-15.25 84.97,-37.15 118.35,-65.68 33.44,-28.54 59.64,-63.42 78.66,-104.57 19.08,-41.19 28.54,-88.03 28.54,-140.42 0,-36.87 -6.49,-71.41 -19.44,-103.71 -12.99,-32.3 -30.8,-60.26 -53.56,-83.9 -22.78,-23.58 -49.27,-42.32 -79.52,-56.16 -30.25,-13.84 -62.65,-20.71 -97.22,-20.71 -14.39,0 -27.83,1.61 -40.2,4.77 -12.37,3.13 -22.78,8.44 -31.08,15.94 -8.45,7.47 -14.61,17.24 -18.65,29.43 -4.01,12.1 -5.2,27.05 -3.46,44.95 h -3.43 c -8.63,-12.13 -18,-23.92 -28.14,-35.45 -10.04,-11.52 -21.15,-21.8 -33.22,-30.65 -12.07,-8.97 -25.35,-16.09 -39.74,-21.23 -14.43,-5.11 -30.28,-7.76 -47.5,-7.76 -13.87,0 -27.15,2.98 -39.77,9.06 -12.71,6.11 -23.67,14.56 -32.89,25.49 -9.21,10.97 -16.65,24.22 -22.07,39.78 -5.42,15.57 -8.18,32.85 -8.18,51.84 0,35.73 5.79,70.42 17.3,104.17 11.51,33.74 27.25,63.5 47.09,89.4 19.85,26 42.93,46.86 69.14,62.65 26.21,15.84 54.05,23.77 83.41,23.77 20.18,0 37.11,-3.01 50.98,-9.04 13.88,-6.06 26.49,-13.99 38.06,-23.73 l 26.8,27.66"
         style="fill:#f2f9fd;fill-opacity:1;fill-rule:nonzero;stroke:none"
         id="path164" />
      <path
         d="m 3063.78,9195.15 c -174.47,-0.14 -315.87,-142.57 -315.85,-318.07 0.19,-175.62 141.78,-317.85 316.31,-317.64 174.53,0.13 315.99,142.56 315.87,318.07 -0.12,175.47 -141.77,317.82 -316.33,317.64"
         style="fill:#284197;fill-opacity:1;fill-rule:nonzero;stroke:none"
         id="path166" />
      <path
         d="m 3192.32,8874.89 -210.05,-122.11 c -1.65,-1.01 -2.9,-1.33 -3.61,-1.41 -0.22,0.62 -0.43,1.81 -0.43,3.77 l -0.31,244.16 c 0.19,2.2 0.43,3.54 0.46,3.95 0.55,-0.13 1.9,-0.41 3.71,-1.59 l 210.23,-121.88 c 1.99,-1.18 2.88,-1.99 3.34,-2.26 -0.37,-0.55 -1.35,-1.48 -3.34,-2.63"
         style="fill:#f2f9fd;fill-opacity:1;fill-rule:nonzero;stroke:none"
         id="path168" />
      <path
         d="M 7000.79,9719.51 V 9380.15"
         style="fill:none;stroke:#f2f9fd;stroke-width:29.3549;stroke-linecap:butt;stroke-linejoin:miter;stroke-miterlimit:10;stroke-dasharray:none;stroke-opacity:1"
         id="path170" />
      <path
         d="M 7170.48,9549.83 H 6831.12"
         style="fill:none;stroke:#f2f9fd;stroke-width:29.3549;stroke-linecap:butt;stroke-linejoin:miter;stroke-miterlimit:10;stroke-dasharray:none;stroke-opacity:1"
         id="path172" />
      <path
         d="m 2076.07,6987.71 196.22,196.18 196.14,-196.18 -196.14,-196.16 z"
         style="fill:none;stroke:#cbe6f8;stroke-width:29.3549;stroke-linecap:butt;stroke-linejoin:miter;stroke-miterlimit:10;stroke-dasharray:none;stroke-opacity:1"
         id="path174" />
      <path
         d="m 2555.09,8418.6 c 0,-43.7 -35.39,-79.19 -79.12,-79.19 -43.75,0 -79.21,35.49 -79.21,79.19 0,43.78 35.46,79.21 79.21,79.21 43.73,0 79.12,-35.43 79.12,-79.21"
         style="fill:#284197;fill-opacity:1;fill-rule:nonzero;stroke:none"
         id="path176" />
    </g>
  </g>
</svg>
