<?xml version="1.0" encoding="UTF-8" standalone="no"?>
<svg
   xmlns:dc="http://purl.org/dc/elements/1.1/"
   xmlns:cc="http://creativecommons.org/ns#"
   xmlns:rdf="http://www.w3.org/1999/02/22-rdf-syntax-ns#"
   xmlns:svg="http://www.w3.org/2000/svg"
   xmlns="http://www.w3.org/2000/svg"
   viewBox="0 0 1537.0533 1141.6667"
   height="1141.6667"
   width="1537.0533"
   xml:space="preserve"
   id="svg2"
   version="1.1"><metadata
     id="metadata8"><rdf:RDF><cc:Work
         rdf:about=""><dc:format>image/svg+xml</dc:format><dc:type
           rdf:resource="http://purl.org/dc/dcmitype/StillImage" /></cc:Work></rdf:RDF></metadata><defs
     id="defs6"><clipPath
       id="clipPath60"
       clipPathUnits="userSpaceOnUse"><path
         id="path58"
         d="m 9898.24,5976.77 177.86,-0.81 -20,-4390.26 -177.82,0.81 z" /></clipPath><linearGradient
       id="linearGradient66"
       spreadMethod="pad"
       gradientTransform="matrix(197.776,0,0,-197.776,9878.28,3781.23)"
       gradientUnits="userSpaceOnUse"
       y2="0"
       x2="1"
       y1="0"
       x1="0"><stop
         id="stop62"
         offset="0"
         style="stop-opacity:1;stop-color:#d4d9ff" /><stop
         id="stop64"
         offset="1"
         style="stop-opacity:1;stop-color:#e2e6ff" /></linearGradient><clipPath
       id="clipPath76"
       clipPathUnits="userSpaceOnUse"><path
         id="path74"
         d="m 9420.49,5978.94 177.83,-0.81 -19.97,-4390.26 -177.81,0.81 z" /></clipPath><linearGradient
       id="linearGradient82"
       spreadMethod="pad"
       gradientTransform="matrix(197.776,0,0,-197.776,9400.54,3783.41)"
       gradientUnits="userSpaceOnUse"
       y2="0"
       x2="1"
       y1="0"
       x1="0"><stop
         id="stop78"
         offset="0"
         style="stop-opacity:1;stop-color:#d4d9ff" /><stop
         id="stop80"
         offset="1"
         style="stop-opacity:1;stop-color:#e2e6ff" /></linearGradient><clipPath
       id="clipPath98"
       clipPathUnits="userSpaceOnUse"><path
         id="path96"
         d="M 8904.61,1348.38 H 4811.16 c -126.04,0 -228.21,102.17 -228.21,228.2 v 5482.44 c 0,126.03 102.17,228.2 228.21,228.2 H 7931.53 L 9132.82,6085.94 V 1576.58 c 0,-126.03 -102.17,-228.2 -228.21,-228.2 z" /></clipPath><linearGradient
       id="linearGradient104"
       spreadMethod="pad"
       gradientTransform="matrix(4549.86,0,0,-4549.86,4582.96,4317.8)"
       gradientUnits="userSpaceOnUse"
       y2="0"
       x2="1"
       y1="0"
       x1="0"><stop
         id="stop100"
         offset="0"
         style="stop-opacity:1;stop-color:#d4d9ff" /><stop
         id="stop102"
         offset="1"
         style="stop-opacity:1;stop-color:#e2e6ff" /></linearGradient></defs><g
     transform="matrix(1.3333333,0,0,-1.3333333,0,1141.6667)"
     id="g10"><g
       transform="scale(0.1)"
       id="g12"><path
         id="path14"
         style="fill:#ffb8c8;fill-opacity:1;fill-rule:nonzero;stroke:none"
         d="m 10858.7,6464.36 c 0,88 71.3,159.34 159.3,159.34 88,0 159.3,-71.34 159.3,-159.34 0,-88 -71.3,-159.34 -159.3,-159.34 -88,0 -159.3,71.34 -159.3,159.34 z m 638.4,459.8 h -958.2 V 672.18 h 958.2 v 6251.98" /><path
         id="path16"
         style="fill:#ffe3e9;fill-opacity:1;fill-rule:nonzero;stroke:none"
         d="M 11497.1,6924.16 H 11304 V 672.18 h 193.1 v 6251.98" /><path
         id="path18"
         style="fill:#8f98f8;fill-opacity:1;fill-rule:nonzero;stroke:none"
         d="m 11138.2,5913.53 v 0 c 0,21.08 17.1,38.17 38.2,38.17 h 320.7 v -76.34 h -320.7 c -21.1,0 -38.2,17.09 -38.2,38.17" /><path
         id="path20"
         style="fill:#8f98f8;fill-opacity:1;fill-rule:nonzero;stroke:none"
         d="m 11138.2,4607.71 v 2.83 c 0,20.3 16.5,36.75 36.8,36.75 h 322.1 v -76.33 H 11175 c -20.3,0 -36.8,16.45 -36.8,36.75" /><path
         id="path22"
         style="fill:#8f98f8;fill-opacity:1;fill-rule:nonzero;stroke:none"
         d="m 11258.4,5587.43 v 0 c 0,21.08 17.1,38.17 38.1,38.17 h 200.6 v -76.34 h -200.6 c -21,0 -38.1,17.09 -38.1,38.17" /><path
         id="path24"
         style="fill:#8f98f8;fill-opacity:1;fill-rule:nonzero;stroke:none"
         d="m 11258.4,5261.33 v 0 c 0,21.08 17.1,38.17 38.1,38.17 h 200.6 v -76.35 h -200.6 c -21,0 -38.1,17.09 -38.1,38.18" /><path
         id="path26"
         style="fill:#8f98f8;fill-opacity:1;fill-rule:nonzero;stroke:none"
         d="m 11258.4,4935.22 v 0 c 0,21.09 17.1,38.18 38.1,38.18 h 200.6 v -76.34 h -200.6 c -21,0 -38.1,17.09 -38.1,38.16" /><path
         id="path28"
         style="fill:#8f98f8;fill-opacity:1;fill-rule:nonzero;stroke:none"
         d="m 11138.2,3304.73 v 0 c 0,21.08 17.1,38.17 38.2,38.17 h 320.7 v -76.35 h -320.7 c -21.1,0 -38.2,17.09 -38.2,38.18" /><path
         id="path30"
         style="fill:#8f98f8;fill-opacity:1;fill-rule:nonzero;stroke:none"
         d="m 11258.4,4283.03 v 0 c 0,21.08 17.1,38.17 38.1,38.17 h 200.6 v -76.35 h -200.6 c -21,0 -38.1,17.09 -38.1,38.18" /><path
         id="path32"
         style="fill:#8f98f8;fill-opacity:1;fill-rule:nonzero;stroke:none"
         d="m 11258.4,3956.92 v 0 c 0,21.09 17.1,38.18 38.1,38.18 h 200.6 v -76.34 h -200.6 c -21,0 -38.1,17.09 -38.1,38.16" /><path
         id="path34"
         style="fill:#8f98f8;fill-opacity:1;fill-rule:nonzero;stroke:none"
         d="m 11258.4,3630.83 v 0 c 0,21.07 17.1,38.16 38.1,38.16 h 200.6 v -76.34 h -200.6 c -21,0 -38.1,17.09 -38.1,38.18" /><path
         id="path36"
         style="fill:#8f98f8;fill-opacity:1;fill-rule:nonzero;stroke:none"
         d="m 11138.2,2000.32 v 0 c 0,21.08 17.1,38.17 38.2,38.17 h 320.7 v -76.34 h -320.7 c -21.1,0 -38.2,17.09 -38.2,38.17" /><path
         id="path38"
         style="fill:#8f98f8;fill-opacity:1;fill-rule:nonzero;stroke:none"
         d="m 11258.4,2978.62 v 0 c 0,21.09 17.1,38.18 38.1,38.18 h 200.6 v -76.35 h -200.6 c -21,0 -38.1,17.09 -38.1,38.17" /><path
         id="path40"
         style="fill:#8f98f8;fill-opacity:1;fill-rule:nonzero;stroke:none"
         d="m 11258.4,2652.52 v 0 c 0,21.08 17.1,38.17 38.1,38.17 h 200.6 v -76.34 h -200.6 c -21,0 -38.1,17.09 -38.1,38.17" /><path
         id="path42"
         style="fill:#8f98f8;fill-opacity:1;fill-rule:nonzero;stroke:none"
         d="m 11258.4,2325.01 v 2.82 c 0,20.3 16.4,36.76 36.7,36.76 h 202 v -76.34 h -202 c -20.3,0 -36.7,16.46 -36.7,36.76" /><path
         id="path44"
         style="fill:#8f98f8;fill-opacity:1;fill-rule:nonzero;stroke:none"
         d="m 11258.4,1674.22 v 0 c 0,21.08 17.1,38.17 38.1,38.17 h 200.6 v -76.34 h -200.6 c -21,0 -38.1,17.09 -38.1,38.17" /><path
         id="path46"
         style="fill:#8f98f8;fill-opacity:1;fill-rule:nonzero;stroke:none"
         d="m 11258.4,1348.12 v 0 c 0,21.08 17.1,38.17 38.1,38.17 h 200.6 v -76.34 h -200.6 c -21,0 -38.1,17.09 -38.1,38.17" /><path
         id="path48"
         style="fill:#8f98f8;fill-opacity:1;fill-rule:nonzero;stroke:none"
         d="m 11258.4,1022.02 v 0 c 0,21.08 17.1,38.17 38.1,38.17 h 200.6 v -76.338 h -200.6 c -21,0 -38.1,17.088 -38.1,38.168" /><path
         id="path50"
         style="fill:#ffb8c8;fill-opacity:1;fill-rule:nonzero;stroke:none"
         d="m 10076.1,5977.46 -310.49,1120.27 c -3.42,12.34 -20.89,12.41 -24.42,0.11 l -320.66,-1117.4 655.57,-2.98" /><path
         id="path52"
         style="fill:#8f98f8;fill-opacity:1;fill-rule:nonzero;stroke:none"
         d="m 9420.49,5978.94 655.61,-2.98 -20,-4390.26 -655.56,2.98 19.95,4390.26" /><g
         id="g54"><g
           clip-path="url(#clipPath60)"
           id="g56"><path
             id="path68"
             style="fill:url(#linearGradient66);fill-opacity:1;fill-rule:nonzero;stroke:none"
             d="m 9898.24,5976.77 177.86,-0.81 -20,-4390.26 -177.82,0.81 19.96,4390.26" /></g></g><g
         id="g70"><g
           clip-path="url(#clipPath76)"
           id="g72"><path
             id="path84"
             style="fill:url(#linearGradient82);fill-opacity:1;fill-rule:nonzero;stroke:none"
             d="m 9420.49,5978.94 177.83,-0.81 -19.97,-4390.26 -177.81,0.81 19.95,4390.26" /></g></g><path
         id="path86"
         style="fill:#f17786;fill-opacity:1;fill-rule:nonzero;stroke:none"
         d="m 9661.03,945.352 128.74,-0.59 c 145.48,-0.66 263.93,116.738 264.63,262.218 l 1.7,378.72 -655.56,2.98 -1.72,-378.72 c -0.66,-145.48 116.73,-263.948 262.21,-264.608" /><path
         id="path88"
         style="fill:#fad2d7;fill-opacity:1;fill-rule:nonzero;stroke:none"
         d="m 9402.07,1925.08 655.53,-2.98 -1.5,-336.4 -655.56,2.98 1.53,336.4" /><path
         id="path90"
         style="fill:#ff5e85;fill-opacity:1;fill-rule:nonzero;stroke:none"
         d="M 9741.19,7097.84 9612,6647.62 c 87.22,0.6 190.51,1.01 278.19,0.59 l -124.58,449.52 c -3.42,12.34 -20.89,12.41 -24.42,0.11" /><g
         id="g92"><g
           clip-path="url(#clipPath98)"
           id="g94"><path
             id="path106"
             style="fill:url(#linearGradient104);fill-opacity:1;fill-rule:nonzero;stroke:none"
             d="M 8904.61,1348.38 H 4811.16 c -126.04,0 -228.21,102.17 -228.21,228.2 v 5482.44 c 0,126.03 102.17,228.2 228.21,228.2 H 7931.53 L 9132.82,6085.94 V 1576.58 c 0,-126.03 -102.17,-228.2 -228.21,-228.2" /></g></g><path
         id="path108"
         style="fill:#4654c9;fill-opacity:1;fill-rule:nonzero;stroke:none"
         d="m 8372.28,4555.98 h -89.09 c 0,785.33 -639.14,1424.24 -1424.75,1424.24 -785.6,0 -1424.73,-638.91 -1424.73,-1424.24 h -89.1 c 0,834.44 679.11,1513.31 1513.83,1513.31 834.74,0 1513.84,-678.87 1513.84,-1513.31" /><path
         id="path110"
         style="fill:#4654c9;fill-opacity:1;fill-rule:nonzero;stroke:none"
         d="m 7010.34,5872.92 h -303.78 v 303.67 h 303.78 v -303.67" /><path
         id="path112"
         style="fill:#4654c9;fill-opacity:1;fill-rule:nonzero;stroke:none"
         d="m 8372.28,4555.98 h -89.09 v 908 h 89.09 v -908" /><path
         id="path114"
         style="fill:#4654c9;fill-opacity:1;fill-rule:nonzero;stroke:none"
         d="m 7701.69,5980.22 h -1686.5 v 89.07 h 1686.5 v -89.07" /><path
         id="path116"
         style="fill:#4654c9;fill-opacity:1;fill-rule:nonzero;stroke:none"
         d="m 8430.05,5463.98 c 0,-56.49 -45.81,-102.28 -102.32,-102.28 -56.51,0 -102.32,45.79 -102.32,102.28 0,56.5 45.81,102.29 102.32,102.29 56.51,0 102.32,-45.79 102.32,-102.29" /><path
         id="path118"
         style="fill:#4654c9;fill-opacity:1;fill-rule:nonzero;stroke:none"
         d="m 5433.71,4555.98 h -89.1 v 908 h 89.1 v -908" /><path
         id="path120"
         style="fill:#4654c9;fill-opacity:1;fill-rule:nonzero;stroke:none"
         d="m 5491.48,5463.98 c 0,-56.49 -45.81,-102.28 -102.31,-102.28 -56.52,0 -102.33,45.79 -102.33,102.28 0,56.5 45.81,102.29 102.33,102.29 56.5,0 102.31,-45.79 102.31,-102.29" /><path
         id="path122"
         style="fill:#4654c9;fill-opacity:1;fill-rule:nonzero;stroke:none"
         d="m 7804.02,6024.75 c 0,-56.49 -45.81,-102.28 -102.33,-102.28 -56.5,0 -102.31,45.79 -102.31,102.28 0,56.5 45.81,102.29 102.31,102.29 56.52,0 102.33,-45.79 102.33,-102.29" /><path
         id="path124"
         style="fill:#4654c9;fill-opacity:1;fill-rule:nonzero;stroke:none"
         d="m 6117.51,6024.75 c 0,-56.49 -45.81,-102.28 -102.32,-102.28 -56.51,0 -102.32,45.79 -102.32,102.28 0,56.5 45.81,102.29 102.32,102.29 56.51,0 102.32,-45.79 102.32,-102.29" /><path
         id="path126"
         style="fill:#4654c9;fill-opacity:1;fill-rule:nonzero;stroke:none"
         d="m 5541.05,4404.14 h -303.78 v 303.67 h 303.78 v -303.67" /><path
         id="path128"
         style="fill:#4654c9;fill-opacity:1;fill-rule:nonzero;stroke:none"
         d="m 8479.61,4404.14 h -303.77 v 303.67 h 303.77 v -303.67" /><path
         id="path130"
         style="fill:#ffb8c8;fill-opacity:1;fill-rule:nonzero;stroke:none"
         d="m 8159.73,6085.94 h 973.09 L 7931.53,7287.22 v -973.09 c 0,-126.03 102.17,-228.19 228.2,-228.19" /><path
         id="path132"
         style="fill:#8f98f8;fill-opacity:1;fill-rule:nonzero;stroke:none"
         d="m 6803.86,5366.92 c 24.02,41.58 84.04,41.58 108.05,0 l 424.76,-735.71 c 25.85,-44.79 27.45,-99.57 4.22,-145.78 l -248.37,-494.26 h -469.27 l -248.37,494.26 c -23.22,46.21 -21.63,100.99 4.23,145.78 l 424.75,735.71" /><path
         id="path134"
         style="fill:#4654c9;fill-opacity:1;fill-rule:nonzero;stroke:none"
         d="m 6597.64,3743.07 h 520.49 c 65.99,0 119.47,53.49 119.47,119.47 v 9.16 c 0,65.98 -53.48,119.47 -119.47,119.47 h -520.49 c -65.98,0 -119.47,-53.49 -119.47,-119.47 v -9.16 c 0,-65.98 53.49,-119.47 119.47,-119.47" /><path
         id="path136"
         style="fill:#ff5e85;fill-opacity:1;fill-rule:nonzero;stroke:none"
         d="m 6601.1,3743.09 h 513.57 l 93.49,-2451.28 c 7.58,-198.68 -151.45,-363.88 -350.27,-363.88 v 0 c -198.83,0 -357.86,165.2 -350.28,363.88 l 93.49,2451.28" /><path
         id="path138"
         style="fill:#4654c9;fill-opacity:1;fill-rule:nonzero;stroke:none"
         d="m 6691.68,4566.98 c 0,-91.79 74.42,-166.19 166.21,-166.19 91.78,0 166.2,74.4 166.2,166.19 0,91.8 -74.42,166.2 -166.2,166.2 -91.79,0 -166.21,-74.4 -166.21,-166.2" /><path
         id="path140"
         style="fill:#4654c9;fill-opacity:1;fill-rule:nonzero;stroke:none"
         d="m 6803.86,5366.91 v 0 c 24.02,41.59 84.04,41.59 108.05,0 v 0 -691.01 h -108.05 v 691.01" /><path
         id="path142"
         style="fill:#4654c9;fill-opacity:1;fill-rule:nonzero;stroke:none"
         d="M 5682.91,740.488 H 499.262 V 3983.36 c 0,122.58 99.375,221.96 221.965,221.96 H 5460.94 c 122.58,0 221.97,-99.38 221.97,-221.96 V 740.488" /><path
         id="path144"
         style="fill:#ffe3e9;fill-opacity:1;fill-rule:nonzero;stroke:none"
         d="M 781.891,1023.11 V 3922.69 H 5400.28 V 1023.11 H 781.891" /><path
         id="path146"
         style="fill:#8f98f8;fill-opacity:1;fill-rule:nonzero;stroke:none"
         d="M 6160.53,740.488 H 21.6289 C 9.68359,740.488 0,730.801 0,718.859 V 558.512 C 0,464.77 75.9844,388.789 169.723,388.789 H 6012.45 c 93.73,0 169.71,75.981 169.71,169.723 v 160.347 c 0,11.942 -9.67,21.629 -21.63,21.629" /><path
         id="path148"
         style="fill:#7580f8;fill-opacity:1;fill-rule:nonzero;stroke:none"
         d="M 4458.07,740.488 H 1724.09 V 649.5 c 0,-46.859 37.99,-84.859 84.86,-84.859 h 2564.26 c 46.87,0 84.86,38 84.86,84.859 v 90.988" /><path
         id="path150"
         style="fill:#8f98f8;fill-opacity:1;fill-rule:nonzero;stroke:none"
         d="m 1430.71,1289.21 h -403.4 v 2032.47 h 403.4 V 1289.21" /><path
         id="path152"
         style="fill:#8f98f8;fill-opacity:1;fill-rule:nonzero;stroke:none"
         d="m 781.891,3530.93 v 403.4 H 5400.28 v -403.4 H 781.891" /><path
         id="path154"
         style="fill:#ffffff;fill-opacity:1;fill-rule:nonzero;stroke:none"
         d="M 4693.07,1023.11 H 1724.09 V 3321.68 H 4693.07 V 1023.11" /><path
         id="path156"
         style="fill:#ff5e85;fill-opacity:1;fill-rule:nonzero;stroke:none"
         d="m 3823.12,2252.36 c 0,-367.95 -298.28,-666.24 -666.24,-666.24 -367.95,0 -666.23,298.29 -666.23,666.24 0,367.95 298.28,666.23 666.23,666.23 367.96,0 666.24,-298.28 666.24,-666.23" /><path
         id="path158"
         style="fill:#4491ff;fill-opacity:1;fill-rule:nonzero;stroke:none"
         d="m 3854.68,1697.64 c 0,-238.41 -193.27,-431.68 -431.68,-431.68 -238.41,0 -431.68,193.27 -431.68,431.68 0,238.4 193.27,431.67 431.68,431.67 238.41,0 431.68,-193.27 431.68,-431.67" /><path
         id="path160"
         style="fill:#4654c9;fill-opacity:1;fill-rule:nonzero;stroke:none"
         d="m 3759.51,1968 c -79.12,98.36 -200.45,161.31 -336.51,161.31 -238.41,0 -431.68,-193.27 -431.68,-431.67 0,-32.02 3.52,-63.21 10.14,-93.25 49.86,-11.91 101.9,-18.27 155.42,-18.27 266.22,0 495.94,156.17 602.63,381.88" /><path
         id="path162"
         style="fill:#5a66d4;fill-opacity:1;fill-rule:nonzero;stroke:none"
         d="m 3887.26,3368.2 c 0,0 52.88,-117.22 52.88,-178.96 0,-61.75 3.49,-75.72 -66.29,-103.63 -69.76,-27.9 -436.79,-122.18 -436.79,-122.18 l 213.52,225.81 61.14,119.65 175.54,59.31" /><path
         id="path164"
         style="fill:#ffadc8;fill-opacity:1;fill-rule:nonzero;stroke:none"
         d="m 3603.58,3086.17 c 0,0 311.31,78.35 329.31,152.89 -14.48,60.04 -45.63,129.14 -45.63,129.14 l -175.54,-59.31 -61.14,-119.65 -68.58,-72.54 21.58,-30.53" /><path
         id="path166"
         style="fill:#2c3955;fill-opacity:1;fill-rule:nonzero;stroke:none"
         d="m 4256.98,4446.27 c 0,0 -736.32,-23.22 -808.23,-154.28 -71.9,-131.04 210.92,-1027.43 210.92,-1027.43 0,0 143.8,-22.16 273.24,79.99 l -115.05,688.27 519.61,75.39 -80.49,338.06" /><path
         id="path168"
         style="fill:#5a66d4;fill-opacity:1;fill-rule:nonzero;stroke:none"
         d="m 3472.86,3178.11 c 0,0 10.02,-121.93 -230.43,-188.73 -240.46,-66.78 -210.4,-113.54 -200.38,-153.62 10.02,-40.07 360.67,-6.68 504.27,0 143.61,6.68 173.67,7.45 163.65,102.25 -10.02,94.79 -23.34,159.26 -20.04,240.1 h -217.07" /><path
         id="path170"
         style="fill:#ffadc8;fill-opacity:1;fill-rule:nonzero;stroke:none"
         d="m 3472.86,3178.11 c 0,0 10.02,-121.93 -230.44,-188.73 -41.83,-11.62 -75.32,-22.61 -102.3,-33.09 20.89,-13.49 82.57,-40.62 233.37,-31.8 170.11,9.96 297.31,56.4 329.95,69.36 -8.33,66.57 -16.12,120.32 -13.51,184.26 h -217.07" /><path
         id="path172"
         style="fill:#ff5e85;fill-opacity:1;fill-rule:nonzero;stroke:none"
         d="m 4585.81,5980.3 c -195.48,9.84 -276.95,-120.55 -287.43,-230.6 -10.47,-110.05 -12.05,-209.63 -41.4,-251.56 -29.35,-41.93 17.82,-116.12 62.37,-172.05 44.54,-55.93 -66.9,-187.2 -39.31,-244.6 27.59,-57.4 136.8,-120.53 136.8,-120.53 0,0 636.22,81.23 625.74,204.39 -10.48,123.15 -36.69,196.52 -131.02,290.86 -94.33,94.34 -15.4,138.89 -22.11,207.01 -6.71,68.14 -85.32,76 -111.53,165.09 -26.21,89.1 -88.13,146.75 -192.11,151.99" /><path
         id="path174"
         style="fill:#37486b;fill-opacity:1;fill-rule:nonzero;stroke:none"
         d="m 4846.49,4315.93 c 0,0 -12.74,-356.48 -355.36,-332.29 -253.31,17.88 -689.58,1.09 -689.58,1.09 l -92.91,-882.61 c 0,0 -211.15,-59.12 -295.62,46.45 0,0 54.9,846.17 67.57,942.52 12.68,96.35 33.79,197.71 173.15,231.49 139.36,33.79 582.78,92.91 646.13,105.57 63.34,12.68 138.94,84.44 138.94,84.44 l 407.68,-196.66" /><path
         id="path176"
         style="fill:#4491ff;fill-opacity:1;fill-rule:nonzero;stroke:none"
         d="m 4649.56,5429.77 c 131.76,14.82 303.58,-94.79 342.09,-216.25 38.51,-121.45 -47.4,-322.9 -91.83,-491.75 -44.44,-168.86 -53.33,-405.84 -53.33,-405.84 0,0 -432.5,-106.65 -589.51,130.34 0,0 88.87,198.47 71.1,334.74 -17.77,136.27 -47.4,204.41 0,302.16 47.39,97.77 97.75,266.62 159.96,287.36 62.22,20.74 161.52,59.24 161.52,59.24" /><path
         id="path178"
         style="fill:#ffadc8;fill-opacity:1;fill-rule:nonzero;stroke:none"
         d="m 4428.79,5847.47 c -81.64,-38.11 -106.64,-115.54 -65.16,-242.92 41.47,-127.37 103.68,-242.91 216.25,-168.85 112.57,74.05 124.42,198.48 121.45,260.69 -2.96,62.21 -94.79,234.03 -272.54,151.08" /><path
         id="path180"
         style="fill:#ffadc8;fill-opacity:1;fill-rule:nonzero;stroke:none"
         d="m 4547.29,5477.18 47.4,-151.09 c 0,0 154.05,12.76 157,86.36 2.97,73.61 -52.13,228.6 -52.13,228.6 l -152.27,-163.87" /><path
         id="path182"
         style="fill:#ffadc8;fill-opacity:1;fill-rule:nonzero;stroke:none"
         d="m 4831.68,5151.31 c 20.74,-109.6 157.01,-494.71 157.01,-521.38 0,0 -260.96,-94.52 -402.88,-103.68 v -115.53 c 0,0 228.1,2.96 376.22,26.66 148.11,23.7 231.06,62.21 231.06,82.95 0,20.73 -44.43,364.37 -94.79,545.07 -50.37,180.71 -112.57,281.42 -208.85,260.69 -96.28,-20.74 -57.77,-174.78 -57.77,-174.78" /><path
         id="path184"
         style="fill:#ffadc8;fill-opacity:1;fill-rule:nonzero;stroke:none"
         d="m 4585.81,4526.25 c 0,0 -155.75,8.89 -200.81,23.7 -45.07,14.81 -167.38,-11.85 -190.66,-56.29 -23.27,-44.43 89.29,-94.46 129.17,-82.94 39.89,11.52 39.89,33.46 79.78,31.47 39.89,-2 41.93,-96.84 182.52,-31.47 v 115.53" /><path
         id="path186"
         style="fill:#ff5e85;fill-opacity:1;fill-rule:nonzero;stroke:none"
         d="m 4366.52,5844.03 c 0,0 -7.86,-57.64 73.37,-89.09 81.23,-31.45 154.6,-41.92 165.09,-136.26 10.47,-94.34 46.76,-89.36 96.74,-147.79 49.97,-58.44 141.71,-107.43 141.71,-58.44 0,49 -128.4,400.14 -128.4,400.14 0,0 -96.96,110.05 -180.81,104.82 -83.85,-5.24 -167.7,-73.38 -167.7,-73.38" /><path
         id="path188"
         style="fill:#5a66d4;fill-opacity:1;fill-rule:nonzero;stroke:none"
         d="m 4322.62,4336.66 h -609.99 c -27.19,0 -49.22,22.04 -49.22,49.22 v 3.78 c 0,27.18 22.03,49.22 49.22,49.22 h 609.99 c 27.18,0 49.22,-22.04 49.22,-49.22 v -3.78 c 0,-27.18 -22.04,-49.22 -49.22,-49.22" /><path
         id="path190"
         style="fill:#5a66d4;fill-opacity:1;fill-rule:nonzero;stroke:none"
         d="m 3808.23,5022.13 298.93,-685.47 h -439.81 l -285.6,654.89 c -11.01,25.26 7.49,53.54 35.06,53.54 h 356.36 c 15.21,0 28.98,-9.02 35.06,-22.96" /><path
         id="path192"
         style="fill:#ffb8c8;fill-opacity:1;fill-rule:nonzero;stroke:none"
         d="m 4228.33,6865.29 c 0,483.18 -391.68,874.87 -874.86,874.87 -483.18,0 -874.87,-391.69 -874.87,-874.87 0,-152.31 43.08,-302.67 120.02,-433.84 38.92,-66.35 86.42,-125.52 139.1,-181.35 50.29,-53.31 117.58,-87.93 165.36,-143.01 41.28,-47.58 46.22,-105 66.15,-161.92 24.42,-69.68 90.19,-116.33 164.02,-116.33 h 441.06 c 73.52,0 139.08,46.26 163.72,115.52 16.97,47.68 28.61,108.47 55.03,151.23 32.9,53.27 106.49,80.58 151.71,123.76 58.01,55.39 109.43,115.28 151.55,183.77 84.96,138.14 132.01,299.85 132.01,462.17" /><path
         id="path194"
         style="fill:#ffffff;fill-opacity:1;fill-rule:nonzero;stroke:none"
         d="m 3616.87,7411.4 c -9.05,0 -18.25,1.81 -27.1,5.61 -20.03,8.61 -40.74,16.2 -61.54,22.54 -36.28,11.06 -56.72,49.44 -45.67,85.71 11.07,36.28 49.48,56.7 85.71,45.66 25.62,-7.81 51.11,-17.15 75.77,-27.75 34.83,-14.98 50.93,-55.37 35.95,-90.21 -11.19,-25.99 -36.51,-41.56 -63.12,-41.56" /><path
         id="path196"
         style="fill:#ffffff;fill-opacity:1;fill-rule:nonzero;stroke:none"
         d="m 4022.34,6796.62 c -37.93,0 -68.67,30.74 -68.67,68.67 0,166.3 -66.75,321.05 -187.93,435.77 -27.55,26.07 -28.73,69.53 -2.67,97.08 26.09,27.54 69.54,28.74 97.07,2.66 146.72,-138.87 230.86,-334.06 230.86,-535.51 0,-37.93 -30.74,-68.67 -68.66,-68.67" /><path
         id="path198"
         style="fill:#ffffff;fill-opacity:1;fill-rule:nonzero;stroke:none"
         d="m 3156.71,6582.1 c -30.72,0 -61.44,8.8 -87.89,26.45 l -78.43,52.37 c -17.04,11.37 -21.63,34.4 -10.26,51.43 11.37,17.02 34.4,21.62 51.43,10.25 l 78.44,-52.37 c 28.77,-19.21 67.09,-18.69 95.35,1.28 l 58.12,41.08 c 55.3,39.1 129.33,38.7 184.2,-0.99 l 54.2,-39.19 c 28.28,-20.45 66.81,-21.22 95.88,-1.94 l 85.05,56.4 c 17.06,11.31 40.07,6.65 51.38,-10.41 11.33,-17.06 6.66,-40.07 -10.4,-51.39 l -85.04,-56.4 c -54.69,-36.25 -127.15,-34.8 -180.33,3.65 l -54.2,39.19 c -29.18,21.11 -68.53,21.31 -97.94,0.52 l -58.11,-41.08 c -27.18,-19.21 -59.31,-28.85 -91.45,-28.85" /><path
         id="path200"
         style="fill:#ffffff;fill-opacity:1;fill-rule:nonzero;stroke:none"
         d="m 3160.6,5761.84 c -17.78,0 -33.49,12.84 -36.52,30.96 l -156.9,935.9 c -3.39,20.19 10.25,39.31 30.44,42.7 20.19,3.38 39.31,-10.24 42.7,-30.44 l 156.89,-935.9 c 3.39,-20.2 -10.24,-39.31 -30.44,-42.7 -2.07,-0.35 -4.14,-0.52 -6.17,-0.52" /><path
         id="path202"
         style="fill:#ffffff;fill-opacity:1;fill-rule:nonzero;stroke:none"
         d="m 3548.27,5761.84 c -2.1,0 -4.23,0.18 -6.37,0.55 -20.18,3.49 -33.7,22.68 -30.22,42.85 l 161.36,933.45 c 3.49,20.18 22.69,33.68 42.85,30.22 20.18,-3.49 33.7,-22.68 30.22,-42.85 l -161.36,-933.45 c -3.11,-18.04 -18.78,-30.77 -36.48,-30.77" /><path
         id="path204"
         style="fill:#8f98f8;fill-opacity:1;fill-rule:nonzero;stroke:none"
         d="M 3601.83,5828.84 H 3105.1 c -37.14,0 -67.24,-30.11 -67.24,-67.25 v -240.53 c 0,-37.14 30.1,-67.24 67.24,-67.24 h 60.42 c 22.45,-82.79 98.07,-143.68 187.95,-143.68 89.87,0 165.5,60.89 187.94,143.68 h 60.42 c 37.14,0 67.26,30.1 67.26,67.24 v 240.53 c 0,37.14 -30.12,67.25 -67.26,67.25" /><path
         id="path206"
         style="fill:#ffb8c8;fill-opacity:1;fill-rule:nonzero;stroke:none"
         d="m 3357.13,7915.32 c -22.12,0 -40.04,17.93 -40.04,40.04 v 265.92 c 0,22.11 17.92,40.04 40.04,40.04 22.11,0 40.03,-17.93 40.03,-40.04 v -265.92 c 0,-22.11 -17.92,-40.04 -40.03,-40.04" /><path
         id="path208"
         style="fill:#ffb8c8;fill-opacity:1;fill-rule:nonzero;stroke:none"
         d="m 3939.51,7737.66 c -10.03,-2.09 -20.86,-0.37 -30.12,5.68 -18.51,12.11 -23.7,36.92 -11.6,55.42 l 145.52,222.57 c 12.1,18.51 36.91,23.71 55.42,11.6 18.5,-12.1 23.7,-36.91 11.6,-55.42 l -145.52,-222.56 c -6.05,-9.26 -15.27,-15.18 -25.3,-17.29" /><path
         id="path210"
         style="fill:#ffb8c8;fill-opacity:1;fill-rule:nonzero;stroke:none"
         d="m 4504.33,7451.52 -233.69,-126.89 c -19.42,-10.55 -43.73,-3.35 -54.29,16.08 -10.54,19.43 -3.35,43.74 16.08,54.29 l 233.69,126.89 c 19.43,10.55 43.74,3.35 54.29,-16.08 10.55,-19.43 3.34,-43.74 -16.08,-54.29" /><path
         id="path212"
         style="fill:#ffb8c8;fill-opacity:1;fill-rule:nonzero;stroke:none"
         d="m 2788.69,7737.66 c 10.03,-2.09 20.86,-0.37 30.1,5.68 18.51,12.11 23.71,36.92 11.61,55.42 l -145.52,222.57 c -12.1,18.51 -36.92,23.71 -55.42,11.6 -18.51,-12.1 -23.7,-36.91 -11.6,-55.42 l 145.51,-222.56 c 6.06,-9.26 15.29,-15.18 25.32,-17.29" /><path
         id="path214"
         style="fill:#ffb8c8;fill-opacity:1;fill-rule:nonzero;stroke:none"
         d="m 2223.85,7451.52 233.69,-126.89 c 19.43,-10.55 43.73,-3.35 54.29,16.08 10.55,19.43 3.35,43.74 -16.07,54.29 l -233.69,126.89 c -19.43,10.55 -43.74,3.35 -54.29,-16.08 -10.55,-19.43 -3.35,-43.74 16.07,-54.29" /><path
         id="path216"
         style="fill:#ff94ae;fill-opacity:1;fill-rule:nonzero;stroke:none"
         d="M 10078.5,2599.77 H 8335.83 c -98.89,0 -179.06,-80.15 -179.06,-179.04 V 538.031 c 0,-98.89 80.17,-179.062 179.06,-179.062 h 1742.67 c 98.9,0 179,80.172 179,179.062 V 2420.73 c 0,98.89 -80.1,179.04 -179,179.04" /><path
         id="path218"
         style="fill:#8f98f8;fill-opacity:1;fill-rule:nonzero;stroke:none"
         d="m 10276.9,2313.31 h -19.4 v -360.73 h 19.4 c 209.4,0 379.7,-170.34 379.7,-379.7 v -233.69 c 0,-209.37 -170.3,-379.698 -379.7,-379.698 h -19.4 v -360.73 h 19.4 c 408.3,0 740.4,332.16 740.4,740.428 v 233.69 c 0,408.27 -332.1,740.43 -740.4,740.43" /><path
         id="path220"
         style="fill:#37486b;fill-opacity:1;fill-rule:nonzero;stroke:none"
         d="m 8331.91,95.1016 c 0,0 166.42,-23.7696 332.85,-47.5508 C 8831.19,23.7813 8854.97,0 8926.29,0 c 71.32,0 47.55,142.641 0,225.859 -47.54,83.211 -142.65,71.332 -202.09,83.211 -59.44,11.899 -297.18,-11.879 -297.18,-11.879 L 8331.91,95.1016" /><path
         id="path222"
         style="fill:#37486b;fill-opacity:1;fill-rule:nonzero;stroke:none"
         d="m 8082.68,156.199 c 0,0 -416.47,-13.558 -499.69,-25.437 -83.21,-11.883 -237.74,-35.6604 -190.19,142.66 47.55,178.308 427.95,154.527 427.95,154.527 l 225.18,-57.207 36.75,-214.543" /><path
         id="path224"
         style="fill:#4654c9;fill-opacity:1;fill-rule:nonzero;stroke:none"
         d="m 7202.59,725.141 c -107.07,-146.012 35.67,-285.301 451.73,-427.95 416.07,-142.652 665.7,-249.6402 665.7,-249.6402 0,0 37.85,4.3594 95.1,118.8712 57.26,114.519 47.56,166.43 47.56,166.43 0,0 -637.65,224.57 -717.06,296.539 -79.41,71.98 -412.27,274.07 -543.03,95.75" /><path
         id="path226"
         style="fill:#4654c9;fill-opacity:1;fill-rule:nonzero;stroke:none"
         d="m 7985.7,512.77 c 0,0 750.39,248.031 893.05,283.691 142.64,35.668 285.29,-23.77 297.18,-142.641 C 9187.82,534.941 8973.84,404.18 8783.64,356.629 8593.44,309.07 8165.48,178.313 8165.48,178.313 L 7985.7,512.77" /><path
         id="path228"
         style="fill:#ffadc8;fill-opacity:1;fill-rule:nonzero;stroke:none"
         d="m 8581.55,1295.74 c 0,0 -23.77,-142.65 -11.89,-213.97 11.89,-71.33 -11.88,-261.528 -11.88,-261.528 l 59.43,-142.652 c 0,0 166.43,380.4 154.54,558.72 -11.88,178.31 -23.78,178.31 -23.78,178.31 l -166.42,-118.88" /><path
         id="path230"
         style="fill:#ffadc8;fill-opacity:1;fill-rule:nonzero;stroke:none"
         d="m 7547.33,1367.07 c 0,0 -35.66,-285.3 -35.66,-356.63 0,-71.319 91.5,-140.17 194.35,-177.069 102.84,-36.91 221.72,-1.242 221.72,-1.242 l -11.9,83.211 -202.09,130.76 35.67,297.19 -202.09,23.78" /><path
         id="path232"
         style="fill:#ff5e85;fill-opacity:1;fill-rule:nonzero;stroke:none"
         d="m 8129.82,1913.89 c -273.41,-47.54 -439.83,-106.98 -439.83,-106.98 0,0 118.87,-653.82 118.87,-808.359 0,-154.539 0,-273.41 0,-273.41 H 8534 c 0,0 0,356.629 0,451.719 0,95.11 106.99,630.05 106.99,630.05 l -392.29,106.98 h -118.88" /><path
         id="path234"
         style="fill:#ff5e85;fill-opacity:1;fill-rule:nonzero;stroke:none"
         d="m 8640.99,1806.91 c 83.21,-47.56 130.76,-249.64 142.65,-487.39 0,0 -142.65,-118.88 -285.31,-11.89 l 142.66,499.28" /><path
         id="path236"
         style="fill:#ff5e85;fill-opacity:1;fill-rule:nonzero;stroke:none"
         d="m 7689.99,1806.91 c 0,0 -130.77,-71.33 -154.55,-249.64 -23.77,-178.32 -23.77,-237.75 -23.77,-237.75 0,0 148.52,-95.11 276.35,0 l -50.49,392.29 -47.54,95.1" /><path
         id="path238"
         style="fill:#37486b;fill-opacity:1;fill-rule:nonzero;stroke:none"
         d="m 7962.37,2165.72 c 0,0 -46.24,154.94 1.81,213.98 48.06,59.03 83.72,58.72 83.72,58.72 0,0 48.35,94.69 214.27,33.84 165.92,-60.86 237.24,-61.46 236.94,-97.12 -0.31,-35.66 -36.07,-47.24 -36.07,-47.24 0,0 47.35,-24.18 23.26,-59.64 -24.07,-35.46 -84.82,-189.49 -84.82,-189.49 l -439.11,86.95" /><path
         id="path240"
         style="fill:#ffadc8;fill-opacity:1;fill-rule:nonzero;stroke:none"
         d="m 8171.43,2371.57 c -165.99,12.14 -202.09,-178.32 -202.09,-320.97 0,-142.65 101.05,-267.47 219.92,-267.47 118.88,0 166.43,154.54 178.31,237.76 11.9,83.21 47.55,332.85 -196.14,350.68" /><path
         id="path242"
         style="fill:#ffadc8;fill-opacity:1;fill-rule:nonzero;stroke:none"
         d="m 7999.06,2104.1 c 0,0 -23.77,106.98 -47.55,95.1 -23.77,-11.89 -71.33,-129.39 23.78,-201.4 l 23.77,106.3" /><path
         id="path244"
         style="fill:#ffadc8;fill-opacity:1;fill-rule:nonzero;stroke:none"
         d="m 8338.85,2058.53 c 0,0 59.93,91.76 78,72.27 18.07,-19.5 21.18,-146.22 -93.18,-180.13 l 15.18,107.86" /><path
         id="path246"
         style="fill:#ffadc8;fill-opacity:1;fill-rule:nonzero;stroke:none"
         d="m 8022.84,1973.34 c 0,0 11.88,-190.21 59.43,-249.64 47.55,-59.44 142.66,-59.44 178.32,23.77 35.66,83.21 35.66,225.87 35.66,225.87 h -273.41" /><path
         id="path248"
         style="fill:#4491ff;fill-opacity:1;fill-rule:nonzero;stroke:none"
         d="m 8576.39,487.391 h -762.37 c -23.7,0 -44.08,16.8 -48.6,40.078 l -99.65,513.171 c -5.93,30.57 17.48,58.96 48.61,58.96 h 961.66 c 31.13,0 54.54,-28.39 48.6,-58.96 L 8625,527.469 c -4.53,-23.278 -24.91,-40.078 -48.61,-40.078" /><path
         id="path250"
         style="fill:#37486b;fill-opacity:1;fill-rule:nonzero;stroke:none"
         d="m 7977.88,2172.13 c 0,0 31.63,-54.36 67.8,4.77 36.16,59.13 48.15,70.92 48.15,70.92 0,0 71.12,-24.37 141.94,-84.42 70.82,-60.04 47.95,47.15 47.95,47.15 0,0 63.07,-105.92 90.46,-112.91 27.4,-6.98 51.88,76.03 40.5,135.56 -11.38,59.54 -93.58,179.12 -224.33,180.24 -130.77,1.11 -231.31,-80.08 -212.47,-241.31" /><path
         id="path252"
         style="fill:#ffe0e7;fill-opacity:1;fill-rule:nonzero;stroke:none"
         d="m 11304,8118.8 h -39 c -1.1,245.25 -200.2,443.74 -445.7,443.74 -134.3,0 -254.6,-59.46 -336.3,-153.38 -44.1,21.51 -93.7,33.62 -146.1,33.62 -180.9,0 -328.1,-144.22 -333.1,-323.98 h -39.15 c -123.66,0 -223.9,-100.25 -223.9,-223.91 v 0 c 0,-123.66 100.24,-223.91 223.9,-223.91 H 11304 c 123.6,0 223.9,100.25 223.9,223.91 v 0 c 0,123.66 -100.3,223.91 -223.9,223.91" /><path
         id="path254"
         style="fill:#ffe0e7;fill-opacity:1;fill-rule:nonzero;stroke:none"
         d="m 1477.8,5464.91 h 24.47 c 0.69,154.02 125.74,278.68 279.93,278.68 84.34,0 159.9,-37.34 211.23,-96.33 27.69,13.52 58.8,21.12 91.7,21.12 113.65,0 206.09,-90.58 209.22,-203.47 h 24.59 c 77.66,0 140.62,-62.96 140.62,-140.62 v 0 c 0,-77.67 -62.96,-140.62 -140.62,-140.62 H 1477.8 c -77.66,0 -140.62,62.95 -140.62,140.62 v 0 c 0,77.66 62.96,140.62 140.62,140.62" /><path
         id="path256"
         style="fill:#ffe0e7;fill-opacity:1;fill-rule:nonzero;stroke:none"
         d="m 8840.83,7494.03 c 1.06,-63.55 -49.6,-115.92 -113.15,-116.98 -63.55,-1.06 -115.93,49.61 -116.98,113.16 -1.06,63.55 49.61,115.92 113.15,116.98 63.56,1.06 115.93,-49.61 116.98,-113.16" /><path
         id="path258"
         style="fill:#e2e6ff;fill-opacity:1;fill-rule:nonzero;stroke:none"
         d="m 1125.51,4861.06 c 1.06,-63.55 -49.61,-115.92 -113.16,-116.98 -63.545,-1.05 -115.92,49.61 -116.975,113.15 -1.059,63.56 49.605,115.93 113.155,116.99 63.55,1.05 115.92,-49.61 116.98,-113.16" /><path
         id="path260"
         style="fill:#e2e6ff;fill-opacity:1;fill-rule:nonzero;stroke:none"
         d="m 10508.8,7331.71 -58.6,-0.98 -1,58.66 c -0.4,24.38 -20.5,43.83 -44.9,43.42 v 0 c -24.4,-0.4 -43.9,-20.5 -43.4,-44.89 l 0.9,-58.65 -58.6,-0.98 c -24.4,-0.41 -43.9,-20.5 -43.4,-44.9 0.4,-24.39 20.4,-43.83 44.8,-43.42 l 58.7,0.97 1,-58.65 c 0.4,-24.39 20.5,-43.83 44.9,-43.43 v 0 c 24.4,0.41 43.8,20.51 43.4,44.9 l -1,58.65 58.7,0.98 c 24.4,0.4 43.8,20.5 43.4,44.89 -0.4,24.39 -20.5,43.83 -44.9,43.43" /><path
         id="path262"
         style="fill:#ffa3be;fill-opacity:1;fill-rule:nonzero;stroke:none"
         d="m 5187.03,8309.65 -58.66,-0.98 -0.97,58.66 c -0.4,24.38 -20.51,43.83 -44.9,43.42 v 0 c -24.39,-0.41 -43.83,-20.5 -43.42,-44.89 l 0.97,-58.65 -58.65,-0.98 c -24.39,-0.41 -43.84,-20.5 -43.43,-44.9 0.4,-24.39 20.5,-43.83 44.9,-43.42 l 58.65,0.97 0.98,-58.65 c 0.4,-24.39 20.5,-43.84 44.89,-43.43 v 0 c 24.39,0.41 43.84,20.51 43.43,44.9 l -0.98,58.65 58.65,0.98 c 24.4,0.4 43.84,20.5 43.43,44.89 -0.4,24.39 -20.5,43.83 -44.89,43.43" /></g></g></svg>