<?xml version="1.0" encoding="UTF-8" standalone="no"?>
<svg
   xmlns:dc="http://purl.org/dc/elements/1.1/"
   xmlns:cc="http://creativecommons.org/ns#"
   xmlns:rdf="http://www.w3.org/1999/02/22-rdf-syntax-ns#"
   xmlns:svg="http://www.w3.org/2000/svg"
   xmlns="http://www.w3.org/2000/svg"
   viewBox="0 0 1920 1365.3333"
   height="1365.3333"
   width="1920"
   xml:space="preserve"
   id="svg2"
   version="1.1"><metadata
     id="metadata8"><rdf:RDF><cc:Work
         rdf:about=""><dc:format>image/svg+xml</dc:format><dc:type
           rdf:resource="http://purl.org/dc/dcmitype/StillImage" /></cc:Work></rdf:RDF></metadata><defs
     id="defs6"><clipPath
       id="clipPath100"
       clipPathUnits="userSpaceOnUse"><path
         id="path98"
         d="M 5438.99,1754.27 5700,1730 c -38.87,181.08 -57.83,325.75 -56.87,433.99 5.31,604.02 -79.06,580.46 -253.13,-70.67 z" /></clipPath><linearGradient
       id="linearGradient106"
       spreadMethod="pad"
       gradientTransform="matrix(0,-1066.6,380.344,0,5545,2271.96)"
       gradientUnits="userSpaceOnUse"
       y2="0"
       x2="1"
       y1="0"
       x1="0"><stop
         id="stop102"
         offset="0"
         style="stop-opacity:1;stop-color:#fcd0bc" /><stop
         id="stop104"
         offset="1"
         style="stop-opacity:1;stop-color:#f790a2" /></linearGradient><clipPath
       id="clipPath116"
       clipPathUnits="userSpaceOnUse"><path
         id="path114"
         d="m 4696.08,4923.18 c -32.34,-171.04 461.02,-903.23 688.98,-1515.6 54.26,-145.77 -47.17,-375.49 51.41,-558.37 98.59,-182.88 62.47,-616.42 192.09,-817.89 86.41,-134.3 195.21,-119.67 326.41,43.89 32.22,601.86 32.67,1097.73 1.36,1487.63 -31.32,389.9 -171.04,934.44 -419.18,1633.63 -515.88,54.94 -796.23,-36.16 -841.07,-273.29 z" /></clipPath><linearGradient
       id="linearGradient122"
       spreadMethod="pad"
       gradientTransform="matrix(-1475.08,2865.8,-241.738,-2069.13,6694.32,1452.76)"
       gradientUnits="userSpaceOnUse"
       y2="0"
       x2="1"
       y1="0"
       x1="0"><stop
         id="stop118"
         offset="0"
         style="stop-opacity:1;stop-color:#f682c7" /><stop
         id="stop120"
         offset="1"
         style="stop-opacity:1;stop-color:#f24eaf" /></linearGradient><clipPath
       id="clipPath132"
       clipPathUnits="userSpaceOnUse"><path
         id="path130"
         d="M 4263.33,1830.84 4210,1748.11 4451.78,1700 c 70.98,216.42 106.95,378.98 107.91,487.67 10.24,1164.07 -232.63,-166.17 -296.36,-356.83 z" /></clipPath><linearGradient
       id="linearGradient138"
       spreadMethod="pad"
       gradientTransform="matrix(0,-1177.84,429.421,0,4385,2298.48)"
       gradientUnits="userSpaceOnUse"
       y2="0"
       x2="1"
       y1="0"
       x1="0"><stop
         id="stop134"
         offset="0"
         style="stop-opacity:1;stop-color:#fcd0bc" /><stop
         id="stop136"
         offset="1"
         style="stop-opacity:1;stop-color:#f790a2" /></linearGradient><clipPath
       id="clipPath148"
       clipPathUnits="userSpaceOnUse"><path
         id="path146"
         d="m 4322.37,5131.36 c -82.98,-152.57 95.35,-982.68 122.71,-1635.06 6.51,-155.29 -159.67,-342.29 -122.71,-546.54 36.97,-204.24 -150.79,-725.58 -90.24,-957.08 40.37,-154.32 147.55,-174.02 321.53,-59.09 184.14,608.55 321.21,1102.93 411.23,1483.14 90.01,380.23 168.38,951.77 235.11,1714.63 -470.04,211.52 -762.59,211.52 -877.63,0 z" /></clipPath><linearGradient
       id="linearGradient154"
       spreadMethod="pad"
       gradientTransform="matrix(1853.06,-1740.3,497.236,6485.63,3811.59,4385.7)"
       gradientUnits="userSpaceOnUse"
       y2="0"
       x2="1"
       y1="0"
       x1="0"><stop
         id="stop150"
         offset="0"
         style="stop-opacity:1;stop-color:#f682c7" /><stop
         id="stop152"
         offset="1"
         style="stop-opacity:1;stop-color:#f24eaf" /></linearGradient><clipPath
       id="clipPath164"
       clipPathUnits="userSpaceOnUse"><path
         id="path162"
         d="m 4186.43,1816.35 c -36.18,-85.11 -52.68,-248.34 68.71,-248.34 121.39,0 756.01,-29.34 690.07,24.26 -43.96,35.73 -200.31,110.43 -469.05,224.08 -48.34,-45.03 -91.8,-56.71 -130.38,-35.06 -34.36,19.28 -123.18,120.18 -159.35,35.06 z" /></clipPath><linearGradient
       id="linearGradient170"
       spreadMethod="pad"
       gradientTransform="matrix(1504.91,-85.7285,233.536,552.435,4155.02,1713.88)"
       gradientUnits="userSpaceOnUse"
       y2="0"
       x2="1"
       y1="0"
       x1="0"><stop
         id="stop166"
         offset="0"
         style="stop-opacity:1;stop-color:#9571bf" /><stop
         id="stop168"
         offset="1"
         style="stop-opacity:1;stop-color:#595ab2" /></linearGradient><clipPath
       id="clipPath180"
       clipPathUnits="userSpaceOnUse"><path
         id="path178"
         d="m 5376.19,7080 c -43.1,-178.88 -122.94,-281.98 -239.51,-309.29 -174.86,-40.96 -192.24,87.29 -340.4,0 -98.78,-58.19 -170.37,-279.76 -214.78,-664.7 -54.93,-436.62 -139.98,-760.44 -255.14,-971.48 -54.24,-99.38 238.64,-99.38 878.62,0 194.59,305.39 317.88,529.74 369.87,673.06 77.99,214.97 68.93,566.28 0,655.27 -45.96,59.33 -80.03,107.33 -102.22,143.98 44.68,189.73 78.76,284.59 102.22,284.59 23.46,0 -42.76,62.86 -198.66,188.57 z" /></clipPath><linearGradient
       id="linearGradient186"
       spreadMethod="pad"
       gradientTransform="matrix(0,-2478.37,1607.26,0,4975,6319.29)"
       gradientUnits="userSpaceOnUse"
       y2="0"
       x2="1"
       y1="0"
       x1="0"><stop
         id="stop182"
         offset="0"
         style="stop-opacity:1;stop-color:#fcd0bc" /><stop
         id="stop184"
         offset="1"
         style="stop-opacity:1;stop-color:#f790a2" /></linearGradient><clipPath
       id="clipPath196"
       clipPathUnits="userSpaceOnUse"><path
         id="path194"
         d="m 5068.1,6779.27 c -106.49,5.24 -154.27,82.15 -276.85,10.06 -98.97,-58.21 -169.6,-285.24 -211.88,-681.1 C 4346.46,5650.29 4230,5310.44 4230,5088.68 c 0,-300.29 563.3,-340.83 930,-350.59 274.77,-7.3 483.34,162.12 540.09,173.24 132.47,25.99 -370.65,388.44 -340.83,456.23 81.89,186.21 177.28,337.06 215.48,442.15 78.15,215.05 69.07,566.48 0,655.5 -46.05,59.35 -80.19,107.36 -102.43,144.03 31.79,-96.02 -5.89,-144.03 -113.05,-144.03 -160.74,0 -268.68,312.96 -291.16,314.06 z" /></clipPath><linearGradient
       id="linearGradient202"
       spreadMethod="pad"
       gradientTransform="matrix(2842.86,-615.512,441.164,3966.36,4229.23,5920.43)"
       gradientUnits="userSpaceOnUse"
       y2="0"
       x2="1"
       y1="0"
       x1="0"><stop
         id="stop198"
         offset="0"
         style="stop-opacity:1;stop-color:#9571bf" /><stop
         id="stop200"
         offset="1"
         style="stop-opacity:1;stop-color:#595ab2" /></linearGradient><clipPath
       id="clipPath212"
       clipPathUnits="userSpaceOnUse"><path
         id="path210"
         d="m 5470,6474.22 c -141,75.48 -220.93,146.02 -239.79,211.6 -18.88,65.58 -23.46,103.6 -13.76,114.05 -79.64,1.32 -126.19,-7.53 -139.67,-26.57 -34.12,-48.2 60.55,-195.97 284.03,-443.3 l 46.9,131.8 z" /></clipPath><linearGradient
       id="linearGradient218"
       spreadMethod="pad"
       gradientTransform="matrix(759.751,-138.939,117.9,895.326,5071.97,6604.56)"
       gradientUnits="userSpaceOnUse"
       y2="0"
       x2="1"
       y1="0"
       x1="0"><stop
         id="stop214"
         offset="0"
         style="stop-opacity:1;stop-color:#9571bf" /><stop
         id="stop216"
         offset="1"
         style="stop-opacity:1;stop-color:#595ab2" /></linearGradient><clipPath
       id="clipPath228"
       clipPathUnits="userSpaceOnUse"><path
         id="path226"
         d="m 5386.43,1816.35 c -36.18,-85.11 -52.68,-248.34 68.71,-248.34 121.39,0 756.01,-29.34 690.07,24.26 -43.96,35.73 -200.31,110.43 -469.05,224.08 -48.34,-45.03 -91.8,-56.71 -130.38,-35.06 -34.36,19.28 -123.18,120.18 -159.35,35.06 z" /></clipPath><linearGradient
       id="linearGradient234"
       spreadMethod="pad"
       gradientTransform="matrix(1504.91,-85.7285,233.536,552.435,5355.02,1713.88)"
       gradientUnits="userSpaceOnUse"
       y2="0"
       x2="1"
       y1="0"
       x1="0"><stop
         id="stop230"
         offset="0"
         style="stop-opacity:1;stop-color:#9571bf" /><stop
         id="stop232"
         offset="1"
         style="stop-opacity:1;stop-color:#595ab2" /></linearGradient><clipPath
       id="clipPath244"
       clipPathUnits="userSpaceOnUse"><path
         id="path242"
         d="M 5360,6610 H 8040 V 1450 H 5360 Z" /></clipPath><linearGradient
       id="linearGradient250"
       spreadMethod="pad"
       gradientTransform="matrix(0,-5160,2680,0,6700,6610)"
       gradientUnits="userSpaceOnUse"
       y2="0"
       x2="1"
       y1="0"
       x1="0"><stop
         id="stop246"
         offset="0"
         style="stop-opacity:1;stop-color:#444b9b" /><stop
         id="stop248"
         offset="1"
         style="stop-opacity:1;stop-color:#2d3263" /></linearGradient><clipPath
       id="clipPath262"
       clipPathUnits="userSpaceOnUse"><path
         id="path260"
         d="m 8166.73,6458.97 c -144.47,13.13 -222.48,12.88 -234.03,-0.77 -11.56,-13.63 52.51,-40.97 192.17,-82.01 -153.51,15.5 -233.18,15.24 -239.01,-0.77 -5.83,-16.02 66.17,-35.82 215.99,-59.43 -99.16,-1.61 -150.79,-8.04 -154.89,-19.29 -4.09,-11.26 44.14,-25.53 144.71,-42.81 -65.07,-10.47 -92.8,-21.39 -83.19,-32.78 14.41,-17.07 131.18,-14.66 157.57,28.42 26.4,43.08 34.46,108.03 55.69,147.7 14.15,26.45 -4.19,47.03 -55.01,61.74 z" /></clipPath><linearGradient
       id="linearGradient268"
       spreadMethod="pad"
       gradientTransform="matrix(-603.702,143.573,-115.966,-550.27,8376.69,6269.65)"
       gradientUnits="userSpaceOnUse"
       y2="0"
       x2="1"
       y1="0"
       x1="0"><stop
         id="stop264"
         offset="0"
         style="stop-opacity:1;stop-color:#fcd0bc" /><stop
         id="stop266"
         offset="1"
         style="stop-opacity:1;stop-color:#f790a2" /></linearGradient><clipPath
       id="clipPath278"
       clipPathUnits="userSpaceOnUse"><path
         id="path276"
         d="M 5600.36,6130 H 7799.64 V 3970 H 5600.36 Z" /></clipPath><linearGradient
       id="linearGradient284"
       spreadMethod="pad"
       gradientTransform="matrix(4189.52,-638.53,650.142,4114.69,5602.47,5217.28)"
       gradientUnits="userSpaceOnUse"
       y2="0"
       x2="1"
       y1="0"
       x1="0"><stop
         id="stop280"
         offset="0"
         style="stop-opacity:1;stop-color:#9571bf" /><stop
         id="stop282"
         offset="1"
         style="stop-opacity:1;stop-color:#595ab2" /></linearGradient><clipPath
       id="clipPath300"
       clipPathUnits="userSpaceOnUse"><path
         id="path298"
         d="m 5720.36,2170 h 1959.28 c 66.28,0 120,-53.72 120,-120 V 1570 H 5600.36 v 480 c 0,66.28 53.73,120 120,120 z" /></clipPath><linearGradient
       id="linearGradient306"
       spreadMethod="pad"
       gradientTransform="matrix(0,-600,2199.28,0,6700,2170)"
       gradientUnits="userSpaceOnUse"
       y2="0"
       x2="1"
       y1="0"
       x1="0"><stop
         id="stop302"
         offset="0"
         style="stop-opacity:1;stop-color:#f682c7" /><stop
         id="stop304"
         offset="1"
         style="stop-opacity:1;stop-color:#f24eaf" /></linearGradient><clipPath
       id="clipPath318"
       clipPathUnits="userSpaceOnUse"><path
         id="path316"
         d="m 5600.36,3226 h 997.49 v -120 h -997.49 z" /></clipPath><linearGradient
       id="linearGradient324"
       spreadMethod="pad"
       gradientTransform="matrix(0,-120,997.491,0,6099.1,3226)"
       gradientUnits="userSpaceOnUse"
       y2="0"
       x2="1"
       y1="0"
       x1="0"><stop
         id="stop320"
         offset="0"
         style="stop-opacity:1;stop-color:#444b9b" /><stop
         id="stop322"
         offset="1"
         style="stop-opacity:1;stop-color:#2d3263" /></linearGradient><clipPath
       id="clipPath334"
       clipPathUnits="userSpaceOnUse"><path
         id="path332"
         d="M 5600.36,2914 H 7799.64 V 2794 H 5600.36 Z" /></clipPath><linearGradient
       id="linearGradient340"
       spreadMethod="pad"
       gradientTransform="matrix(0,-120,2199.28,0,6700,2914)"
       gradientUnits="userSpaceOnUse"
       y2="0"
       x2="1"
       y1="0"
       x1="0"><stop
         id="stop336"
         offset="0"
         style="stop-opacity:1;stop-color:#444b9b" /><stop
         id="stop338"
         offset="1"
         style="stop-opacity:1;stop-color:#2d3263" /></linearGradient><clipPath
       id="clipPath350"
       clipPathUnits="userSpaceOnUse"><path
         id="path348"
         d="M 5600.36,2602 H 7799.64 V 2482 H 5600.36 Z" /></clipPath><linearGradient
       id="linearGradient356"
       spreadMethod="pad"
       gradientTransform="matrix(0,-120,2199.28,0,6700,2602)"
       gradientUnits="userSpaceOnUse"
       y2="0"
       x2="1"
       y1="0"
       x1="0"><stop
         id="stop352"
         offset="0"
         style="stop-opacity:1;stop-color:#444b9b" /><stop
         id="stop354"
         offset="1"
         style="stop-opacity:1;stop-color:#2d3263" /></linearGradient><clipPath
       id="clipPath366"
       clipPathUnits="userSpaceOnUse"><path
         id="path364"
         d="m 6022.91,3862 c -44.07,0 -79.55,-35.96 -97.99,-59.41 -18.31,23.49 -53.61,59.41 -98.14,59.41 -63.55,0 -106.24,-49.9 -106.24,-124.17 0,-131.93 187.01,-270.8 194.97,-276.82 l 9.28,-7.01 9.32,5.75 c 7.97,5.96 195.04,144.63 195.04,278.08 0,74.27 -42.69,124.17 -106.24,124.17 z" /></clipPath><linearGradient
       id="linearGradient372"
       spreadMethod="pad"
       gradientTransform="matrix(772.632,-207.013,207.322,771.48,5555.03,3772.21)"
       gradientUnits="userSpaceOnUse"
       y2="0"
       x2="1"
       y1="0"
       x1="0"><stop
         id="stop368"
         offset="0"
         style="stop-opacity:1;stop-color:#f682c7" /><stop
         id="stop370"
         offset="1"
         style="stop-opacity:1;stop-color:#f24eaf" /></linearGradient><clipPath
       id="clipPath384"
       clipPathUnits="userSpaceOnUse"><path
         id="path382"
         d="m 5391.82,7351.48 c 25.48,188.24 180.51,333.04 367.95,333.04 205.24,0 396.6,60.21 446.01,-218.47 49.42,-278.68 -349.76,-815.37 -446.01,-773.76 -199.05,86.03 -293.31,211.05 -336.7,343.86 -0.96,-0.02 -1.92,-0.03 -2.88,-0.03 -88.47,0 -160.19,71.15 -160.19,158.92 0,78.17 56.88,143.15 131.82,156.44 z" /></clipPath><linearGradient
       id="linearGradient390"
       spreadMethod="pad"
       gradientTransform="matrix(0,-1226.92,1165.57,0,5735,7313.41)"
       gradientUnits="userSpaceOnUse"
       y2="0"
       x2="1"
       y1="0"
       x1="0"><stop
         id="stop386"
         offset="0"
         style="stop-opacity:1;stop-color:#fcd0bc" /><stop
         id="stop388"
         offset="1"
         style="stop-opacity:1;stop-color:#f790a2" /></linearGradient><clipPath
       id="clipPath406"
       clipPathUnits="userSpaceOnUse"><path
         id="path404"
         d="m 4295.08,6277.64 c -457.48,-543.21 -370.84,-755.71 -323.23,-772.02 67.11,-22.99 1108.57,-187.61 1426.29,-81.46 11.82,3.95 120.62,22.54 160.15,80.22 32.66,47.66 143.47,89.7 143.45,107.77 -0.01,12.04 -47.85,3.54 -143.52,-25.51 107.11,75.5 160,117.08 158.67,124.75 -1.33,7.68 -57.1,-17.23 -167.32,-74.72 98.3,92.13 146.15,143.34 143.56,153.63 -2.6,10.3 -56.44,-17.15 -161.52,-82.35 98.46,97.43 133.79,143.62 105.98,138.57 -41.7,-7.58 -213.6,-158.9 -245.88,-163.98 -2.97,-0.47 -20.31,145.52 -41.83,126.37 -28.56,-25.42 -63.59,-218.05 -73.41,-222.05 -86.3,-35.18 -393.76,55.73 -615.61,121.77 -61.44,18.29 -170.93,42.63 -328.49,73.02 49.41,43.89 99.25,122.2 149.52,234.95 11.49,25.74 -61.26,410.12 -186.81,261.04 z" /></clipPath><linearGradient
       id="linearGradient412"
       spreadMethod="pad"
       gradientTransform="matrix(2391.04,1095.05,-908.048,1604.5,4093.26,5505.89)"
       gradientUnits="userSpaceOnUse"
       y2="0"
       x2="1"
       y1="0"
       x1="0"><stop
         id="stop408"
         offset="0"
         style="stop-opacity:1;stop-color:#fcd0bc" /><stop
         id="stop410"
         offset="1"
         style="stop-opacity:1;stop-color:#f790a2" /></linearGradient><clipPath
       id="clipPath432"
       clipPathUnits="userSpaceOnUse"><path
         id="path430"
         d="m 5039.03,6445.02 c -149.86,-85.31 -495.94,-572.47 -574.43,-584.75 -78.48,-12.27 -524.52,393.2 -373.69,487.92 150.83,94.72 310.11,272.04 394.1,350.36 49.93,46.56 304.96,188.47 457.37,106.4 103.95,-55.98 146.83,-331.37 96.65,-359.93 z" /></clipPath><linearGradient
       id="linearGradient438"
       spreadMethod="pad"
       gradientTransform="matrix(-295.616,-1847.8,1904.95,-286.747,4698.55,7264.15)"
       gradientUnits="userSpaceOnUse"
       y2="0"
       x2="1"
       y1="0"
       x1="0"><stop
         id="stop434"
         offset="0"
         style="stop-opacity:1;stop-color:#9571bf" /><stop
         id="stop436"
         offset="1"
         style="stop-opacity:1;stop-color:#595ab2" /></linearGradient><clipPath
       id="clipPath458"
       clipPathUnits="userSpaceOnUse"><path
         id="path456"
         d="m 6834.07,3824.45 c 181.54,17.65 321.51,49.44 419.91,95.4 48.49,22.64 258.13,82.71 341.41,95.47 166.4,136.62 816.15,701.67 881.04,615.23 13.86,-18.48 178.49,-128.19 113.78,-209.34 -206.41,-258.85 -758.15,-639.83 -828.42,-659.23 -130.26,-35.97 -549.88,-101.44 -971.35,-111.66 -63.81,-32.85 -107.98,-48.85 -132.5,-47.98 -9.95,0.35 -73.2,-10.34 -97.94,0 -36.19,15.12 -38.18,55.23 -68.03,75.82 -61.97,-27.84 -228.37,-23.11 -270.02,11.84 -45.06,37.82 230.62,81.39 245.44,115.27 36.15,82.65 63.77,117.69 105.72,137.28 39.43,18.4 87.21,-44.39 260.96,-118.1 z" /></clipPath><linearGradient
       id="linearGradient464"
       spreadMethod="pad"
       gradientTransform="matrix(0,-1278.05,2930.18,0,7411.1,4247.22)"
       gradientUnits="userSpaceOnUse"
       y2="0"
       x2="1"
       y1="0"
       x1="0"><stop
         id="stop460"
         offset="0"
         style="stop-opacity:1;stop-color:#fcd0bc" /><stop
         id="stop462"
         offset="1"
         style="stop-opacity:1;stop-color:#f790a2" /></linearGradient><clipPath
       id="clipPath474"
       clipPathUnits="userSpaceOnUse"><path
         id="path472"
         d="m 8027.54,4481.87 c 78.77,90.09 156.76,239.58 222.46,232.46 64.55,-7 116.52,-168.23 226.28,-345.2 52.88,-85.28 -143.57,-285.93 -221.48,-371.92 -41.14,-45.41 -358.46,241.79 -328.43,421.55 4.51,27.01 80.7,39.7 101.17,63.11 z" /></clipPath><linearGradient
       id="linearGradient480"
       spreadMethod="pad"
       gradientTransform="matrix(-403.731,-376.486,373.871,-400.927,8432.49,4537.63)"
       gradientUnits="userSpaceOnUse"
       y2="0"
       x2="1"
       y1="0"
       x1="0"><stop
         id="stop476"
         offset="0"
         style="stop-opacity:1;stop-color:#f682c7" /><stop
         id="stop478"
         offset="1"
         style="stop-opacity:1;stop-color:#f24eaf" /></linearGradient><clipPath
       id="clipPath492"
       clipPathUnits="userSpaceOnUse"><path
         id="path490"
         d="m 8365.94,4805.07 c 29.68,-166.6 -123.17,-20.44 -123.17,-119.66 0,-99.23 122.85,-404.41 122.85,-580.66 0,-83.1 474.19,39.92 683.4,-218.79 57.73,-71.37 39.03,-291.47 -56.08,-660.27 -712.8,-45.26 -1086,-145.61 -1119.6,-301.02 -33.61,-155.41 65.13,-671.06 296.21,-1546.96 -271,-125.07 -418.09,-213.21 -441.28,-264.45 -34.78,-76.85 96.99,-95.29 383.55,-60.78 286.56,34.49 403.82,62 403.82,166.18 0,104.18 -115.91,202.46 -118.66,256.89 -31.36,621.16 53.55,933.89 -84.05,1144.02 125.98,-58.34 417.24,-82.86 873.79,-73.58 -339.63,-648.71 -471.12,-1028.45 -394.48,-1139.25 114.96,-166.18 227.13,-307.77 617.31,-166.18 260.12,94.4 567.53,206.93 922.25,337.59 38.2,-85.82 38.2,-140.56 0,-164.19 -57.3,-35.45 -127.7,-125.31 -106.3,-152.59 21.3,-27.27 367.7,-1.3 391,59.89 23.4,61.17 72.8,574.01 0,604.61 -72.7,30.58 -189.9,31.28 -220.2,-30.61 -20.2,-41.27 -349.2,-86.77 -986.75,-136.51 L 10263,3193.53 c -144.1,620.9 -297.04,1017.38 -458.89,1189.45 -242.77,258.1 -831.1,826.2 -921.48,804.64 -60.27,-14.38 -136.46,-76.45 -228.6,-186.23 -92.26,12.01 -156.77,59.49 -193.54,142.42 -40.28,90.85 -273.38,-103.32 -201.92,-177.15 47.95,-49.52 96.6,-101.1 107.37,-161.59 z" /></clipPath><linearGradient
       id="linearGradient498"
       spreadMethod="pad"
       gradientTransform="matrix(0,-5094.67,3597.2,0,9188.76,3624.47)"
       gradientUnits="userSpaceOnUse"
       y2="0"
       x2="1"
       y1="0"
       x1="0"><stop
         id="stop494"
         offset="0"
         style="stop-opacity:1;stop-color:#fcd0bc" /><stop
         id="stop496"
         offset="1"
         style="stop-opacity:1;stop-color:#f790a2" /></linearGradient><clipPath
       id="clipPath508"
       clipPathUnits="userSpaceOnUse"><path
         id="path506"
         d="m 10450.1,1744.78 c -15.1,-106.16 -108,-191.07 -104,-202.29 23.1,-65.51 18.3,-108.35 -14.3,-128.53 -57.3,-35.45 -127.7,-125.31 -106.3,-152.59 21.3,-27.27 367.7,-1.3 391,59.89 23.4,61.17 72.8,574.01 0,604.61 -72.7,30.58 -189.9,31.28 -220.2,-30.61 -30.4,-61.89 68.9,-44.32 53.8,-150.48 z" /></clipPath><linearGradient
       id="linearGradient514"
       spreadMethod="pad"
       gradientTransform="matrix(0,-695.597,433.148,0,10438.1,1946.17)"
       gradientUnits="userSpaceOnUse"
       y2="0"
       x2="1"
       y1="0"
       x1="0"><stop
         id="stop510"
         offset="0"
         style="stop-opacity:1;stop-color:#f682c7" /><stop
         id="stop512"
         offset="1"
         style="stop-opacity:1;stop-color:#f24eaf" /></linearGradient><clipPath
       id="clipPath524"
       clipPathUnits="userSpaceOnUse"><path
         id="path522"
         d="m 8169.55,1377.71 c -271,-125.07 -418.09,-213.21 -441.28,-264.45 -34.78,-76.85 96.99,-95.29 383.55,-60.78 286.56,34.49 403.82,62 403.82,166.18 0,59.59 -37.92,117.24 -70.89,165.87 -24.68,36.39 -62.3,-66.32 -132.71,-68.07 -46.94,-1.16 -94.44,19.26 -142.49,61.25 z" /></clipPath><linearGradient
       id="linearGradient530"
       spreadMethod="pad"
       gradientTransform="matrix(0,-356.531,792.831,0,8119.22,1392.33)"
       gradientUnits="userSpaceOnUse"
       y2="0"
       x2="1"
       y1="0"
       x1="0"><stop
         id="stop526"
         offset="0"
         style="stop-opacity:1;stop-color:#f682c7" /><stop
         id="stop528"
         offset="1"
         style="stop-opacity:1;stop-color:#f24eaf" /></linearGradient><clipPath
       id="clipPath540"
       clipPathUnits="userSpaceOnUse"><path
         id="path538"
         d="m 8992.94,3225.69 c -712.8,-45.26 -1086,-145.61 -1119.6,-301.02 -31.41,-145.24 60.02,-572.19 170.72,-1277.73 7.75,-49.37 -79.84,-158.33 41.86,-182.05 121.7,-23.72 350.73,63.62 347.99,118.06 -2.82,55.79 -41.62,103.45 -42.81,152.91 -12.03,501.19 50.45,549.87 0,810.13 127.39,-17.28 392.59,-17.28 795.62,0 L 10263,3193.53 Z" /></clipPath><linearGradient
       id="linearGradient546"
       spreadMethod="pad"
       gradientTransform="matrix(0,-1764.8,2395.93,0,9065.04,3225.69)"
       gradientUnits="userSpaceOnUse"
       y2="0"
       x2="1"
       y1="0"
       x1="0"><stop
         id="stop542"
         offset="0"
         style="stop-opacity:1;stop-color:#9571bf" /><stop
         id="stop544"
         offset="1"
         style="stop-opacity:1;stop-color:#595ab2" /></linearGradient><clipPath
       id="clipPath556"
       clipPathUnits="userSpaceOnUse"><path
         id="path554"
         d="m 8992.94,3225.69 c 3.49,-108.18 27.08,-200.41 70.78,-276.68 65.57,-114.4 136.83,-105.63 136.83,-308.63 0,-203.01 -507.59,-1022.2 -442.85,-1211.4 64.74,-189.19 261.67,-330.01 651.85,-188.42 156.53,56.81 412.61,123.52 768.25,200.15 74.1,-6.35 121.5,12.18 142.2,55.58 31.1,65.09 -31.5,56.97 -12.2,176.97 19.3,119.99 -22.3,197.28 -44.8,189.42 -26.9,-9.4 -58.9,-17.74 -128.4,-36.84 -96.3,-26.44 -337.95,-48.8 -725.05,-67.09 520.6,578.25 814.25,936.86 880.95,1075.86 66.7,138.98 41.4,355.35 -75.8,649.09 z" /></clipPath><linearGradient
       id="linearGradient562"
       spreadMethod="pad"
       gradientTransform="matrix(0,-2300.79,1576.83,0,9540.41,3483.69)"
       gradientUnits="userSpaceOnUse"
       y2="0"
       x2="1"
       y1="0"
       x1="0"><stop
         id="stop558"
         offset="0"
         style="stop-opacity:1;stop-color:#9571bf" /><stop
         id="stop560"
         offset="1"
         style="stop-opacity:1;stop-color:#595ab2" /></linearGradient><clipPath
       id="clipPath572"
       clipPathUnits="userSpaceOnUse"><path
         id="path570"
         d="m 8320.58,4724.14 c -48.36,0 -79.31,11.92 -97.7,-13.41 -18.39,-25.32 110.2,-311.88 110.2,-483.56 0,-176.25 4.85,-371.56 360.4,-416.52 237.03,-29.97 336.84,-224.96 299.46,-584.96 106.38,-139.08 271.4,-211.46 495.09,-217.12 335.52,-8.5 701.87,171.43 763.37,561.65 32.4,205.74 -56.2,115.77 -181.6,349 -147.83,274.95 -150.91,341.74 -265.69,463.76 -242.77,258.1 -831.1,826.2 -921.48,804.64 -45.6,-10.88 -108.65,-55.82 -189.15,-134.85 -25.92,-25.43 68.45,-433.2 -75.38,-551.24 -143.83,-118.05 -284.46,222.61 -297.52,222.61 z" /></clipPath><linearGradient
       id="linearGradient578"
       spreadMethod="pad"
       gradientTransform="matrix(0,-2179.93,2037.01,0,9239.59,5188.22)"
       gradientUnits="userSpaceOnUse"
       y2="0"
       x2="1"
       y1="0"
       x1="0"><stop
         id="stop574"
         offset="0"
         style="stop-opacity:1;stop-color:#f682c7" /><stop
         id="stop576"
         offset="1"
         style="stop-opacity:1;stop-color:#f24eaf" /></linearGradient><clipPath
       id="clipPath590"
       clipPathUnits="userSpaceOnUse"><path
         id="path588"
         d="m 8508.63,5436.13 c 80.64,7.72 152.69,-142.46 107.94,-214.16 -34.65,-55.53 -99.02,-81.13 -159.56,-69.05 -101.93,-160.03 -296.3,-234.06 -395.33,-233.13 -84.39,0.79 -240.21,303.6 -230.58,513.1 -20.74,123.77 79.56,189.49 86.98,270.92 64.28,-147.15 278.75,-220.26 352.33,-257.48 6.33,-3.2 70.16,-180.57 86.11,-185.65 23.21,-7.39 28.68,52.71 31.7,42.39 26.52,83.56 66.65,127.91 120.41,133.06 z" /></clipPath><linearGradient
       id="linearGradient596"
       spreadMethod="pad"
       gradientTransform="matrix(0,-961.94,984.023,0,8229.3,5408.56)"
       gradientUnits="userSpaceOnUse"
       y2="0"
       x2="1"
       y1="0"
       x1="0"><stop
         id="stop592"
         offset="0"
         style="stop-opacity:1;stop-color:#fcd0bc" /><stop
         id="stop594"
         offset="1"
         style="stop-opacity:1;stop-color:#f790a2" /></linearGradient><clipPath
       id="clipPath622"
       clipPathUnits="userSpaceOnUse"><path
         id="path620"
         d="m 9362.95,3840.29 c -162.9,-37.45 -244.35,-77.96 -244.35,-121.53 0,-65.36 143.9,-305.82 192.75,-287.54 48.84,18.28 132.77,23.35 132.77,52.48 0,19.41 -16.73,27.28 -50.18,23.6 52.59,30.97 84.46,57.38 95.6,79.27 11.14,21.88 15.33,68.73 12.57,140.53 168.88,386.83 264.55,646.95 287.05,780.35 33.73,200.1 -748.24,572.86 -850.17,603.4 -101.92,30.53 -190.6,-204.95 61.41,-361.84 168.02,-104.59 331.06,-199.76 489.14,-285.5 -23.64,-80.97 -35.47,-148.24 -35.47,-201.81 0,-108.73 -30.37,-249.2 -91.12,-421.41 z" /></clipPath><linearGradient
       id="linearGradient628"
       spreadMethod="pad"
       gradientTransform="matrix(0,-2065.29,1169.79,0,9313.5,4479.63)"
       gradientUnits="userSpaceOnUse"
       y2="0"
       x2="1"
       y1="0"
       x1="0"><stop
         id="stop624"
         offset="0"
         style="stop-opacity:1;stop-color:#fcd0bc" /><stop
         id="stop626"
         offset="1"
         style="stop-opacity:1;stop-color:#f790a2" /></linearGradient><clipPath
       id="clipPath638"
       clipPathUnits="userSpaceOnUse"><path
         id="path636"
         d="m 9392.14,4994.72 c -203.73,121.75 -433.11,175.36 -483.99,190.61 -101.92,30.54 -159.76,-279.43 92.25,-436.32 104.53,-65.07 224.99,-227.72 325.67,-285.5 53.17,-30.51 265.97,340.63 181.79,502.38 -12.65,24.31 -89.02,12.88 -115.72,28.83 z" /></clipPath><linearGradient
       id="linearGradient644"
       spreadMethod="pad"
       gradientTransform="matrix(0,-725.688,706.093,0,9174.28,5187.43)"
       gradientUnits="userSpaceOnUse"
       y2="0"
       x2="1"
       y1="0"
       x1="0"><stop
         id="stop640"
         offset="0"
         style="stop-opacity:1;stop-color:#f682c7" /><stop
         id="stop642"
         offset="1"
         style="stop-opacity:1;stop-color:#f24eaf" /></linearGradient></defs><g
     transform="matrix(1.3333333,0,0,-1.3333333,0,1365.3333)"
     id="g10"><g
       transform="scale(0.1)"
       id="g12"><path
         id="path14"
         style="fill:#fcfeff;fill-opacity:1;fill-rule:nonzero;stroke:none"
         d="M 0,10240 H 14400 V 0 H 0 v 10240" /><path
         id="path16"
         style="fill:#d4e4f6;fill-opacity:1;fill-rule:nonzero;stroke:none"
         d="M 1630,8770 H 5630 V 4640 H 1630 v 4130" /><path
         id="path18"
         style="fill:#e8f0fa;fill-opacity:1;fill-rule:nonzero;stroke:none"
         d="M 1530,8970 H 5730 V 8770 H 1530 v 200" /><path
         id="path20"
         style="fill:#e8f0fa;fill-opacity:1;fill-rule:nonzero;stroke:none"
         d="M 1530,4640 H 5730 V 4440 H 1530 v 200" /><path
         id="path22"
         style="fill:#fcfeff;fill-opacity:1;fill-rule:nonzero;stroke:none"
         d="M 1830,6540 H 2930 V 4840 H 1830 v 1700" /><path
         id="path24"
         style="fill:#fcfeff;fill-opacity:1;fill-rule:nonzero;stroke:none"
         d="M 1830,8400 H 2930 V 6700 H 1830 v 1700" /><path
         id="path26"
         style="fill:#fcfeff;fill-opacity:1;fill-rule:nonzero;stroke:none"
         d="M 3080,6540 H 4180 V 4840 H 3080 v 1700" /><path
         id="path28"
         style="fill:#fcfeff;fill-opacity:1;fill-rule:nonzero;stroke:none"
         d="M 3080,8400 H 4180 V 6700 H 3080 v 1700" /><path
         id="path30"
         style="fill:#fcfeff;fill-opacity:1;fill-rule:nonzero;stroke:none"
         d="M 4330,6540 H 5430 V 4840 H 4330 v 1700" /><path
         id="path32"
         style="fill:#fcfeff;fill-opacity:1;fill-rule:nonzero;stroke:none"
         d="M 4330,8400 H 5430 V 6700 H 4330 v 1700" /><path
         id="path34"
         style="fill:#e8f0fa;fill-opacity:1;fill-rule:nonzero;stroke:none"
         d="M 1830,8570 H 5430 V 7230 c 0,-110.46 -89.54,-200 -200,-200 H 2030 c -110.46,0 -200,89.54 -200,200 v 1340" /><path
         id="path36"
         style="fill:#d4e4f6;fill-opacity:1;fill-rule:nonzero;stroke:none"
         d="m 2030,5160 h 700 l -100,-490 h -500 l -100,490" /><path
         id="path38"
         style="fill:#e8f0fa;fill-opacity:1;fill-rule:nonzero;stroke:none"
         d="m 2380,6000 c 231.96,0 420,-188.04 420,-420 0,-231.96 -188.04,-420 -420,-420 -231.96,0 -420,188.04 -420,420 0,231.96 188.04,420 420,420" /><path
         id="path40"
         style="fill:#d4e4f6;fill-opacity:1;fill-rule:nonzero;stroke:none"
         d="m 2065.7,5860.52 c 3.24,16.82 17.37,29.48 34.3,29.48 16.93,0 31.06,-12.66 34.3,-29.48 0.23,0 0.47,0.01 0.7,0.01 19.33,0 35,-16.5 35,-36.85 0,-20.34 -15.67,-36.84 -35,-36.84 0,-20.34 -15.67,-36.84 -35,-36.84 -19.33,0 -35,16.5 -35,36.84 -19.33,0 -35,16.5 -35,36.84 0,20.35 15.67,36.85 35,36.85 0.23,0 0.47,-0.01 0.7,-0.01" /><path
         id="path42"
         style="fill:#d4e4f6;fill-opacity:1;fill-rule:nonzero;stroke:none"
         d="m 2695.7,5810.52 c 3.24,16.82 17.37,29.48 34.3,29.48 16.93,0 31.06,-12.66 34.3,-29.48 0.23,0 0.47,0.01 0.7,0.01 19.33,0 35,-16.5 35,-36.85 0,-20.34 -15.67,-36.84 -35,-36.84 0,-20.34 -15.67,-36.84 -35,-36.84 -19.33,0 -35,16.5 -35,36.84 -19.33,0 -35,16.5 -35,36.84 0,20.35 15.67,36.85 35,36.85 0.23,0 0.47,-0.01 0.7,-0.01" /><path
         id="path44"
         style="fill:#d4e4f6;fill-opacity:1;fill-rule:nonzero;stroke:none"
         d="m 2415.7,5670.52 c 3.24,16.82 17.37,29.48 34.3,29.48 16.93,0 31.06,-12.66 34.3,-29.48 0.23,0 0.47,0.01 0.7,0.01 19.33,0 35,-16.5 35,-36.85 0,-20.34 -15.67,-36.84 -35,-36.84 0,-20.34 -15.67,-36.84 -35,-36.84 -19.33,0 -35,16.5 -35,36.84 -19.33,0 -35,16.5 -35,36.84 0,20.35 15.67,36.85 35,36.85 0.23,0 0.47,-0.01 0.7,-0.01" /><path
         id="path46"
         style="fill:#d4e4f6;fill-opacity:1;fill-rule:nonzero;stroke:none"
         d="m 2585.7,5390.52 c 3.24,16.82 17.37,29.48 34.3,29.48 16.93,0 31.06,-12.66 34.3,-29.48 0.23,0 0.47,0.01 0.7,0.01 19.33,0 35,-16.5 35,-36.85 0,-20.34 -15.67,-36.84 -35,-36.84 0,-20.34 -15.67,-36.84 -35,-36.84 -19.33,0 -35,16.5 -35,36.84 -19.33,0 -35,16.5 -35,36.84 0,20.35 15.67,36.85 35,36.85 0.23,0 0.47,-0.01 0.7,-0.01" /><path
         id="path48"
         style="fill:#d4e4f6;fill-opacity:1;fill-rule:nonzero;stroke:none"
         d="m 2165.7,5420.52 c 3.24,16.82 17.37,29.48 34.3,29.48 16.93,0 31.06,-12.66 34.3,-29.48 0.23,0 0.47,0.01 0.7,0.01 19.33,0 35,-16.5 35,-36.85 0,-20.34 -15.67,-36.84 -35,-36.84 0,-20.34 -15.67,-36.84 -35,-36.84 -19.33,0 -35,16.5 -35,36.84 -19.33,0 -35,16.5 -35,36.84 0,20.35 15.67,36.85 35,36.85 0.23,0 0.47,-0.01 0.7,-0.01" /><path
         id="path50"
         style="fill:#d4e4f6;fill-opacity:1;fill-rule:nonzero;stroke:none"
         d="m 2363.06,3524.12 c 53.35,-14.3 85,-69.13 70.71,-122.47 l -284.7,-1062.52 c -14.3,-53.35 -69.13,-85.01 -122.48,-70.72 -53.34,14.3 -85,69.14 -70.71,122.48 l 284.7,1062.51 c 14.3,53.35 69.13,85.01 122.48,70.72" /><path
         id="path52"
         style="fill:#d4e4f6;fill-opacity:1;fill-rule:nonzero;stroke:none"
         d="m 5124.14,3526.57 c 53.35,14.3 108.18,-17.36 122.48,-70.71 l 284.7,-1062.52 c 14.29,-53.34 -17.36,-108.18 -70.71,-122.47 -53.35,-14.3 -108.18,17.36 -122.48,70.71 l -284.7,1062.52 c -14.29,53.34 17.37,108.17 70.71,122.47" /><path
         id="path54"
         style="fill:#e8f0fa;fill-opacity:1;fill-rule:nonzero;stroke:none"
         d="M 1630,3550 H 5530 V 3350 H 1630 v 200" /><path
         id="path56"
         style="fill:#e8f0fa;fill-opacity:1;fill-rule:nonzero;stroke:none"
         d="m 7140,7030 h 4730 V 6780 H 7140 v 250" /><path
         id="path58"
         style="fill:#d4e4f6;fill-opacity:1;fill-rule:nonzero;stroke:none"
         d="m 7540,6780 h 230 v -150 c 0,-55.23 -44.78,-100 -100,-100 h -30 c -55.22,0 -100,44.77 -100,100 v 150" /><path
         id="path60"
         style="fill:#d4e4f6;fill-opacity:1;fill-rule:nonzero;stroke:none"
         d="m 11240,6780 h 230 v -150 c 0,-55.23 -44.8,-100 -100,-100 h -30 c -55.2,0 -100,44.77 -100,100 v 150" /><path
         id="path62"
         style="fill:#e8f0fa;fill-opacity:1;fill-rule:nonzero;stroke:none"
         d="m 9600,8100 h 630 v -850 h -630 v 850" /><path
         id="path64"
         style="fill:#d4e4f6;fill-opacity:1;fill-rule:nonzero;stroke:none"
         d="m 9380,8320 h 1060 V 7030 H 9380 Z m 100,-100 V 7130 h 860 v 1090 h -860" /><path
         id="path66"
         style="fill:#e8f0fa;fill-opacity:1;fill-rule:nonzero;stroke:none"
         d="m 10800,8100 h 630 v -850 h -630 v 850" /><path
         id="path68"
         style="fill:#d4e4f6;fill-opacity:1;fill-rule:nonzero;stroke:none"
         d="m 10580,8320 h 1060 V 7030 h -1060 z m 100,-100 V 7130 h 860 v 1090 h -860" /><path
         id="path70"
         style="fill:#d4e4f6;fill-opacity:1;fill-rule:nonzero;stroke:none"
         d="m 7480,8370 h 340 V 7040 h -340 v 1330" /><path
         id="path72"
         style="fill:#d4e4f6;fill-opacity:1;fill-rule:nonzero;stroke:none"
         d="m 7860,8270 h 340 V 7040 h -340 v 1230" /><path
         id="path74"
         style="fill:#d4e4f6;fill-opacity:1;fill-rule:nonzero;stroke:none"
         d="m 8460,8000 207.84,120 565,-978.61 -207.84,-120 -565,978.61" /><path
         id="path76"
         style="fill:#e8f0fa;fill-opacity:1;fill-rule:nonzero;stroke:none"
         d="m 8230,8270 h 240 V 7040 h -240 v 1230" /><path
         id="path78"
         style="fill:#d4e4f6;fill-opacity:1;fill-rule:nonzero;stroke:none"
         d="m 10380,5910 h 1270 c 552.3,0 1000,-447.71 1000,-1000 V 2060 H 9380 v 2850 c 0,552.29 447.71,1000 1000,1000" /><path
         id="path80"
         style="fill:#e8f0fa;fill-opacity:1;fill-rule:nonzero;stroke:none"
         d="m 11015,4770 c 85.6,0 155,-69.4 155,-155 0,-85.6 -69.4,-155 -155,-155 -85.6,0 -155,69.4 -155,155 0,85.6 69.4,155 155,155" /><path
         id="path82"
         style="fill:#e8f0fa;fill-opacity:1;fill-rule:nonzero;stroke:none"
         d="m 10250,3470 h 1530 c 165.7,0 300,-134.31 300,-300 V 2820 H 9950 v 350 c 0,165.69 134.3,300 300,300" /><path
         id="path84"
         style="fill:#e8f0fa;fill-opacity:1;fill-rule:nonzero;stroke:none"
         d="m 9950,2690 h 2130 V 2140 H 9950 v 550" /><path
         id="path86"
         style="fill:#e8f0fa;fill-opacity:1;fill-rule:nonzero;stroke:none"
         d="m 12650,4160 v 0 c 259.6,0 470,-210.42 470,-470 V 2060 h -940 v 1630 c 0,259.58 210.4,470 470,470" /><path
         id="path88"
         style="fill:#d4e4f6;fill-opacity:1;fill-rule:nonzero;stroke:none"
         d="m 12655,3780 c 85.6,0 155,-69.4 155,-155 0,-85.6 -69.4,-155 -155,-155 -85.6,0 -155,69.4 -155,155 0,85.6 69.4,155 155,155" /><path
         id="path90"
         style="fill:#e8f0fa;fill-opacity:1;fill-rule:nonzero;stroke:none"
         d="m 9380,4160 v 0 c 259.57,0 470,-210.42 470,-470 V 2060 h -940 v 1630 c 0,259.58 210.43,470 470,470" /><path
         id="path92"
         style="fill:#d4e4f6;fill-opacity:1;fill-rule:nonzero;stroke:none"
         d="m 9385,3780 c 85.61,0 155,-69.4 155,-155 0,-85.6 -69.39,-155 -155,-155 -85.61,0 -155,69.4 -155,155 0,85.6 69.39,155 155,155" /><g
         id="g94"><g
           clip-path="url(#clipPath100)"
           id="g96"><path
             id="path108"
             style="fill:url(#linearGradient106);fill-opacity:1;fill-rule:nonzero;stroke:none"
             d="M 5438.99,1754.27 5700,1730 c -38.87,181.08 -57.83,325.75 -56.87,433.99 5.31,604.02 -79.06,580.46 -253.13,-70.67 l 48.99,-339.05" /></g></g><g
         id="g110"><g
           clip-path="url(#clipPath116)"
           id="g112"><path
             id="path124"
             style="fill:url(#linearGradient122);fill-opacity:1;fill-rule:nonzero;stroke:none"
             d="m 4696.08,4923.18 c -32.34,-171.04 461.02,-903.23 688.98,-1515.6 54.26,-145.77 -47.17,-375.49 51.41,-558.37 98.59,-182.88 62.47,-616.42 192.09,-817.89 86.41,-134.3 195.21,-119.67 326.41,43.89 32.22,601.86 32.67,1097.73 1.36,1487.63 -31.32,389.9 -171.04,934.44 -419.18,1633.63 -515.88,54.94 -796.23,-36.16 -841.07,-273.29" /></g></g><g
         id="g126"><g
           clip-path="url(#clipPath132)"
           id="g128"><path
             id="path140"
             style="fill:url(#linearGradient138);fill-opacity:1;fill-rule:nonzero;stroke:none"
             d="M 4263.33,1830.84 4210,1748.11 4451.78,1700 c 70.98,216.42 106.95,378.98 107.91,487.67 10.24,1164.07 -232.63,-166.17 -296.36,-356.83" /></g></g><g
         id="g142"><g
           clip-path="url(#clipPath148)"
           id="g144"><path
             id="path156"
             style="fill:url(#linearGradient154);fill-opacity:1;fill-rule:nonzero;stroke:none"
             d="m 4322.37,5131.36 c -82.98,-152.57 95.35,-982.68 122.71,-1635.06 6.51,-155.29 -159.67,-342.29 -122.71,-546.54 36.97,-204.24 -150.79,-725.58 -90.24,-957.08 40.37,-154.32 147.55,-174.02 321.53,-59.09 184.14,608.55 321.21,1102.93 411.23,1483.14 90.01,380.23 168.38,951.77 235.11,1714.63 -470.04,211.52 -762.59,211.52 -877.63,0" /></g></g><g
         id="g158"><g
           clip-path="url(#clipPath164)"
           id="g160"><path
             id="path172"
             style="fill:url(#linearGradient170);fill-opacity:1;fill-rule:nonzero;stroke:none"
             d="m 4186.43,1816.35 c -36.18,-85.11 -52.68,-248.34 68.71,-248.34 121.39,0 756.01,-29.34 690.07,24.26 -43.96,35.73 -200.31,110.43 -469.05,224.08 -48.34,-45.03 -91.8,-56.71 -130.38,-35.06 -34.36,19.28 -123.18,120.18 -159.35,35.06" /></g></g><g
         id="g174"><g
           clip-path="url(#clipPath180)"
           id="g176"><path
             id="path188"
             style="fill:url(#linearGradient186);fill-opacity:1;fill-rule:nonzero;stroke:none"
             d="m 5376.19,7080 c -43.1,-178.88 -122.94,-281.98 -239.51,-309.29 -174.86,-40.96 -192.24,87.29 -340.4,0 -98.78,-58.19 -170.37,-279.76 -214.78,-664.7 -54.93,-436.62 -139.98,-760.44 -255.14,-971.48 -54.24,-99.38 238.64,-99.38 878.62,0 194.59,305.39 317.88,529.74 369.87,673.06 77.99,214.97 68.93,566.28 0,655.27 -45.96,59.33 -80.03,107.33 -102.22,143.98 44.68,189.73 78.76,284.59 102.22,284.59 23.46,0 -42.76,62.86 -198.66,188.57" /></g></g><g
         id="g190"><g
           clip-path="url(#clipPath196)"
           id="g192"><path
             id="path204"
             style="fill:url(#linearGradient202);fill-opacity:1;fill-rule:nonzero;stroke:none"
             d="m 5068.1,6779.27 c -106.49,5.24 -154.27,82.15 -276.85,10.06 -98.97,-58.21 -169.6,-285.24 -211.88,-681.1 C 4346.46,5650.29 4230,5310.44 4230,5088.68 c 0,-300.29 563.3,-340.83 930,-350.59 274.77,-7.3 483.34,162.12 540.09,173.24 132.47,25.99 -370.65,388.44 -340.83,456.23 81.89,186.21 177.28,337.06 215.48,442.15 78.15,215.05 69.07,566.48 0,655.5 -46.05,59.35 -80.19,107.36 -102.43,144.03 31.79,-96.02 -5.89,-144.03 -113.05,-144.03 -160.74,0 -268.68,312.96 -291.16,314.06" /></g></g><g
         id="g206"><g
           clip-path="url(#clipPath212)"
           id="g208"><path
             id="path220"
             style="fill:url(#linearGradient218);fill-opacity:1;fill-rule:nonzero;stroke:none"
             d="m 5470,6474.22 c -141,75.48 -220.93,146.02 -239.79,211.6 -18.88,65.58 -23.46,103.6 -13.76,114.05 -79.64,1.32 -126.19,-7.53 -139.67,-26.57 -34.12,-48.2 60.55,-195.97 284.03,-443.3 l 46.9,131.8 62.29,12.42" /></g></g><g
         id="g222"><g
           clip-path="url(#clipPath228)"
           id="g224"><path
             id="path236"
             style="fill:url(#linearGradient234);fill-opacity:1;fill-rule:nonzero;stroke:none"
             d="m 5386.43,1816.35 c -36.18,-85.11 -52.68,-248.34 68.71,-248.34 121.39,0 756.01,-29.34 690.07,24.26 -43.96,35.73 -200.31,110.43 -469.05,224.08 -48.34,-45.03 -91.8,-56.71 -130.38,-35.06 -34.36,19.28 -123.18,120.18 -159.35,35.06" /></g></g><g
         id="g238"><g
           clip-path="url(#clipPath244)"
           id="g240"><path
             id="path252"
             style="fill:url(#linearGradient250);fill-opacity:1;fill-rule:nonzero;stroke:none"
             d="M 5360,6610 H 8040 V 1450 H 5360 v 5160" /></g></g><path
         id="path254"
         style="fill:#f5f8fd;fill-opacity:1;fill-rule:nonzero;stroke:none"
         d="m 6115.63,6490 52.67,-111.32 c 19.84,-41.94 62.08,-68.68 108.47,-68.68 h 859.79 c 46.39,0 88.63,26.74 108.47,68.68 l 52.68,111.32 h 502.11 c 66.27,0 120,-53.72 120,-120 V 1690 c 0,-66.27 -53.73,-120 -120,-120 H 5600.18 c -66.27,0 -120,53.73 -120,120 v 4680 c 0,66.28 53.73,120 120,120 h 515.45" /><g
         id="g256"><g
           clip-path="url(#clipPath262)"
           id="g258"><path
             id="path270"
             style="fill:url(#linearGradient268);fill-opacity:1;fill-rule:nonzero;stroke:none"
             d="m 8166.73,6458.97 c -144.47,13.13 -222.48,12.88 -234.03,-0.77 -11.56,-13.63 52.51,-40.97 192.17,-82.01 -153.51,15.5 -233.18,15.24 -239.01,-0.77 -5.83,-16.02 66.17,-35.82 215.99,-59.43 -99.16,-1.61 -150.79,-8.04 -154.89,-19.29 -4.09,-11.26 44.14,-25.53 144.71,-42.81 -65.07,-10.47 -92.8,-21.39 -83.19,-32.78 14.41,-17.07 131.18,-14.66 157.57,28.42 26.4,43.08 34.46,108.03 55.69,147.7 14.15,26.45 -4.19,47.03 -55.01,61.74" /></g></g><g
         id="g272"><g
           clip-path="url(#clipPath278)"
           id="g274"><path
             id="path286"
             style="fill:url(#linearGradient284);fill-opacity:1;fill-rule:nonzero;stroke:none"
             d="M 5600.36,6130 H 7799.64 V 3970 H 5600.36 v 2160" /></g></g><path
         id="path288"
         style="fill:#f5f8fd;fill-opacity:1;fill-rule:nonzero;stroke:none"
         d="m 7096.96,5448.81 -228.97,-131.99 c -106.2,183.66 -341.4,246.59 -525.34,140.55 -183.94,-106.04 -246.96,-340.89 -140.77,-524.55 l -228.96,-132 c -179.21,309.93 -72.86,706.24 237.53,885.18 310.4,178.94 707.3,72.75 886.51,-237.19" /><path
         id="path290"
         style="fill:#f5f8fd;fill-opacity:1;fill-rule:nonzero;stroke:none"
         d="m 6429.59,4834 1124.05,648 c 179.21,-309.93 72.86,-706.24 -237.54,-885.19 -310.39,-178.93 -707.3,-72.74 -886.51,237.19" /><path
         id="path292"
         style="fill:#f5f8fd;fill-opacity:1;fill-rule:nonzero;stroke:none"
         d="m 6195.24,4690 c 122.8,0 222.34,-99.39 222.34,-222 0,-122.6 -99.54,-222 -222.34,-222 -122.78,0 -222.32,99.4 -222.32,222 0,122.61 99.54,222 222.32,222" /><g
         id="g294"><g
           clip-path="url(#clipPath300)"
           id="g296"><path
             id="path308"
             style="fill:url(#linearGradient306);fill-opacity:1;fill-rule:nonzero;stroke:none"
             d="m 5720.36,2170 h 1959.28 c 66.28,0 120,-53.72 120,-120 V 1570 H 5600.36 v 480 c 0,66.28 53.73,120 120,120" /></g></g><path
         id="path310"
         style="fill:#f5f8fd;fill-opacity:1;fill-rule:nonzero;stroke:none"
         d="m 6405.56,1570 c 0,132.55 134.52,240 300.45,240 165.93,0 300.45,-107.45 300.45,-240 h -600.9" /><g
         id="g312"><g
           clip-path="url(#clipPath318)"
           id="g314"><path
             id="path326"
             style="fill:url(#linearGradient324);fill-opacity:1;fill-rule:nonzero;stroke:none"
             d="m 5600.36,3226 h 997.49 v -120 h -997.49 v 120" /></g></g><g
         id="g328"><g
           clip-path="url(#clipPath334)"
           id="g330"><path
             id="path342"
             style="fill:url(#linearGradient340);fill-opacity:1;fill-rule:nonzero;stroke:none"
             d="M 5600.36,2914 H 7799.64 V 2794 H 5600.36 v 120" /></g></g><g
         id="g344"><g
           clip-path="url(#clipPath350)"
           id="g346"><path
             id="path358"
             style="fill:url(#linearGradient356);fill-opacity:1;fill-rule:nonzero;stroke:none"
             d="M 5600.36,2602 H 7799.64 V 2482 H 5600.36 v 120" /></g></g><g
         id="g360"><g
           clip-path="url(#clipPath366)"
           id="g362"><path
             id="path374"
             style="fill:url(#linearGradient372);fill-opacity:1;fill-rule:nonzero;stroke:none"
             d="m 6022.91,3862 c -44.07,0 -79.55,-35.96 -97.99,-59.41 -18.31,23.49 -53.61,59.41 -98.14,59.41 -63.55,0 -106.24,-49.9 -106.24,-124.17 0,-131.93 187.01,-270.8 194.97,-276.82 l 9.28,-7.01 9.32,5.75 c 7.97,5.96 195.04,144.63 195.04,278.08 0,74.27 -42.69,124.17 -106.24,124.17" /></g></g><path
         id="path376"
         style="fill:#b2c3e6;fill-opacity:1;fill-rule:nonzero;stroke:none"
         d="m 6573.8,3466 c -3.16,0 -6.22,1.02 -8.72,2.89 l -71.04,52 c -1.27,0.93 -2.81,1.45 -4.41,1.46 h -182.62 c -11.94,0.01 -21.61,9.46 -21.63,21.13 v 225.39 c 0.02,11.66 9.69,21.12 21.63,21.13 h 317.28 c 11.94,-0.01 21.62,-9.47 21.63,-21.13 v -225.39 c -0.01,-11.67 -9.69,-21.12 -21.63,-21.13 h -36.06 v -42.25 c 0.01,-3.74 -1.51,-7.33 -4.22,-9.98 -2.71,-2.64 -6.38,-4.13 -10.21,-4.12" /><g
         id="g378"><g
           clip-path="url(#clipPath384)"
           id="g380"><path
             id="path392"
             style="fill:url(#linearGradient390);fill-opacity:1;fill-rule:nonzero;stroke:none"
             d="m 5391.82,7351.48 c 25.48,188.24 180.51,333.04 367.95,333.04 205.24,0 396.6,60.21 446.01,-218.47 49.42,-278.68 -349.76,-815.37 -446.01,-773.76 -199.05,86.03 -293.31,211.05 -336.7,343.86 -0.96,-0.02 -1.92,-0.03 -2.88,-0.03 -88.47,0 -160.19,71.15 -160.19,158.92 0,78.17 56.88,143.15 131.82,156.44" /></g></g><path
         id="path394"
         style="fill:#3b3063;fill-opacity:1;fill-rule:nonzero;stroke:none"
         d="m 5885,7190 c 13.81,0 25,-13.43 25,-30 0,-16.57 -11.19,-30 -25,-30 -13.81,0 -25,13.43 -25,30 0,16.57 11.19,30 25,30" /><path
         id="path396"
         style="fill:#3b3063;fill-opacity:1;fill-rule:nonzero;stroke:none"
         d="m 6095,7210 c 13.81,0 25,-13.43 25,-30 0,-16.57 -11.19,-30 -25,-30 -13.81,0 -25,13.43 -25,30 0,16.57 11.19,30 25,30" /><path
         id="path398"
         style="fill:#3b3063;fill-opacity:1;fill-rule:nonzero;stroke:none"
         d="m 5942.98,7492.64 c 38.32,-68.9 139.79,-103.35 304.4,-103.35 246.91,0 560.44,582.48 126.88,782.46 -289.05,133.32 -502.06,37.79 -639.05,-286.6 -73.13,52.84 -162.38,58.5 -267.78,16.96 -105.39,-41.54 -152.74,-130.91 -142.03,-268.1 -150.27,-19.13 -225.4,-80.74 -225.4,-184.84 0,-68.47 63.64,-151.13 128.64,-266.49 22.56,-40.02 54.81,-120.92 96.76,-242.68 39.41,35.82 71.78,67.86 97.1,96.15 -236.66,161.22 -67.6,340.55 -5.37,299.23 70.17,-46.6 119.04,-102.33 146.62,-167.17 124.05,55.14 170.87,128.83 140.45,221.08 106.08,-47.36 185.67,-12.91 238.78,103.35" /><g
         id="g400"><g
           clip-path="url(#clipPath406)"
           id="g402"><path
             id="path414"
             style="fill:url(#linearGradient412);fill-opacity:1;fill-rule:nonzero;stroke:none"
             d="m 4295.08,6277.64 c -457.48,-543.21 -370.84,-755.71 -323.23,-772.02 67.11,-22.99 1108.57,-187.61 1426.29,-81.46 11.82,3.95 120.62,22.54 160.15,80.22 32.66,47.66 143.47,89.7 143.45,107.77 -0.01,12.04 -47.85,3.54 -143.52,-25.51 107.11,75.5 160,117.08 158.67,124.75 -1.33,7.68 -57.1,-17.23 -167.32,-74.72 98.3,92.13 146.15,143.34 143.56,153.63 -2.6,10.3 -56.44,-17.15 -161.52,-82.35 98.46,97.43 133.79,143.62 105.98,138.57 -41.7,-7.58 -213.6,-158.9 -245.88,-163.98 -2.97,-0.47 -20.31,145.52 -41.83,126.37 -28.56,-25.42 -63.59,-218.05 -73.41,-222.05 -86.3,-35.18 -393.76,55.73 -615.61,121.77 -61.44,18.29 -170.93,42.63 -328.49,73.02 49.41,43.89 99.25,122.2 149.52,234.95 11.49,25.74 -61.26,410.12 -186.81,261.04" /></g></g><path
         id="path416"
         style="fill:#3b3063;fill-opacity:1;fill-rule:nonzero;stroke:none"
         d="m 6135,7290 c 35.9,0 65,-11.2 65,-25 0,-13.81 -29.1,-25 -65,-25 -35.9,0 -65,11.19 -65,25 0,13.8 29.1,25 65,25" /><path
         id="path418"
         style="fill:#3b3063;fill-opacity:1;fill-rule:nonzero;stroke:none"
         d="m 5845,7290 c 35.9,0 65,-11.2 65,-25 0,-13.81 -29.1,-25 -65,-25 -35.9,0 -65,11.19 -65,25 0,13.8 29.1,25 65,25" /><path
         id="path420"
         style="fill:#ef513e;fill-opacity:1;fill-rule:nonzero;stroke:none"
         d="m 6019.77,7243.37 c -0.31,3.33 2.06,6.28 5.3,6.6 3.23,0.32 6.11,-2.12 6.41,-5.44 8.61,-92.01 20.02,-149.91 33.72,-172.74 9.05,-15.09 5.19,-27.92 -10.54,-34.74 -13.4,-5.81 -36.25,-7.95 -69,-6.71 -3.24,0.13 -5.78,2.93 -5.66,6.27 0.12,3.34 2.86,5.94 6.1,5.82 31.14,-1.18 52.61,0.83 63.98,5.76 9.04,3.92 10.39,8.42 5.1,17.25 -14.99,25 -26.63,83.99 -35.41,177.93" /><path
         id="path422"
         style="fill:#ef513e;fill-opacity:1;fill-rule:nonzero;stroke:none"
         d="m 5830.03,7013.32 c -0.35,3.3 1.98,6.28 5.21,6.64 3.23,0.37 6.14,-2.01 6.49,-5.32 4.59,-42.51 21.81,-62.6 52.39,-62.6 3.24,0 5.88,-2.69 5.88,-6.02 0,-3.32 -2.64,-6.02 -5.88,-6.02 -37.28,0 -58.89,25.22 -64.09,73.32" /><path
         id="path424"
         style="fill:#ef513e;fill-opacity:1;fill-rule:nonzero;stroke:none"
         d="m 5341.73,7172.72 c -0.75,-3.28 -3.94,-5.32 -7.14,-4.55 -3.19,0.76 -5.18,4.03 -4.43,7.31 15,66.12 37.27,94.94 67.65,81.15 27.12,-12.31 57.29,-54.84 91.6,-127.89 1.42,-3.04 0.18,-6.68 -2.77,-8.13 -2.96,-1.46 -6.51,-0.19 -7.93,2.84 -33.12,70.53 -62.05,111.31 -85.71,122.04 -20.39,9.26 -37.76,-13.23 -51.27,-72.77" /><g
         id="g426"><g
           clip-path="url(#clipPath432)"
           id="g428"><path
             id="path440"
             style="fill:url(#linearGradient438);fill-opacity:1;fill-rule:nonzero;stroke:none"
             d="m 5039.03,6445.02 c -149.86,-85.31 -495.94,-572.47 -574.43,-584.75 -78.48,-12.27 -524.52,393.2 -373.69,487.92 150.83,94.72 310.11,272.04 394.1,350.36 49.93,46.56 304.96,188.47 457.37,106.4 103.95,-55.98 146.83,-331.37 96.65,-359.93" /></g></g><path
         id="path442"
         style="fill:#ef513e;fill-opacity:1;fill-rule:nonzero;stroke:none"
         d="m 5444.74,7199.26 c 3.21,-0.31 5.55,-3.12 5.23,-6.28 -0.32,-3.15 -3.17,-5.45 -6.38,-5.14 -33.32,3.25 -45.05,-3.64 -41.08,-20.83 0.72,-3.09 -1.25,-6.16 -4.39,-6.87 -3.14,-0.7 -6.27,1.24 -6.99,4.33 -6.25,27.05 13.58,38.7 53.61,34.79" /><path
         id="path444"
         style="fill:#ffffff;fill-opacity:1;fill-rule:nonzero;stroke:none"
         d="m 6286.93,7629.77 c -24.44,16.53 -49.64,26.7 -69.17,27.53 -20.45,0.87 -33.07,-8.16 -36.98,-28.5 -3.96,-20.6 3.6,-33.15 22.18,-39.86 17.76,-6.4 44.83,-6.96 78.04,-2.12 14.52,2.11 29.95,5.25 45.46,9.12 -10.66,11.78 -24.06,23.37 -39.53,33.83 z m 161.96,13.78 c 60.44,39.53 75.49,110.68 40.82,177.55 -1.55,2.97 -0.42,6.64 2.51,8.2 2.93,1.56 6.55,0.42 8.09,-2.55 37.45,-72.24 20.94,-150.33 -44.93,-193.41 -23.57,-15.42 -64.85,-32.18 -107.73,-44.32 19.86,-27.79 25.41,-56.02 8.96,-76.27 -36.47,-44.91 -110.33,-60.89 -221.25,-48.91 -3.29,0.36 -5.68,3.35 -5.33,6.68 0.36,3.34 3.3,5.76 6.6,5.4 107.32,-11.59 177.46,3.59 210.73,44.55 12.78,15.74 6.69,40.29 -12.28,65.14 -17.83,-4.64 -35.67,-8.39 -52.37,-10.82 -34.97,-5.09 -63.79,-4.5 -83.76,2.71 -24.04,8.67 -35.05,26.97 -29.93,53.62 5.11,26.53 23.13,39.43 49.25,38.31 22.03,-0.93 49.19,-11.88 75.3,-29.55 18.22,-12.32 33.91,-26.22 46.01,-40.51 43.49,11.93 85.91,28.88 109.31,44.18" /><path
         id="path446"
         style="fill:#ef513e;fill-opacity:1;fill-rule:nonzero;stroke:none"
         d="m 5440,6980 38.32,-250 91.68,78.84 z" /><path
         id="path448"
         style="fill:#3b3063;fill-opacity:1;fill-rule:nonzero;stroke:none"
         d="m 7808.89,5469.88 c -57.6,-17.57 -56.97,277.04 88.6,377.42 97.04,66.92 297.5,202.36 601.38,46.1 11.6,68.6 52.13,107.19 121.59,115.76 104.2,12.87 437.38,-126.07 302.44,-189.24 -89.97,-42.11 -193.63,-46.95 -311.01,-14.51 189.54,-196.75 171.07,-343.9 267.47,-418.03 96.39,-74.13 155.96,31.02 274.52,1.24 118.54,-29.77 191.75,-154.59 193.12,-244.81 127.29,11.18 589.91,-240.81 173.46,-444.1 C 9104,4496.41 8104.11,3949.22 7980,4091.84 c -82.74,95.09 95.2,193.68 49.52,272.18 -45.66,78.49 -178.33,71.99 -193.13,176.83 -14.81,104.83 54.4,110.87 157.98,235.41 61.65,74.14 59.69,239.06 103.57,294.54 -154.31,277.77 -250.65,410.8 -289.05,399.08" /><path
         id="path450"
         style="fill:#ffffff;fill-opacity:1;fill-rule:nonzero;stroke:none"
         d="m 7999.89,5746.79 c -1.4,2.05 -0.89,4.86 1.15,6.26 2.06,1.41 4.85,0.9 6.25,-1.15 49.98,-72.69 114.98,-120.47 195.11,-143.49 80.41,-23.09 155.24,-25.51 224.53,-7.32 2.41,0.63 4.87,-0.82 5.5,-3.22 0.63,-2.4 -0.81,-4.87 -3.21,-5.5 -70.93,-18.61 -147.38,-16.13 -229.3,7.39 -82.18,23.59 -148.89,72.65 -200.03,147.03" /><g
         id="g452"><g
           clip-path="url(#clipPath458)"
           id="g454"><path
             id="path466"
             style="fill:url(#linearGradient464);fill-opacity:1;fill-rule:nonzero;stroke:none"
             d="m 6834.07,3824.45 c 181.54,17.65 321.51,49.44 419.91,95.4 48.49,22.64 258.13,82.71 341.41,95.47 166.4,136.62 816.15,701.67 881.04,615.23 13.86,-18.48 178.49,-128.19 113.78,-209.34 -206.41,-258.85 -758.15,-639.83 -828.42,-659.23 -130.26,-35.97 -549.88,-101.44 -971.35,-111.66 -63.81,-32.85 -107.98,-48.85 -132.5,-47.98 -9.95,0.35 -73.2,-10.34 -97.94,0 -36.19,15.12 -38.18,55.23 -68.03,75.82 -61.97,-27.84 -228.37,-23.11 -270.02,11.84 -45.06,37.82 230.62,81.39 245.44,115.27 36.15,82.65 63.77,117.69 105.72,137.28 39.43,18.4 87.21,-44.39 260.96,-118.1" /></g></g><g
         id="g468"><g
           clip-path="url(#clipPath474)"
           id="g470"><path
             id="path482"
             style="fill:url(#linearGradient480);fill-opacity:1;fill-rule:nonzero;stroke:none"
             d="m 8027.54,4481.87 c 78.77,90.09 156.76,239.58 222.46,232.46 64.55,-7 116.52,-168.23 226.28,-345.2 52.88,-85.28 -143.57,-285.93 -221.48,-371.92 -41.14,-45.41 -358.46,241.79 -328.43,421.55 4.51,27.01 80.7,39.7 101.17,63.11" /></g></g><path
         id="path484"
         style="fill:#ffffff;fill-opacity:1;fill-rule:nonzero;stroke:none"
         d="m 8479.97,5401.68 c -2.44,-0.44 -4.78,1.18 -5.22,3.62 -0.45,2.45 1.17,4.79 3.61,5.24 75.18,13.7 140.17,-6.63 194.46,-60.86 96.03,-95.88 256.14,-168.38 341.13,-136.72 2.32,0.86 4.91,-0.32 5.78,-2.65 0.87,-2.33 -0.33,-4.92 -2.65,-5.79 -89.15,-33.21 -252.36,40.68 -350.61,138.79 -52.21,52.14 -114.22,71.54 -186.5,58.37" /><g
         id="g486"><g
           clip-path="url(#clipPath492)"
           id="g488"><path
             id="path500"
             style="fill:url(#linearGradient498);fill-opacity:1;fill-rule:nonzero;stroke:none"
             d="m 8365.94,4805.07 c 29.68,-166.6 -123.17,-20.44 -123.17,-119.66 0,-99.23 122.85,-404.41 122.85,-580.66 0,-83.1 474.19,39.92 683.4,-218.79 57.73,-71.37 39.03,-291.47 -56.08,-660.27 -712.8,-45.26 -1086,-145.61 -1119.6,-301.02 -33.61,-155.41 65.13,-671.06 296.21,-1546.96 -271,-125.07 -418.09,-213.21 -441.28,-264.45 -34.78,-76.85 96.99,-95.29 383.55,-60.78 286.56,34.49 403.82,62 403.82,166.18 0,104.18 -115.91,202.46 -118.66,256.89 -31.36,621.16 53.55,933.89 -84.05,1144.02 125.98,-58.34 417.24,-82.86 873.79,-73.58 -339.63,-648.71 -471.12,-1028.45 -394.48,-1139.25 114.96,-166.18 227.13,-307.77 617.31,-166.18 260.12,94.4 567.53,206.93 922.25,337.59 38.2,-85.82 38.2,-140.56 0,-164.19 -57.3,-35.45 -127.7,-125.31 -106.3,-152.59 21.3,-27.27 367.7,-1.3 391,59.89 23.4,61.17 72.8,574.01 0,604.61 -72.7,30.58 -189.9,31.28 -220.2,-30.61 -20.2,-41.27 -349.2,-86.77 -986.75,-136.51 L 10263,3193.53 c -144.1,620.9 -297.04,1017.38 -458.89,1189.45 -242.77,258.1 -831.1,826.2 -921.48,804.64 -60.27,-14.38 -136.46,-76.45 -228.6,-186.23 -92.26,12.01 -156.77,59.49 -193.54,142.42 -40.28,90.85 -273.38,-103.32 -201.92,-177.15 47.95,-49.52 96.6,-101.1 107.37,-161.59" /></g></g><g
         id="g502"><g
           clip-path="url(#clipPath508)"
           id="g504"><path
             id="path516"
             style="fill:url(#linearGradient514);fill-opacity:1;fill-rule:nonzero;stroke:none"
             d="m 10450.1,1744.78 c -15.1,-106.16 -108,-191.07 -104,-202.29 23.1,-65.51 18.3,-108.35 -14.3,-128.53 -57.3,-35.45 -127.7,-125.31 -106.3,-152.59 21.3,-27.27 367.7,-1.3 391,59.89 23.4,61.17 72.8,574.01 0,604.61 -72.7,30.58 -189.9,31.28 -220.2,-30.61 -30.4,-61.89 68.9,-44.32 53.8,-150.48" /></g></g><g
         id="g518"><g
           clip-path="url(#clipPath524)"
           id="g520"><path
             id="path532"
             style="fill:url(#linearGradient530);fill-opacity:1;fill-rule:nonzero;stroke:none"
             d="m 8169.55,1377.71 c -271,-125.07 -418.09,-213.21 -441.28,-264.45 -34.78,-76.85 96.99,-95.29 383.55,-60.78 286.56,34.49 403.82,62 403.82,166.18 0,59.59 -37.92,117.24 -70.89,165.87 -24.68,36.39 -62.3,-66.32 -132.71,-68.07 -46.94,-1.16 -94.44,19.26 -142.49,61.25" /></g></g><g
         id="g534"><g
           clip-path="url(#clipPath540)"
           id="g536"><path
             id="path548"
             style="fill:url(#linearGradient546);fill-opacity:1;fill-rule:nonzero;stroke:none"
             d="m 8992.94,3225.69 c -712.8,-45.26 -1086,-145.61 -1119.6,-301.02 -31.41,-145.24 60.02,-572.19 170.72,-1277.73 7.75,-49.37 -79.84,-158.33 41.86,-182.05 121.7,-23.72 350.73,63.62 347.99,118.06 -2.82,55.79 -41.62,103.45 -42.81,152.91 -12.03,501.19 50.45,549.87 0,810.13 127.39,-17.28 392.59,-17.28 795.62,0 l 1076.28,647.54 -1270.06,32.16" /></g></g><g
         id="g550"><g
           clip-path="url(#clipPath556)"
           id="g552"><path
             id="path564"
             style="fill:url(#linearGradient562);fill-opacity:1;fill-rule:nonzero;stroke:none"
             d="m 8992.94,3225.69 c 3.49,-108.18 27.08,-200.41 70.78,-276.68 65.57,-114.4 136.83,-105.63 136.83,-308.63 0,-203.01 -507.59,-1022.2 -442.85,-1211.4 64.74,-189.19 261.67,-330.01 651.85,-188.42 156.53,56.81 412.61,123.52 768.25,200.15 74.1,-6.35 121.5,12.18 142.2,55.58 31.1,65.09 -31.5,56.97 -12.2,176.97 19.3,119.99 -22.3,197.28 -44.8,189.42 -26.9,-9.4 -58.9,-17.74 -128.4,-36.84 -96.3,-26.44 -337.95,-48.8 -725.05,-67.09 520.6,578.25 814.25,936.86 880.95,1075.86 66.7,138.98 41.4,355.35 -75.8,649.09 L 8992.94,3225.69" /></g></g><g
         id="g566"><g
           clip-path="url(#clipPath572)"
           id="g568"><path
             id="path580"
             style="fill:url(#linearGradient578);fill-opacity:1;fill-rule:nonzero;stroke:none"
             d="m 8320.58,4724.14 c -48.36,0 -79.31,11.92 -97.7,-13.41 -18.39,-25.32 110.2,-311.88 110.2,-483.56 0,-176.25 4.85,-371.56 360.4,-416.52 237.03,-29.97 336.84,-224.96 299.46,-584.96 106.38,-139.08 271.4,-211.46 495.09,-217.12 335.52,-8.5 701.87,171.43 763.37,561.65 32.4,205.74 -56.2,115.77 -181.6,349 -147.83,274.95 -150.91,341.74 -265.69,463.76 -242.77,258.1 -831.1,826.2 -921.48,804.64 -45.6,-10.88 -108.65,-55.82 -189.15,-134.85 -25.92,-25.43 68.45,-433.2 -75.38,-551.24 -143.83,-118.05 -284.46,222.61 -297.52,222.61" /></g></g><path
         id="path582"
         style="fill:#ef513e;fill-opacity:1;fill-rule:nonzero;stroke:none"
         d="m 8215.75,5004.06 c 46.18,-43.8 81.13,-82.92 104.83,-117.36 23.7,-34.44 50.54,32.96 80.53,202.2 l -185.36,-84.84" /><g
         id="g584"><g
           clip-path="url(#clipPath590)"
           id="g586"><path
             id="path598"
             style="fill:url(#linearGradient596);fill-opacity:1;fill-rule:nonzero;stroke:none"
             d="m 8508.63,5436.13 c 80.64,7.72 152.69,-142.46 107.94,-214.16 -34.65,-55.53 -99.02,-81.13 -159.56,-69.05 -101.93,-160.03 -296.3,-234.06 -395.33,-233.13 -84.39,0.79 -240.21,303.6 -230.58,513.1 -20.74,123.77 79.56,189.49 86.98,270.92 64.28,-147.15 278.75,-220.26 352.33,-257.48 6.33,-3.2 70.16,-180.57 86.11,-185.65 23.21,-7.39 28.68,52.71 31.7,42.39 26.52,83.56 66.65,127.91 120.41,133.06" /></g></g><path
         id="path600"
         style="fill:#ef513e;fill-opacity:1;fill-rule:nonzero;stroke:none"
         d="m 8057.78,5140.73 c -3.77,-34.14 -19.44,-52.05 -46.48,-52.05 -2.36,0 -4.28,1.91 -4.28,4.27 0,2.36 1.92,4.27 4.28,4.27 22.19,0 34.67,14.26 38,44.45 0.26,2.35 2.37,4.04 4.71,3.79 2.35,-0.27 4.04,-2.38 3.77,-4.73" /><path
         id="path602"
         style="fill:#3b3063;fill-opacity:1;fill-rule:nonzero;stroke:none"
         d="m 8046.88,5300.53 c -9.89,-1.04 -18.95,8.14 -20.25,20.51 -1.3,12.36 5.66,23.23 15.54,24.27 9.88,1.04 18.94,-8.14 20.24,-20.51 1.29,-12.36 -5.66,-23.23 -15.53,-24.27" /><path
         id="path604"
         style="fill:#3b3063;fill-opacity:1;fill-rule:nonzero;stroke:none"
         d="m 7892.44,5290.97 c -9.88,-1.04 -18.93,8.14 -20.23,20.51 -1.3,12.36 5.65,23.23 15.53,24.27 9.88,1.04 18.94,-8.14 20.24,-20.5 1.3,-12.37 -5.66,-23.24 -15.54,-24.28" /><path
         id="path606"
         style="fill:#3b3063;fill-opacity:1;fill-rule:nonzero;stroke:none"
         d="m 8069.9,5438.37 c -27.27,-1.44 -49.81,5.45 -50.33,15.39 -0.52,9.93 21.17,19.15 48.45,20.58 27.28,1.43 49.82,-5.46 50.34,-15.4 0.52,-9.93 -21.17,-19.14 -48.46,-20.57" /><path
         id="path608"
         style="fill:#3b3063;fill-opacity:1;fill-rule:nonzero;stroke:none"
         d="m 7838.93,5382.52 c -25.51,-9.81 -49.07,-10.23 -52.63,-0.94 -3.56,9.29 14.23,24.76 39.74,34.56 25.49,9.81 49.06,10.23 52.61,0.94 3.57,-9.29 -14.23,-24.76 -39.72,-34.56" /><path
         id="path610"
         style="fill:#ef513e;fill-opacity:1;fill-rule:nonzero;stroke:none"
         d="m 7973.33,5309.39 c -21.08,-67 -38.9,-108.11 -53.96,-123.92 -5.33,-5.59 -5.01,-9.08 1.14,-13.37 7.73,-5.4 23.47,-10.29 46.93,-14.38 2.44,-0.42 4.08,-2.76 3.65,-5.21 -0.42,-2.45 -2.75,-4.09 -5.19,-3.66 -24.67,4.3 -41.43,9.5 -50.54,15.86 -10.7,7.47 -11.6,17.42 -2.51,26.97 13.77,14.44 31.25,54.79 51.9,120.42 0.75,2.37 3.27,3.68 5.64,2.94 2.36,-0.75 3.68,-3.28 2.94,-5.65" /><path
         id="path612"
         style="fill:#ef513e;fill-opacity:1;fill-rule:nonzero;stroke:none"
         d="m 8551.01,5314.7 c -10.24,44.02 -23.39,60.64 -38.82,53.8 -17.91,-7.94 -39.82,-38.08 -64.89,-90.22 -1.07,-2.24 -3.76,-3.19 -6,-2.11 -2.24,1.08 -3.17,3.77 -2.1,6.01 25.98,54.01 48.82,85.46 69.34,94.55 23,10.2 39.86,-11.11 51.23,-59.99 0.55,-2.42 -0.95,-4.84 -3.36,-5.41 -2.43,-0.56 -4.85,0.95 -5.4,3.37" /><path
         id="path614"
         style="fill:#ef513e;fill-opacity:1;fill-rule:nonzero;stroke:none"
         d="m 8483.54,5341.36 c 27.77,-13.76 35.89,-29.62 20.58,-45.06 -1.75,-1.77 -4.6,-1.78 -6.36,-0.02 -1.76,1.75 -1.77,4.6 -0.03,6.36 9.74,9.81 4.94,19.2 -18.19,30.65 -2.22,1.11 -3.13,3.81 -2.03,6.03 1.1,2.23 3.8,3.15 6.03,2.04" /><g
         id="g616"><g
           clip-path="url(#clipPath622)"
           id="g618"><path
             id="path630"
             style="fill:url(#linearGradient628);fill-opacity:1;fill-rule:nonzero;stroke:none"
             d="m 9362.95,3840.29 c -162.9,-37.45 -244.35,-77.96 -244.35,-121.53 0,-65.36 143.9,-305.82 192.75,-287.54 48.84,18.28 132.77,23.35 132.77,52.48 0,19.41 -16.73,27.28 -50.18,23.6 52.59,30.97 84.46,57.38 95.6,79.27 11.14,21.88 15.33,68.73 12.57,140.53 168.88,386.83 264.55,646.95 287.05,780.35 33.73,200.1 -748.24,572.86 -850.17,603.4 -101.92,30.53 -190.6,-204.95 61.41,-361.84 168.02,-104.59 331.06,-199.76 489.14,-285.5 -23.64,-80.97 -35.47,-148.24 -35.47,-201.81 0,-108.73 -30.37,-249.2 -91.12,-421.41" /></g></g><g
         id="g632"><g
           clip-path="url(#clipPath638)"
           id="g634"><path
             id="path646"
             style="fill:url(#linearGradient644);fill-opacity:1;fill-rule:nonzero;stroke:none"
             d="m 9392.14,4994.72 c -203.73,121.75 -433.11,175.36 -483.99,190.61 -101.92,30.54 -159.76,-279.43 92.25,-436.32 104.53,-65.07 224.99,-227.72 325.67,-285.5 53.17,-30.51 265.97,340.63 181.79,502.38 -12.65,24.31 -89.02,12.88 -115.72,28.83" /></g></g></g></g></svg>