<?xml version="1.0" encoding="UTF-8" standalone="no"?>
<svg
   xmlns:dc="http://purl.org/dc/elements/1.1/"
   xmlns:cc="http://creativecommons.org/ns#"
   xmlns:rdf="http://www.w3.org/1999/02/22-rdf-syntax-ns#"
   xmlns:svg="http://www.w3.org/2000/svg"
   xmlns="http://www.w3.org/2000/svg"
   viewBox="0 0 1472.2 1213.1067"
   height="1213.1067"
   width="1472.2"
   xml:space="preserve"
   id="svg2"
   version="1.1"><metadata
     id="metadata8"><rdf:RDF><cc:Work
         rdf:about=""><dc:format>image/svg+xml</dc:format><dc:type
           rdf:resource="http://purl.org/dc/dcmitype/StillImage" /></cc:Work></rdf:RDF></metadata><defs
     id="defs6"><clipPath
       id="clipPath190"
       clipPathUnits="userSpaceOnUse"><path
         id="path188"
         d="m 1268.51,1796.4 c 0,0 -45.09,-158.58 -14.86,-211.49 30.23,-52.9 303.8,-28.71 448.9,-28.71 145.1,0 182.88,24.18 128.47,77.08 -54.41,52.9 -251.06,63.23 -356.02,163.12 z" /></clipPath><linearGradient
       id="linearGradient196"
       spreadMethod="pad"
       gradientTransform="matrix(611.517,0,0,-611.517,1243.22,1673.54)"
       gradientUnits="userSpaceOnUse"
       y2="0"
       x2="1"
       y1="0"
       x1="0"><stop
         id="stop192"
         offset="0"
         style="stop-opacity:1;stop-color:#462b91" /><stop
         id="stop194"
         offset="1"
         style="stop-opacity:1;stop-color:#5a369b" /></linearGradient><clipPath
       id="clipPath226"
       clipPathUnits="userSpaceOnUse"><path
         id="path224"
         d="m 1453.1,1836.43 c 0,0 -13.51,102.26 -133.61,118.27 -32.85,4.38 -162.08,-142.36 -129.23,-214.64 32.86,-72.29 214.65,-173.04 271.6,-212.46 56.94,-39.43 179.6,-129.22 216.84,-89.8 37.22,39.43 0,120.46 -56.96,177.41 -56.94,56.95 -168.64,221.22 -168.64,221.22 z" /></clipPath><linearGradient
       id="linearGradient232"
       spreadMethod="pad"
       gradientTransform="matrix(508.694,0,0,-508.694,1184.96,1691.4)"
       gradientUnits="userSpaceOnUse"
       y2="0"
       x2="1"
       y1="0"
       x1="0"><stop
         id="stop228"
         offset="0"
         style="stop-opacity:1;stop-color:#4c43a3" /><stop
         id="stop230"
         offset="1"
         style="stop-opacity:1;stop-color:#525bb2" /></linearGradient><clipPath
       id="clipPath242"
       clipPathUnits="userSpaceOnUse"><path
         id="path240"
         d="m 1716.54,4900.5 c 6.89,-63.2 -84.3,19.01 -112.52,-170.37 -28.22,-189.39 -158.63,-238.85 -266.55,-229.86 -107.93,9 -137.16,159.64 -137.16,258.58 0,98.93 -22.49,255.29 125.91,254.11 148.4,-1.18 360.18,164.1 390.32,-112.46 z" /></clipPath><linearGradient
       id="linearGradient248"
       spreadMethod="pad"
       gradientTransform="matrix(517.818,0,0,-517.818,1199.09,4780.08)"
       gradientUnits="userSpaceOnUse"
       y2="0"
       x2="1"
       y1="0"
       x1="0"><stop
         id="stop244"
         offset="0"
         style="stop-opacity:1;stop-color:#141e36" /><stop
         id="stop246"
         offset="1"
         style="stop-opacity:1;stop-color:#374162" /></linearGradient></defs><g
     transform="matrix(1.3333333,0,0,-1.3333333,0,1213.1067)"
     id="g10"><g
       transform="scale(0.1)"
       id="g12"><path
         id="path14"
         style="fill:#e1dfde;fill-opacity:1;fill-rule:nonzero;stroke:none"
         d="m 7057.98,0 c -421.04,0 -795.69,58.3906 -744.41,191.531 53.48,138.809 272.77,217.68 565.45,258.68 C 6251.26,442.809 5666.78,428.43 5224.88,395.5 4626.6,350.91 3892.9,326.832 3199.68,326.832 c -522.29,0 -1021.62,13.668 -1422.6,42.547 -149.19,-21.707 -314.7,-24.559 -432.4,-32.207 -42.25,-2.75 -86.9,-4.492 -132.04,-4.492 -230.695,0 -473.308,45.562 -462.878,235.621 10.898,198.5 344.628,234.019 625.208,256.871 690.92,164.527 1977.06,216.368 3318.67,216.368 1605.69,0 3290.61,-74.329 4126.64,-118.739 1780.22,-94.551 2359.82,-48.332 2194.22,-300.68 -92.2,-140.469 -1341,-154.93 -2727.8,-162.32 238.84,-16.629 446.37,-37.301 583.26,-52.699 573.88,-64.59 760.73,-33.02 707.35,-205.391 C 9523.92,29.332 8267.12,134.75 7710.88,46.9102 7518.01,16.4492 7281.46,0 7057.98,0" /><path
         id="path16"
         style="fill:#c6c1e6;fill-opacity:1;fill-rule:nonzero;stroke:none"
         d="m 10354.3,5033.62 c -68.3,0 -123.7,55.36 -123.7,123.66 0,68.29 55.4,123.65 123.7,123.65 68.3,0 123.6,-55.36 123.6,-123.65 0,-68.3 -55.3,-123.66 -123.6,-123.66 z M 9982.47,662.152 h 743.63 V 5514.11 H 9982.47 V 662.152" /><path
         id="path18"
         style="fill:#908ecf;fill-opacity:1;fill-rule:nonzero;stroke:none"
         d="m 9982.47,5514.11 h 149.83 V 662.152 H 9982.47 V 5514.11" /><path
         id="path20"
         style="fill:#4b4ca9;fill-opacity:1;fill-rule:nonzero;stroke:none"
         d="m 10261,4729.8 v 0 c 0,16.35 -13.2,29.62 -29.6,29.62 h -248.93 v -59.25 h 248.93 c 16.4,0 29.6,13.27 29.6,29.63" /><path
         id="path22"
         style="fill:#4b4ca9;fill-opacity:1;fill-rule:nonzero;stroke:none"
         d="m 10261,3717.49 v 0 c 0,16.36 -13.2,29.62 -29.6,29.62 h -248.93 v -59.25 h 248.93 c 16.4,0 29.6,13.27 29.6,29.63" /><path
         id="path24"
         style="fill:#4b4ca9;fill-opacity:1;fill-rule:nonzero;stroke:none"
         d="m 10167.7,4476.72 v 0 c 0,16.36 -13.2,29.62 -29.6,29.62 h -155.63 v -59.24 h 155.63 c 16.4,0 29.6,13.26 29.6,29.62" /><path
         id="path26"
         style="fill:#4b4ca9;fill-opacity:1;fill-rule:nonzero;stroke:none"
         d="m 10167.7,4223.64 v 0 c 0,16.36 -13.2,29.62 -29.6,29.62 h -155.63 v -59.24 h 155.63 c 16.4,0 29.6,13.27 29.6,29.62" /><path
         id="path28"
         style="fill:#4b4ca9;fill-opacity:1;fill-rule:nonzero;stroke:none"
         d="m 10167.7,3970.57 v 0 c 0,16.35 -13.2,29.62 -29.6,29.62 h -155.63 v -59.25 h 155.63 c 16.4,0 29.6,13.27 29.6,29.63" /><path
         id="path30"
         style="fill:#4b4ca9;fill-opacity:1;fill-rule:nonzero;stroke:none"
         d="m 10261,2705.19 v 0 c 0,16.35 -13.2,29.62 -29.6,29.62 h -248.93 v -59.24 h 248.93 c 16.4,0 29.6,13.26 29.6,29.62" /><path
         id="path32"
         style="fill:#4b4ca9;fill-opacity:1;fill-rule:nonzero;stroke:none"
         d="m 10167.7,3464.42 v 0 c 0,16.35 -13.2,29.61 -29.6,29.61 h -155.63 v -59.24 h 155.63 c 16.4,0 29.6,13.27 29.6,29.63" /><path
         id="path34"
         style="fill:#4b4ca9;fill-opacity:1;fill-rule:nonzero;stroke:none"
         d="m 10167.7,3211.34 v 0 c 0,16.36 -13.2,29.62 -29.6,29.62 h -155.63 v -59.25 h 155.63 c 16.4,0 29.6,13.27 29.6,29.63" /><path
         id="path36"
         style="fill:#4b4ca9;fill-opacity:1;fill-rule:nonzero;stroke:none"
         d="m 10167.7,2958.26 v 0 c 0,16.36 -13.2,29.62 -29.6,29.62 h -155.63 v -59.24 h 155.63 c 16.4,0 29.6,13.27 29.6,29.62" /><path
         id="path38"
         style="fill:#4b4ca9;fill-opacity:1;fill-rule:nonzero;stroke:none"
         d="m 10261,1675.61 v 34.55 c 0,6.81 -5.5,12.34 -12.3,12.34 h -266.23 v -59.24 h 266.23 c 6.8,0 12.3,5.53 12.3,12.35" /><path
         id="path40"
         style="fill:#4b4ca9;fill-opacity:1;fill-rule:nonzero;stroke:none"
         d="m 10167.7,2452.11 v 0 c 0,16.36 -13.2,29.62 -29.6,29.62 h -155.63 v -59.24 h 155.63 c 16.4,0 29.6,13.26 29.6,29.62" /><path
         id="path42"
         style="fill:#4b4ca9;fill-opacity:1;fill-rule:nonzero;stroke:none"
         d="m 10167.7,2199.03 v 0 c 0,16.36 -13.2,29.62 -29.6,29.62 h -155.63 v -59.23 h 155.63 c 16.4,0 29.6,13.26 29.6,29.61" /><path
         id="path44"
         style="fill:#4b4ca9;fill-opacity:1;fill-rule:nonzero;stroke:none"
         d="m 10167.7,1945.96 v 0 c 0,16.36 -13.2,29.62 -29.6,29.62 h -155.63 v -59.24 h 155.63 c 16.4,0 29.6,13.26 29.6,29.62" /><path
         id="path46"
         style="fill:#4b4ca9;fill-opacity:1;fill-rule:nonzero;stroke:none"
         d="m 10167.7,1439.81 v 0 c 0,16.35 -13.2,29.61 -29.6,29.61 h -155.63 v -59.23 h 155.63 c 16.4,0 29.6,13.26 29.6,29.62" /><path
         id="path48"
         style="fill:#4b4ca9;fill-opacity:1;fill-rule:nonzero;stroke:none"
         d="m 10167.7,1186.73 v 0 c 0,16.36 -13.2,29.62 -29.6,29.62 h -155.63 v -59.24 h 155.63 c 16.4,0 29.6,13.26 29.6,29.62" /><path
         id="path50"
         style="fill:#4b4ca9;fill-opacity:1;fill-rule:nonzero;stroke:none"
         d="m 10167.7,933.648 v 0 c 0,16.364 -13.2,29.622 -29.6,29.622 h -155.63 v -59.239 h 155.63 c 16.4,0 29.6,13.27 29.6,29.617" /><path
         id="path52"
         style="fill:#4b4ca9;fill-opacity:1;fill-rule:nonzero;stroke:none"
         d="M 9674.79,2615.48 H 1927.15 v 4425.3 c 0,69.71 56.53,126.23 126.23,126.23 h 7495.18 c 69.72,0 126.23,-56.52 126.23,-126.23 v -4425.3" /><path
         id="path54"
         style="fill:#ffffff;fill-opacity:1;fill-rule:nonzero;stroke:none"
         d="m 2298.42,2986.75 v 3808.99 h 7005.1 V 2986.75 h -7005.1" /><path
         id="path56"
         style="fill:#908ecf;fill-opacity:1;fill-rule:nonzero;stroke:none"
         d="M 9674.79,2615.48 H 1927.15 v -797.76 c 0,-69.72 56.53,-126.23 126.23,-126.23 h 7495.18 c 69.72,0 126.23,56.51 126.23,126.23 v 797.76" /><path
         id="path58"
         style="fill:#908ecf;fill-opacity:1;fill-rule:nonzero;stroke:none"
         d="M 7066.34,917.18 H 4535.6 c -70.42,0 -127.52,-57.09 -127.52,-127.508 0,-70.43 57.1,-127.52 127.52,-127.52 h 2530.74 c 70.43,0 127.52,57.09 127.52,127.52 0,70.418 -57.09,127.508 -127.52,127.508" /><path
         id="path60"
         style="fill:#6567ba;fill-opacity:1;fill-rule:nonzero;stroke:none"
         d="M 6574.59,1691.49 H 5027.35 l -136,-774.31 H 6710.6 l -136.01,774.31" /><path
         id="path62"
         style="fill:#6567ba;fill-opacity:1;fill-rule:nonzero;stroke:none"
         d="m 6006.61,2137.74 c 0,-113.57 -92.07,-205.64 -205.64,-205.64 -113.56,0 -205.63,92.07 -205.63,205.64 0,113.57 92.07,205.63 205.63,205.63 113.57,0 205.64,-92.06 205.64,-205.63" /><path
         id="path64"
         style="fill:#e8eef9;fill-opacity:1;fill-rule:nonzero;stroke:none"
         d="M 3176.84,2986.75 V 8354.5 H 8425.1 V 2986.75 H 3176.84" /><path
         id="path66"
         style="fill:#f03c83;fill-opacity:1;fill-rule:nonzero;stroke:none"
         d="m 3176.84,8354.5 v 303.07 c 0,39.93 32.37,72.3 72.3,72.3 h 5103.67 c 39.92,0 72.29,-32.37 72.29,-72.3 V 8354.5 H 3176.84" /><path
         id="path68"
         style="fill:#ffffff;fill-opacity:1;fill-rule:nonzero;stroke:none"
         d="M 3473.86,8354.5 V 2986.75 H 8128.08 V 8354.5 H 3473.86" /><path
         id="path70"
         style="fill:#ffffff;fill-opacity:1;fill-rule:nonzero;stroke:none"
         d="M 3473.86,8354.5 V 6024.32 H 8128.08 V 8354.5 H 3473.86" /><path
         id="path72"
         style="fill:#f1f1fa;fill-opacity:1;fill-rule:nonzero;stroke:none"
         d="m 3473.86,6024.32 v -1756.8 h 4654.22 v 1756.8 H 3473.86" /><path
         id="path74"
         style="fill:#f68ac1;fill-opacity:1;fill-rule:nonzero;stroke:none"
         d="m 3697.97,8545.94 c 0,-61.89 -50.16,-112.06 -112.06,-112.06 -61.88,0 -112.05,50.17 -112.05,112.06 0,61.89 50.17,112.06 112.05,112.06 61.9,0 112.06,-50.17 112.06,-112.06" /><path
         id="path76"
         style="fill:#f68ac1;fill-opacity:1;fill-rule:nonzero;stroke:none"
         d="M 5443.07,8489.91 H 3902.29 c -30.95,0 -56.03,25.09 -56.03,56.03 0,30.95 25.08,56.03 56.03,56.03 h 1540.78 c 30.95,0 56.04,-25.08 56.04,-56.03 0,-30.94 -25.09,-56.03 -56.04,-56.03" /><path
         id="path78"
         style="fill:#c6c1e6;fill-opacity:1;fill-rule:nonzero;stroke:none"
         d="M 4679.48,4699.33 H 3875.6 c -30.95,0 -56.02,25.09 -56.02,56.03 0,30.94 25.07,56.03 56.02,56.03 h 803.88 c 30.94,0 56.02,-25.09 56.02,-56.03 0,-30.94 -25.08,-56.03 -56.02,-56.03" /><path
         id="path80"
         style="fill:#c6c1e6;fill-opacity:1;fill-rule:nonzero;stroke:none"
         d="M 4679.48,4466.69 H 3875.6 c -30.95,0 -56.02,25.09 -56.02,56.04 0,30.93 25.07,56.02 56.02,56.02 h 803.88 c 30.94,0 56.02,-25.09 56.02,-56.02 0,-30.95 -25.08,-56.04 -56.02,-56.04" /><path
         id="path82"
         style="fill:#c6c1e6;fill-opacity:1;fill-rule:nonzero;stroke:none"
         d="m 7480.84,7481.29 h -1137.7 c -30.95,0 -56.03,25.08 -56.03,56.03 0,30.94 25.08,56.03 56.03,56.03 h 1137.7 c 30.95,0 56.04,-25.09 56.04,-56.03 0,-30.95 -25.09,-56.03 -56.04,-56.03" /><path
         id="path84"
         style="fill:#c6c1e6;fill-opacity:1;fill-rule:nonzero;stroke:none"
         d="m 7147.01,7251.57 h -803.87 c -30.95,0 -56.03,25.09 -56.03,56.03 0,30.95 25.08,56.03 56.03,56.03 h 803.87 c 30.94,0 56.03,-25.08 56.03,-56.03 0,-30.94 -25.09,-56.03 -56.03,-56.03" /><path
         id="path86"
         style="fill:#c6c1e6;fill-opacity:1;fill-rule:nonzero;stroke:none"
         d="m 7268.61,7021.86 h -925.47 c -30.95,0 -56.03,25.08 -56.03,56.02 0,30.95 25.08,56.03 56.03,56.03 h 925.47 c 30.95,0 56.02,-25.08 56.02,-56.03 0,-30.94 -25.07,-56.02 -56.02,-56.02" /><path
         id="path88"
         style="fill:#f68ac1;fill-opacity:1;fill-rule:nonzero;stroke:none"
         d="m 7222.92,6648.35 h -834.1 c -56.17,0 -101.71,45.54 -101.71,101.71 0,56.17 45.54,101.71 101.71,101.71 h 834.1 c 56.18,0 101.71,-45.54 101.71,-101.71 0,-56.17 -45.53,-101.71 -101.71,-101.71" /><path
         id="path90"
         style="fill:#f68ac1;fill-opacity:1;fill-rule:nonzero;stroke:none"
         d="m 7329.05,3180.29 h -834.11 c -56.18,0 -101.71,45.54 -101.71,101.71 0,56.17 45.53,101.71 101.71,101.71 h 834.11 c 56.17,0 101.71,-45.54 101.71,-101.71 0,-56.17 -45.54,-101.71 -101.71,-101.71" /><path
         id="path92"
         style="fill:#ebe8e7;fill-opacity:1;fill-rule:nonzero;stroke:none"
         d="M 6141.54,3180.29 H 4274.48 c -56.17,0 -101.71,45.54 -101.71,101.71 0,56.17 45.54,101.71 101.71,101.71 h 1867.06 c 56.17,0 101.71,-45.54 101.71,-101.71 0,-56.17 -45.54,-101.71 -101.71,-101.71" /><path
         id="path94"
         style="fill:#c6c1e6;fill-opacity:1;fill-rule:nonzero;stroke:none"
         d="m 6202.91,4699.33 h -803.87 c -30.95,0 -56.03,25.09 -56.03,56.03 0,30.94 25.08,56.03 56.03,56.03 h 803.87 c 30.94,0 56.03,-25.09 56.03,-56.03 0,-30.94 -25.09,-56.03 -56.03,-56.03" /><path
         id="path96"
         style="fill:#c6c1e6;fill-opacity:1;fill-rule:nonzero;stroke:none"
         d="m 6202.91,4466.69 h -803.87 c -30.95,0 -56.03,25.09 -56.03,56.04 0,30.93 25.08,56.02 56.03,56.02 h 803.87 c 30.94,0 56.03,-25.09 56.03,-56.02 0,-30.95 -25.09,-56.04 -56.03,-56.04" /><path
         id="path98"
         style="fill:#c6c1e6;fill-opacity:1;fill-rule:nonzero;stroke:none"
         d="M 6381.88,3839.7 H 5220.06 c -30.93,0 -56.02,25.08 -56.02,56.02 0,30.95 25.09,56.03 56.02,56.03 h 1161.82 c 30.94,0 56.03,-25.08 56.03,-56.03 0,-30.94 -25.09,-56.02 -56.03,-56.02" /><path
         id="path100"
         style="fill:#c6c1e6;fill-opacity:1;fill-rule:nonzero;stroke:none"
         d="m 6202.91,3607.06 h -803.87 c -30.95,0 -56.03,25.08 -56.03,56.03 0,30.94 25.08,56.02 56.03,56.02 h 803.87 c 30.94,0 56.03,-25.08 56.03,-56.02 0,-30.95 -25.09,-56.03 -56.03,-56.03" /><path
         id="path102"
         style="fill:#c6c1e6;fill-opacity:1;fill-rule:nonzero;stroke:none"
         d="M 7726.58,4699.33 H 6922.7 c -30.95,0 -56.03,25.09 -56.03,56.03 0,30.94 25.08,56.03 56.03,56.03 h 803.88 c 30.93,0 56.02,-25.09 56.02,-56.03 0,-30.94 -25.09,-56.03 -56.02,-56.03" /><path
         id="path104"
         style="fill:#c6c1e6;fill-opacity:1;fill-rule:nonzero;stroke:none"
         d="M 7726.58,4466.69 H 6922.7 c -30.95,0 -56.03,25.09 -56.03,56.04 0,30.93 25.08,56.02 56.03,56.02 h 803.88 c 30.93,0 56.02,-25.09 56.02,-56.02 0,-30.95 -25.09,-56.04 -56.02,-56.04" /><path
         id="path106"
         style="fill:#f68ac1;fill-opacity:1;fill-rule:nonzero;stroke:none"
         d="m 8072.06,8489.91 h -335.72 c -30.94,0 -56.02,25.09 -56.02,56.03 0,30.95 25.08,56.03 56.02,56.03 h 335.72 c 30.94,0 56.02,-25.08 56.02,-56.03 0,-30.94 -25.08,-56.03 -56.02,-56.03" /><path
         id="path108"
         style="fill:#f68ac1;fill-opacity:1;fill-rule:nonzero;stroke:none"
         d="M 4836.81,4981.32 H 3718.26 c -11.2,0 -20.29,9.09 -20.29,20.29 v 733.61 c 0,11.2 9.09,20.28 20.29,20.28 h 1118.55 c 11.2,0 20.28,-9.08 20.28,-20.28 v -733.61 c 0,-11.2 -9.08,-20.29 -20.28,-20.29" /><path
         id="path110"
         style="fill:#c6c1e6;fill-opacity:1;fill-rule:nonzero;stroke:none"
         d="M 6360.25,4981.32 H 5241.69 c -11.2,0 -20.28,9.09 -20.28,20.29 v 733.61 c 0,11.2 9.08,20.28 20.28,20.28 h 1118.56 c 11.2,0 20.28,-9.08 20.28,-20.28 v -733.61 c 0,-11.2 -9.08,-20.29 -20.28,-20.29" /><path
         id="path112"
         style="fill:#f68ac1;fill-opacity:1;fill-rule:nonzero;stroke:none"
         d="M 7883.91,4981.32 H 6765.36 c -11.2,0 -20.29,9.09 -20.29,20.29 v 733.61 c 0,11.2 9.09,20.28 20.29,20.28 h 1118.55 c 11.21,0 20.29,-9.08 20.29,-20.28 v -733.61 c 0,-11.2 -9.08,-20.29 -20.29,-20.29" /><path
         id="path114"
         style="fill:#cfaada;fill-opacity:1;fill-rule:nonzero;stroke:none"
         d="m 5358.7,6199.99 c 0,-24.63 -19.96,-44.6 -44.59,-44.6 -24.63,0 -44.59,19.97 -44.59,44.6 0,24.63 19.96,44.59 44.59,44.59 24.63,0 44.59,-19.96 44.59,-44.59" /><path
         id="path116"
         style="fill:#cfaada;fill-opacity:1;fill-rule:nonzero;stroke:none"
         d="m 5602.13,6199.99 c 0,-24.63 -19.97,-44.6 -44.6,-44.6 -24.61,0 -44.59,19.97 -44.59,44.6 0,24.63 19.98,44.59 44.59,44.59 24.63,0 44.6,-19.96 44.6,-44.59" /><path
         id="path118"
         style="fill:#cfaada;fill-opacity:1;fill-rule:nonzero;stroke:none"
         d="m 5845.57,6199.99 c 0,-24.63 -19.97,-44.6 -44.6,-44.6 -24.63,0 -44.59,19.97 -44.59,44.6 0,24.63 19.96,44.59 44.59,44.59 24.63,0 44.6,-19.96 44.6,-44.59" /><path
         id="path120"
         style="fill:#cfaada;fill-opacity:1;fill-rule:nonzero;stroke:none"
         d="m 6089,6199.99 c 0,-24.63 -19.96,-44.6 -44.59,-44.6 -24.63,0 -44.6,19.97 -44.6,44.6 0,24.63 19.97,44.59 44.6,44.59 24.63,0 44.59,-19.96 44.59,-44.59" /><path
         id="path122"
         style="fill:#cfaada;fill-opacity:1;fill-rule:nonzero;stroke:none"
         d="m 6332.44,6199.99 c 0,-24.63 -19.97,-44.6 -44.6,-44.6 -24.63,0 -44.59,19.97 -44.59,44.6 0,24.63 19.96,44.59 44.59,44.59 24.63,0 44.6,-19.96 44.6,-44.59" /><path
         id="path124"
         style="fill:#fef1f9;fill-opacity:1;fill-rule:nonzero;stroke:none"
         d="m 3473.86,6024.32 h 3902.16 c -36.41,74.89 -83.38,142.93 -146.47,198.66 -148.4,131.1 -355.2,166.53 -548.79,208.14 -233.51,50.19 -463.49,116.78 -687.69,199.09 -114.46,42.02 -233.08,92.34 -306.89,189.39 -69.37,91.2 -88.66,210.17 -99.59,324.24 -18.84,196.68 -19.45,395.21 -49.35,590.51 -29.91,195.31 -91.94,391.27 -218.12,543.31 -22.86,27.54 -47.83,53.16 -74.48,76.84 H 3473.86 V 6024.32" /><path
         id="path126"
         style="fill:#908ecf;fill-opacity:1;fill-rule:nonzero;stroke:none"
         d="m 5314.11,7065.7 c 0,-343.84 -278.74,-622.57 -622.58,-622.57 -343.84,0 -622.57,278.73 -622.57,622.57 0,343.84 278.73,622.57 622.57,622.57 343.84,0 622.58,-278.73 622.58,-622.57" /><path
         id="path128"
         style="fill:#f03c83;fill-opacity:1;fill-rule:nonzero;stroke:none"
         d="m 5756.38,7539.35 c 0,-218.9 -177.45,-396.35 -396.35,-396.35 -218.89,0 -396.34,177.45 -396.34,396.35 0,218.89 177.45,396.34 396.34,396.34 218.9,0 396.35,-177.45 396.35,-396.34" /><path
         id="path130"
         style="fill:#ffffff;fill-opacity:1;fill-rule:nonzero;stroke:none"
         d="m 9032.72,1956.55 c -97.42,0 -176.68,77.28 -176.68,172.27 v 1715.86 c 0,94.99 79.26,172.26 176.68,172.26 h 1832.08 c 97.4,0 176.7,-77.27 176.7,-172.26 V 2128.81 c 0,-94.98 -79.3,-172.26 -176.7,-172.26 H 9032.72" /><path
         id="path132"
         style="fill:#f365a4;fill-opacity:1;fill-rule:nonzero;stroke:none"
         d="m 9075.65,3866.5 c -36.57,0 -66.22,-27.78 -66.22,-62.03 V 2169.02 c 0,-34.24 29.65,-62.02 66.22,-62.02 h 1746.25 c 36.5,0 66.2,27.78 66.2,62.02 v 1394.36 241.08 c 0,34.26 -29.7,62.04 -66.2,62.04 H 9075.65" /><path
         id="path134"
         style="fill:#fbcae3;fill-opacity:1;fill-rule:nonzero;stroke:none"
         d="m 9009.43,2509.68 v -340.65 c 0,-34.26 29.65,-62.03 66.22,-62.03 h 1222.85 l -768.64,1246.91 -520.43,-844.23" /><path
         id="path136"
         style="fill:#f68ac1;fill-opacity:1;fill-rule:nonzero;stroke:none"
         d="m 10873.6,2130.43 -505.9,820.8 L 9847.22,2107 h 974.68 c 20.9,0 39.6,9.17 51.7,23.43" /><path
         id="path138"
         style="fill:#fef7fa;fill-opacity:1;fill-rule:nonzero;stroke:none"
         d="m 10663,3465.48 c 0,-97.14 -78.8,-175.89 -175.9,-175.89 -97.2,0 -175.9,78.75 -175.9,175.89 0,97.14 78.7,175.89 175.9,175.89 97.1,0 175.9,-78.75 175.9,-175.89" /><path
         id="path140"
         style="fill:#f68ac1;fill-opacity:1;fill-rule:nonzero;stroke:none"
         d="m 10431,7916.46 c 0,409.02 -331.6,740.61 -740.59,740.61 -409.03,0 -740.62,-331.59 -740.62,-740.61 0,-128.94 36.47,-256.23 101.6,-367.27 32.96,-56.17 73.18,-106.26 117.77,-153.52 42.56,-45.13 99.53,-74.44 139.99,-121.07 34.93,-40.27 39.12,-88.88 55.99,-137.06 20.67,-58.99 76.34,-98.49 138.84,-98.49 h 373.38 c 62.24,0 117.74,39.17 138.64,97.8 14.3,40.36 24.2,91.82 46.5,128.02 27.9,45.09 90.2,68.22 128.5,104.77 49.1,46.89 92.6,97.59 128.3,155.57 71.9,116.94 111.7,253.83 111.7,391.25" /><path
         id="path142"
         style="fill:#ffffff;fill-opacity:1;fill-rule:nonzero;stroke:none"
         d="m 9913.39,8378.77 c -7.66,0 -15.46,1.52 -22.94,4.74 -16.96,7.29 -34.49,13.71 -52.11,19.08 -30.7,9.36 -48,41.85 -38.65,72.56 9.37,30.71 41.89,48 72.56,38.65 21.69,-6.61 43.26,-14.51 64.14,-23.49 29.48,-12.68 43.12,-46.87 30.43,-76.37 -9.46,-22.01 -30.91,-35.17 -53.43,-35.17" /><path
         id="path144"
         style="fill:#ffffff;fill-opacity:1;fill-rule:nonzero;stroke:none"
         d="m 10256.6,7858.32 c -32.1,0 -58.1,26.03 -58.1,58.13 0,140.78 -56.5,271.79 -159.1,368.9 -23.3,22.07 -24.3,58.86 -2.2,82.18 22,23.32 58.8,24.33 82.1,2.26 124.2,-117.57 195.5,-282.8 195.5,-453.34 0,-32.1 -26.1,-58.13 -58.2,-58.13" /><path
         id="path146"
         style="fill:#908ecf;fill-opacity:1;fill-rule:nonzero;stroke:none"
         d="m 9997.22,7834.86 c -17.07,2.93 -33.32,-8.5 -36.28,-25.58 l -3.02,-17.48 -60.72,-40.27 c -24.61,-16.32 -57.22,-15.66 -81.16,1.65 l -45.88,33.17 c -46.45,33.6 -109.12,33.93 -155.94,0.84 l -49.2,-34.78 c -23.92,-16.91 -56.36,-17.35 -80.72,-1.08 l -55.12,36.8 -3.87,23.08 c -2.86,17.09 -19.06,28.63 -36.14,25.76 -17.09,-2.87 -28.64,-19.05 -25.77,-36.14 l 132.82,-792.29 c 2.57,-15.34 15.86,-26.2 30.91,-26.2 1.73,0 3.48,0.14 5.24,0.43 17.09,2.87 28.63,19.06 25.76,36.15 l -114.7,684.22 6.02,-4.02 c 22.38,-14.95 48.4,-22.4 74.39,-22.4 27.22,0 54.42,8.16 77.41,24.43 l 49.21,34.78 c 24.89,17.59 58.21,17.42 82.91,-0.45 l 45.88,-33.18 c 45.01,-32.54 106.36,-33.78 152.65,-3.09 l 11.32,7.51 -118.87,-687.64 c -2.95,-17.08 8.5,-33.32 25.58,-36.28 1.81,-0.31 3.61,-0.46 5.39,-0.46 14.99,0 28.24,10.78 30.89,26.05 l 136.59,790.2 c 3,17.08 -8.5,33.32 -25.58,36.27" /><path
         id="path148"
         style="fill:#908ecf;fill-opacity:1;fill-rule:nonzero;stroke:none"
         d="m 9900.66,7039.05 h -420.5 c -31.44,0 -56.93,-25.48 -56.93,-56.93 v -203.61 c 0,-31.44 25.49,-56.93 56.93,-56.93 h 51.31 c 19.01,-70.05 82.87,-121.63 158.94,-121.63 76.07,0 139.93,51.58 158.94,121.63 h 51.31 c 31.44,0 56.93,25.49 56.93,56.93 v 203.61 c 0,31.45 -25.49,56.93 -56.93,56.93" /><path
         id="path150"
         style="fill:#f68ac1;fill-opacity:1;fill-rule:nonzero;stroke:none"
         d="m 9693.51,8805.35 c -18.72,0 -33.9,15.18 -33.9,33.9 v 225.11 c 0,18.72 15.18,33.89 33.9,33.89 18.71,0 33.89,-15.17 33.89,-33.89 v -225.11 c 0,-18.72 -15.18,-33.9 -33.89,-33.9" /><path
         id="path152"
         style="fill:#f68ac1;fill-opacity:1;fill-rule:nonzero;stroke:none"
         d="m 10186.5,8654.96 c -8.5,-1.78 -17.6,-0.32 -25.5,4.81 -15.6,10.24 -20,31.24 -9.8,46.91 l 123.2,188.41 c 10.2,15.67 31.2,20.07 46.9,9.82 15.7,-10.24 20.1,-31.25 9.8,-46.91 l -123.2,-188.41 c -5.1,-7.84 -12.9,-12.86 -21.4,-14.63" /><path
         id="path154"
         style="fill:#f68ac1;fill-opacity:1;fill-rule:nonzero;stroke:none"
         d="m 10664.7,8412.73 -197.9,-107.43 c -16.4,-8.92 -37,-2.83 -45.9,13.62 -9,16.45 -2.9,37.03 13.6,45.96 l 197.8,107.42 c 16.5,8.93 37,2.83 46,-13.62 8.9,-16.45 2.8,-37.02 -13.6,-45.95" /><path
         id="path156"
         style="fill:#f68ac1;fill-opacity:1;fill-rule:nonzero;stroke:none"
         d="m 9212.29,8654.96 c 8.5,-1.78 17.67,-0.32 25.5,4.81 15.66,10.24 20.06,31.24 9.81,46.91 l -123.18,188.41 c -10.25,15.67 -31.25,20.07 -46.92,9.82 -15.66,-10.24 -20.05,-31.25 -9.82,-46.91 l 123.18,-188.41 c 5.13,-7.84 12.94,-12.86 21.43,-14.63" /><path
         id="path158"
         style="fill:#f68ac1;fill-opacity:1;fill-rule:nonzero;stroke:none"
         d="m 8734.15,8412.73 197.82,-107.43 c 16.44,-8.92 37.02,-2.83 45.95,13.62 8.94,16.45 2.85,37.03 -13.6,45.96 l -197.83,107.42 c -16.45,8.93 -37.02,2.83 -45.96,-13.62 -8.92,-16.45 -2.83,-37.02 13.62,-45.95" /><path
         id="path160"
         style="fill:#fef7fa;fill-opacity:1;fill-rule:nonzero;stroke:none"
         d="m 3377.66,4758.92 573.95,525.84 c 19.6,17.97 3.28,50.36 -22.83,45.29 l -764.13,-148.44 213.01,-422.69" /><path
         id="path162"
         style="fill:#f03c83;fill-opacity:1;fill-rule:nonzero;stroke:none"
         d="m 3163.68,5181.15 213,-422.7 -2830.774,-1426.48 -213,422.7 2830.774,1426.48" /><path
         id="path164"
         style="fill:#f68ac1;fill-opacity:1;fill-rule:nonzero;stroke:none"
         d="M 3318.9,4873.11 3376.68,4758.45 545.906,3331.97 488.137,3446.63 3318.9,4873.11" /><path
         id="path166"
         style="fill:#f68ac1;fill-opacity:1;fill-rule:nonzero;stroke:none"
         d="M 3163.68,5181.15 3221.45,5066.5 390.684,3640.02 332.906,3754.67 3163.68,5181.15" /><path
         id="path168"
         style="fill:#908ecf;fill-opacity:1;fill-rule:nonzero;stroke:none"
         d="m 25.3672,3334.68 v 0 C 84.1914,3217.96 226.492,3171.02 343.219,3229.84 l 202.687,102.13 -213,422.7 -202.691,-102.14 C 13.4922,3593.71 -33.4531,3451.41 25.3672,3334.68" /><path
         id="path170"
         style="fill:#6567ba;fill-opacity:1;fill-rule:nonzero;stroke:none"
         d="m 549.805,3863.98 213.008,-422.7 -216.907,-109.31 -213,422.7 216.899,109.31" /><path
         id="path172"
         style="fill:#f03c83;fill-opacity:1;fill-rule:nonzero;stroke:none"
         d="m 3928.78,5330.05 -272.16,-52.87 c 28.98,-55.92 63.11,-122.23 91.59,-178.77 l 203.4,186.35 c 19.6,17.97 3.28,50.36 -22.83,45.29" /><path
         id="path174"
         style="fill:#4b4ca9;fill-opacity:1;fill-rule:nonzero;stroke:none"
         d="m 1456.71,568.301 v 0 c 64.72,0 115.98,54.679 111.8,119.269 l -37.7,582.55 h -148.19 l -37.7,-582.55 c -4.18,-64.59 47.08,-119.269 111.79,-119.269" /><path
         id="path176"
         style="fill:#4b4ca9;fill-opacity:1;fill-rule:nonzero;stroke:none"
         d="m 1942.16,516.199 v 0 c 76.77,0 127.13,80.281 93.71,149.403 l -286.31,592.258 h -148.19 l 242.88,-672.911 c 14.9,-41.25 54.05,-68.75 97.91,-68.75" /><path
         id="path178"
         style="fill:#4b4ca9;fill-opacity:1;fill-rule:nonzero;stroke:none"
         d="m 936.742,516.199 v 0 c -76.777,0 -127.129,80.281 -93.715,149.403 l 286.323,592.258 h 148.18 L 1034.65,584.949 c -14.89,-41.25 -54.048,-68.75 -97.908,-68.75" /><path
         id="path180"
         style="fill:#4f50ab;fill-opacity:1;fill-rule:nonzero;stroke:none"
         d="m 897.516,1519.29 v -188.48 c 0,-67.75 251.824,-122.68 562.464,-122.68 310.64,0 562.47,54.93 562.47,122.68 v 188.48 H 897.516" /><path
         id="path182"
         style="fill:#6b6abc;fill-opacity:1;fill-rule:nonzero;stroke:none"
         d="m 897.516,1519.29 c 0,-67.76 251.824,-122.69 562.464,-122.69 310.64,0 562.47,54.93 562.47,122.69 0,67.76 -251.83,122.69 -562.47,122.69 -310.64,0 -562.464,-54.93 -562.464,-122.69" /><g
         id="g184"><g
           clip-path="url(#clipPath190)"
           id="g186"><path
             id="path198"
             style="fill:url(#linearGradient196);fill-opacity:1;fill-rule:nonzero;stroke:none"
             d="m 1268.51,1796.4 c 0,0 -45.09,-158.58 -14.86,-211.49 30.23,-52.9 303.8,-28.71 448.9,-28.71 145.1,0 182.88,24.18 128.47,77.08 -54.41,52.9 -251.06,63.23 -356.02,163.12 h -206.49" /></g></g><path
         id="path200"
         style="fill:#f03c83;fill-opacity:1;fill-rule:nonzero;stroke:none"
         d="m 1024.17,3289.97 c 0,0 0,-161.75 86.04,-378.55 86.03,-216.81 103.24,-382 103.24,-382 0,0 3.44,-289.08 17.2,-464.59 13.77,-175.51 37.86,-268.43 37.86,-268.43 H 1475 c 0,0 106.68,585.04 110.12,881 3.44,295.96 -180.28,712.38 -180.28,712.38 l -380.67,-99.81" /><path
         id="path202"
         style="fill:#f35da6;fill-opacity:1;fill-rule:nonzero;stroke:none"
         d="m 1254.75,3338.15 c 0,0 -44.75,-192.72 65.38,-320.05 110.13,-127.33 234.02,-450.82 234.02,-450.82 0,0 -115.68,-55.07 -154.2,-247.79 -38.52,-192.72 -83.26,-344.14 -83.26,-344.14 0,0 127.33,-20.65 158.31,-89.48 0,0 330.38,426.74 388.87,660.75 58.51,234.03 -75.7,743.35 -75.7,743.35 l -533.42,48.18" /><path
         id="path204"
         style="fill:#f797cb;fill-opacity:1;fill-rule:nonzero;stroke:none"
         d="m 902.316,3870.68 c 0,0 -59.039,-149.33 -31.257,-187.53 27.785,-38.2 179.691,-107.66 179.691,-107.66 v 277.83 l -148.434,17.36" /><path
         id="path206"
         style="fill:#4b4ca9;fill-opacity:1;fill-rule:nonzero;stroke:none"
         d="m 1230.44,4352.51 c 0,0 -205.8,-30.6 -310.756,-335.96 -38.204,-111.14 -48.625,-159.75 -48.625,-159.75 0,0 97.242,-48.17 201.431,-55.34 104.18,-7.18 157.95,551.05 157.95,551.05" /><path
         id="path208"
         style="fill:#f797cb;fill-opacity:1;fill-rule:nonzero;stroke:none"
         d="m 1474.62,5011.78 c 216.93,17.71 246.67,-167.1 241.37,-334.2 -5.3,-167.11 -33.92,-254.64 -120.41,-257.29 -86.47,-2.65 -372.94,122.02 -364.98,334.2 7.96,212.2 114.05,246.68 244.02,257.29" /><path
         id="path210"
         style="fill:#f797cb;fill-opacity:1;fill-rule:nonzero;stroke:none"
         d="m 1553.53,4469.5 c 0,0 -24.54,-111.34 -11.33,-156.65 13.22,-45.29 -124.56,-49.07 -207.61,-20.75 -83.04,28.3 -51.57,29.35 -26.42,139.66 25.15,110.32 18.87,152.88 18.87,152.88 l 226.49,-115.14" /><path
         id="path212"
         style="fill:#f797cb;fill-opacity:1;fill-rule:nonzero;stroke:none"
         d="m 2033.34,4010.26 175.65,-92.44 124.79,302.76 120.18,-57.78 c 0,0 32.62,-409.83 -201.06,-459.91 -64.71,-13.87 -376.71,143.29 -376.71,143.29 l 157.15,164.08" /><path
         id="path214"
         style="fill:#4b4ca9;fill-opacity:1;fill-rule:nonzero;stroke:none"
         d="m 1571.77,4345.63 c 278.65,-113.76 521.76,-329.08 521.76,-329.08 0,0 -8.09,-142.51 -107.67,-250.05 l -375.06,149.33 -39.03,429.8" /><path
         id="path216"
         style="fill:#4b4ca9;fill-opacity:1;fill-rule:nonzero;stroke:none"
         d="m 1417.16,4388.86 c -342.3,19.82 -361.37,-302.66 -405.56,-722.5 -26.877,-255.28 -40.311,-403.09 -26.877,-421 13.437,-17.92 174.667,44.79 380.697,35.83 206.02,-8.96 407.56,-76.14 452.35,-67.18 44.78,8.95 -44.79,640.45 -53.75,761.38 -8.96,120.93 -62.23,396.98 -346.86,413.47" /><path
         id="path218"
         style="fill:#f797cb;fill-opacity:1;fill-rule:nonzero;stroke:none"
         d="m 2333.78,4220.58 c 0,0 -34.39,46.45 -35.66,82.04 -1.27,35.58 -19.06,91.5 -36.86,101.67 -17.79,10.16 26.69,52.1 68.63,0 41.94,-52.11 26.69,-83.15 59.73,-79.06 33.04,4.08 161.83,69.49 211.39,98.72 49.56,29.23 106.76,22.34 68.62,-71.44 -38.12,-93.77 -172.93,-178.29 -215.67,-189.71 l -120.18,57.78" /><g
         id="g220"><g
           clip-path="url(#clipPath226)"
           id="g222"><path
             id="path234"
             style="fill:url(#linearGradient232);fill-opacity:1;fill-rule:nonzero;stroke:none"
             d="m 1453.1,1836.43 c 0,0 -13.51,102.26 -133.61,118.27 -32.85,4.38 -162.08,-142.36 -129.23,-214.64 32.86,-72.29 214.65,-173.04 271.6,-212.46 56.94,-39.43 179.6,-129.22 216.84,-89.8 37.22,39.43 0,120.46 -56.96,177.41 -56.94,56.95 -168.64,221.22 -168.64,221.22" /></g></g><g
         id="g236"><g
           clip-path="url(#clipPath242)"
           id="g238"><path
             id="path250"
             style="fill:url(#linearGradient248);fill-opacity:1;fill-rule:nonzero;stroke:none"
             d="m 1716.54,4900.5 c 6.89,-63.2 -84.3,19.01 -112.52,-170.37 -28.22,-189.39 -158.63,-238.85 -266.55,-229.86 -107.93,9 -137.16,159.64 -137.16,258.58 0,98.93 -22.49,255.29 125.91,254.11 148.4,-1.18 360.18,164.1 390.32,-112.46" /></g></g><path
         id="path252"
         style="fill:#908ecf;fill-opacity:1;fill-rule:nonzero;stroke:none"
         d="m 1571.77,4847.33 c 0,0 -136.18,-277.35 -406.72,-214.4 -270.527,62.96 1.53,240.11 1.53,240.11 l 405.19,-25.71" /><path
         id="path254"
         style="fill:#908ecf;fill-opacity:1;fill-rule:nonzero;stroke:none"
         d="m 1733.19,4913.99 c 0,0 -116.92,-92.18 -344.01,-80.94 -227.09,11.24 -222.6,39.99 -222.6,39.99 0,0 -38.22,306.27 267.57,306.27 305.79,0 299.04,-265.32 299.04,-265.32" /><path
         id="path256"
         style="fill:#f797cb;fill-opacity:1;fill-rule:nonzero;stroke:none"
         d="m 1628.8,4730.13 c 0,0 -52.69,84.9 -79.03,20.49 -26.35,-64.41 14.08,-141.05 70.88,-144.59 l 8.15,124.1" /><path
         id="path258"
         style="fill:#f797cb;fill-opacity:1;fill-rule:nonzero;stroke:none"
         d="m 7266.54,2457.93 c 0,0 -31.45,-56.18 -97.42,-56.18 -65.98,0 -83,-57.9 -95.78,-27.88 -12.76,30.01 19.16,76.39 55.34,84.06 36.18,7.67 88.42,85.76 137.86,81.84 49.42,-3.94 0,-81.84 0,-81.84" /><path
         id="path260"
         style="fill:#f797cb;fill-opacity:1;fill-rule:nonzero;stroke:none"
         d="m 7266.54,2571.23 c 0,0 -149.98,14.12 -196.06,0 -46.08,-14.12 -112.06,-138.54 -97.15,-159.33 14.89,-20.79 65.25,-34.39 97.52,-18.01 32.29,16.37 40.56,88.72 68.47,88.17 27.91,-0.55 146.45,17.72 146.45,17.72 l -19.23,71.45" /><path
         id="path262"
         style="fill:#f797cb;fill-opacity:1;fill-rule:nonzero;stroke:none"
         d="m 8090.04,2894.41 c -38.02,-32.11 -262.24,-272.01 -330.88,-323.18 -68.66,-51.17 -492.62,0 -492.62,0 v -113.3 c 0,0 339.9,-84.06 449.55,-84.06 109.65,0 310.66,142.54 310.66,142.54 l 63.29,378" /><path
         id="path264"
         style="fill:#f797cb;fill-opacity:1;fill-rule:nonzero;stroke:none"
         d="m 9234.87,797.191 c 0,0 145.27,82.5 181.9,-40.691 36.62,-123.199 19.97,-216.52 49.94,-313.02 29.96,-96.511 20.66,-225.718 -63.26,-129.808 -46.61,53.269 -155.09,304.879 -237.36,370.519 l 68.78,113" /><path
         id="path266"
         style="fill:#f797cb;fill-opacity:1;fill-rule:nonzero;stroke:none"
         d="m 8414.47,1371.95 c 0,0 0,-304.58 206.33,-447.04 206.32,-142.469 545.29,-240.719 545.29,-240.719 l 68.78,113 c 0,0 -353.71,275.099 -432.31,343.879 -78.6,68.77 -83.51,353.71 -83.51,353.71 l -304.58,-122.83" /><path
         id="path268"
         style="fill:#f797cb;fill-opacity:1;fill-rule:nonzero;stroke:none"
         d="m 8031.28,1465.29 c 0,0 -245.63,-368.43 -338.97,-982.52 l 142.47,-39.29 c 0,0 142.46,235.801 176.86,417.571 34.38,181.759 373.35,505.989 373.35,505.989 l -353.71,98.25" /><path
         id="path270"
         style="fill:#f797cb;fill-opacity:1;fill-rule:nonzero;stroke:none"
         d="m 7834.78,443.48 c 0,0 64.68,-173.089 -75.62,-186.41 -140.31,-13.32 -400,-29.961 -463.27,0 -63.26,29.969 276.35,119.86 319.63,149.84 43.28,29.961 76.79,75.86 76.79,75.86 l 142.47,-39.29" /><path
         id="path272"
         style="fill:#282b6c;fill-opacity:1;fill-rule:nonzero;stroke:none"
         d="m 7882.44,3451.28 c 0,0 -36.78,-299.45 -55.17,-556.87 0,0 141.85,78.8 328.35,78.8 l -47.29,546.37 -225.89,-68.3" /><path
         id="path274"
         style="fill:#f797cb;fill-opacity:1;fill-rule:nonzero;stroke:none"
         d="m 8158.58,3612.59 c -247.87,-20.1 -226.48,-270.89 -217.6,-430.76 8.89,-159.87 146.54,-195.39 297.54,-102.14 150.99,93.26 182.07,208.72 173.18,306.41 -8.87,97.7 -88.8,239.81 -253.12,226.49" /><path
         id="path276"
         style="fill:#6084cb;fill-opacity:1;fill-rule:nonzero;stroke:none"
         d="m 8174.69,2926.89 c 0,0 -115.04,-15.75 -133.32,-88.85 -18.27,-73.1 -140.06,-328.94 -49.92,-464.17 90.13,-135.24 137.65,-153.51 137.65,-233.92 0,-80.41 -339.91,-325.2 -369.15,-632.29 -14.62,-153.51 175.44,-116.97 303.36,-142.55 127.92,-25.59 197.36,-182.75 467.83,-98.68 270.46,84.06 592.09,113.3 654.23,274.12 62.13,160.82 -131.59,252.19 -259.51,350.87 -127.92,98.68 -369.14,270.47 -369.14,372.8 0,102.33 151.27,594.57 -25.58,630.19 -176.87,35.61 -356.45,32.48 -356.45,32.48" /><path
         id="path278"
         style="fill:#f797cb;fill-opacity:1;fill-rule:nonzero;stroke:none"
         d="m 8115.52,3062.78 c 0,0 46.15,-89.36 40.1,-142.55 -6.05,-53.2 -46.47,-27.67 -59.25,-63.84 -12.76,-36.17 -21.28,-197.89 131.93,-178.74 153.2,19.16 208.06,117.06 206.39,180.87 -2.1,80.46 -85.11,48.93 -100,91.49 -14.9,42.56 -31.92,227.68 -31.92,227.68 l -187.25,-114.91" /><path
         id="path280"
         style="fill:#f797cb;fill-opacity:1;fill-rule:nonzero;stroke:none"
         d="m 8556.72,2841.7 c 180.19,-122.07 -179.31,-504.38 -294.33,-584.78 -115.02,-80.41 -503.23,40.19 -503.23,40.19 0,0 -10.18,73.11 44.64,98.68 0,0 307.02,7.32 391.09,32.9 84.06,25.59 248.52,489.76 361.83,413.01" /><path
         id="path282"
         style="fill:#ffffff;fill-opacity:1;fill-rule:nonzero;stroke:none"
         d="m 8711.56,1102.4 -2533.8,655.97 c -25.63,6.63 -41.02,32.78 -34.39,58.4 l 209.02,807.35 c 6.63,25.62 32.78,41.01 58.4,34.38 l 2533.8,-655.97 c 25.62,-6.63 41.01,-32.78 34.38,-58.4 l -209.01,-807.35 c -6.63,-25.62 -32.78,-41.02 -58.4,-34.38" /><path
         id="path284"
         style="fill:#f35da6;fill-opacity:1;fill-rule:nonzero;stroke:none"
         d="m 7003.77,1664.01 -677.43,175.39 c -16.89,4.37 -27.05,21.62 -22.67,38.51 l 159.21,614.96 c 4.37,16.91 21.62,27.05 38.51,22.68 l 677.43,-175.37 c 16.9,-4.38 27.05,-21.62 22.68,-38.53 l -159.21,-614.96 c -4.37,-16.89 -21.62,-27.05 -38.52,-22.68" /><path
         id="path286"
         style="fill:#d1c9e9;fill-opacity:1;fill-rule:nonzero;stroke:none"
         d="m 8507.53,1810.63 c -3.99,0 -8.04,0.49 -12.08,1.54 l -1149.21,297.52 c -25.71,6.65 -41.14,32.88 -34.5,58.56 6.67,25.7 32.9,41.14 58.58,34.5 l 1149.22,-297.52 c 25.7,-6.66 41.13,-32.89 34.49,-58.58 -5.62,-21.65 -25.13,-36.02 -46.5,-36.02" /><path
         id="path288"
         style="fill:#d1c9e9;fill-opacity:1;fill-rule:nonzero;stroke:none"
         d="m 7845.48,1757 c -3.98,0 -8.04,0.5 -12.08,1.55 l -541.75,140.24 c -25.71,6.66 -41.14,32.88 -34.5,58.57 6.66,25.7 32.89,41.11 58.58,34.49 l 541.76,-140.25 c 25.7,-6.66 41.13,-32.88 34.49,-58.57 -5.62,-21.66 -25.12,-36.03 -46.5,-36.03" /><path
         id="path290"
         style="fill:#d1c9e9;fill-opacity:1;fill-rule:nonzero;stroke:none"
         d="m 7799.05,1577.62 c -3.99,0 -8.04,0.5 -12.08,1.54 l -541.77,140.26 c -25.7,6.66 -41.13,32.88 -34.49,58.57 6.67,25.7 32.91,41.12 58.57,34.48 l 541.78,-140.25 c 25.69,-6.66 41.12,-32.88 34.48,-58.58 -5.61,-21.65 -25.12,-36.02 -46.49,-36.02" /><path
         id="path292"
         style="fill:#f797cb;fill-opacity:1;fill-rule:nonzero;stroke:none"
         d="m 7803.8,2395.79 c 0,0 -187.76,48.09 -255.87,-21.92 -68.1,-70.01 -82.99,-110.45 -36.18,-133.86 46.83,-23.41 96.81,-42.76 132.47,-10.74 35.67,32.02 84.35,76.77 114.94,67.84 30.57,-8.92 44.64,98.68 44.64,98.68" /><path
         id="path294"
         style="fill:#f797cb;fill-opacity:1;fill-rule:nonzero;stroke:none"
         d="m 7791.65,2338.88 c 0,0 19.17,-42.71 -58.56,-101 -34.05,-25.54 -69.86,0.97 -13.65,50.5 56.21,49.53 72.21,50.5 72.21,50.5" /><path
         id="path296"
         style="fill:#282b6c;fill-opacity:1;fill-rule:nonzero;stroke:none"
         d="m 8197.64,3406.62 c 0,0 -288.93,-39.39 -370.37,21.02 0,0 55.17,344.11 383.51,344.11 165.48,0 262.67,-133.97 312.58,-246.91 49.92,-112.96 78.8,-496.01 78.8,-496.01 0,0 -244.28,-147.56 -354.61,-147.56 0,0 39.41,373.01 -49.91,525.35" /><path
         id="path298"
         style="fill:#f03c83;fill-opacity:1;fill-rule:nonzero;stroke:none"
         d="m 7456.37,348.582 c 23.97,-85.293 313.73,15.34 386.06,68.707 0,0 34.2,-69.137 0,-165.008 -34.19,-95.871 -574.79,-61.281 -577.44,-12 -2.67,49.278 191.38,108.301 191.38,108.301" /><path
         id="path300"
         style="fill:#f03c83;fill-opacity:1;fill-rule:nonzero;stroke:none"
         d="m 9234.87,797.191 c 0,0 136.91,103.649 189.3,-25.781 52.39,-129.43 96.19,-488.441 58.11,-499.23 -38.08,-10.778 -83.9,42.09 -109.31,86.992 0,0 40.41,8.551 25,100.988 -15.41,92.449 -62.73,339.68 -163.1,337.031" /></g></g></svg>