<?xml version="1.0" encoding="UTF-8" standalone="no"?>
<!-- Created with Inkscape (http://www.inkscape.org/) -->

<svg
   version="1.1"
   id="svg2"
   width="2592.3201"
   height="1801.6533"
   viewBox="0 0 2592.3201 1801.6533"
   sodipodi:docname="reshot-illustration-digital-marketing-for-social-media-KRFZC58HLE.eps"
   xmlns:inkscape="http://www.inkscape.org/namespaces/inkscape"
   xmlns:sodipodi="http://sodipodi.sourceforge.net/DTD/sodipodi-0.dtd"
   xmlns="http://www.w3.org/2000/svg"
   xmlns:svg="http://www.w3.org/2000/svg">
  <defs
     id="defs6" />
  <sodipodi:namedview
     id="namedview4"
     pagecolor="#ffffff"
     bordercolor="#000000"
     borderopacity="0.25"
     inkscape:showpageshadow="2"
     inkscape:pageopacity="0.0"
     inkscape:pagecheckerboard="0"
     inkscape:deskcolor="#d1d1d1" />
  <g
     id="g8"
     inkscape:groupmode="layer"
     inkscape:label="ink_ext_XXXXXX"
     transform="matrix(1.3333333,0,0,-1.3333333,0,1801.6533)">
    <g
       id="g10"
       transform="scale(0.1)">
      <path
         d="m 17255.3,980.203 c -107.4,-24.801 -225.9,-28.101 -353.9,-2.004 -308.7,63.001 -443.9,-46.297 -556.7,-155.597 -110,-106.602 -198.7,-213.102 -406,-160.2 -420.1,107.2 -688,487.098 -688,487.098 l 950,1408.4 98.8,146.6 c 0,0 163,103.2 373.6,178.7 152.1,54.9 329.3,95.4 487.7,72.1 82.2,-12.1 160,15.6 234.3,68.1 102.9,72.7 198.9,193 290.3,321.1 145.3,203.01 279.2,425.3 411.3,507.42 118.5,73.61 305.2,144.94 507.6,146.69 148.5,1.36 305.5,-34.78 450,-135.06 116.6,-80.87 225.1,-203.54 314.2,-381.95 206.1,-412.2 -53.6,-693.9 -353.5,-858.7 -137.4,-75.6 -283.1,-126.8 -396.3,-154.6 -59.8,-14.7 -110.3,-23 -145.9,-25 -96.8,-5.6 -204.9,-56.8 -300.7,-138.2 -94.3,-79.7 -177,-188.7 -225.6,-311.9 -30,-76 -47.1,-157.5 -46,-240.8 2.2,-163.8 -79.9,-366.9 -228.7,-526.5 -106.8,-114.7 -247.9,-206.7 -416.5,-245.697"
         style="fill:#4fc182;fill-opacity:1;fill-rule:nonzero;stroke:none"
         id="path12" />
      <path
         d="m 19015,2622.9 c -137.4,-75.6 -283.1,-126.8 -396.3,-154.6 52.8,145.2 89.6,322.6 20.8,442.9 -119.1,208.6 -238.3,795.12 -35.2,1087.41 148.5,1.36 305.5,-34.78 450,-135.06 -149,-157.64 -328.3,-446.35 -151.9,-819.05 83.6,-176.7 112.8,-314.8 112.6,-421.6"
         style="fill:#40bb76;fill-opacity:1;fill-rule:nonzero;stroke:none"
         id="path14" />
      <path
         d="m 17946.5,1993.2 c -42.4,153.9 -153,473 -388.2,706.9 -97.3,96.7 -144.6,211 -163.2,323.3 102.9,72.7 198.9,193 290.3,321.1 -4.9,-133.8 22.3,-291.1 136.1,-425.1 156.4,-184.2 298.9,-409.8 350.6,-614.3 -94.3,-79.7 -177,-188.7 -225.6,-311.9"
         style="fill:#40bb76;fill-opacity:1;fill-rule:nonzero;stroke:none"
         id="path16" />
      <path
         d="m 17255.3,980.203 c -72.4,180.197 -189.9,392.397 -375.8,553.697 -306.7,265.7 -631.9,720.9 -678.8,1024 l 98.8,146.6 c 0,0 163,103.2 373.6,178.7 -73.9,-249.8 -117.1,-682.5 320.7,-975.2 353.9,-236.5 564.5,-487.9 678,-682.1 -106.8,-114.7 -247.9,-206.7 -416.5,-245.697"
         style="fill:#40bb76;fill-opacity:1;fill-rule:nonzero;stroke:none"
         id="path18" />
      <path
         d="m 16442.5,1826.2 v 53.5 c 11.6,7.3 23.1,14.7 34.7,22 0.6,-8 1.6,-15.9 3.1,-23.8 l 4.4,0.1 c 1.7,11 3.7,21.7 6.1,32.4 8.9,5.6 17.8,11.3 26.7,16.9 9.3,-12.4 18.7,-24.7 28.3,-37 -34.4,-21.4 -68.8,-42.8 -103.3,-64.1 m 373.6,234.7 c -10.2,11.5 -20,23.2 -29.2,34.9 159.1,98.6 318.7,196.3 477.9,294.7 l 368.1,227.9 c 6.5,-7.8 12.9,-15.7 19.1,-23.6 l -358.1,-228.3 c -23.2,-5 -46.1,-11.3 -68.6,-19.5 l 0.8,-4.4 c 9.7,-0.3 19.4,-0.6 29,-0.8 -146.4,-93.5 -292.5,-187.6 -439,-280.9 m 1118.5,714.1 c -5,6.9 -10,13.8 -15.1,20.7 l 200.2,123.9 c 0.5,-3.5 1,-7.1 1.6,-10.7 l 4.5,-0.3 c 2,6.2 4,12.3 5.9,18.4 l 410.1,252.5 c 1.1,-4.7 2.3,-9.3 3.4,-14 l -411.3,-263.4 -199.3,-127.1 m 894.6,572.5 c 0,3 0,6.1 0,9.1 l 151.2,93 2.4,-3.8 -153.6,-98.3"
         style="fill:#9eddb9;fill-opacity:1;fill-rule:nonzero;stroke:none"
         id="path20" />
      <path
         d="m 18545.2,3165.5 c -1.1,4.7 -2.3,9.3 -3.4,14 l 287.4,177.1 c 0,-3 0,-6.1 0,-9.1 l -284,-182"
         style="fill:#96dab3;fill-opacity:1;fill-rule:nonzero;stroke:none"
         id="path22" />
      <path
         d="m 17652,2594.8 c -6.2,7.9 -12.6,15.8 -19.1,23.6 l 286.6,177.3 c 5.1,-6.9 10.1,-13.8 15.1,-20.7 L 17652,2594.8"
         style="fill:#96dab3;fill-opacity:1;fill-rule:nonzero;stroke:none"
         id="path24" />
      <path
         d="m 16545.8,1890.3 c -9.6,12.3 -19,24.6 -28.3,37 89.5,56.6 179.3,112.7 269.4,168.5 9.2,-11.7 19,-23.4 29.2,-34.9 -89.9,-57.2 -179.9,-114.2 -270.3,-170.6"
         style="fill:#96dab3;fill-opacity:1;fill-rule:nonzero;stroke:none"
         id="path26" />
      <path
         d="m 18125.8,2908.6 -4.5,0.3 c -0.6,3.6 -1.1,7.2 -1.6,10.7 -3,22.6 -3.8,45.2 -3.6,67.6 0.1,26.1 2.1,51.9 4.8,77.7 5.1,51.7 21,101.4 34.9,151.2 14.4,49.4 27.7,98.1 38.2,148.1 11.2,49.7 20.2,100.1 25.5,150.89 l 4.5,-0.05 c 1.8,-51.64 -2.5,-103.14 -7.9,-154.54 -6.1,-51.2 -15.4,-102.5 -25.4,-152.7 -9.9,-49.9 -14.1,-100.7 -25.6,-150.2 -9.8,-43.5 -19.9,-87 -33.4,-130.6 -1.9,-6.1 -3.9,-12.2 -5.9,-18.4"
         style="fill:#9eddb9;fill-opacity:1;fill-rule:nonzero;stroke:none"
         id="path28" />
      <path
         d="m 17834.8,2295.6 c -7.6,0.3 -15.2,0.6 -22.8,1 -33.1,2.1 -66.3,5.2 -99.4,10.2 -16.6,2.1 -33,5.4 -49.5,8.3 -16.4,3.6 -33.3,7.5 -48.5,10.4 -15.4,3.6 -31.4,5.2 -47.2,7.4 -16,1.2 -31.9,2.9 -48,3.1 -32,1.5 -64.3,1.9 -96.6,3 -55.3,1.7 -111,1.5 -167.7,2.8 -9.6,0.2 -19.3,0.5 -29,0.8 l -0.8,4.4 c 22.5,8.2 45.4,14.5 68.6,19.5 9.5,2.1 19,4 28.6,5.7 32.9,6 66.2,9.8 99.7,11.6 10,0.6 20.1,0.8 30.1,0.8 57.2,0 114.7,-8.8 170.8,-24.2 16.8,-4.6 31.8,-9.1 47.4,-13.6 15.7,-3.9 31.3,-8.2 47.3,-11.4 31.7,-6.9 64,-12.2 96.4,-16.4 3.4,-0.5 6.7,-1 10.1,-1.4 3.5,-7.4 7,-14.7 10.5,-22"
         style="fill:#9eddb9;fill-opacity:1;fill-rule:nonzero;stroke:none"
         id="path30" />
      <path
         d="m 17897.2,2294.4 c -20.8,0 -41.6,0.4 -62.4,1.2 -3.5,7.3 -7,14.6 -10.5,22 61.5,-8.4 123.8,-12.6 186.2,-14 l 0.2,-4.5 c -37.8,-3.3 -75.6,-4.7 -113.5,-4.7"
         style="fill:#96dab3;fill-opacity:1;fill-rule:nonzero;stroke:none"
         id="path32" />
      <path
         d="m 16671.5,2302.9 c -5.1,14.3 -9.8,28.7 -14,43 39.4,57.1 80.9,112.5 123.7,166.8 49.7,61.5 100.4,122.1 154.3,179.8 l 3.3,-2.9 c -48.2,-62.2 -95.1,-125.5 -139.6,-190.3 -44.9,-64.1 -87.9,-129.4 -127.7,-196.4"
         style="fill:#9eddb9;fill-opacity:1;fill-rule:nonzero;stroke:none"
         id="path34" />
      <path
         d="m 16501.2,1949.2 c -6.8,9.3 -13.6,18.5 -20.2,27.8 1.1,7.3 2.5,14.6 3.9,21.7 8.1,39.8 21.5,78 36.6,115.3 30.2,74.8 75.3,141.2 119.2,207.2 5.6,8.3 11.2,16.5 16.8,24.7 4.2,-14.3 8.9,-28.7 14,-43 -0.1,-0.3 -0.3,-0.6 -0.5,-0.9 -19.9,-33.6 -38.8,-67.9 -56.3,-102.7 -17.7,-34.6 -35.3,-69.1 -52.4,-103.8 -23.3,-47.6 -45.6,-95.6 -61.1,-146.3"
         style="fill:#96dab3;fill-opacity:1;fill-rule:nonzero;stroke:none"
         id="path36" />
      <path
         d="m 16480.3,1877.9 c -1.5,7.9 -2.5,15.8 -3.1,23.8 -2,25 -0.2,50.4 3.8,75.3 6.6,-9.3 13.4,-18.5 20.2,-27.8 -3.9,-12.7 -7.4,-25.7 -10.4,-38.8 -2.4,-10.7 -4.4,-21.4 -6.1,-32.4 l -4.4,-0.1"
         style="fill:#9eddb9;fill-opacity:1;fill-rule:nonzero;stroke:none"
         id="path38" />
      <path
         d="m 16442.5,1362.1 v 21.1 c 61.8,5 123.5,13.8 184.3,27.1 l 1.3,-4.3 c -60.4,-19.9 -122.7,-33.5 -185.6,-43.9"
         style="fill:#9eddb9;fill-opacity:1;fill-rule:nonzero;stroke:none"
         id="path40" />
      <path
         d="m 17082.3,3200.5 c -93.7,-43.8 -201.9,-69.8 -324.4,-70.8 -583.8,-4.4 -415.7,-493.9 -822.2,-477.2 -406.5,16.6 -726.4,313.1 -726.4,313.1 l 597.8,1477.8 62.2,153.82 c 0,0 129.5,126.36 308.2,236.69 128.9,80.04 283.7,151.68 433.6,161.11 77.8,4.95 143.8,45.46 201.8,108.18 80.2,86.75 145,215.9 203.9,351.25 93.9,214.61 173.5,444.71 278.8,545.83 94.4,90.63 251.9,192.45 437.4,233.47 136.1,30.16 287.2,27.55 439.3,-36.38 122.8,-51.52 246.2,-143.02 362.8,-289.47 269.5,-338.23 85.9,-647.3 -157.3,-856.99 -111.4,-96.15 -235.2,-171.49 -333.7,-219.06 -52,-25.15 -96.7,-42.56 -129.1,-51.39 -87.7,-23.92 -177,-91.96 -249.1,-185.33 -71,-91.55 -125.7,-207.72 -146.3,-330.22 -12.8,-75.63 -12.6,-153.81 4.6,-230.07 33.9,-149.88 -1.9,-352.31 -107.4,-527.74 -75.7,-126.1 -187.3,-238 -334.5,-306.6"
         style="fill:#4fc182;fill-opacity:1;fill-rule:nonzero;stroke:none"
         id="path42" />
      <path
         d="m 18377.8,5050.91 c -111.4,-96.15 -235.2,-171.49 -333.7,-219.06 20.2,143.53 19.4,313.54 -67.1,410.62 -150,168.26 -373.6,683.43 -244,991.28 136.1,30.16 287.2,27.55 439.3,-36.38 -106.1,-173.71 -214.5,-473.65 20.1,-781.37 111.1,-145.9 164.8,-267.06 185.4,-365.09"
         style="fill:#40bb76;fill-opacity:1;fill-rule:nonzero;stroke:none"
         id="path44" />
      <path
         d="m 17519.6,4264.91 c -68.9,132.95 -232.6,404.35 -494,573.24 -108.1,69.84 -173.8,165.61 -212.7,265.05 80.2,86.75 145,215.9 203.9,351.25 21.6,-123.77 77.2,-262.9 207.8,-363.74 179.3,-138.58 354.1,-317.98 441.3,-495.58 -71,-91.55 -125.7,-207.72 -146.3,-330.22"
         style="fill:#40bb76;fill-opacity:1;fill-rule:nonzero;stroke:none"
         id="path46" />
      <path
         d="m 17082.3,3200.5 c -101.5,151.3 -250.7,323.23 -452.8,435.05 -333.2,184.22 -720.3,538.72 -822.4,807.85 l 62.2,153.82 c 0,0 129.5,126.36 308.2,236.69 -19.3,-243.7 25.3,-649.31 484.2,-832.68 370.9,-148.18 613.1,-338.03 755.1,-494.13 -75.7,-126.1 -187.3,-238 -334.5,-306.6"
         style="fill:#40bb76;fill-opacity:1;fill-rule:nonzero;stroke:none"
         id="path48" />
      <path
         d="m 16468.8,4106.95 c -9,6.64 -17.8,13.41 -26.3,20.28 v 13.12 c 124.4,119.09 249.5,237.56 374,356.53 l 293.5,280.8 c 7.5,-5.88 14.9,-11.85 22.2,-17.87 l -284.3,-279.29 c -20.3,-9.15 -40.2,-19.35 -59.2,-31.29 l 1.6,-3.91 c 9,1.61 17.9,3.26 26.8,4.94 -116.2,-114.35 -232,-229.13 -348.3,-343.31 m 887.7,873.24 c -6,5.4 -11.9,10.76 -17.9,16.08 l 159.6,152.72 c 1.2,-3.18 2.3,-6.34 3.6,-9.5 l 4.1,0.58 c 0.7,6.02 1.3,12.03 1.9,18.02 l 327.2,311.64 c 2,-4.09 4,-8.14 5.9,-12.17 l -326.2,-321.95 -158.2,-155.42 m 709.7,699.66 c -0.6,2.77 -1.2,5.57 -1.8,8.34 l 120.7,114.86 2.9,-3.02 -121.8,-120.18"
         style="fill:#9eddb9;fill-opacity:1;fill-rule:nonzero;stroke:none"
         id="path50" />
      <path
         d="m 17840.9,5457.56 c -1.9,4.03 -3.9,8.08 -5.9,12.17 l 229.4,218.46 c 0.6,-2.77 1.2,-5.57 1.8,-8.34 l -225.3,-222.29"
         style="fill:#96dab3;fill-opacity:1;fill-rule:nonzero;stroke:none"
         id="path52" />
      <path
         d="m 17132.2,4759.81 c -7.3,6.02 -14.7,11.99 -22.2,17.87 l 228.6,218.59 c 6,-5.32 11.9,-10.68 17.9,-16.08 l -224.3,-220.38"
         style="fill:#96dab3;fill-opacity:1;fill-rule:nonzero;stroke:none"
         id="path54" />
      <path
         d="m 16442.5,4081.2 v 46.03 c 8.5,-6.87 17.3,-13.64 26.3,-20.28 -8.8,-8.58 -17.5,-17.17 -26.3,-25.75"
         style="fill:#96dab3;fill-opacity:1;fill-rule:nonzero;stroke:none"
         id="path56" />
      <path
         d="m 17501.8,5139.49 c -1.3,3.16 -2.4,6.32 -3.6,9.5 -7.1,20.15 -12.2,40.7 -16.4,61.35 -5.1,23.9 -8.3,48.03 -10.8,72.22 -5.3,48.43 -0.4,97.22 2.6,145.6 3.6,48.1 6.3,95.43 6.2,143.35 0.7,47.83 -0.9,95.84 -5.9,143.49 l 4.1,0.83 c 11.7,-47.09 17.8,-95.18 22.8,-143.41 4.4,-48.15 5.9,-97.07 6.5,-145.1 0.6,-47.75 6.6,-95.21 5.7,-142.85 -0.5,-41.85 -1.3,-83.71 -5.2,-126.38 -0.6,-5.99 -1.2,-12 -1.9,-18.02 l -4.1,-0.58"
         style="fill:#9eddb9;fill-opacity:1;fill-rule:nonzero;stroke:none"
         id="path58" />
      <path
         d="m 16790.3,4445.32 -1.6,3.91 c 19,11.94 38.9,22.14 59.2,31.29 8.3,3.75 16.7,7.33 25.1,10.78 29.1,11.89 58.9,21.88 89.3,30.07 48.1,13.03 98.2,18.81 148.7,18.81 13.4,0 26.8,-0.4 40.2,-1.19 16.4,-0.91 31,-2.13 46.2,-3.29 13.6,-0.45 27.3,-1.22 41,-1.22 1.5,0 3.1,0.01 4.6,0.03 2.1,-0.01 4.2,-0.02 6.3,-0.02 28.4,0 56.9,1.39 85.4,3.64 3.2,0.22 6.4,0.44 9.5,0.68 4.7,-6.05 9.4,-12.08 13.9,-18.09 -7,-1.21 -14,-2.37 -21,-3.49 -30.9,-4.57 -61.9,-8.15 -93.3,-10.05 -15.6,-1.27 -31.3,-1.45 -47.1,-1.98 -11.2,0.08 -22.6,0.23 -33.5,0.23 -4.5,0 -8.8,-0.03 -13,-0.09 -0.9,0.02 -1.9,0.02 -2.8,0.02 -14,0 -28,-1.52 -41.9,-2.44 -15,-2.05 -29.9,-3.56 -44.7,-6.53 -29.7,-4.84 -59.4,-10.76 -89.2,-16.08 -51.2,-9.14 -102.3,-20.17 -154.5,-30.05 -8.9,-1.68 -17.8,-3.33 -26.8,-4.94"
         style="fill:#9eddb9;fill-opacity:1;fill-rule:nonzero;stroke:none"
         id="path60" />
      <path
         d="m 17358.1,4520.72 c -4.5,6.01 -9.2,12.04 -13.9,18.09 58.1,4.33 116.2,12.56 173.7,23.41 l 1,-4.08 c -52.6,-15.99 -106.4,-28.03 -160.8,-37.42"
         style="fill:#96dab3;fill-opacity:1;fill-rule:nonzero;stroke:none"
         id="path62" />
      <path
         d="m 16442.5,4673.47 v 14.89 c 4.3,7.22 8.5,14.43 12.9,21.61 l 3.7,-2.03 c -5.6,-11.47 -11.1,-22.96 -16.6,-34.47"
         style="fill:#9eddb9;fill-opacity:1;fill-rule:nonzero;stroke:none"
         id="path64" />
      <path
         d="m 6795.06,1375.8 v 1732.1 h 1412.19 l -126.32,-1459 C 7550.26,1437.2 7055.81,1386.6 6795.06,1375.8 M 1645.83,3373.2 c -45.65,44.3 -94.39,83.3 -146.15,114.1 -77.38,46.23 -161.58,74.09 -252.44,74.09 -14.34,0 -28.86,-0.69 -43.53,-2.12 -379.968,1124.68 147.05,2070.57 721.38,2394.01 761.2,428.67 631.23,922.09 817.38,1795.6 186.17,873.5 -1476.12,2795.92 127.31,3666.72 491.97,267.2 921.65,380.1 1315.33,380.1 889.4,0 1594.77,-576.3 2417.58,-1250.9 12.9,-10.6 26.35,-21 40.52,-31.3 H 3383.23 c -116.69,0 -211.28,-94.6 -211.28,-211.3 V 5629.48 H 1938.4 c -161.56,0 -292.57,-131.01 -292.57,-292.57 V 3373.2 M 16442.5,5449.19 v 81.18 h -1209 V 9402.8 c 603.5,-165.12 1400.8,-514 1787.5,-1240.03 475.7,-892.95 -167.7,-2094.55 -578.5,-2713.58"
         style="fill:#eaeffa;fill-opacity:1;fill-rule:nonzero;stroke:none"
         id="path66" />
      <path
         d="M 9678.99,627.301 H 7992.48 L 8245.05,3544.45 H 9678.99 V 627.301"
         style="fill:#383798;fill-opacity:1;fill-rule:nonzero;stroke:none"
         id="path68" />
      <path
         d="m 9678.99,3091.9 -1533.2,-693.9 61.46,709.9 1471.74,-16"
         style="fill:#2e328a;fill-opacity:1;fill-rule:nonzero;stroke:none"
         id="path70" />
      <path
         d="M 15022.3,3107.9 H 3383.23 c -116.69,0 -211.28,94.6 -211.28,211.2 v 6983.1 c 0,116.7 94.59,211.3 211.28,211.3 H 15022.3 c 116.7,0 211.2,-94.6 211.2,-211.3 V 3319.1 c 0,-116.6 -94.5,-211.2 -211.2,-211.2"
         style="fill:#4945a4;fill-opacity:1;fill-rule:nonzero;stroke:none"
         id="path72" />
      <path
         d="m 3659.13,3571.45 h 11087.2 v 6478.39 H 3659.13 Z"
         style="fill:#fafcfe;fill-opacity:1;fill-rule:nonzero;stroke:none"
         id="path74" />
      <path
         d="M 13818.5,3571.45 H 3659.13 V 10049.8 H 5564.64 L 13818.5,3571.45"
         style="fill:#f0f4fb;fill-opacity:1;fill-rule:nonzero;stroke:none"
         id="path76" />
      <path
         d="m 11163.6,6603.5 c 0,-497.15 -147.9,-959.59 -402.3,-1346.03 C 10323,4591.18 9568.51,4151.22 8711.32,4151.22 c -1354.34,0 -2452.28,1097.94 -2452.28,2452.28 0,9.05 0,18.09 0.25,26.89 7.33,691.46 300.88,1314 767.72,1754.94 439.23,415.76 1031.95,670.45 1684.31,670.45 1157.59,0 2127.68,-801.95 2385.08,-1880.58 44,-183.32 67.2,-374.94 67.2,-571.7"
         style="fill:#c9d0ed;fill-opacity:1;fill-rule:nonzero;stroke:none"
         id="path78" />
      <path
         d="m 6667.66,6601.09 c -144.83,0 -284.37,9.36 -408.37,29.3 7.33,691.46 300.88,1314 767.72,1754.94 196.77,23.12 489.43,50.85 759.36,50.85 326.58,0 619.93,-40.55 670.51,-178.92 122.21,-333.88 -378.86,-460.25 -378.86,-460.25 0,0 -641.6,-73.33 -549.94,-299.42 91.65,-226.09 531.62,-195.53 464.4,-507.17 -49.91,-231.86 -731.1,-389.33 -1324.82,-389.33"
         style="fill:#b1b7e2;fill-opacity:1;fill-rule:nonzero;stroke:none"
         id="path80" />
      <path
         d="m 9131.98,5411.06 c -338.15,70.82 -574.75,168.17 -528.45,296.14 128.32,354.42 727.16,293.31 1057.13,317.75 329.97,24.44 360.54,201.65 238.31,323.86 -122.21,122.21 -824.92,262.76 -696.12,562.17 103.71,241.26 1384.45,264.23 1877.45,264.23 5.5,0 10.8,-0.01 16.1,-0.01 44,-183.32 67.2,-374.94 67.2,-571.7 0,-384.91 -88.6,-748.99 -246.7,-1073.13 H 9131.98 v -119.31"
         style="fill:#b1b7e2;fill-opacity:1;fill-rule:nonzero;stroke:none"
         id="path82" />
      <path
         d="m 7123.32,8003.79 v -462.44 c 0,-99.49 -80.9,-180.14 -180.39,-180.14 h -420.65 l -1012.63,822.72 h 1433.28 c 99.49,0 180.39,-80.66 180.39,-180.14"
         style="fill:#4f5db3;fill-opacity:1;fill-rule:nonzero;stroke:none"
         id="path84" />
      <path
         d="m 7123.32,8003.79 v -462.44 c 0,-99.49 -80.9,-180.14 -180.39,-180.14 h -741.08 l -137.61,-395.23 c -10.27,-29.58 -51.82,-30.56 -63.55,-1.47 l -159.36,396.7 h -745.74 c -99.47,0 -180.13,80.65 -180.13,180.14 v 462.44 c 0,99.48 80.66,180.14 180.13,180.14 h 1847.34 c 99.49,0 180.39,-80.66 180.39,-180.14"
         style="fill:#5660b6;fill-opacity:1;fill-rule:nonzero;stroke:none"
         id="path86" />
      <path
         d="M 17772.5,774.301 V 607.102 c 0,-72.102 -58.6,-130.5 -130.7,-130.5 H 7932.6 c -72.11,0 -130.53,58.398 -130.53,130.5 v 167.199 c 0,72.101 58.42,130.801 130.53,130.801 h 9709.2 c 72.1,0 130.7,-58.7 130.7,-130.801"
         style="fill:#4a59b1;fill-opacity:1;fill-rule:nonzero;stroke:none"
         id="path88" />
      <path
         d="m 9131.98,904.902 h 7310.52 v 4625.47 H 9131.98 Z"
         style="fill:#5660b6;fill-opacity:1;fill-rule:nonzero;stroke:none"
         id="path90" />
      <path
         d="M 9438.55,1146.5 H 16136 V 5288.84 H 9438.55 Z"
         style="fill:#f0f1fa;fill-opacity:1;fill-rule:nonzero;stroke:none"
         id="path92" />
      <path
         d="M 13956.4,4458.62 H 16136 v 830.219 h -2179.6 z"
         style="fill:#a3a9dc;fill-opacity:1;fill-rule:nonzero;stroke:none"
         id="path94" />
      <path
         d="m 16136,3628.4 h -2179.6 v 830.22 H 16136 V 3628.4"
         style="fill:#acb5e2;fill-opacity:1;fill-rule:nonzero;stroke:none"
         id="path96" />
      <path
         d="m 16136,2798.2 h -2179.6 v 830.2 H 16136 v -830.2"
         style="fill:#b5bfe6;fill-opacity:1;fill-rule:nonzero;stroke:none"
         id="path98" />
      <path
         d="M 13956.4,1968 H 16136 v 830.199 h -2179.6 z"
         style="fill:#becbeb;fill-opacity:1;fill-rule:nonzero;stroke:none"
         id="path100" />
      <path
         d="m 16136,1137.7 h -2179.6 v 8.8 H 16136 V 1968 1137.7"
         style="fill:#7582c9;fill-opacity:1;fill-rule:nonzero;stroke:none"
         id="path102" />
      <path
         d="M 13956.4,1146.5 H 16136 V 1968 h -2179.6 z"
         style="fill:#cad7f1;fill-opacity:1;fill-rule:nonzero;stroke:none"
         id="path104" />
      <path
         d="m 14424.5,4873.73 c 0,-73.04 -59.2,-132.25 -132.2,-132.25 -73,0 -132.2,59.21 -132.2,132.25 0,73.04 59.2,132.25 132.2,132.25 73,0 132.2,-59.21 132.2,-132.25"
         style="fill:#f0f1fa;fill-opacity:1;fill-rule:nonzero;stroke:none"
         id="path106" />
      <path
         d="m 14424.5,4043.51 c 0,-73.04 -59.2,-132.25 -132.2,-132.25 -73,0 -132.2,59.21 -132.2,132.25 0,73.03 59.2,132.24 132.2,132.24 73,0 132.2,-59.21 132.2,-132.24"
         style="fill:#f0f1fa;fill-opacity:1;fill-rule:nonzero;stroke:none"
         id="path108" />
      <path
         d="m 14424.5,3213.3 c 0,-73.1 -59.2,-132.3 -132.2,-132.3 -73,0 -132.2,59.2 -132.2,132.3 0,73 59.2,132.2 132.2,132.2 73,0 132.2,-59.2 132.2,-132.2"
         style="fill:#f0f1fa;fill-opacity:1;fill-rule:nonzero;stroke:none"
         id="path110" />
      <path
         d="m 14424.5,2383.1 c 0,-73.1 -59.2,-132.3 -132.2,-132.3 -73,0 -132.2,59.2 -132.2,132.3 0,73 59.2,132.2 132.2,132.2 73,0 132.2,-59.2 132.2,-132.2"
         style="fill:#f0f1fa;fill-opacity:1;fill-rule:nonzero;stroke:none"
         id="path112" />
      <path
         d="m 14424.5,1552.8 c 0,-73 -59.2,-132.2 -132.2,-132.2 -73,0 -132.2,59.2 -132.2,132.2 0,73.1 59.2,132.3 132.2,132.3 73,0 132.2,-59.2 132.2,-132.3"
         style="fill:#f0f1fa;fill-opacity:1;fill-rule:nonzero;stroke:none"
         id="path114" />
      <path
         d="M 13956.4,2871.9 H 9438.55 V 3911.26 H 13956.4 V 3628.4 2871.9"
         style="fill:#d0d0ed;fill-opacity:1;fill-rule:nonzero;stroke:none"
         id="path116" />
      <path
         d="m 10909.2,1146.5 h 2647.9 v 1725.4 h -2647.9 z"
         style="fill:#f2d7ee;fill-opacity:1;fill-rule:nonzero;stroke:none"
         id="path118" />
      <path
         d="m 13557.1,2334.2 h -2647.9 v 537.7 h 2647.9 v -537.7"
         style="fill:#f2518d;fill-opacity:1;fill-rule:nonzero;stroke:none"
         id="path120" />
      <path
         d="m 11339.7,2603 c 0,-70.3 -57,-127.2 -127.3,-127.2 -70.3,0 -127.3,56.9 -127.3,127.2 0,70.4 57,127.4 127.3,127.4 70.3,0 127.3,-57 127.3,-127.4"
         style="fill:#f0f1fa;fill-opacity:1;fill-rule:nonzero;stroke:none"
         id="path122" />
      <path
         d="m 12583.5,2555.7 h -1100.9 c -10.7,0 -19.3,8.7 -19.3,19.4 v 55.9 c 0,10.7 8.6,19.4 19.3,19.4 h 1100.9 c 10.7,0 19.4,-8.7 19.4,-19.4 v -55.9 c 0,-10.7 -8.7,-19.4 -19.4,-19.4"
         style="fill:#f0f1fa;fill-opacity:1;fill-rule:nonzero;stroke:none"
         id="path124" />
      <path
         d="m 11993.7,4010.78 c 0,-121.04 -46,-231.17 -121.5,-314.03 -85.4,-93.62 -208.2,-152.3 -344.7,-152.3 -136.5,0 -259.3,58.68 -344.7,152.15 -75.5,83.01 -121.6,193.14 -121.6,314.18 0,257.41 208.8,466.17 466.3,466.17 257.4,0 466.2,-208.76 466.2,-466.17"
         style="fill:#5660b6;fill-opacity:1;fill-rule:nonzero;stroke:none"
         id="path126" />
      <path
         d="m 11654.5,4190.36 c 0,-70.2 -56.9,-127.11 -127.1,-127.11 -70.2,0 -127.1,56.91 -127.1,127.11 0,70.21 56.9,127.12 127.1,127.12 70.2,0 127.1,-56.91 127.1,-127.12"
         style="fill:#f0f1fa;fill-opacity:1;fill-rule:nonzero;stroke:none"
         id="path128" />
      <path
         d="m 11773.8,3861.11 v -0.42 c -61,-66.92 -148.8,-108.85 -246.4,-108.85 -97.5,0 -185.3,41.93 -246.3,108.75 v 0.52 c 0,107.28 68.3,198.43 164,232.26 25.7,9.17 53.5,14.12 82.3,14.12 28.8,0 56.5,-4.95 82.2,-14.12 35,-12.33 66.3,-32.35 92,-57.96 44.6,-44.68 72.2,-106.22 72.2,-174.3"
         style="fill:#f0f1fa;fill-opacity:1;fill-rule:nonzero;stroke:none"
         id="path130" />
      <path
         d="m 12751.7,3217.7 h -2377.2 c -19.6,0 -35.6,15.9 -35.6,35.5 V 3356 c 0,19.7 16,35.6 35.6,35.6 h 2377.2 c 19.6,0 35.6,-15.9 35.6,-35.6 v -102.8 c 0,-19.6 -16,-35.5 -35.6,-35.5"
         style="fill:#fafcfe;fill-opacity:1;fill-rule:nonzero;stroke:none"
         id="path132" />
      <path
         d="M 12208.8,476.602 H 7932.6 c -72.11,0 -130.53,58.398 -130.53,130.5 v 167.199 c 0,72.101 58.42,130.801 130.53,130.801 h 3776.8 l 499.4,-428.5"
         style="fill:#4255ae;fill-opacity:1;fill-rule:nonzero;stroke:none"
         id="path134" />
      <path
         d="M 5817.61,5336.91 V 626.199 c 0,-161.597 -131.01,-292.597 -292.57,-292.597 H 1938.4 c -161.56,0 -292.57,131 -292.57,292.597 V 5336.91 c 0,161.56 131.01,292.57 292.57,292.57 h 3586.64 c 161.56,0 292.57,-131.01 292.57,-292.57"
         style="fill:#5660b6;fill-opacity:1;fill-rule:nonzero;stroke:none"
         id="path136" />
      <path
         d="M 5312.89,333.602 H 1938.4 c -161.56,0 -292.57,131 -292.57,292.597 V 5336.91 c 0,161.56 131.01,292.57 292.57,292.57 h 650.4 L 5312.89,333.602"
         style="fill:#4f5db3;fill-opacity:1;fill-rule:nonzero;stroke:none"
         id="path138" />
      <path
         d="m 1787.74,665 h 3888 v 4633.1 h -3888 z"
         style="fill:#f0f1fa;fill-opacity:1;fill-rule:nonzero;stroke:none"
         id="path140" />
      <path
         d="m 3520.32,4657.88 c -88.58,0 -160.39,71.82 -160.39,160.4 0,88.58 71.81,160.4 160.39,160.4 88.6,0 160.41,-71.82 160.41,-160.4 0,-88.58 -71.81,-160.4 -160.41,-160.4"
         style="fill:#d0d0ed;fill-opacity:1;fill-rule:nonzero;stroke:none"
         id="path142" />
      <path
         d="m 3717.67,4482.04 h -394.68 c -8.29,0 -15,6.72 -15,15 v 43.33 c 0,8.28 6.71,15 15,15 h 394.68 c 8.28,0 15,-6.72 15,-15 v -43.33 c 0,-8.28 -6.72,-15 -15,-15"
         style="fill:#d0d0ed;fill-opacity:1;fill-rule:nonzero;stroke:none"
         id="path144" />
      <path
         d="m 4321.23,4657.88 c -88.58,0 -160.4,71.82 -160.4,160.4 0,88.58 71.82,160.4 160.4,160.4 88.59,0 160.4,-71.82 160.4,-160.4 0,-88.58 -71.81,-160.4 -160.4,-160.4"
         style="fill:#d0d0ed;fill-opacity:1;fill-rule:nonzero;stroke:none"
         id="path146" />
      <path
         d="m 4518.58,4482.04 h -394.69 c -8.28,0 -15,6.72 -15,15 v 43.33 c 0,8.28 6.72,15 15,15 h 394.69 c 8.28,0 15,-6.72 15,-15 v -43.33 c 0,-8.28 -6.72,-15 -15,-15"
         style="fill:#d0d0ed;fill-opacity:1;fill-rule:nonzero;stroke:none"
         id="path148" />
      <path
         d="m 5122.14,4657.88 c -88.59,0 -160.4,71.82 -160.4,160.4 0,88.58 71.81,160.4 160.4,160.4 88.59,0 160.4,-71.82 160.4,-160.4 0,-88.58 -71.81,-160.4 -160.4,-160.4"
         style="fill:#d0d0ed;fill-opacity:1;fill-rule:nonzero;stroke:none"
         id="path150" />
      <path
         d="M 5319.48,4482.04 H 4924.8 c -8.28,0 -15,6.72 -15,15 v 43.33 c 0,8.28 6.72,15 15,15 h 394.68 c 8.28,0 15,-6.72 15,-15 v -43.33 c 0,-8.28 -6.72,-15 -15,-15"
         style="fill:#d0d0ed;fill-opacity:1;fill-rule:nonzero;stroke:none"
         id="path152" />
      <path
         d="M 5372.72,4112.35 H 3077.94 c -19.33,0 -35,15.68 -35,35 v 101.1 c 0,19.33 15.67,35 35,35 h 2294.78 c 19.33,0 35,-15.67 35,-35 v -101.1 c 0,-19.32 -15.67,-35 -35,-35"
         style="fill:#ffffff;fill-opacity:1;fill-rule:nonzero;stroke:none"
         id="path154" />
      <path
         d="m 2898.77,4452.28 c 0,-121.03 -45.99,-231.17 -121.48,-314.02 -85.36,-93.62 -208.17,-152.29 -344.69,-152.29 -136.52,0 -259.33,58.67 -344.69,152.14 -75.49,83 -121.63,193.14 -121.63,314.17 0,257.42 208.76,466.18 466.32,466.18 257.41,0 466.17,-208.76 466.17,-466.18"
         style="fill:#ffffff;fill-opacity:1;fill-rule:nonzero;stroke:none"
         id="path156" />
      <path
         d="m 2567.26,4617.3 c 0,-74.43 -60.34,-134.77 -134.78,-134.77 -74.44,0 -134.78,60.34 -134.78,134.77 0,74.45 60.34,134.79 134.78,134.79 74.44,0 134.78,-60.34 134.78,-134.79"
         style="fill:#5660b6;fill-opacity:1;fill-rule:nonzero;stroke:none"
         id="path158" />
      <path
         d="m 2693.76,4268.2 v -0.45 c -64.69,-70.94 -157.77,-115.42 -261.23,-115.42 -103.47,0 -196.54,44.48 -261.24,115.32 v 0.55 c 0,113.75 72.52,210.4 173.97,246.26 27.27,9.73 56.65,14.98 87.27,14.98 30.5,0 59.89,-5.25 87.15,-14.98 37.1,-13.06 70.28,-34.29 97.54,-61.45 47.27,-47.38 76.54,-112.63 76.54,-184.81"
         style="fill:#5660b6;fill-opacity:1;fill-rule:nonzero;stroke:none"
         id="path160" />
      <path
         d="m 1787.74,2904.5 h 3888 v 806.59 h -3888 z"
         style="fill:#fafcfe;fill-opacity:1;fill-rule:nonzero;stroke:none"
         id="path162" />
      <path
         d="m 2129.92,3450.9 h -103.36 v 103.36 h 103.36 V 3450.9"
         style="fill:#f2518d;fill-opacity:1;fill-rule:nonzero;stroke:none"
         id="path164" />
      <path
         d="m 2339.21,3450.9 h -103.37 v 103.36 h 103.37 V 3450.9"
         style="fill:#f2518d;fill-opacity:1;fill-rule:nonzero;stroke:none"
         id="path166" />
      <path
         d="m 2548.5,3450.9 h -103.37 v 103.36 H 2548.5 V 3450.9"
         style="fill:#f2518d;fill-opacity:1;fill-rule:nonzero;stroke:none"
         id="path168" />
      <path
         d="m 2129.92,3269.1 h -103.36 v 103.4 h 103.36 v -103.4"
         style="fill:#f2518d;fill-opacity:1;fill-rule:nonzero;stroke:none"
         id="path170" />
      <path
         d="m 2339.21,3269.1 h -103.37 v 103.4 h 103.37 v -103.4"
         style="fill:#f2518d;fill-opacity:1;fill-rule:nonzero;stroke:none"
         id="path172" />
      <path
         d="m 2548.5,3269.1 h -103.37 v 103.4 h 103.37 v -103.4"
         style="fill:#f2518d;fill-opacity:1;fill-rule:nonzero;stroke:none"
         id="path174" />
      <path
         d="m 2129.92,3087.3 h -103.36 v 103.4 h 103.36 v -103.4"
         style="fill:#f2518d;fill-opacity:1;fill-rule:nonzero;stroke:none"
         id="path176" />
      <path
         d="m 2339.21,3087.3 h -103.37 v 103.4 h 103.37 v -103.4"
         style="fill:#f2518d;fill-opacity:1;fill-rule:nonzero;stroke:none"
         id="path178" />
      <path
         d="m 2548.5,3087.3 h -103.37 v 103.4 h 103.37 v -103.4"
         style="fill:#f2518d;fill-opacity:1;fill-rule:nonzero;stroke:none"
         id="path180" />
      <path
         d="m 3307.99,1531.4 c -6.73,1.7 -13.65,3.8 -20.78,6.2 -59.26,19.7 -117.57,69 -171.2,138.6 -84.01,108.9 -156.2,268.1 -202.51,442.1 -31.88,120.8 -51.38,248.7 -53.44,372.2 -1.5,88.2 6,174 24,253.4 14,61.5 16.43,114.9 10,160.6 h 413.93 v -278.1 c -48.4,-24.2 -89.42,-68.5 -116.37,-141.4 -19.41,-52.5 -17.51,-106.6 -0.26,-161.5 v 0 0 c 20.58,-65.3 62.89,-131.7 116.63,-197.8 V 1531.4 M 2207.12,2551.2 c -34.03,0 -68.57,27.4 -101.23,86 -25.97,46.5 -70.48,148 -132.99,267.3 h 425.63 c -0.71,-3 -1.37,-5.9 -1.99,-9 -44.85,-216.8 -115.96,-344.3 -189.42,-344.3"
         style="fill:#f2d7ee;fill-opacity:1;fill-rule:nonzero;stroke:none"
         id="path182" />
      <path
         d="m 2386.7,665 h -598.96 v 416.8 c 20.99,0 41.8,0.1 62.5,0.1 266.75,0 504.94,-7 605.74,-100.599 C 2718.49,737.5 2587.23,725.102 2412.1,675.102 2403.21,672.5 2394.73,669.203 2386.7,665"
         style="fill:#d0d0ed;fill-opacity:1;fill-rule:nonzero;stroke:none"
         id="path184" />
      <path
         d="M 6795.06,4207.19 V 150.301 C 6795.06,67.1992 6727.6,0 6644.5,0 H 4611.15 c -83.1,0 -150.32,67.1992 -150.32,150.301 V 4207.19 c 0,83.1 67.22,150.32 150.32,150.32 H 6644.5 c 83.1,0 150.56,-67.22 150.56,-150.32"
         style="fill:#f2518d;fill-opacity:1;fill-rule:nonzero;stroke:none"
         id="path186" />
      <path
         d="M 6338.48,0 H 4611.15 c -83.1,0 -150.32,67.1992 -150.32,150.301 V 4207.19 c 0,83.1 67.22,150.32 150.32,150.32 h 454.62 L 6338.48,0"
         style="fill:#f03886;fill-opacity:1;fill-rule:nonzero;stroke:none"
         id="path188" />
      <path
         d="M 6678.96,4194.97 V 266.402 H 4576.69 V 4194.97 h 647.96 v -110.58 c 0,-65.55 53.14,-118.69 118.69,-118.69 h 569.22 c 65.54,0 118.68,53.14 118.68,118.69 v 110.58 h 647.72"
         style="fill:#f0f1fa;fill-opacity:1;fill-rule:nonzero;stroke:none"
         id="path190" />
      <path
         d="m 4967.76,3466.7 c -95.62,0 -173.13,77.49 -173.13,173.11 0,95.61 77.51,173.13 173.13,173.13 95.62,0 173.14,-77.52 173.14,-173.13 0,-95.62 -77.52,-173.11 -173.14,-173.11"
         style="fill:#f2d7ee;fill-opacity:1;fill-rule:nonzero;stroke:none"
         id="path192" />
      <path
         d="m 5627.83,3466.7 c -95.62,0 -173.13,77.49 -173.13,173.11 0,95.61 77.51,173.13 173.13,173.13 95.61,0 173.13,-77.52 173.13,-173.13 0,-95.62 -77.52,-173.11 -173.13,-173.11"
         style="fill:#f2d7ee;fill-opacity:1;fill-rule:nonzero;stroke:none"
         id="path194" />
      <path
         d="m 6287.9,3466.7 c -95.63,0 -173.14,77.49 -173.14,173.11 0,95.61 77.51,173.13 173.14,173.13 95.62,0 173.12,-77.52 173.12,-173.13 0,-95.62 -77.5,-173.11 -173.12,-173.11"
         style="fill:#f2d7ee;fill-opacity:1;fill-rule:nonzero;stroke:none"
         id="path196" />
      <path
         d="M 6678.96,2839.3 H 4576.69 v 8.7 c 3.23,15.9 6.24,32 8.97,48.2 v 0 c 9.42,55.9 15.44,113.1 15.47,168.9 0.04,54.1 -5.54,106.9 -19.07,155.7 -1.67,6.1 -3.46,12.1 -5.37,18 v 105.7 h 2102.27 v -505.2"
         style="fill:#d0d0ed;fill-opacity:1;fill-rule:nonzero;stroke:none"
         id="path198" />
      <path
         d="m 6678.96,1250.6 v 0 336.8 -336.8"
         style="fill:#da53ac;fill-opacity:1;fill-rule:nonzero;stroke:none"
         id="path200" />
      <path
         d="M 6678.96,1250.6 H 4986.15 c 5.27,69.1 -6.96,125.4 -60.86,125.4 -0.05,0 -0.11,0 -0.17,0 -47.18,0 -96.03,-20.5 -143.51,-41.1 -47.49,-20.5 -93.6,-41.1 -135.3,-41.1 -0.9,0 -1.8,0 -2.69,0 -23.99,0.4 -46.51,7.9 -66.93,26.3 v 267.3 h 2102.27 v -336.8"
         style="fill:#d0d0ed;fill-opacity:1;fill-rule:nonzero;stroke:none"
         id="path202" />
      <path
         d="m 6678.96,505.102 h -2025.4 l 271.97,494.597 c 0,0 4.32,11.701 10.67,30.901 H 6678.96 V 505.102"
         style="fill:#d0d0ed;fill-opacity:1;fill-rule:nonzero;stroke:none"
         id="path204" />
      <path
         d="m 4967.76,3124.3 c 0,-80.2 -64.97,-145.1 -145.12,-145.1 -80.15,0 -145.13,64.9 -145.13,145.1 0,80.1 64.98,145.1 145.13,145.1 80.15,0 145.12,-65 145.12,-145.1"
         style="fill:#ffffff;fill-opacity:1;fill-rule:nonzero;stroke:none"
         id="path206" />
      <path
         d="m 4953.5,755.602 c 0,-70.801 -57.45,-128.301 -128.32,-128.301 -70.87,0 -128.32,57.5 -128.32,128.301 0,70.898 57.45,128.398 128.32,128.398 70.87,0 128.32,-57.5 128.32,-128.398"
         style="fill:#ffffff;fill-opacity:1;fill-rule:nonzero;stroke:none"
         id="path208" />
      <path
         d="m 4864.79,1430.6 h -0.01 l 0.01,0.3 c 0,26 -21.06,47 -47.04,47 -21.21,0 -39.13,-14 -45,-33.3 -5.97,19.1 -23.82,33 -44.92,33 -25.98,0 -47.04,-21 -47.04,-47 0,0 -8.84,-41.8 40.23,-70.9 49.08,-29.1 51.77,-43.1 51.77,-43.1 0,0 2.7,14 51.77,43.1 49.07,29.1 40.23,70.9 40.23,70.9"
         style="fill:#ffffff;fill-opacity:1;fill-rule:nonzero;stroke:none"
         id="path210" />
      <path
         d="m 17463,6773.11 c -0.9,-563.58 -458.4,-1019.77 -1022,-1018.93 -563.6,0.85 -1019.8,458.41 -1018.9,1021.99 0.8,563.58 458.4,1019.77 1022,1018.93 563.5,-0.84 1019.7,-458.4 1018.9,-1021.99"
         style="fill:#c9d0ed;fill-opacity:1;fill-rule:nonzero;stroke:none"
         id="path212" />
      <path
         d="m 16052.5,6834.22 c 0,0 247,-13 344.6,135.25 97.7,148.24 -41,577.69 107.1,487.75 148.1,-89.95 30.3,-408.22 116,-452.98 38.9,-20.38 123.9,-22.37 205,-18.49 103.1,4.94 189.9,-75.89 191.8,-179.1 l 4.5,-260.5 c 1.8,-100.86 -78.5,-184.06 -179.4,-185.83 l -781.1,-13.74 -8.5,487.64"
         style="fill:#ffffff;fill-opacity:1;fill-rule:nonzero;stroke:none"
         id="path214" />
      <path
         d="m 16141.4,6216.88 -156.2,-2.74 c -16.4,-0.29 -30,12.83 -30.3,29.32 l -12,680.46 c -0.3,16.47 12.8,30.07 29.3,30.36 l 156.2,2.75 c 16.5,0.29 30.1,-12.84 30.4,-29.31 l 11.9,-680.47 c 0.3,-16.48 -12.8,-30.07 -29.3,-30.37"
         style="fill:#5660b6;fill-opacity:1;fill-rule:nonzero;stroke:none"
         id="path216" />
      <path
         d="m 2599.56,6727.42 c 0,-287.2 -191.13,-529.66 -453.16,-607.64 L 1997.31,5847.5 c -27.38,-49.86 -100.46,-44.24 -119.77,9.29 l -95.08,263.74 c -139.57,42.27 -258.84,131.25 -339.5,248.82 -70.15,101.92 -110.97,225.1 -110.97,358.07 0,350.01 283.77,633.79 633.79,633.79 159.12,0 304.55,-58.67 415.76,-155.7 133.7,-116.1 218.02,-287.2 218.02,-478.09"
         style="fill:#f2518d;fill-opacity:1;fill-rule:nonzero;stroke:none"
         id="path218" />
      <path
         d="m 2381.54,7205.51 -938.58,-836.16 c -70.15,101.92 -110.97,225.1 -110.97,358.07 0,350.01 283.77,633.79 633.79,633.79 159.12,0 304.55,-58.67 415.76,-155.7"
         style="fill:#f03886;fill-opacity:1;fill-rule:nonzero;stroke:none"
         id="path220" />
      <path
         d="m 2295.55,6808.75 h -0.05 l 0.05,1.09 c 0,93.1 -75.47,168.57 -168.57,168.57 -76.01,0 -140.23,-50.33 -161.26,-119.47 -21.37,68.59 -85.35,118.37 -160.97,118.37 -93.09,0 -168.56,-75.46 -168.57,-168.56 0,0 -31.68,-149.65 144.17,-254 175.85,-104.35 185.52,-154.59 185.52,-154.59 0,0 9.66,50.24 185.51,154.59 175.84,104.35 144.17,254 144.17,254"
         style="fill:#ffffff;fill-opacity:1;fill-rule:nonzero;stroke:none"
         id="path222" />
      <path
         d="m 1430.01,2840.9 c -93.13,-42.6 -241.99,-103.7 -398.41,-140.8 -73.327,-17.6 -144.944,-40.8 -215.827,-66.5 -18.082,-6.6 -36.168,-13.4 -54.261,-20.3 -62.082,-23.7 -129.301,-36.4 -199.446,-36.4 -322.398,0 -581.2379,271.3 -560.94881,598.1 9.28511,151.8 93.60941,297.2 213.62481,396.45 86.285,71.37 190.891,118.79 299.66,127.84 269.84,22.23 503.998,-146.42 582.208,-385.49 46.2,-141.7 130.53,-269.8 254.94,-352.4 24.68,-16.4 50.59,-30.8 77.72,-43 33.48,-15 33.97,-62.4 0.74,-77.5"
         style="fill:#f36518;fill-opacity:1;fill-rule:nonzero;stroke:none"
         id="path224" />
      <path
         d="m 815.773,2633.6 c -18.085,-6.6 -36.171,-13.4 -54.261,-20.3 -62.078,-23.7 -129.297,-36.4 -199.449,-36.4 -322.391,0 -581.2349,271.3 -560.94581,598.1 9.28511,151.8 93.61331,297.2 213.62081,396.44 L 815.773,2633.6"
         style="fill:#ea5b1b;fill-opacity:1;fill-rule:nonzero;stroke:none"
         id="path226" />
      <path
         d="m 870.648,3177 c 0,108 -125.164,195.5 -279.554,195.5 -154.403,0 -279.563,-87.5 -279.563,-195.5 0,-92 91.137,-169 213.684,-189.7 l 67.488,-121.2 c 8.672,-15.5 32.188,-11 34.395,6.7 l 14.011,112.1 c 130.493,16.5 229.539,96.1 229.539,192.1"
         style="fill:#ffffff;fill-opacity:1;fill-rule:nonzero;stroke:none"
         id="path228" />
      <path
         d="m 7817.64,1867.1 c -24.08,-17 -50.23,-32.4 -77.99,-45.4 -59.63,-28.3 -121.8,-44.6 -183.73,-49.4 -88.54,-7.1 -177.08,-16.5 -264.02,-35.1 -147.72,-31.2 -298.43,-39.2 -394.3,-40.6 -34.41,-0.4 -53.22,40 -30.75,66.1 18.13,21.1 34.41,43.8 48.64,67.7 72.25,119.9 92.44,262.4 74.77,401.4 -17.43,136 19.5,273 100.24,381.5 58.04,78.2 138.78,141.7 238.33,179.3 229.62,86.5 527.58,-23.6 646.17,-238.3 133.5,-241.8 57.81,-536.1 -157.36,-687.2"
         style="fill:#5660b6;fill-opacity:1;fill-rule:nonzero;stroke:none"
         id="path230" />
      <path
         d="m 7817.64,1867.1 c -24.08,-17 -50.23,-32.4 -77.99,-45.4 -59.63,-28.3 -121.8,-44.6 -183.73,-49.4 -88.54,-7.1 -177.08,-16.5 -264.02,-35.1 -147.72,-31.2 -298.43,-39.2 -394.3,-40.6 -34.41,-0.4 -53.22,40 -30.75,66.1 18.13,21.1 34.41,43.8 48.64,67.7 72.25,119.9 92.44,262.4 74.77,401.4 -17.43,136 19.5,273 100.24,381.5 68.13,-287.5 238.33,-694.4 659.24,-738 23.63,-2.5 46.34,-5.3 67.9,-8.2"
         style="fill:#4f5db3;fill-opacity:1;fill-rule:nonzero;stroke:none"
         id="path232" />
      <path
         d="m 7490.87,2553.5 h -189.85 v -588.3 l 189.85,218.6 189.85,-218.6 v 588.3 h -189.85"
         style="fill:#ffffff;fill-opacity:1;fill-rule:nonzero;stroke:none"
         id="path234" />
      <path
         d="M 13253.7,6756.75 V 6130.3 c 0,-108.77 -88.3,-197.01 -197,-197.01 h -576.2 v -210.68 c 0,-32.02 -39.1,-47.91 -61.1,-24.69 l -224.8,235.37 h -289.9 c -108.8,0 -197,88.24 -197,197.01 v 626.45 c 0,108.77 88.2,197 197,197 h 1152 c 108.7,0 197,-88.23 197,-197"
         style="fill:#5660b6;fill-opacity:1;fill-rule:nonzero;stroke:none"
         id="path236" />
      <path
         d="M 13253.7,6756.75 V 6130.3 c 0,-108.77 -88.3,-197.01 -197,-197.01 h -35 l -747,1020.46 h 782 c 108.7,0 197,-88.23 197,-197"
         style="fill:#4f5db3;fill-opacity:1;fill-rule:nonzero;stroke:none"
         id="path238" />
      <path
         d="m 12670.9,6584.44 c 0,-105.05 -85.2,-190.2 -190.2,-190.2 -105.1,0 -190.2,85.15 -190.2,190.2 0,105.05 85.1,190.2 190.2,190.2 105,0 190.2,-85.15 190.2,-190.2"
         style="fill:#ffffff;fill-opacity:1;fill-rule:nonzero;stroke:none"
         id="path240" />
      <path
         d="m 12848.8,6108.75 h -736.2 c 6.7,153.02 106.9,281.76 244.9,330.61 38.7,13.52 80.2,21.2 123.2,21.2 43,0 84.5,-7.68 122.9,-21.2 52.5,-18.43 99.2,-48.55 137.9,-86.65 63,-63.3 103.3,-149.02 107.3,-243.96"
         style="fill:#ffffff;fill-opacity:1;fill-rule:nonzero;stroke:none"
         id="path242" />
      <path
         d="m 14268.7,11310.7 c 17.6,-757.3 -386.3,-1422.06 -993.5,-1775.61 -295.1,-171.83 -638.2,-270.33 -1004.1,-270.33 -302.9,0 -589.6,67.71 -846.4,188.21 l -856,-222.53 c -139.4,-36.24 -270.1,82.63 -247.2,224.83 l 150.6,937.03 c -127.6,263.2 -199.2,558.5 -199.2,870.6 0,679.5 339.3,1280 857.7,1640.8 340.4,237.3 758.3,371 1207.8,356.2 1053,-34.6 1905.7,-896 1930.3,-1949.2"
         style="fill:#f36518;fill-opacity:1;fill-rule:nonzero;stroke:none"
         id="path244" />
      <path
         d="m 13275.2,9535.09 c -295.1,-171.83 -638.2,-270.33 -1004.1,-270.33 -302.9,0 -589.6,67.71 -846.4,188.21 l -940.2,-244.41 c -99.7,-25.93 -193.2,59.12 -176.9,160.87 l 164.5,1022.87 c -127.6,263.2 -199.2,558.5 -199.2,870.6 0,679.5 339.3,1280 857.7,1640.8 -121.2,-563.1 -173.8,-1431.6 577.1,-1638.6 923.2,-254.4 1616.1,-1094.8 1567.5,-1730.01"
         style="fill:#ea5b1b;fill-opacity:1;fill-rule:nonzero;stroke:none"
         id="path246" />
      <path
         d="m 12139.5,11764.7 c -24,0 -43.8,19.2 -44.5,43.4 l -14.8,586.1 c -0.6,24.6 18.8,45 43.4,45.6 l 146.7,3.7 c 0.4,0 0.8,0.1 1.2,0.1 24,0 43.8,-19.3 44.5,-43.5 l 14.8,-586.1 c 0.6,-24.6 -18.8,-45 -43.4,-45.6 l -146.7,-3.7 c -0.4,0 -0.8,0 -1.2,0"
         style="fill:#f79039;fill-opacity:1;fill-rule:nonzero;stroke:none"
         id="path248" />
      <path
         d="m 12247.4,10173 c -165.2,0 -301.1,131.7 -305.3,297.8 -4.3,168.7 129,308.9 297.7,313.2 2.6,0.1 5.3,0.1 7.9,0.1 165.2,0 301.1,-131.7 305.3,-297.8 4.3,-168.7 -129,-309 -297.7,-313.2 -2.6,-0.1 -5.3,-0.1 -7.9,-0.1"
         style="fill:#f08a3b;fill-opacity:1;fill-rule:nonzero;stroke:none"
         id="path250" />
      <path
         d="m 12774.7,11498.7 -1.7,70.9 c -7.7,302.6 -254.1,541.8 -550.4,534.3 v 0 l -28.3,-0.7 c -296.2,-7.5 -530.2,-258.9 -522.5,-561.5 l 1.7,-70.9 c 5.4,-213 -39.8,-426.1 -143.7,-610.8 -69.7,-124.1 -161.8,-239.1 -283.4,-324.8 l 450.6,11.5 79.5,2 456.9,11.5 28.3,0.8 456.9,11.5 79.6,2.1 450.5,11.4 c -125.7,79.4 -223.5,189.6 -299.5,310 -113.1,179.2 -169.1,389.7 -174.5,602.7"
         style="fill:#fabc92;fill-opacity:1;fill-rule:nonzero;stroke:none"
         id="path252" />
      <path
         d="m 12719.2,12184.1 c 48.9,23 98.4,44.4 147.9,65.6 49.7,20.9 99.3,41.8 149.4,61.6 l 74.5,29.4 -55.7,-59.7 c -23.3,-25.1 -44.9,-54.2 -63,-83.5 -18.1,-29.5 -32,-61.4 -37.1,-92.8 -5.3,-31.4 0,-61.8 19,-85.3 18.4,-23.7 46.9,-41.9 77.8,-55.5 l 34,-15 -27.8,-25.4 c -14.6,-13.4 -28.9,-34 -36.8,-54 -7.9,-20.7 -11.2,-42.6 -8.3,-64.7 2.4,-22.1 11.4,-43.9 23.7,-64.2 5.6,-10 12.8,-21 20.1,-32.1 7.4,-10.9 14.1,-22.1 21.1,-33.2 27.5,-44.6 52.1,-90.7 75.6,-137.1 23.1,-46.7 45,-93.9 64.3,-142.3 -55.4,88 -110.4,175.8 -169.8,259.6 -7.6,10.4 -14.9,20.9 -22.7,31.1 -7.6,10 -15.3,20.2 -23.4,32.3 -15.6,23.1 -28,49.9 -32.6,79.3 -5,29.2 -2.3,60.3 8.2,88.1 11.2,28 26.2,51.7 49.5,73.7 l 6.2,-40.3 c -35.5,15.1 -71.9,36 -97.8,70.8 -27.2,34.2 -34.4,82.3 -26.4,122.2 7.8,40.6 26.1,75.9 47.1,107.7 21.2,32.2 45.7,60.3 73.8,86.9 l 18.9,-30.3 c -51.1,-16.9 -102.6,-32.7 -154.1,-48.5 -51.6,-15.4 -103.3,-30.7 -155.6,-44.4"
         style="fill:#ffffff;fill-opacity:1;fill-rule:nonzero;stroke:none"
         id="path254" />
      <path
         d="m 11587.7,12134.7 c -53.4,8 -106.9,14.4 -160.5,20.5 -53.5,5.8 -107.1,11.7 -160.7,16.3 l -79.8,6.9 70.4,-41.3 c 29.6,-17.4 58.6,-39 84.3,-62 25.7,-23.1 48.2,-49.6 62,-78.3 14,-28.6 17.7,-59.2 6.2,-87.2 -10.8,-28 -32.9,-53.6 -58.7,-75.5 l -28.3,-24 33.9,-16.4 c 17.8,-8.7 37.4,-24.3 50.7,-41.3 13.5,-17.5 23,-37.6 26.5,-59.6 4,-21.9 1.7,-45.3 -4.4,-68.2 -2.5,-11.2 -6.2,-23.8 -10.1,-36.5 -3.9,-12.6 -7.1,-25.3 -10.7,-37.9 -13.6,-50.6 -23.9,-101.8 -33.2,-153 -8.8,-51.4 -16.3,-102.9 -20.9,-154.7 27.9,100.1 55.5,200 88.4,297.3 4.3,12.1 8.3,24.3 12.9,36.2 4.5,11.8 8.9,23.8 13.2,37.7 8.3,26.6 12.5,55.9 8.5,85.3 -3.5,29.4 -15,58.4 -33,82.1 -18.8,23.7 -39.9,42.1 -68.5,56.5 l 5.6,-40.5 c 29.7,24.7 58.6,55.1 73.5,95.8 16.2,40.6 9.4,88.8 -9.6,124.7 -19.1,36.7 -46.8,65.3 -76,89.8 -29.6,24.7 -61,44.7 -95.6,62.1 l -9.4,-34.4 c 53.8,-1.6 107.7,-2 161.5,-2.4 53.9,0 107.8,0.1 161.8,2"
         style="fill:#ffffff;fill-opacity:1;fill-rule:nonzero;stroke:none"
         id="path256" />
      <path
         d="m 13058,4640.72 c 0,-55.64 -45.1,-100.76 -100.8,-100.76 -55.6,0 -100.7,45.12 -100.7,100.76 0,55.66 45.1,100.76 100.7,100.76 55.7,0 100.8,-45.1 100.8,-100.76"
         style="fill:#f2518d;fill-opacity:1;fill-rule:nonzero;stroke:none"
         id="path258" />
      <path
         d="m 14677.7,11062.6 c 0,-80 -64.8,-144.8 -144.7,-144.8 -80,0 -144.8,64.8 -144.8,144.8 0,79.9 64.8,144.8 144.8,144.8 79.9,0 144.7,-64.9 144.7,-144.8"
         style="fill:#f2518d;fill-opacity:1;fill-rule:nonzero;stroke:none"
         id="path260" />
      <path
         d="m 9745.8,12367.8 c 0,-60.5 -49.05,-109.6 -109.55,-109.6 -60.49,0 -109.55,49.1 -109.55,109.6 0,60.5 49.06,109.5 109.55,109.5 60.5,0 109.55,-49 109.55,-109.5"
         style="fill:#f2518d;fill-opacity:1;fill-rule:nonzero;stroke:none"
         id="path262" />
      <path
         d="m 10942.2,8562.66 c 0,-69.85 -56.6,-126.48 -126.4,-126.48 -69.9,0 -126.5,56.63 -126.5,126.48 0,69.86 56.6,126.49 126.5,126.49 69.8,0 126.4,-56.63 126.4,-126.49"
         style="fill:#f2518d;fill-opacity:1;fill-rule:nonzero;stroke:none"
         id="path264" />
      <path
         d="m 14247.5,7261.32 c 0,-55.12 -44.7,-99.81 -99.8,-99.81 -55.1,0 -99.8,44.69 -99.8,99.81 0,55.12 44.7,99.8 99.8,99.8 55.1,0 99.8,-44.68 99.8,-99.8"
         style="fill:#f2518d;fill-opacity:1;fill-rule:nonzero;stroke:none"
         id="path266" />
      <path
         d="m 6972.02,4191.79 c 0,-64.11 -51.98,-116.1 -116.1,-116.1 -64.12,0 -116.1,51.99 -116.1,116.1 0,64.12 51.98,116.1 116.1,116.1 64.12,0 116.1,-51.98 116.1,-116.1"
         style="fill:#f2518d;fill-opacity:1;fill-rule:nonzero;stroke:none"
         id="path268" />
      <path
         d="m 1587.54,4507.69 c 0,-82.93 -67.23,-150.17 -150.18,-150.17 -82.94,0 -150.18,67.24 -150.18,150.17 0,82.94 67.24,150.19 150.18,150.19 82.95,0 150.18,-67.25 150.18,-150.19"
         style="fill:#f2518d;fill-opacity:1;fill-rule:nonzero;stroke:none"
         id="path270" />
      <path
         d="m 4528.37,6591.23 c 0,-54.15 -43.9,-98.05 -98.05,-98.05 -54.16,0 -98.05,43.9 -98.05,98.05 0,54.16 43.89,98.05 98.05,98.05 54.15,0 98.05,-43.89 98.05,-98.05"
         style="fill:#f2518d;fill-opacity:1;fill-rule:nonzero;stroke:none"
         id="path272" />
      <path
         d="m 4944.28,9996.2 c 0,-61.01 -49.46,-110.47 -110.47,-110.47 -61.01,0 -110.47,49.46 -110.47,110.47 0,61 49.46,110.5 110.47,110.5 61.01,0 110.47,-49.5 110.47,-110.5"
         style="fill:#f2518d;fill-opacity:1;fill-rule:nonzero;stroke:none"
         id="path274" />
      <path
         d="m 7226.62,9037.45 c 0,-57.37 -46.5,-103.88 -103.87,-103.88 -57.38,0 -103.88,46.51 -103.88,103.88 0,57.37 46.5,103.88 103.88,103.88 57.37,0 103.87,-46.51 103.87,-103.88"
         style="fill:#f2518d;fill-opacity:1;fill-rule:nonzero;stroke:none"
         id="path276" />
      <path
         d="m 6893.16,11582.2 c 0,-175.1 -141.95,-317.1 -317.06,-317.1 -175.11,0 -317.06,142 -317.06,317.1 0,175.1 141.95,317 317.06,317 175.11,0 317.06,-141.9 317.06,-317"
         style="fill:#f9b717;fill-opacity:1;fill-rule:nonzero;stroke:none"
         id="path278" />
      <path
         d="m 13649.8,13314.3 c 0,-109.4 -88.7,-198.1 -198.1,-198.1 -109.4,0 -198,88.7 -198,198.1 0,109.4 88.6,198.1 198,198.1 109.4,0 198.1,-88.7 198.1,-198.1"
         style="fill:#f9b717;fill-opacity:1;fill-rule:nonzero;stroke:none"
         id="path280" />
      <path
         d="m 16028.5,8903.91 c 0,-178.37 -144.6,-322.97 -323,-322.97 -178.3,0 -322.9,144.6 -322.9,322.97 0,178.37 144.6,322.96 322.9,322.96 178.4,0 323,-144.59 323,-322.96"
         style="fill:#f9b717;fill-opacity:1;fill-rule:nonzero;stroke:none"
         id="path282" />
      <path
         d="m 9361.24,3800.01 c 0,-116.36 -94.33,-210.69 -210.69,-210.69 -116.36,0 -210.69,94.33 -210.69,210.69 0,116.37 94.33,210.69 210.69,210.69 116.36,0 210.69,-94.32 210.69,-210.69"
         style="fill:#f9b717;fill-opacity:1;fill-rule:nonzero;stroke:none"
         id="path284" />
      <path
         d="m 8874.69,6404.2 c 0,-110.07 -89.24,-199.3 -199.31,-199.3 -110.06,0 -199.29,89.23 -199.29,199.3 0,110.07 89.23,199.3 199.29,199.3 110.07,0 199.31,-89.23 199.31,-199.3"
         style="fill:#f9b717;fill-opacity:1;fill-rule:nonzero;stroke:none"
         id="path286" />
      <path
         d="m 3450.31,7157.44 c 0,-112.49 -91.19,-203.69 -203.68,-203.69 -112.5,0 -203.69,91.2 -203.69,203.69 0,112.49 91.19,203.68 203.69,203.68 112.49,0 203.68,-91.19 203.68,-203.68"
         style="fill:#f9b717;fill-opacity:1;fill-rule:nonzero;stroke:none"
         id="path288" />
      <path
         d="m 1787.74,8461.32 c 0,-125.83 -102,-227.83 -227.83,-227.83 -125.82,0 -227.82,102 -227.82,227.83 0,125.83 102,227.83 227.82,227.83 125.83,0 227.83,-102 227.83,-227.83"
         style="fill:#f2518d;fill-opacity:1;fill-rule:nonzero;stroke:none"
         id="path290" />
      <path
         d="m 17166.4,3808.87 c 0,-148.5 -120.3,-268.87 -268.8,-268.87 -148.5,0 -268.9,120.37 -268.9,268.87 0,148.48 120.4,268.85 268.9,268.85 148.5,0 268.8,-120.37 268.8,-268.85"
         style="fill:#f9b717;fill-opacity:1;fill-rule:nonzero;stroke:none"
         id="path292" />
      <path
         d="m 4321.23,2143.1 c 0,-140.8 -114.14,-255 -254.94,-255 -140.8,0 -254.93,114.2 -254.93,255 0,140.8 114.13,254.9 254.93,254.9 140.8,0 254.94,-114.1 254.94,-254.9"
         style="fill:#f9b717;fill-opacity:1;fill-rule:nonzero;stroke:none"
         id="path294" />
      <path
         d="M 4431.01,100 C 4258.12,383.5 3773.6,366.801 3327.52,304.902 3129.13,277.199 2938.25,240.602 2785.8,217.5 c -124.5,-18.898 -223.5,-28.598 -279.94,-17.398 -281.27,56.3 -268.71,424.898 -93.76,475 175.13,50 306.39,62.398 43.88,306.199 -109.61,101.799 -381.66,101.099 -676.28,100.499 -52.14,-0.2 -104.99,-0.3 -157.76,0.2 -252.95,2 -504.59,17.2 -669.409,107.6 -72,39.6 -127.316,93.4 -159.191,166.7 -206.266,475.1 518.83,612.6 624.96,618.8 106.32,6.3 181.32,237.5 -75,331.3 -45,16.5 -106.32,50.4 -173.07,97.7 -97.32,68.6 -206.449,165 -294.761,275.2 -196.133,244.9 -289.137,558.6 80.437,789.6 207.574,129.81 389.274,110.68 543.774,18.4 126.38,-75.2 234.77,-199.3 324.2,-330.9 143.82,-211.3 238.71,-441.6 282.01,-519.2 103.14,-184.9 225.02,-58.9 290.65,258.3 65.63,317.1 590.65,301.6 487.52,-151.6 -18,-79.4 -25.5,-165.2 -24,-253.4 2.06,-123.5 21.56,-251.4 53.44,-372.2 46.31,-174 118.5,-333.2 202.51,-442.1 53.63,-69.6 111.94,-118.9 171.2,-138.6 82.87,-27.7 137.81,-12.9 178.5,24.8 88.32,81 110.63,268.7 209.08,362.8 143.63,137.4 371.82,-387.6 371.82,-387.6 L 4431.01,100"
         style="fill:#4fc182;fill-opacity:1;fill-rule:nonzero;stroke:none"
         id="path296" />
      <path
         d="m 1823.88,3156.4 c -101.62,-75 -219.19,-201.8 -280.51,-409.4 -56.81,-192.3 -217.69,-291.7 -373.14,-342.9 -97.32,68.6 -206.449,165 -294.761,275.2 165.941,52.6 362.641,170.1 433.521,433.4 43.31,160.9 114.56,283.1 190.69,374.6 126.38,-75.2 234.77,-199.3 324.2,-330.9"
         style="fill:#40bb76;fill-opacity:1;fill-rule:nonzero;stroke:none"
         id="path298" />
      <path
         d="m 2913.5,2118.3 c -195.01,-51.7 -447.4,-173 -620.1,-455.6 -145.5,-238.3 -418.14,-436.2 -671.46,-580.7 -252.95,2 -504.59,17.2 -669.409,107.6 337.519,125.8 915.039,390 1056.799,766 138.01,366.4 580.71,492 850.73,534.9 2.06,-123.5 21.56,-251.4 53.44,-372.2"
         style="fill:#40bb76;fill-opacity:1;fill-rule:nonzero;stroke:none"
         id="path300" />
      <path
         d="m 3327.52,304.902 c -198.39,-27.703 -389.27,-64.3 -541.72,-87.402 137.07,225.801 368.84,677.102 251.46,989.5 -74.44,197.7 -11.44,355.7 78.75,469.2 53.63,-69.6 111.94,-118.9 171.2,-138.6 82.87,-27.7 137.81,-12.9 178.5,24.8 -11.43,-179.9 -3.56,-375.6 15.19,-536.5 24.94,-212.4 -68.26,-506.599 -153.38,-720.998"
         style="fill:#40bb76;fill-opacity:1;fill-rule:nonzero;stroke:none"
         id="path302" />
      <path
         d="m 2881.47,522.301 -1.07,5.5 c 25.44,6.601 50.85,13.199 76.24,19.902 -2.04,-4.801 -4.12,-9.703 -6.19,-14.504 -22.95,-3.898 -45.94,-7.5 -68.98,-10.898"
         style="fill:#9eddb9;fill-opacity:1;fill-rule:nonzero;stroke:none"
         id="path304" />
      <path
         d="m 3438.75,639.203 c 4.93,19.199 9.57,38.297 13.87,57.399 51.89,18.5 103.53,37.5 156.43,52.601 C 3678.58,769.5 3747.91,790 3819.36,807 l -26.14,10.402 -52.65,23.399 L 3635.38,888 c -50.1,25 -100.68,49.102 -150.46,74.801 -0.33,21.699 -1.64,42.799 -4.02,63.099 -0.08,0.7 -0.16,1.4 -0.24,2.1 64.74,-36.699 130.28,-71.801 196.57,-105.598 61.74,-42.703 133.54,-90.3 207.81,-141.902 -12.78,5.102 -25.52,10.301 -38.23,15.699 l -7.46,2.903 c -30.64,-19 -62.08,-36.602 -94.48,-51.903 -19.21,-9.398 -38.64,-18.5 -58.28,-26.898 l -59.34,-24.399 c -61.25,-24 -124.85,-40.699 -188.5,-56.699 M 3026.72,1237.6 c -124.02,84.6 -244.33,174.6 -361.7,267.7 -67.51,53.5 -133.79,108.5 -199.09,164.6 -30.3,-1.2 -60.07,-0.5 -89.83,-1 -11.89,-0.4 -23.73,-0.5 -35.54,-0.5 -5.64,0 -11.28,0 -16.92,0 -5.65,0 -11.29,0.1 -16.93,0.1 -3.25,0 -6.51,-0.1 -9.76,-0.1 10.39,16.8 21.07,33 31.99,48.6 36.81,-5.2 73.28,-12.9 109.1,-22.9 -25.61,22.2 -51.04,44.7 -76.31,67.3 7.77,9.9 15.67,19.6 23.65,29.1 99.95,-86.3 202.36,-169.7 307.28,-249.7 25.88,-19.7 51.99,-39.1 78.18,-58.3 -6.7,11.4 -13.17,22.9 -19.61,34.5 -10.66,17.9 -18.41,36.9 -27.28,55.5 -8.48,18.8 -16.66,37.8 -23.85,57 -30.78,76.5 -45.15,157.7 -62.69,237.4 -8.72,40.6 -16.65,81.2 -24,122 10.85,6.8 21.72,13.4 32.59,19.7 10.96,-43.9 22.58,-87.5 35.08,-130.9 22.1,-77.7 50.1,-153.3 72.29,-230.2 19.08,-65.1 38.76,-129.8 59.48,-195.5 64.5,-46.6 129.85,-91.9 196.01,-136 3.6,-25.3 9.46,-51.5 17.86,-78.4 m 784.21,67.9 c -2.78,14.6 -5.37,29.3 -7.7,44 l 5.49,1.2 c 4.25,-13.6 8.56,-27.2 12.96,-40.8 -3.34,-2.1 -6.92,-3.5 -10.75,-4.4 m -2216.3,267.1 -2.51,5 c 63.93,34.2 132.08,59.1 201.34,80.6 -13.61,-12.5 -27.58,-24.8 -41.92,-36.8 -53.23,-12.9 -105.82,-28.8 -156.91,-48.8 m 461.05,479.6 c -23.7,23.9 -47.25,47.9 -70.61,72.1 -106,110.8 -208.32,224.9 -306.76,342.2 -56.24,67.2 -111.43,135.3 -164.77,204.8 1.72,3.4 3.39,6.9 5.04,10.4 55.9,-69.4 113.71,-137.3 172.52,-204.2 101.04,-114.6 205.8,-225.8 314.05,-333.5 22.12,-22 44.38,-44 66.77,-65.8 -5.6,-8.5 -11.03,-17.2 -16.24,-26"
         style="fill:#9eddb9;fill-opacity:1;fill-rule:nonzero;stroke:none"
         id="path306" />
      <path
         d="m 1513.54,2671.3 c -39.9,52 -78.75,104.7 -116.24,158.5 l 4.63,3.2 c 37.69,-51.3 76.68,-101.7 116.65,-151.3 -1.65,-3.5 -3.32,-7 -5.04,-10.4"
         style="fill:#96dab3;fill-opacity:1;fill-rule:nonzero;stroke:none"
         id="path308" />
      <path
         d="m 1751.54,1621.4 c 14.34,12 28.31,24.3 41.92,36.8 4.33,1.3 8.67,2.6 13.01,4 74.1,20.9 149.72,37.6 226.42,47.9 59.32,7.5 119.34,16.1 179.46,16.1 17.44,0 34.89,-0.7 52.32,-2.4 21.5,-1.5 42.94,-3.7 64.27,-6.8 -10.92,-15.6 -21.6,-31.8 -31.99,-48.6 -11.34,0 -22.67,-0.3 -34.01,-0.8 l -56.28,0.1 c -7.85,-0.2 -15.71,-0.3 -23.58,-0.3 -10.89,0 -21.8,0.2 -32.71,0.4 -6.93,0.3 -13.85,0.4 -20.78,0.4 -11.87,0 -23.74,-0.3 -35.62,-0.6 -18.78,-0.8 -37.7,-0.4 -56.44,-2.2 -75.26,-4.5 -150.16,-15.4 -224.28,-30.5 -20.63,-4.1 -41.22,-8.6 -61.71,-13.5 m 610.19,140 c -104.91,93.9 -206.94,190.9 -306.05,290.8 5.21,8.8 10.64,17.5 16.24,26 101.66,-99 206.14,-195 313.46,-287.7 -7.98,-9.5 -15.88,-19.2 -23.65,-29.1 m 251.68,227.5 c -7.11,39.5 -13.68,79 -19.89,118.5 -11.48,80.7 -22.38,161.3 -29.05,242.4 l 5.58,0.7 c 15.54,-79.6 32.25,-159 51.1,-237.8 7.96,-34.8 16.2,-69.5 24.85,-104.1 -10.87,-6.3 -21.74,-12.9 -32.59,-19.7"
         style="fill:#96dab3;fill-opacity:1;fill-rule:nonzero;stroke:none"
         id="path310" />
      <path
         d="m 2950.45,533.199 c 2.07,4.801 4.15,9.703 6.19,14.504 56.63,15 113.1,30.496 169.27,46.899 81.55,23 162.62,47.5 243.11,73.5 28.1,8.898 55.88,18.601 83.6,28.5 -4.3,-19.102 -8.94,-38.2 -13.87,-57.399 -19.11,-4.801 -38.23,-9.504 -57.29,-14.301 -82.66,-20.8 -165.6,-40 -248.84,-57.601 -60.63,-12 -121.27,-23.801 -182.17,-34.102 m 534.47,429.602 c -18.55,9.601 -36.99,19.398 -55.25,29.5 -138.99,73.999 -273.01,156.699 -402.95,245.299 -8.4,26.9 -14.26,53.1 -17.86,78.4 145.83,-97.2 295.49,-188.4 447.94,-274.4 7.93,-4.6 15.9,-9.1 23.86,-13.6 0.08,-0.7 0.16,-1.4 0.24,-2.1 2.38,-20.3 3.69,-41.4 4.02,-63.099"
         style="fill:#96dab3;fill-opacity:1;fill-rule:nonzero;stroke:none"
         id="path312" />
      <path
         d="m 4423.11,86 c 49.96,227.199 -203.28,453.699 -458.97,638.602 -113.83,82.101 -228.13,156.199 -316.44,218.398 -72.18,50.801 -127,93.8 -150.1,126.9 -115.03,164.8 70.03,345.2 182.81,285.7 112.88,-59.5 185.29,-116.9 170.64,133.7 -7.19,123.2 -197.03,283.6 -373.18,455.3 -126.98,123.6 -246.93,253.3 -286.51,378.9 -17.25,54.9 -19.15,109 0.26,161.5 125.98,340.4 559.48,58.5 616.17,10.2 56.89,-48.4 206.91,32.3 122.67,203.9 -14.77,30.2 -29.34,77.1 -40.21,133.4 -15.97,81.9 -24.46,183.5 -15.69,282.1 19.47,219 124.49,422.82 423.47,360.5 167.92,-34.9 250.58,-132.7 284.03,-254.3 27.49,-99.3 22.16,-214.6 3.6,-324.6 -29.68,-176.6 -93.3,-339.1 -109.01,-399.4 -37.45,-143.5 85.3,-138.8 272.3,-10.1 186.92,128.6 445.01,-133.8 173.13,-313.1 -47.55,-31.4 -92.98,-71.2 -134.95,-116.6 -58.85,-63.5 -110.98,-137.6 -153.39,-214.2 -60.92,-110.5 -101.56,-226 -111.88,-321.9 -6.59,-61.2 -0.99,-114.4 19.45,-153.1 28.48,-54.2 63.45,-73.3 102.31,-74 42.4,-0.9 89.48,20.1 137.99,41.1 47.53,20.6 96.44,41.2 143.68,41.1 139.3,0 0.24,-376.301 0.24,-376.301 L 4423.11,86"
         style="fill:#4fc182;fill-opacity:1;fill-rule:nonzero;stroke:none"
         id="path314" />
      <path
         d="m 4585.66,2896.2 c -87.78,11.4 -208.72,4.2 -340.36,-71.1 -122.01,-69.8 -251.59,-42.1 -355.05,7.4 -15.97,81.9 -24.46,183.5 -15.69,282.1 109.41,-53.8 265.92,-89.7 429.4,9.1 99.91,60.4 195.22,87.7 278.1,97.1 27.49,-99.3 22.16,-214.6 3.6,-324.6"
         style="fill:#40bb76;fill-opacity:1;fill-rule:nonzero;stroke:none"
         id="path316" />
      <path
         d="m 4633.74,1842.8 c -123.75,68.4 -310.26,129.3 -534.62,70.1 -189.15,-50.1 -422.99,-18 -621.25,31.7 -126.98,123.6 -246.93,253.3 -286.51,378.9 231.76,-99.9 652.03,-246.2 906.01,-124.7 247.44,118.4 532.34,-32.6 689.76,-141.8 -58.85,-63.5 -110.98,-137.6 -153.39,-214.2"
         style="fill:#40bb76;fill-opacity:1;fill-rule:nonzero;stroke:none"
         id="path318" />
      <path
         d="M 3964.14,724.602 C 3850.31,806.703 3736.01,880.801 3647.7,943 c 178.79,47.801 514.84,163.8 606.89,378.7 58.14,136.1 166.65,185.6 267.27,199.2 -6.59,-61.2 -0.99,-114.4 19.45,-153.1 28.48,-54.2 63.45,-73.3 102.31,-74 -92.96,-85.4 -183.87,-188.3 -252.37,-278.8 -90.37,-119.5 -280.14,-223.199 -427.11,-290.398"
         style="fill:#40bb76;fill-opacity:1;fill-rule:nonzero;stroke:none"
         id="path320" />
      <path
         d="m 4615.86,436.5 1.18,2.199 c 0.19,-0.398 0.38,-0.797 0.56,-1.199 l -1.74,-1"
         style="fill:#f8f9fd;fill-opacity:1;fill-rule:nonzero;stroke:none"
         id="path322" />
      <path
         d="m 4614.14,435.602 c -54.62,92.3 -106.17,187.101 -149.13,285.8 l -2.33,5.098 c -24.71,5.301 -49.17,11.602 -72.95,19.602 -14.32,4.5 -28.55,9.3 -42.58,14.597 l -41.81,16.403 c -42.63,17.597 -82.91,40 -122.86,62.699 11.77,7.301 23.39,14.801 34.84,22.301 35.22,-15.801 70.57,-31.2 104.61,-49.2 45.03,-23.402 90.05,-46.703 134.46,-72.699 l -8.2,17.899 -15.28,37.398 -30.33,74.902 c -13.25,36.899 -27.13,73.598 -39.87,110.797 10.33,11.102 19.89,22.401 28.54,33.801 0.29,0.4 0.58,0.8 0.87,1.2 41.59,-138.598 92.09,-274.399 148.94,-407.899 -1.27,19.402 -0.16,38.801 2.2,57.801 5.52,45.097 24.15,86.3 41.18,126.8 17.37,40.5 37.05,79.7 57.93,118.2 21.64,38 43.92,75.5 68.83,111.398 l 3.38,-2 c -19.37,-38.898 -37.84,-78.199 -54.5,-118.098 -17.12,-39.699 -32.9,-79.902 -46.14,-120.601 -6.61,-20.399 -12.36,-41 -17.01,-61.699 L 4582,658.801 c -8.63,-35.801 -16.31,-71.199 -15.53,-109 16.44,-37.199 33.21,-74.301 50.57,-111.102 l -1.18,-2.199 -1.72,-0.898 M 3884.03,1022.9 c -13.49,9.2 -26.9,18.5 -40.19,27.9 l 2.13,3.3 c 16.04,-9 32.1,-18 48.2,-26.9 -3.37,-1.4 -6.77,-2.9 -10.14,-4.3 m 380.06,319.4 c -21.76,102.9 -39.01,206.8 -53.25,310.8 -8.23,59.8 -15.1,119.7 -20.94,179.8 -15.91,14.1 -30.64,28.8 -45.94,43 -13.88,12.4 -26.89,25.5 -40.27,38.2 13.39,3.4 26.64,6.4 39.76,9 16.07,-20.5 30.83,-42 44.06,-64.5 -2.16,23.7 -4.16,47.4 -5.98,71.1 8.76,1.3 17.47,2.3 26.09,3.3 8.73,-92.2 20.14,-184 34.42,-275.3 3.54,-22.6 7.37,-45 11.28,-67.4 2.13,9 4.43,17.9 6.79,26.9 3.29,14.2 8.58,27.6 13.12,41.3 4.83,13.7 9.88,27.2 15.56,40.4 21.53,53.7 53.64,101.7 83.37,150.5 15.26,24.8 30.97,49.2 47.01,73.4 8.8,-1.8 17.49,-3.7 26.04,-5.8 -15.72,-27.5 -31.01,-55.3 -45.7,-83.3 -26.48,-50 -48.96,-101.8 -75.01,-151.5 -21.92,-42.2 -43.34,-84.5 -64.71,-127.7 10.06,-54.9 21.17,-109.5 33.27,-163.8 -10.47,-14.6 -20.18,-30.7 -28.97,-48.4 m -420.1,810.7 c -12.93,0.2 -25.95,0.8 -39.06,1.7 -33.16,19.3 -67.5,36.7 -103.03,51.3 l 1.17,3.8 c 48.9,-13.7 95.49,-34.1 140.92,-56.8 m 323.68,72.2 c -0.41,23.6 -0.67,47.1 -0.76,70.7 0.05,107.4 3.6,214.8 10.69,321.9 4.11,61.2 9.18,122.4 15.88,183.4 2.53,0.9 5.05,1.9 7.58,2.8 -5.35,-62.2 -9.01,-124.5 -11.66,-186.9 -4.43,-106.9 -5.36,-214 -2.78,-320.9 0.48,-21.9 1.11,-43.8 1.87,-65.7 -6.95,-1.6 -13.9,-3.4 -20.82,-5.3"
         style="fill:#9eddb9;fill-opacity:1;fill-rule:nonzero;stroke:none"
         id="path324" />
      <path
         d="m 4193.48,2801.2 c 5.01,45.7 10.93,91.2 18.04,136.6 l 3.89,-0.6 c -5.82,-44.3 -10.52,-88.7 -14.35,-133.2 -2.53,-0.9 -5.05,-1.9 -7.58,-2.8"
         style="fill:#96dab3;fill-opacity:1;fill-rule:nonzero;stroke:none"
         id="path326" />
      <path
         d="m 4103.69,1914.1 c -5.77,5.4 -11.6,10.8 -17.61,16 l -28.44,27.3 c -9.67,8.9 -19.1,18.1 -28.43,27.4 -9.07,9.6 -18.89,18.3 -28.6,27.3 -9.89,8.7 -19.29,18 -29.65,26.2 -40.25,34.2 -83.41,65 -128.27,93.3 -12.41,7.9 -25,15.6 -37.76,23.1 13.11,-0.9 26.13,-1.5 39.06,-1.7 2.84,-1.5 5.67,-2.9 8.5,-4.3 47.66,-25.4 94.03,-53.6 137.82,-85.5 43.37,-32.3 88.33,-64 123.9,-105.5 10.16,-11.1 19.92,-22.7 29.24,-34.6 -13.12,-2.6 -26.37,-5.6 -39.76,-9 m 341.52,2.9 c -8.55,2.1 -17.24,4 -26.04,5.8 15.52,23.4 31.36,46.6 47.4,69.6 33.27,46.4 66.83,92.4 102.78,136.7 l 3.18,-2.3 c -30.74,-47.8 -60.76,-96.1 -89.42,-145.1 -12.84,-21.5 -25.51,-43 -37.9,-64.7 m -263.68,12.7 c -7.55,98.4 -12.13,196.9 -13.86,295.5 6.92,1.9 13.87,3.7 20.82,5.3 3.45,-99.4 9.75,-198.6 19.13,-297.5 -8.62,-1 -17.33,-2 -26.09,-3.3"
         style="fill:#96dab3;fill-opacity:1;fill-rule:nonzero;stroke:none"
         id="path328" />
      <path
         d="m 4182.48,839.801 c -12,6.902 -23.96,13.699 -35.96,20.5 -51.87,29.601 -103.15,60.101 -153.79,91.5 -36.51,23.301 -72.91,46.801 -108.7,71.099 3.37,1.4 6.77,2.9 10.14,4.3 35.92,-19.9 72,-39.399 108.4,-58.298 52.4,-27.902 105.31,-54.8 158.62,-80.703 18.53,-9.097 37.31,-17.597 56.13,-26.097 -11.45,-7.5 -23.07,-15 -34.84,-22.301 m 180.23,141.398 c -4.75,13.801 -9.34,27.701 -13.68,41.701 -34.42,104.8 -62.15,211.6 -84.94,319.4 8.79,17.7 18.5,33.8 28.97,48.4 26.68,-119.9 58.15,-238.6 93.58,-356.1 1.81,-6.1 3.64,-12.3 5.48,-18.4 -0.29,-0.4 -0.58,-0.8 -0.87,-1.2 -8.65,-11.4 -18.21,-22.699 -28.54,-33.801"
         style="fill:#96dab3;fill-opacity:1;fill-rule:nonzero;stroke:none"
         id="path330" />
      <path
         d="m 2806.43,9468.76 c -130.21,-59.47 -338.35,-144.91 -557.09,-196.86 -102.53,-24.61 -202.67,-57.08 -301.78,-92.96 -25.3,-9.23 -50.58,-18.8 -75.88,-28.37 -86.81,-33.16 -180.8,-50.93 -278.88,-50.93 -450.81,0 -812.749,379.37 -784.378,836.33 12.988,212.23 130.898,415.63 298.708,554.33 120.65,99.8 266.93,166.1 419.02,178.8 377.32,31.1 704.74,-204.7 814.11,-539 64.59,-198.24 182.5,-377.32 356.47,-492.84 34.51,-22.91 70.74,-43.07 108.68,-60.16 46.82,-20.85 47.51,-87.15 1.02,-108.34"
         style="fill:#f36518;fill-opacity:1;fill-rule:nonzero;stroke:none"
         id="path332" />
      <path
         d="m 1947.56,9178.94 c -25.3,-9.23 -50.58,-18.8 -75.88,-28.37 -86.81,-33.16 -180.8,-50.93 -278.88,-50.93 -450.81,0 -812.749,379.37 -784.378,836.33 12.988,212.23 130.898,415.63 298.708,554.33 l 840.43,-1311.36"
         style="fill:#ea5b1b;fill-opacity:1;fill-rule:nonzero;stroke:none"
         id="path334" />
      <path
         d="m 2024.28,9938.8 c 0,150.9 -175.01,273.3 -390.9,273.3 -215.89,0 -390.91,-122.4 -390.91,-273.3 0,-128.71 127.44,-236.35 298.79,-265.34 l 94.38,-169.4 c 12.12,-21.77 45,-15.37 48.09,9.34 l 19.59,156.72 c 182.46,23.07 320.96,134.46 320.96,268.68"
         style="fill:#ffffff;fill-opacity:1;fill-rule:nonzero;stroke:none"
         id="path336" />
      <path
         d="m 6324.45,7840.74 c 0,117.78 -136.59,213.27 -305.06,213.27 -168.48,0 -305.06,-95.49 -305.06,-213.27 0,-100.45 99.45,-184.45 233.17,-207.08 l 73.65,-132.2 c 9.46,-16.98 35.12,-11.99 37.53,7.3 l 15.29,122.29 c 142.39,18.02 250.48,104.95 250.48,209.69"
         style="fill:#ffffff;fill-opacity:1;fill-rule:nonzero;stroke:none"
         id="path338" />
    </g>
  </g>
</svg>
