<?xml version="1.0" encoding="UTF-8" standalone="no"?>
<svg
   xmlns:dc="http://purl.org/dc/elements/1.1/"
   xmlns:cc="http://creativecommons.org/ns#"
   xmlns:rdf="http://www.w3.org/1999/02/22-rdf-syntax-ns#"
   xmlns:svg="http://www.w3.org/2000/svg"
   xmlns="http://www.w3.org/2000/svg"
   viewBox="0 0 267.18668 286.88"
   height="286.88"
   width="267.18668"
   xml:space="preserve"
   id="svg2"
   version="1.1"><metadata
     id="metadata8"><rdf:RDF><cc:Work
         rdf:about=""><dc:format>image/svg+xml</dc:format><dc:type
           rdf:resource="http://purl.org/dc/dcmitype/StillImage" /></cc:Work></rdf:RDF></metadata><defs
     id="defs6" /><g
     transform="matrix(1.3333333,0,0,-1.3333333,0,286.88)"
     id="g10"><g
       transform="scale(0.1)"
       id="g12"><path
         id="path14"
         style="fill:#ceeff8;fill-opacity:1;fill-rule:nonzero;stroke:none"
         d="m 1570,1489.6 c -21.2,-20 -52.6,-11.59 -72.5,8.9 -34.6,35.7 -22.1,86.61 -41.4,130.7 -19.3,44.1 -65.2,76.8 -100,106.71 -54,46.09 29,262.2 29,262.2 0,0 11.3,-168.31 33.9,-203.51 25.7,-40 104.9,-44.69 137.9,-76.8 71.3,-69.59 83.1,-161.29 13.1,-228.2 z m -512.9,-4.49 c -44.4,9.29 -20,-20 -64.799,-23.41 -40,-3.4 -113.903,-15.59 -4.504,77.41 12.004,10 -30,18.5 -30,33.5 0,131.09 91.503,16.4 113.103,12.69 57.7,-10 110.9,-34.39 168.8,-43.6 70.3,-11.19 -130.4,-67.69 -182.6,-56.59 z m -599.104,31.59 c -40,-14.7 -84.695,-4.9 -125.793,-15.79 -15.504,-15.3 -33.605,-99.3 -53.902,-108.5 -24,-10.8 -51,-13.3 -73.5,-26.9 -34.801,-21.01 48.398,144.6 81,176.1 28.703,27.89 62.195,56.5 62.195,94.3 0,33.39 58.504,52.3 77.402,41.3 14.204,-8.3 -14.597,-35 -8.996,-66.01 4.399,-24.1 -56.004,-33.59 -40.906,-53.4 15.106,-19.79 125.106,-25.5 82.5,-41.1 z M 1685,1759.5 c -23.8,1.91 -48.3,-1.29 -71.4,4.2 -37.5,9.1 -212.9,326.21 -257.4,326.21 -76.3,0 -193.8,-198.11 -242.3,-250 -13.5,-14.61 -40,-54.61 -57.9,-65.31 -17.9,-10.69 -140.801,-100.59 -157.801,-110 -103.898,-60 -91.301,-200.79 -134.699,-200.79 -62.898,0 -70,219.49 -110,251.99 -40,32.5 -112.402,122 -167,122 -20,0 -97.398,-134.69 -167.398,-134.69 -75.602,-1.5 -198.606,-414.2 -225.1997,-492.4 -22.1015,-64.8 457.4997,201.99 707.4997,-16.8 344.798,-302 792.698,-377.711 1065.798,-377.711 113.6,0 9.1,543.301 -5,594.101 -21.6,77.6 -90.6,342.6 -177.2,349.2" /><path
         id="path16"
         style="fill:#e4a034;fill-opacity:1;fill-rule:nonzero;stroke:none"
         d="m 1677.7,710.398 c -165.7,109.114 -354,97.204 -545.1,107.411 -27.3,1.492 -54.6,3.492 -81.9,6.601 -199.001,188.3 -447.704,577.2 -686.399,332.69 C 244.902,1023.8 201.602,990.898 101.199,832.809 32.7969,725.102 0,413.699 0,413.699 h 1885.4 c 0,0 -88.8,177.012 -135.7,233.102 -20.97,24.398 -45.2,45.808 -72,63.597" /><path
         id="path18"
         style="fill:#f1b548;fill-opacity:1;fill-rule:nonzero;stroke:none"
         d="m 1756.4,499.41 c -21.6,10.59 -42.6,20 -60,26.301 -133.96,51.238 -271.53,45.769 -411.03,40.301 -98.14,-3.864 -197.22,-7.711 -296.671,8.187 -19.754,2.551 -39.347,6.18 -58.699,10.903 C 782.098,613 699.301,832.809 530.801,832.809 c -137.403,0 -116.602,-166.008 -203.903,-220 -110,-68.11 -180,-46.61 -272.6988,-199.008 H 1885.4 c 0,0 -28.9,23.508 -66.7,50 -19.86,13.39 -40.68,25.289 -62.3,35.609" /><path
         id="path20"
         style="fill:#d1891b;fill-opacity:1;fill-rule:nonzero;stroke:none"
         d="M 1025.8,868.398 C 702.5,1264.01 543.301,1357 364.301,1157.1 244.902,1034.91 220,1064.4 101.199,832.809 c 125.5,-38.797 169,59.5 258.602,170.001 189,244.29 491.898,20 631.097,-223.798 20.002,-33.301 92.902,-149.41 285.802,-56.301 130.6,63 329.3,8.187 433.3,-37 -165.4,135.988 -381.6,123.488 -576.5,132 -27.9,1.801 -89.2,28 -107.7,50.687" /><path
         id="path22"
         style="fill:#d1891b;fill-opacity:1;fill-rule:nonzero;stroke:none"
         d="m 224.801,1230.3 c -45.403,-27 -39,-70.5 -37.399,-96.29 1.399,-22.31 24.496,-18.5 33.297,16.3 8.805,34.8 70,34.6 70,56.59 0,22.01 -20.699,50.31 -65.898,23.4" /><path
         id="path24"
         style="fill:#d1891b;fill-opacity:1;fill-rule:nonzero;stroke:none"
         d="m 178.301,1087.81 c -8.985,-4.39 -12.703,-15.23 -8.321,-24.21 4.391,-8.99 15.231,-12.71 24.208,-8.32 8.988,4.39 12.707,15.23 8.324,24.21 l -0.012,0.02 c -4.395,8.96 -15.227,12.68 -24.199,8.3" /><path
         id="path26"
         style="fill:#f57d76;fill-opacity:1;fill-rule:nonzero;stroke:none"
         d="m 1068.7,819.41 -4.1,-5.398 c 82,12.789 115.9,46.789 128.5,80 l -46.1,-3.91 52,30 c 1.64,18.488 -0.71,37.109 -6.9,54.597 -54.2,-40.597 -117.8,-148 -123.4,-155.289" /><path
         id="path28"
         style="fill:#3b2327;fill-opacity:1;fill-rule:nonzero;stroke:none"
         d="m 1036.4,722.809 c 0,-12.411 0.7,-32.411 1.3,-65.098 h 3.4 c 0,0 -0.8,40.988 -1.3,65.988 l -3.4,-0.89" /><path
         id="path30"
         style="fill:#f2544a;fill-opacity:1;fill-rule:nonzero;stroke:none"
         d="m 1063.8,818 c 0.9,1.102 108,136.512 128.3,156.91 C 1074.3,956.699 1064.1,841.602 1063.8,818" /><path
         id="path32"
         style="fill:#3b2327;fill-opacity:1;fill-rule:nonzero;stroke:none"
         d="m 1063.8,818 c -11.8,-14.949 -20.37,-32.18 -25.2,-50.59 0.9,-1 1.7,-2.101 2.5,-3.109 4.13,18.168 12.15,35.23 23.5,50 1.3,1.808 116.1,151.097 115.9,151.008 C 1167.4,955.711 1064.7,819.102 1063.8,818" /><path
         id="path34"
         style="fill:#3b2327;fill-opacity:1;fill-rule:nonzero;stroke:none"
         d="m 1038.6,767.809 c -31.4,39.293 -95.702,90.589 -190.002,57.691 3.101,-0.988 66.5,-20 71.898,-22.289 l -1.695,22.398 1.387,1.789 0.21,0.012 c 0.907,0.051 1.696,-0.609 1.805,-1.512 l 1.899,-24.199 c 10,-4.199 20,-8.699 31.195,-13.59 l 1.203,-0.609 8.004,-3.699 c 8.797,-4.102 17.598,-8.301 26.297,-12.602 v 23.5 c 0.004,0.949 0.765,1.699 1.711,1.699 0.929,-0.007 1.683,-0.757 1.687,-1.699 v -25.097 c 10.001,-5 20.001,-10 30.001,-15.293 l 2.9,-1.5 c 12.17,-5.977 23.81,-12.969 34.8,-20.899 -5.98,11.399 -12.97,22.238 -20.9,32.399 l -2.4,3.5" /><path
         id="path36"
         style="fill:#3b2327;fill-opacity:1;fill-rule:nonzero;stroke:none"
         d="m 977.402,734.512 h -0.703 l -1.601,0.988 c -0.289,0.91 0.136,1.898 1,2.309 l 40.802,16.793 c -17.396,9.007 -58.599,28.609 -61.201,30 l -33.695,-27.293 h -1.106 l -1.296,0.589 v 2.411 l 32.5,26.293 c -10,4.699 -20,9.007 -30,13.097 -6.004,2.5 -12.004,4.813 -17.801,6.903 l -31.504,-15 h -0.695 c -0.926,-0.172 -1.813,0.429 -1.989,1.359 l 1.188,1.949 L 900,807.602 849.199,825.5 c 2.852,-21.352 10.321,-41.82 21.899,-60 l 37.004,12.711 -17.301,-35.5 c 27.398,-24.313 72.301,-40 145.799,-20 l 3.4,0.898 c 6.3,1.789 12.9,3.801 20,6.09 -12.45,8.231 -25.33,15.77 -38.6,22.61 l -43.998,-17.797" /><path
         id="path38"
         style="fill:#b41e69;fill-opacity:1;fill-rule:nonzero;stroke:none"
         d="m 1062.3,731.602 c -10.99,7.929 -22.63,14.929 -34.8,20.898 l -2.9,1.512 c -10,5.187 -20,10 -29.998,15.289 v 25.109 c -0.008,0.93 -0.77,1.692 -1.711,1.692 -0.934,0 -1.684,-0.762 -1.692,-1.692 v -22.808 c -8.699,4.296 -17.5,8.5 -26.297,12.597 l -8.004,3.699 -1.199,0.614 c -10.898,4.886 -21.097,9.386 -31.195,13.59 l -1.906,24.199 c -0.102,0.898 -0.895,1.558 -1.797,1.508 l -1.613,-1.598 0.011,-0.199 1.699,-22.403 C 915.496,805.801 849.301,826.801 849,825.898 848.699,825 885.398,813.109 899.801,808 l -28.5,-13.191 -1.145,-2.118 1.946,-1.179 h 0.695 l 31.601,14.597 c 5.801,-2.097 11.801,-4.41 17.805,-6.91 10,-4.097 20,-8.398 30,-13.09 L 920,759.602 v -2.403 l 1.301,-0.597 h 1.101 l 33.696,27.308 c 2.601,-1.199 43.804,-20.801 61.202,-30 l -40.8,-16.808 c -0.863,-0.403 -1.289,-1.383 -1.004,-2.293 l 1.606,-1.008 h 0.695 l 43.403,17.898 c 13.26,-6.82 26.15,-14.367 38.6,-22.597 3.71,-2.93 7.06,-6.293 10,-10 13.18,-15.852 19.93,-36.102 18.9,-56.692 v -5.609 h 3.5 v 5.609 c 0.98,21.481 -6.16,42.531 -20,59 -2.87,3.781 -6.2,7.211 -9.9,10.192" /><path
         id="path40"
         style="fill:#ee4836;fill-opacity:1;fill-rule:nonzero;stroke:none"
         d="m 1883.8,668.109 h -807 c -62.6,-0.05 -121.659,-29.019 -159.999,-78.507 -140,-180 -189.301,-6.391 -343.403,-6.391 C 405.098,583.211 464.902,484.699 325.297,478 61.8984,465.398 3.39844,413.699 3.39844,413.699 H 2003.4 v 134.813 c -0.22,65.957 -53.63,119.367 -119.6,119.597" /><path
         id="path42"
         style="fill:#c2c1e6;fill-opacity:1;fill-rule:nonzero;stroke:none"
         d="m 1139.3,691.602 c 0,-9.883 8.01,-17.903 17.9,-17.903 H 1360 v 35.813 h -202.8 c -9.89,0 -17.9,-8.024 -17.9,-17.91" /><path
         id="path44"
         style="fill:#c2c1e6;fill-opacity:1;fill-rule:nonzero;stroke:none"
         d="m 1461,870.398 h -204.3 l -6.6,-68.089 c -0.96,-10.321 2.7,-20.547 10,-27.899 l 64.9,-65 h 198.1 l -64.7,77.899 2.6,83.089" /><path
         id="path46"
         style="fill:#6168bb;fill-opacity:1;fill-rule:nonzero;stroke:none"
         d="m 1253.8,840.609 h 206.3 l 0.9,29.789 h -204.3 l -2.9,-29.789" /><path
         id="path48"
         style="fill:#24356c;fill-opacity:1;fill-rule:nonzero;stroke:none"
         d="m 1480,799.699 7.3,70.699 h -36 l -6.6,-68.089 c -0.96,-10.321 2.7,-20.547 10,-27.899 l 65,-65 h -168 c -9.88,0 -17.9,-8.019 -17.9,-17.898 0,-9.903 8.02,-17.903 17.9,-17.903 h 170.6 c 16.46,0.032 30.64,11.59 34,27.692 2.17,11.949 -1.77,24.168 -10.5,32.609 l -65.8,65.789" /><path
         id="path50"
         style="fill:#24356c;fill-opacity:1;fill-rule:nonzero;stroke:none"
         d="M 1869.4,1577.5 H 947.797 c -31.172,0.13 -57.246,-23.64 -60,-54.7 L 836.5,934.809 c -2.762,-33.028 21.77,-62.028 54.789,-64.797 1.734,-0.141 3.473,-0.211 5.211,-0.203 H 1818 c 31.14,-0.129 57.2,23.582 60,54.601 l 51.4,588 c 2.82,33.01 -21.67,62.06 -54.68,64.88 -1.77,0.15 -3.55,0.22 -5.32,0.21" /><path
         id="path52"
         style="fill:#c2c1e6;fill-opacity:1;fill-rule:nonzero;stroke:none"
         d="M 1848.8,1577.5 H 927.301 c -28.629,-0.14 -53.16,-20.49 -58.602,-48.59 0,-2.01 -52.297,-594.101 -52.297,-594.101 -2.765,-33.028 21.766,-62.028 54.789,-64.797 1.735,-0.141 3.473,-0.211 5.211,-0.203 H 1797.9 c 31.13,-0.129 57.2,23.582 60,54.601 l 51.3,588 c 2.82,33.01 -21.66,62.06 -54.68,64.88 -1.9,0.16 -3.81,0.23 -5.72,0.21" /><path
         id="path54"
         style="fill:#64206f;fill-opacity:1;fill-rule:nonzero;stroke:none"
         d="M 1848.9,1541.61 H 927.301 c -12.477,0.09 -22.906,-9.47 -23.903,-21.9 L 900,1485 852.102,931.602 c -0.649,-6.731 1.609,-13.422 6.199,-18.391 4.594,-4.891 10.996,-7.672 17.699,-7.711 h 921.6 c 12.48,-0.09 22.91,9.469 23.9,21.91 l 48.5,557.59 2.7,30 c 1.16,13.21 -8.61,24.85 -21.81,26.02 l -2.19,0.09 0.2,0.5" /><path
         id="path56"
         style="fill:#24356c;fill-opacity:1;fill-rule:nonzero;stroke:none"
         d="M 1848.8,1541.61 H 927.301 c -12.477,0.09 -22.906,-9.47 -23.903,-21.9 L 852.004,931.602 c -1.051,-13.321 8.894,-24.981 22.219,-26.02 L 876,905.5 h 921.6 c 12.46,-0.039 22.86,9.488 23.9,21.91 l 51.3,587.99 c 1.16,13.21 -8.6,24.85 -21.8,26.01 l -2.2,0.1 v 0.1" /><path
         id="path58"
         style="fill:#141920;fill-opacity:1;fill-rule:nonzero;stroke:none"
         d="M 1848.8,1541.61 H 1275.1 V 905.609 h 522.5 c 12.46,-0.05 22.86,9.481 23.9,21.891 l 51.3,588.01 c 1.16,13.2 -8.6,24.85 -21.8,26 l -2.2,0.1" /><path
         id="path60"
         style="fill:#141920;fill-opacity:1;fill-rule:nonzero;stroke:none"
         d="m 1090,959.199 c -2.43,-27.058 17.54,-50.961 44.6,-53.398 1.46,-0.129 2.93,-0.192 4.4,-0.192 h 471 l 10,115.191 h -525 l -5,-61.601" /><path
         id="path62"
         style="fill:#6168bb;fill-opacity:1;fill-rule:nonzero;stroke:none"
         d="m 1202,1578.7 c -41,-0.9 -58.5,-21.2 -62.9,-72.29 l -50,-551.898 c 3.4,39.289 31.3,57.088 63.8,57.188 l 502.4,2.71 c 7.62,0.01 15.12,1.82 21.9,5.29 16.2,7.86 27.16,23.58 28.9,41.5 l 45.2,517.3 h -26.8 l -522.5,0.2" /><path
         id="path64"
         style="fill:#546fbf;fill-opacity:1;fill-rule:nonzero;stroke:none"
         d="m 1162.7,1081.11 h -40 c -3.7,0.11 -6.83,-2.71 -7.1,-6.4 l -2.6,-23.11 c -0.33,-3.9 2.57,-7.34 6.47,-7.67 l 0.53,-0.02 h 40 c 3.7,-0.12 6.84,2.7 7.1,6.4 0.66,7.99 1.37,15.89 2.1,23.7 0.06,3.71 -2.79,6.83 -6.5,7.1" /><path
         id="path66"
         style="fill:#546fbf;fill-opacity:1;fill-rule:nonzero;stroke:none"
         d="m 1234.2,1081.11 h -40 c -3.68,0.06 -6.79,-2.74 -7.1,-6.4 l -2,-23.6 c -0.38,-3.85 2.42,-7.29 6.27,-7.67 l 0.73,-0.04 h 40 c 3.7,-0.12 6.84,2.72 7.1,6.41 0.73,8 1.43,15.9 2.1,23.69 0.33,3.86 -2.52,7.25 -6.37,7.58 l -0.73,0.03" /><path
         id="path68"
         style="fill:#546fbf;fill-opacity:1;fill-rule:nonzero;stroke:none"
         d="m 1305.8,1081.11 h -40.5 c -3.7,0.11 -6.83,-2.71 -7.1,-6.4 l -2.1,-23.6 c -0.33,-3.91 2.57,-7.35 6.48,-7.68 l 0.52,-0.03 h 40.5 c 3.69,-0.06 6.78,2.74 7.1,6.41 0.7,8 1.4,15.9 2,23.69 0.39,3.8 -2.38,7.18 -6.17,7.57 l -0.73,0.04" /><path
         id="path70"
         style="fill:#546fbf;fill-opacity:1;fill-rule:nonzero;stroke:none"
         d="m 1377.3,1081.11 h -40 c -3.7,0.11 -6.83,-2.71 -7.1,-6.4 l -2,-23.6 c -0.39,-3.85 2.42,-7.29 6.26,-7.67 l 0.64,-0.04 h 40 c 3.7,-0.12 6.83,2.72 7.1,6.41 0.67,8 1.36,15.9 2.1,23.69 0.33,3.86 -2.52,7.25 -6.37,7.58 l -0.63,0.03" /><path
         id="path72"
         style="fill:#546fbf;fill-opacity:1;fill-rule:nonzero;stroke:none"
         d="m 1448.8,1081.11 h -40 c -3.66,0.01 -6.74,-2.76 -7.1,-6.4 l -2,-23.6 c -0.33,-3.91 2.57,-7.35 6.47,-7.68 l 0.53,-0.03 h 40 c 3.66,-0.06 6.74,2.76 7,6.41 0.67,8 1.37,15.9 2.1,23.69 0.33,3.86 -2.52,7.25 -6.38,7.58 l -0.62,0.03" /><path
         id="path74"
         style="fill:#546fbf;fill-opacity:1;fill-rule:nonzero;stroke:none"
         d="m 1520,1081.11 h -40 c -3.7,0.11 -6.84,-2.71 -7.1,-6.4 l -2.1,-23.6 c -0.33,-3.91 2.57,-7.35 6.48,-7.68 l 0.52,-0.03 h 40 c 3.7,-0.12 6.83,2.72 7.1,6.41 0.7,8 1.4,15.9 2,23.69 0.39,3.8 -2.37,7.18 -6.17,7.57 l -0.73,0.04" /><path
         id="path76"
         style="fill:#546fbf;fill-opacity:1;fill-rule:nonzero;stroke:none"
         d="m 1591.9,1081.11 h -40.5 c -3.7,0.11 -6.83,-2.71 -7.1,-6.4 l -2,-23.6 c -0.39,-3.85 2.42,-7.29 6.26,-7.67 l 0.64,-0.04 h 40.5 c 3.7,-0.12 6.83,2.72 7.1,6.41 0.67,8 1.36,15.9 2.1,23.69 0.33,3.86 -2.52,7.25 -6.37,7.58 l -0.63,0.03" /><path
         id="path78"
         style="fill:#546fbf;fill-opacity:1;fill-rule:nonzero;stroke:none"
         d="M 1650.9,1081.6 H 1623 c -3.7,0.12 -6.84,-2.7 -7.1,-6.4 l -2.1,-23.6 c -0.33,-3.9 2.57,-7.34 6.47,-7.67 l 0.53,-0.02 h 30 c 9.78,-0.1 17.96,7.36 18.8,17.1 1.16,10.15 -6.12,19.32 -16.28,20.48 l -2.42,0.11" /><path
         id="path80"
         style="fill:#546fbf;fill-opacity:1;fill-rule:nonzero;stroke:none"
         d="m 1107.1,1151.61 v 0 l -7.1,-78.4 -5.3,-59.3 c 3.4,39.2 31.3,57.09 63.8,57.2 l 548.8,2.1 11.9,132.59 H 1112 l -4.9,-54.19" /><path
         id="path82"
         style="fill:#c2c1e6;fill-opacity:1;fill-rule:nonzero;stroke:none"
         d="M 1695.4,1666.2 771.898,1667.8 730,1183.3 c -6.301,-71.79 63.598,-65.09 63.598,-65.09 l 854.402,-1.7 c 59.1,0 59,-47.61 58.6,-55.21 0,0 34.4,393.9 45.5,521.4 7.9,88.91 -56.7,83.5 -56.7,83.5" /><path
         id="path84"
         style="fill:#ffffff;fill-opacity:1;fill-rule:nonzero;stroke:none"
         d="m 873.102,1172.41 h -40 c -3.664,0.02 -6.739,-2.76 -7.102,-6.41 l -2.098,-23.59 c -0.332,-3.91 2.563,-7.35 6.473,-7.68 l 0.523,-0.02 h 40 c 3.704,-0.02 6.79,2.81 7.098,6.49 0.703,7.9 1.402,15.9 2.004,23.71 0.332,3.79 -2.477,7.14 -6.273,7.47 l -0.625,0.03" /><path
         id="path86"
         style="fill:#ffffff;fill-opacity:1;fill-rule:nonzero;stroke:none"
         d="m 944.602,1172.41 h -40 c -3.664,0.02 -6.743,-2.76 -7.102,-6.41 l -2.004,-23.59 c -0.437,-3.79 2.274,-7.22 6.059,-7.66 l 0.847,-0.04 h 40 c 3.696,-0.02 6.786,2.81 7.102,6.49 l 2.098,23.71 c 0.273,3.85 -2.625,7.2 -6.485,7.48 l -0.515,0.02" /><path
         id="path88"
         style="fill:#ffffff;fill-opacity:1;fill-rule:nonzero;stroke:none"
         d="m 1016.1,1172.41 h -40.002 c -3.66,0.02 -6.739,-2.76 -7.098,-6.41 l -2.102,-23.59 c -0.382,-3.85 2.418,-7.28 6.266,-7.67 l 0.738,-0.03 h 40.498 c 3.68,0.03 6.74,2.83 7.1,6.49 0.6,7.9 1.3,15.9 2,23.71 0.34,3.79 -2.46,7.14 -6.25,7.48 l -1.15,0.02" /><path
         id="path90"
         style="fill:#ffffff;fill-opacity:1;fill-rule:nonzero;stroke:none"
         d="m 1087.7,1172.41 h -40 c -3.67,0.02 -6.74,-2.76 -7.1,-6.41 l -2.1,-23.59 c -0.34,-3.91 2.56,-7.35 6.47,-7.68 l 0.53,-0.02 h 40 c 3.7,-0.02 6.79,2.81 7.1,6.49 l 2.1,23.71 c 0.28,3.85 -2.63,7.2 -6.48,7.48 l -0.52,0.02" /><path
         id="path92"
         style="fill:#ffffff;fill-opacity:1;fill-rule:nonzero;stroke:none"
         d="m 1159.2,1172.41 h -40 c -3.64,-0.03 -6.69,-2.78 -7.1,-6.41 l -2,-23.59 c -0.38,-3.85 2.42,-7.28 6.27,-7.67 l 0.73,-0.03 h 40 c 3.7,-0.02 6.79,2.81 7.1,6.49 0.7,7.9 1.4,15.9 2.1,23.71 0.27,3.85 -2.63,7.2 -6.49,7.48 l -0.61,0.02" /><path
         id="path94"
         style="fill:#ffffff;fill-opacity:1;fill-rule:nonzero;stroke:none"
         d="m 1230.8,1172.41 h -40 c -3.66,0.02 -6.74,-2.76 -7.1,-6.41 l -2.1,-23.59 c -0.33,-3.91 2.57,-7.35 6.48,-7.68 l 0.52,-0.02 h 40 c 3.68,0.03 6.74,2.83 7.1,6.49 0.7,7.9 1.4,15.9 2,23.71 0.33,3.79 -2.48,7.14 -6.27,7.47 l -0.63,0.03" /><path
         id="path96"
         style="fill:#ffffff;fill-opacity:1;fill-rule:nonzero;stroke:none"
         d="m 1302.3,1172.41 h -40 c -3.67,0.02 -6.74,-2.76 -7.1,-6.41 l -2,-23.59 c -0.45,-3.79 2.27,-7.22 6.06,-7.66 l 0.84,-0.04 h 40 c 3.7,-0.02 6.78,2.81 7.1,6.49 l 2.1,23.71 c 0.28,3.85 -2.63,7.2 -6.48,7.48 l -0.52,0.02" /><path
         id="path98"
         style="fill:#ffffff;fill-opacity:1;fill-rule:nonzero;stroke:none"
         d="m 1373.8,1172.41 h -40 c -3.64,-0.03 -6.69,-2.78 -7.1,-6.41 l -2,-23.59 c -0.38,-3.85 2.42,-7.28 6.27,-7.67 l 0.73,-0.03 h 40 c 3.66,0.03 6.69,2.85 7,6.49 0.7,7.9 1.4,15.9 2.1,23.71 0.27,3.85 -2.63,7.2 -6.48,7.48 l -0.52,0.02" /><path
         id="path100"
         style="fill:#ffffff;fill-opacity:1;fill-rule:nonzero;stroke:none"
         d="m 1445.4,1172.41 h -40 c -3.66,0.02 -6.74,-2.76 -7.1,-6.41 l -2.1,-23.59 c -0.33,-3.91 2.57,-7.35 6.48,-7.68 l 0.52,-0.02 h 40 c 3.69,-0.02 6.79,2.81 7.1,6.49 0.7,7.9 1.4,15.9 2,23.71 0.33,3.79 -2.48,7.14 -6.27,7.47 l -0.63,0.03" /><path
         id="path102"
         style="fill:#ffffff;fill-opacity:1;fill-rule:nonzero;stroke:none"
         d="m 1516.9,1172.41 h -40.5 c -3.67,0.02 -6.74,-2.76 -7.1,-6.41 l -2,-23.59 c -0.44,-3.79 2.27,-7.22 6.05,-7.66 l 0.85,-0.04 h 40.5 c 3.7,-0.02 6.78,2.81 7.1,6.49 0.7,7.9 1.4,15.9 2.1,23.71 0.28,3.85 -2.63,7.2 -6.48,7.48 l -0.52,0.02" /><path
         id="path104"
         style="fill:#ffffff;fill-opacity:1;fill-rule:nonzero;stroke:none"
         d="m 1588.4,1172.41 h -40 c -3.66,0.02 -6.74,-2.76 -7.1,-6.41 l -2.1,-23.59 c -0.39,-3.85 2.42,-7.28 6.27,-7.67 l 0.73,-0.03 h 40 c 3.68,0.03 6.74,2.83 7.1,6.49 0.7,7.9 1.3,15.9 2,23.71 0.33,3.79 -2.48,7.14 -6.28,7.47 l -0.62,0.03" /><path
         id="path106"
         style="fill:#ffffff;fill-opacity:1;fill-rule:nonzero;stroke:none"
         d="m 1647.4,1172.5 h -27.9 c -3.66,0.02 -6.74,-2.75 -7.1,-6.39 l -2.1,-23.61 c -0.33,-3.9 2.57,-7.34 6.48,-7.67 l 0.52,-0.03 h 30 c 9.75,-0.04 17.91,7.39 18.8,17.1 1.05,10.28 -6.43,19.46 -16.71,20.51 l -1.99,0.09" /><path
         id="path108"
         style="fill:#ffffff;fill-opacity:1;fill-rule:nonzero;stroke:none"
         d="m 1706.2,1061.6 v -1.39 c 0,0 -0.1,0.19 0,1.39" /><path
         id="path110"
         style="fill:#6168bb;fill-opacity:1;fill-rule:nonzero;stroke:none"
         d="M 771.699,1666.11 730,1183.11 c 0,0 14.504,64.69 81.402,44.79 l 42.098,482.5 c -12.5,6.9 -77.199,7.71 -81.801,-44.29" /><path
         id="path112"
         style="fill:#6168bb;fill-opacity:1;fill-rule:nonzero;stroke:none"
         d="m 1067.3,1240.71 6.4,67.7 -36.9,-32.9 z" /><path
         id="path114"
         style="fill:#6168bb;fill-opacity:1;fill-rule:nonzero;stroke:none"
         d="m 1014.2,1240.71 6.5,67.7 -37.001,-32.9 z" /><path
         id="path116"
         style="fill:#6168bb;fill-opacity:1;fill-rule:nonzero;stroke:none"
         d="m 961.098,1240.71 6.5,67.7 -36.899,-32.9 z" /><path
         id="path118"
         style="fill:#6168bb;fill-opacity:1;fill-rule:nonzero;stroke:none"
         d="m 907.996,1240.71 6.508,67.7 -36.906,-32.9 z" /><path
         id="path120"
         style="fill:#ffffff;fill-opacity:1;fill-rule:nonzero;stroke:none"
         d="m 1563.6,1547.5 36.6,-0.09 1.3,15.09 H 1565 l -1.4,-15" /><path
         id="path122"
         style="fill:#ffffff;fill-opacity:1;fill-rule:nonzero;stroke:none"
         d="m 1618.5,1547.41 h 18.3 l 1.3,15.09 h -18.3 l -1.3,-15.09" /><path
         id="path124"
         style="fill:#ffffff;fill-opacity:1;fill-rule:nonzero;stroke:none"
         d="m 1527.1,1547.5 h 18.2 l 1.4,15 h -18.3 l -1.3,-15" /><path
         id="path126"
         style="fill:#ffffff;fill-opacity:1;fill-rule:nonzero;stroke:none"
         d="m 1655.1,1547.41 h 18.3 l 1.3,15 h -18.3 l -1.3,-15" /><path
         id="path128"
         style="fill:#ffffff;fill-opacity:1;fill-rule:nonzero;stroke:none"
         d="m 1590.8,1461 37.5,-0.09 1.3,15.09 h -37.5 l -1.3,-15" /><path
         id="path130"
         style="fill:#24356c;fill-opacity:1;fill-rule:nonzero;stroke:none"
         d="m 1553.2,1461 h 18.8 l 1.3,15 h -18.8 l -1.3,-15" /><path
         id="path132"
         style="fill:#24356c;fill-opacity:1;fill-rule:nonzero;stroke:none"
         d="m 1647.1,1460.91 h 18.7 l 1.4,15.09 h -18.8 l -1.3,-15.09" /><path
         id="path134"
         style="fill:#ffffff;fill-opacity:1;fill-rule:nonzero;stroke:none"
         d="m 1515.7,1461 h 18.7 l 1.4,15 H 1517 l -1.3,-15" /><path
         id="path136"
         style="fill:#ffffff;fill-opacity:1;fill-rule:nonzero;stroke:none"
         d="m 1384.8,1273.01 h 37.6 l 1.3,15.1 h -37.6 l -1.3,-15.1" /><path
         id="path138"
         style="fill:#ffffff;fill-opacity:1;fill-rule:nonzero;stroke:none"
         d="m 1478.7,1273.01 h 18.7 l 1.4,15 H 1480 l -1.3,-15" /><path
         id="path140"
         style="fill:#ffffff;fill-opacity:1;fill-rule:nonzero;stroke:none"
         d="m 1516.2,1273.01 h 18.8 l 1.3,15 h -18.8 l -1.3,-15" /><path
         id="path142"
         style="fill:#ffffff;fill-opacity:1;fill-rule:nonzero;stroke:none"
         d="m 1441.1,1273.01 h 18.8 l 1.3,15 -18.8,0.1 -1.3,-15.1" /><path
         id="path144"
         style="fill:#ffffff;fill-opacity:1;fill-rule:nonzero;stroke:none"
         d="m 1399,1547.5 h 36.6 l 1.3,15.11 h -36.6 l -1.3,-15.11" /><path
         id="path146"
         style="fill:#ffffff;fill-opacity:1;fill-rule:nonzero;stroke:none"
         d="m 1362.5,1547.61 18.2,-0.11 1.4,15.11 h -18.3 l -1.3,-15" /><path
         id="path148"
         style="fill:#ffffff;fill-opacity:1;fill-rule:nonzero;stroke:none"
         d="m 1453.9,1547.5 h 18.3 l 1.3,15 h -18.3 l -1.3,-15" /><path
         id="path150"
         style="fill:#ffffff;fill-opacity:1;fill-rule:nonzero;stroke:none"
         d="m 1621.3,1343.11 37.5,-0.1 1.3,15.1 h -37.5 l -1.3,-15" /><path
         id="path152"
         style="fill:#ffffff;fill-opacity:1;fill-rule:nonzero;stroke:none"
         d="m 1565,1343.11 h 37.5 l 1.3,15 h -37.5 l -1.3,-15" /><path
         id="path154"
         style="fill:#ffffff;fill-opacity:1;fill-rule:nonzero;stroke:none"
         d="m 1508.7,1343.11 h 37.5 l 1.3,15.1 H 1510 l -1.3,-15.1" /><path
         id="path156"
         style="fill:#24356c;fill-opacity:1;fill-rule:nonzero;stroke:none"
         d="m 1089,1547.7 h 36.6 l 1.3,15 -36.6,0.1 -1.3,-15.1" /><path
         id="path158"
         style="fill:#24356c;fill-opacity:1;fill-rule:nonzero;stroke:none"
         d="m 1034.1,1547.7 h 36.6 l 1.3,15.1 h -36.5 l -1.4,-15.1" /><path
         id="path160"
         style="fill:#24356c;fill-opacity:1;fill-rule:nonzero;stroke:none"
         d="m 997.598,1547.8 h 18.202 l 1.4,15 h -18.298 l -1.304,-15" /><path
         id="path162"
         style="fill:#24356c;fill-opacity:1;fill-rule:nonzero;stroke:none"
         d="m 1143.9,1547.7 h 18.3 l 1.3,15 h -18.3 l -1.3,-15" /><path
         id="path164"
         style="fill:#ffffff;fill-opacity:1;fill-rule:nonzero;stroke:none"
         d="m 1614.7,1503.81 h 18.3 l 1.3,15 H 1616 l -1.3,-15" /><path
         id="path166"
         style="fill:#ffffff;fill-opacity:1;fill-rule:nonzero;stroke:none"
         d="m 1651.3,1503.7 h 18.3 l 1.3,15.11 h -18.3 l -1.3,-15.11" /><path
         id="path168"
         style="fill:#ffffff;fill-opacity:1;fill-rule:nonzero;stroke:none"
         d="m 1477.5,1503.91 h 18.3 l 1.3,15 h -18.3 l -1.3,-15" /><path
         id="path170"
         style="fill:#ffffff;fill-opacity:1;fill-rule:nonzero;stroke:none"
         d="m 1441,1503.91 h 18.2 l 1.4,15 h -18.3 l -1.3,-15" /><path
         id="path172"
         style="fill:#ffffff;fill-opacity:1;fill-rule:nonzero;stroke:none"
         d="m 1514.1,1503.91 18.3,-0.1 1.3,15.1 h -18.3 l -1.3,-15" /><path
         id="path174"
         style="fill:#ffffff;fill-opacity:1;fill-rule:nonzero;stroke:none"
         d="m 1431.4,1380.51 h 21.6 l 1.3,15 h -21.6 l -1.3,-15" /><path
         id="path176"
         style="fill:#24356c;fill-opacity:1;fill-rule:nonzero;stroke:none"
         d="m 1388,1380.51 h 21.7 l 1.3,15.1 h -21.6 l -1.4,-15.1" /><path
         id="path178"
         style="fill:#ffffff;fill-opacity:1;fill-rule:nonzero;stroke:none"
         d="m 1593.8,1380.4 h 21.7 l 1.3,15 h -21.7 l -1.3,-15" /><path
         id="path180"
         style="fill:#ffffff;fill-opacity:1;fill-rule:nonzero;stroke:none"
         d="m 1637.1,1380.4 h 21.7 l 1.3,15 h -21.6 l -1.4,-15" /><path
         id="path182"
         style="fill:#ffffff;fill-opacity:1;fill-rule:nonzero;stroke:none"
         d="m 1550.5,1380.4 h 21.7 l 1.3,15.11 h -21.7 l -1.3,-15.11" /><path
         id="path184"
         style="fill:#ffffff;fill-opacity:1;fill-rule:nonzero;stroke:none"
         d="m 1289.7,1547.61 h 18.3 l 1.4,15 H 1291 l -1.3,-15" /><path
         id="path186"
         style="fill:#24356c;fill-opacity:1;fill-rule:nonzero;stroke:none"
         d="m 1217,1547.61 h 18.3 l 1.3,15.09 h -18.3 l -1.3,-15.09" /><path
         id="path188"
         style="fill:#ffffff;fill-opacity:1;fill-rule:nonzero;stroke:none"
         d="m 1544.4,1205.8 h 36.5 l 1.3,15 h -36.6 l -1.2,-15" /><path
         id="path190"
         style="fill:#ffffff;fill-opacity:1;fill-rule:nonzero;stroke:none"
         d="m 1507.8,1205.8 h 18.2 l 1.4,15 h -18.3 l -1.3,-15" /><path
         id="path192"
         style="fill:#ffffff;fill-opacity:1;fill-rule:nonzero;stroke:none"
         d="m 1599.2,1205.8 18.3,-0.09 1.3,15.09 h -18.3 l -1.3,-15" /><path
         id="path194"
         style="fill:#24356c;fill-opacity:1;fill-rule:nonzero;stroke:none"
         d="m 1234.3,1206 36.6,-0.09 1.3,15.09 h -36.6 l -1.3,-15" /><path
         id="path196"
         style="fill:#24356c;fill-opacity:1;fill-rule:nonzero;stroke:none"
         d="m 1179.4,1206 h 36.6 l 1.3,15 h -36.5 l -1.4,-15" /><path
         id="path198"
         style="fill:#24356c;fill-opacity:1;fill-rule:nonzero;stroke:none"
         d="m 1142.9,1206 h 18.2 l 1.4,15 h -18.3 l -1.3,-15" /><path
         id="path200"
         style="fill:#24356c;fill-opacity:1;fill-rule:nonzero;stroke:none"
         d="m 1289.2,1205.91 h 18.3 l 1.3,15.09 h -18.3 l -1.3,-15.09" /><path
         id="path202"
         style="fill:#ffffff;fill-opacity:1;fill-rule:nonzero;stroke:none"
         d="m 1435,1205.8 h 18.3 l 1.4,15.11 h -18.3 l -1.4,-15.11" /><path
         id="path204"
         style="fill:#24356c;fill-opacity:1;fill-rule:nonzero;stroke:none"
         d="m 1362.3,1205.91 h 18.3 l 1.3,15 h -18.2 l -1.4,-15" /><path
         id="path206"
         style="fill:#ffffff;fill-opacity:1;fill-rule:nonzero;stroke:none"
         d="m 907.402,1631.61 h -40 c -3.664,-0.04 -6.695,-2.86 -7.004,-6.5 l -2.601,-23.5 c -0.324,-3.91 2.57,-7.35 6.476,-7.68 l 0.528,-0.02 h 40 c 3.695,-0.02 6.785,2.81 7.097,6.49 l 2.102,23.61 c 0.285,3.9 -2.652,7.31 -6.562,7.59 l -0.036,0.01" /><path
         id="path208"
         style="fill:#ffffff;fill-opacity:1;fill-rule:nonzero;stroke:none"
         d="m 979,1631.61 h -40.5 c -3.699,0.01 -6.785,-2.82 -7.098,-6.5 l -2.101,-23.5 c -0.278,-3.97 2.711,-7.41 6.679,-7.69 l 0.321,-0.01 h 40.5 c 3.695,-0.02 6.789,2.81 7.101,6.49 0.7,7.9 1.395,15.8 1.996,23.61 0.332,3.85 -2.519,7.24 -6.371,7.57 l -0.527,0.03" /><path
         id="path210"
         style="fill:#ffffff;fill-opacity:1;fill-rule:nonzero;stroke:none"
         d="m 1050.5,1631.61 h -40 c -3.68,-0.04 -6.74,-2.84 -7.1,-6.5 l -2,-23.6 c -0.38,-3.85 2.42,-7.28 6.27,-7.67 l 0.63,-0.03 h 40 c 3.7,-0.02 6.79,2.81 7.1,6.49 l 2.1,23.61 c 0.33,3.9 -2.57,7.34 -6.47,7.67 l -0.53,0.03" /><path
         id="path212"
         style="fill:#ffffff;fill-opacity:1;fill-rule:nonzero;stroke:none"
         d="m 1122,1631.61 h -40 c -3.7,0.01 -6.79,-2.82 -7.1,-6.5 l -2.5,-23.5 c -0.28,-3.97 2.72,-7.41 6.68,-7.69 l 0.32,-0.01 h 40 c 3.68,0.03 6.74,2.83 7.1,6.49 0.6,7.9 1.3,15.8 2,23.61 0.34,3.85 -2.5,7.24 -6.36,7.58 l -0.14,0.02" /><path
         id="path214"
         style="fill:#ffffff;fill-opacity:1;fill-rule:nonzero;stroke:none"
         d="m 1193.6,1631.61 h -40 c -3.7,0.01 -6.78,-2.82 -7.1,-6.5 l -2.6,-23.5 c -0.28,-3.97 2.71,-7.41 6.68,-7.69 l 0.32,-0.01 h 40 c 3.7,-0.02 6.79,2.81 7.1,6.49 l 2.1,23.61 c 0.29,3.88 -2.61,7.28 -6.5,7.6" /><path
         id="path216"
         style="fill:#ffffff;fill-opacity:1;fill-rule:nonzero;stroke:none"
         d="m 1265.1,1631.61 h -40.5 c -3.68,-0.04 -6.74,-2.84 -7.1,-6.5 l -2,-23.6 c -0.33,-3.91 2.57,-7.35 6.47,-7.68 l 0.53,-0.02 h 40 c 3.7,-0.02 6.79,2.81 7.1,6.49 l 2.1,23.61 c 0.34,3.9 -2.55,7.34 -6.46,7.68 l -0.14,0.02" /><path
         id="path218"
         style="fill:#ffffff;fill-opacity:1;fill-rule:nonzero;stroke:none"
         d="m 1336.7,1631.61 h -40 c -3.7,0.01 -6.79,-2.82 -7.1,-6.5 l -2.6,-23.5 c -0.28,-3.97 2.72,-7.41 6.68,-7.69 l 0.32,-0.01 h 40 c 3.68,0.03 6.74,2.83 7.1,6.49 0.7,7.9 1.4,15.8 2,23.61 0.35,3.85 -2.49,7.25 -6.35,7.59 l -0.05,0.01" /><path
         id="path220"
         style="fill:#ffffff;fill-opacity:1;fill-rule:nonzero;stroke:none"
         d="m 1408.2,1631.61 h -40 c -3.7,0.01 -6.78,-2.82 -7.1,-6.5 l -2,-23.6 c -0.39,-3.85 2.41,-7.28 6.26,-7.67 l 0.64,-0.03 h 40 c 3.7,-0.02 6.78,2.81 7.1,6.49 l 2.1,23.61 c 0.33,3.9 -2.56,7.34 -6.47,7.67 l -0.53,0.03" /><path
         id="path222"
         style="fill:#ffffff;fill-opacity:1;fill-rule:nonzero;stroke:none"
         d="m 1480,1631.61 h -40.5 c -3.66,-0.04 -6.69,-2.86 -7,-6.5 l -2.5,-23.5 c -0.33,-3.91 2.57,-7.35 6.47,-7.68 l 0.53,-0.02 h 40 c 3.7,-0.02 6.79,2.81 7.1,6.49 l 2.1,23.61 c 0.29,3.78 -2.43,7.13 -6.2,7.6" /><path
         id="path224"
         style="fill:#ffffff;fill-opacity:1;fill-rule:nonzero;stroke:none"
         d="m 1551.3,1631.61 h -40 c -3.7,0.01 -6.79,-2.82 -7.1,-6.5 l -2.6,-23.5 c -0.28,-3.97 2.72,-7.41 6.68,-7.69 l 0.32,-0.01 h 40 c 3.69,-0.02 6.79,2.81 7.1,6.49 l 2.1,23.61 c 0.29,3.88 -2.61,7.28 -6.5,7.6" /><path
         id="path226"
         style="fill:#ffffff;fill-opacity:1;fill-rule:nonzero;stroke:none"
         d="m 1622.8,1631.61 h -40.5 c -3.68,-0.04 -6.74,-2.84 -7.1,-6.5 l -2,-23.6 c -0.39,-3.85 2.42,-7.28 6.26,-7.67 l 0.64,-0.03 h 40.5 c 3.7,-0.02 6.78,2.81 7.1,6.49 l 2.1,23.61 c 0.33,3.9 -2.56,7.34 -6.47,7.67 l -0.53,0.03" /><path
         id="path228"
         style="fill:#ffffff;fill-opacity:1;fill-rule:nonzero;stroke:none"
         d="m 1681.8,1631.61 h -27.9 c -3.69,0.01 -6.79,-2.82 -7.1,-6.5 l -2.1,-23.5 c -0.28,-3.97 2.71,-7.41 6.68,-7.69 l 0.32,-0.01 h 30 c 9.44,0.14 17.29,7.3 18.3,16.7 1.33,10.18 -5.86,19.52 -16.04,20.84 l -2.16,0.16" /><path
         id="path230"
         style="fill:#ffffff;fill-opacity:1;fill-rule:nonzero;stroke:none"
         d="m 1213.4,1530.4 c -74.61,-6.21 -132.33,-68.03 -133.4,-142.9 -0.98,-67.86 53.25,-123.67 121.12,-124.65 4.16,-0.06 8.33,0.09 12.48,0.45 74.63,6.18 132.37,68.03 133.4,142.9 0.98,67.87 -53.25,123.68 -121.12,124.66 -4.16,0.06 -8.33,-0.09 -12.48,-0.46" /><path
         id="path232"
         style="fill:#ee4836;fill-opacity:1;fill-rule:nonzero;stroke:none"
         d="m 1213.4,1511.61 c -64.43,-5.3 -114.29,-58.67 -115.2,-123.31 -0.61,-58.53 46.35,-106.48 104.9,-107.09 3.43,-0.03 6.87,0.1 10.3,0.4 64.46,5.25 114.38,58.62 115.3,123.3 0.62,58.54 -46.35,106.48 -104.88,107.1 -3.48,0.03 -6.95,-0.1 -10.42,-0.4" /><path
         id="path234"
         style="fill:#ffffff;fill-opacity:1;fill-rule:nonzero;stroke:none"
         d="m 1213.4,1492.21 c -53.27,-4.42 -94.5,-48.55 -95.3,-102.01 -0.68,-48.42 38.03,-88.24 86.46,-88.92 2.95,-0.04 5.9,0.07 8.84,0.33 53.34,4.32 94.65,48.49 95.4,102 0.62,48.48 -38.17,88.29 -86.66,88.92 -2.92,0.04 -5.83,-0.07 -8.74,-0.32" /><path
         id="path236"
         style="fill:#ee4836;fill-opacity:1;fill-rule:nonzero;stroke:none"
         d="m 1213.4,1470.11 c -41.02,-3.4 -72.77,-37.35 -73.4,-78.5 -0.53,-37.23 29.22,-67.82 66.45,-68.35 2.25,-0.03 4.51,0.05 6.75,0.24 40.86,3.38 72.56,37.11 73.4,78.11 0.74,37.21 -28.82,67.99 -66.03,68.73 -2.4,0.05 -4.79,-0.03 -7.17,-0.23" /><path
         id="path238"
         style="fill:#ffffff;fill-opacity:1;fill-rule:nonzero;stroke:none"
         d="m 1213.4,1450.11 c -29.79,-2.43 -52.83,-27.12 -53.2,-57 -0.72,-27 20.59,-49.47 47.59,-50.18 1.88,-0.05 3.74,0.01 5.61,0.18 29.8,2.42 52.88,27.1 53.3,57 0.65,27.05 -20.74,49.51 -47.79,50.17 -1.84,0.04 -3.68,-0.01 -5.51,-0.17" /><path
         id="path240"
         style="fill:#6168bb;fill-opacity:1;fill-rule:nonzero;stroke:none"
         d="m 1178.1,1315.61 85.6,76.29 -70.6,80.71 z" /><path
         id="path242"
         style="fill:#141920;fill-opacity:1;fill-rule:nonzero;stroke:none"
         d="m 1122.6,1466.61 c 0.48,-22.96 7.41,-45.31 20,-64.51 H 751.301 c -17.754,11.59 -32.801,26.87 -44.098,44.8 H 605.496 c 12.449,-19.68 28.699,-36.68 47.805,-50 -19.098,-13.29 -35.317,-30.29 -47.699,-50 h 101.402 c 11.601,17.74 26.668,32.94 44.297,44.71 H 1142.8 c -12.43,-19.35 -19.34,-41.72 -20,-64.71 23.3,28.61 50.6,55.9 85.2,70 -34.16,15.22 -63.64,39.28 -85.4,69.71" /><path
         id="path244"
         style="fill:#4394d7;fill-opacity:1;fill-rule:nonzero;stroke:none"
         d="m 281.301,819.809 c 0,0 -21.301,-243.61 132.5,-406.11 h 94.398 c 0,0 14.598,314.91 -226.898,406.11" /><path
         id="path246"
         style="fill:#b29b4b;fill-opacity:1;fill-rule:nonzero;stroke:none"
         d="m 319.996,802.211 c -12.055,6.5 -24.859,12.359 -38.504,17.519 0.004,0.051 0.008,0.079 0.008,0.079 13.227,-4.93 26.094,-10.778 38.5,-17.5 0,-0.028 -0.004,-0.059 -0.004,-0.098" /><path
         id="path248"
         style="fill:#3f8dd0;fill-opacity:1;fill-rule:nonzero;stroke:none"
         d="m 453.102,413.699 h -39.301 c -0.227,0.242 -0.453,0.481 -0.676,0.723 -151.527,160.867 -132.039,400.527 -131.633,405.308 13.645,-5.16 26.449,-11.019 38.504,-17.519 -1.59,-58.813 4.274,-252.18 133.106,-388.512" /><path
         id="path250"
         style="fill:#24356c;fill-opacity:1;fill-rule:nonzero;stroke:none"
         d="m 445.297,473.109 c -5.531,20.801 -11.43,40.801 -17.699,60 3.402,7.602 34.804,80 26.304,134.301 -0.226,1.488 -1.613,2.52 -3.101,2.289 -1.492,-0.211 -2.52,-1.597 -2.301,-3.097 7.102,-45.891 -15.504,-106.204 -23.402,-125.59 -6.664,19.199 -13.328,37.558 -20,55.097 -7.301,18.403 -14.7,35.903 -22.102,52.289 0.602,5.512 8.305,75.903 4.703,106.602 -0.164,1.5 -1.508,2.57 -2.996,2.41 -1.496,-0.172 -2.57,-1.519 -2.402,-3 1.238,-32.148 -0.031,-64.359 -3.801,-96.301 -8.797,18.801 -17.402,36.192 -25.801,51.993 v 0.796 c -19.91,38.434 -42.851,75.223 -68.597,110 -1.09,1.063 -2.817,1.063 -3.903,0 -1.078,-1.019 -1.113,-2.726 -0.082,-3.816 l 0.082,-0.07 c 24.387,-32.84 46.184,-67.5 65.199,-103.711 -19.632,5.769 -39.695,9.949 -60,12.5 -1.488,0.14 -2.808,-0.949 -2.949,-2.449 -0.14,-1.493 0.957,-2.813 2.453,-2.954 21.86,-2.898 43.461,-7.507 64.602,-13.796 18.793,-35.52 35.652,-72.051 50.496,-109.403 -12.898,1.602 -50,5.91 -90.801,6.903 -1.488,0.058 -2.746,-1.102 -2.797,-2.59 v -0.102 c -0.058,-1.488 1.102,-2.738 2.59,-2.801 H 309 c 31.172,-0.777 62.277,-3.187 93.203,-7.199 14.852,-38 27.578,-76.789 38.094,-116.199 -29.051,10.32 -58.625,19.129 -88.598,26.391 -1.379,0.41 -2.82,-0.372 -3.238,-1.743 l -0.063,-0.257 c -0.371,-1.442 0.504,-2.911 1.946,-3.282 l 0.054,-0.019 c 30.457,-7.371 60.497,-16.36 90,-26.891 4.7,-18.398 9.204,-37.308 13.102,-56.808 0.25,-1.27 1.402,-2.172 2.699,-2.102 1.461,0.301 2.406,1.73 2.102,3.191 v 0.008 c -4,20 -8.598,40 -13.598,58.61 l 0.594,0.8" /><path
         id="path252"
         style="fill:#24356c;fill-opacity:1;fill-rule:nonzero;stroke:none"
         d="m 495.898,544.012 c -1.484,0.097 -2.785,-1 -2.894,-2.492 l -0.008,-0.008 c -3.293,-40 -44.094,-100 -44.496,-100.5 -0.859,-1.223 -0.57,-2.91 0.645,-3.774 l 0.054,-0.039 h 1.5 c 0.922,-0.008 1.789,0.442 2.297,1.199 1.707,2.5 42.004,61.911 45.402,103.012 -0.128,1.34 -1.164,2.41 -2.5,2.602" /><path
         id="path254"
         style="fill:#b41e69;fill-opacity:1;fill-rule:nonzero;stroke:none"
         d="m 93.7969,567.898 c 0,0 26.2031,-103.597 114.9021,-154.199 h 60 c 0,0 -0.301,158.711 -174.9021,154.199" /><path
         id="path256"
         style="fill:#8e154a;fill-opacity:1;fill-rule:nonzero;stroke:none"
         d="m 118.102,567.41 c -7.704,0 -15.801,0.699 -24.3051,0 0,0 26.5001,-103.609 114.9021,-154.199 h 24.199 C 147.996,462.309 120,559.809 118.102,567.41" /><path
         id="path258"
         style="fill:#3b2327;fill-opacity:1;fill-rule:nonzero;stroke:none"
         d="m 236.801,434.41 c -2.891,6.68 -6.231,13.16 -10,19.391 3.172,18.898 2.32,38.25 -2.5,56.808 l -1.496,0.801 h -0.008 l -0.918,-1.441 0.019,-0.059 c 4.579,-17.219 5.563,-35.191 2.903,-52.808 -3.5,5.609 -7.301,10.898 -11.203,16.007 -5.965,7.571 -12.41,14.743 -19.297,21.493 0,3 -1.703,28.296 -10,38.699 h -1.699 -0.004 l -0.102,-1.692 0.102,-0.097 c 5.703,-10.633 8.824,-22.453 9.101,-34.5 -6.179,5.847 -12.656,11.386 -19.398,16.597 h -0.5 C 158.867,524.121 144.859,533.25 130,540.801 l -1.699,-0.59 0.699,-1.699 c 13.406,-6.621 26.164,-14.492 38.102,-23.512 -9.258,0.359 -18.528,-0.102 -27.704,-1.391 l -1.097,-1.41 1.301,-1.09 c 10.226,1.493 20.589,1.86 30.894,1.09 14.649,-11.097 27.91,-23.929 39.504,-38.187 -15.484,1.34 -31.078,0.429 -46.301,-2.711 l -0.918,-1.422 0.016,-0.07 1.203,-1.008 c 15.742,3.058 31.836,3.859 47.801,2.398 8.66,-10.961 15.949,-22.949 21.699,-35.699 -12.949,2.961 -26.234,4.129 -39.5,3.512 l -1.203,-1.301 1.398,-1.199 h 0.004 c 13.617,0.66 27.262,-0.66 40.504,-3.91 1.496,-3.5 2.895,-7.102 4.098,-10.801 l 1.199,-0.789 0.801,1.488 c -1.297,4.012 -2.805,7.809 -4.399,11.512 l 0.399,0.398" /><path
         id="path260"
         style="fill:#5eb5e8;fill-opacity:1;fill-rule:nonzero;stroke:none"
         d="m 678.102,593.211 c 0.078,10.687 1.902,21.301 5.398,31.391 5.898,18.699 14.898,37.308 14.801,57.199 0,34.609 -33.699,55.508 -44.903,86.008 -12.597,34.293 -7.796,71.703 -14.699,107 -5.801,30.589 -22.601,60.8 -55.101,68.3 -32.5,7.5 -54.2,-17.398 -57.196,-47.097 -4,-37.903 20,-71.203 24.496,-107.903 2.27,-17.437 -1.621,-35.129 -10.996,-50 -9.004,-14.808 -20,-28.3 -21.203,-46.199 -3.797,-43.512 34.5,-78.109 31.399,-121.808 C 547.004,526.41 514,493.91 512.898,451.199 512.641,436.762 518.926,422.98 530,413.699 h 144.199 c 15.625,15.063 26.739,34.172 32.102,55.211 4.621,34.77 -2.184,70.121 -19.403,100.692 -5.105,6.878 -8.16,15.058 -8.796,23.609" /><path
         id="path262"
         style="fill:#7fd2f5;fill-opacity:1;fill-rule:nonzero;stroke:none"
         d="m 681,615.398 c 1.797,7.102 4.199,14.301 6.699,21.512 6.699,19.289 13.801,38.488 9.199,57.692 -5.296,22.199 -24.695,37.898 -36.199,57.597 -14.199,24.313 -15.797,53.602 -17.5,81.711 -1.699,28.102 -4.297,57.692 -20,81.09 -15.699,23.398 -48.496,38 -72.801,23.699 -2.726,-1.617 -5.246,-3.558 -7.5,-5.801 137.5,-82.687 51.903,-145.398 81.403,-237.398 4.297,-13.59 18.101,-26.09 24.801,-38.988 8.746,-16.551 13.535,-34.903 14,-53.614 -0.231,-18.039 -2.786,-35.988 -7.606,-53.386 C 652.5,537.199 678.199,462.41 680,435.398 c -0.102,-6.168 -0.941,-12.316 -2.5,-18.296 13.711,14.589 23.512,32.41 28.5,51.808 5.785,39.211 -3.504,79.16 -26,111.801 -2.715,11.449 -2.371,23.41 1,34.687" /><path
         id="path264"
         style="fill:#ffffff;fill-opacity:1;fill-rule:nonzero;stroke:none"
         d="m 604.301,527.309 c 1.5,3.191 2.801,6.39 4.199,10 9,21.492 17.5,46.992 12.699,71.793 -1.879,8.57 -4.554,16.937 -8,25 -9.777,20.187 -11.672,43.296 -5.301,64.808 3.352,13.801 4.165,28.102 2.399,42.199 -2.723,11.723 -7.313,22.93 -13.598,33.192 -5.793,9.898 -10.136,20.578 -12.898,31.711 -1.637,15.09 -0.211,30.359 4.195,44.886 1.004,4.602 2.203,9.313 3.004,13.911 3.504,18.589 4.297,44.203 -12.5,60 -1.102,1.152 -2.937,1.203 -4.102,0.101 l -0.097,-0.101 c -1.094,-1.188 -1.094,-3.02 0,-4.2 15.601,-14.308 13.496,-40 10.797,-54.199 -0.899,-4.5 -1.899,-9.101 -2.996,-13.601 -4.582,-15.329 -6.012,-31.418 -4.204,-47.309 2.739,-11.93 7.329,-23.379 13.602,-33.898 14.164,-21.071 18.063,-47.422 10.602,-71.692 -6.633,-22.551 -4.637,-46.75 5.597,-67.898 3.258,-7.774 5.832,-15.801 7.699,-24.012 4.504,-23.301 -3.796,-47.691 -12.402,-68.488 -1.394,-3.313 -2.699,-6.512 -4.094,-10 -9.254,-18.903 -15.402,-39.16 -18.203,-60 -2.109,-20.543 4.953,-40.961 19.301,-55.813 h 10 c -18.102,11.699 -24.801,36.211 -23.301,55.602 2.805,20.14 8.739,39.711 17.602,58.008" /><path
         id="path266"
         style="fill:#ee4836;fill-opacity:1;fill-rule:nonzero;stroke:none"
         d="m 755.801,508.211 8.398,3.301 c -10,114.597 50,168.59 50,168.59 -66.203,-49.493 -58.398,-171.891 -58.398,-171.891" /><path
         id="path268"
         style="fill:#ee4836;fill-opacity:1;fill-rule:nonzero;stroke:none"
         d="m 800,667.41 c 42.402,-10.898 90.801,26.391 90.801,26.391 C 857.98,704.07 822.203,693.672 800,667.41" /><path
         id="path270"
         style="fill:#ee4836;fill-opacity:1;fill-rule:nonzero;stroke:none"
         d="m 777.598,626.109 c 0,0 24.203,37.692 -20,82.903 -7.789,-29.242 -0.262,-60.43 20,-82.903" /><path
         id="path272"
         style="fill:#ee4836;fill-opacity:1;fill-rule:nonzero;stroke:none"
         d="m 755.801,508.211 5.699,2.187 C 755,588.512 795.496,625.309 795.496,625.309 750,591.602 755.801,508.211 755.801,508.211" /><path
         id="path274"
         style="fill:#ee4836;fill-opacity:1;fill-rule:nonzero;stroke:none"
         d="m 789.301,621.012 c 26.301,-14.211 64.398,2.5 64.398,2.5 -20.023,12.16 -45.379,11.168 -64.398,-2.5" /><path
         id="path276"
         style="fill:#ee4836;fill-opacity:1;fill-rule:nonzero;stroke:none"
         d="m 735.898,629.012 c 1.774,-20.571 13.864,-38.84 32.098,-48.512 0,0 6.906,29.809 -32.098,48.512" /><path
         id="path278"
         style="fill:#ceeff8;fill-opacity:1;fill-rule:nonzero;stroke:none"
         d="m 926.301,206.801 c -49.199,2.898 -100,-43 -158.801,-48 -58.801,-5 -114.301,2.211 -152.402,0 -21.899,-1.301 -135.196,7.308 -135.395,-14.891 0,-41.308 113.195,-15.109 205.297,-51.8084 92.102,-36.7032 107.996,31.6994 215.898,6.6992 107.902,-25 235.602,-8.4922 211.302,27.5002 -29.4,43.398 -136.598,77.5 -185.899,80.5" /><path
         id="path280"
         style="fill:#ceeff8;fill-opacity:1;fill-rule:nonzero;stroke:none"
         d="m 1557.2,165 c -42.9,14.91 -50,-12.898 -100.5,-2.801 -50.5,10.11 -178.1,0 -165.1,-11.09 16.7,-13.91 130,-31.41 153.2,-32.597 23.2,-1.203 46.6,17.386 74,19.386 27.4,2.012 53.2,-0.886 70.9,0 10,0.5 40.6,-1.199 40.7,6.012 0.3,13.899 -30.4,6.192 -73.2,21.09" /><path
         id="path282"
         style="fill:#f2544a;fill-opacity:1;fill-rule:nonzero;stroke:none"
         d="m 376.047,2125.25 c 35.105,35.11 92.027,35.11 127.137,0 35.109,-35.11 35.109,-92.03 0,-127.14 -35.11,-35.11 -92.032,-35.11 -127.137,0 -35.109,35.11 -35.109,92.03 0,127.14" /><path
         id="path284"
         style="fill:#f0f0ef;fill-opacity:1;fill-rule:nonzero;stroke:none"
         d="m 832.004,2075.8 c -24.504,-2.3 -45.402,16 -68.203,25.11 -53.403,21.3 -98.305,-14.6 -155,-5.71 -6.903,1 -29.403,6.21 -36.301,6.9 -42.402,4.21 -80,-28.99 -112.996,-32.6 -4.031,0.11 -7.941,-1.36 -10.906,-4.1 -3.055,-4.6 -1.805,-10.8 2.793,-13.86 l 0.211,-0.13 c 4.582,-2.81 9.828,-4.33 15.199,-4.41 106.301,-9.2 212.199,-3.09 321.699,-3.09 28.398,0 56.797,-3.71 80.801,11.29 3.496,2.1 14.398,25.41 -37.297,20.6" /><path
         id="path286"
         style="fill:#f0f0ef;fill-opacity:1;fill-rule:nonzero;stroke:none"
         d="m 977.102,1926.11 c -35,-3.21 -64.899,23 -97.5,35.99 -76.301,30 -140,-20.9 -221.704,-8.19 -10,1.49 -42.097,8.79 -51.898,10 -60.703,6.09 -114.102,-41.41 -161.602,-46.5 -5.765,0.11 -11.351,-2 -15.597,-5.9 -4.113,-6.73 -2.274,-15.5 4.195,-20 6.567,-4.04 14.106,-6.18 21.805,-6.21 152.097,-13.2 303.5,-4.39 460,-4.39 40.597,0 81.199,-5.4 115.599,16.09 5.1,2.71 20.8,36.01 -53.298,29.11" /><path
         id="path288"
         style="fill:#ceeff8;fill-opacity:1;fill-rule:nonzero;stroke:none"
         d="M 3,413.699 V 40.8984 C 130.898,-22.5898 559.703,7.01172 622.996,6.19922 788.301,4.30078 158.801,162.602 246.301,214.012 c 81.199,47.789 347.097,-66.602 420,38.797 72.898,105.402 280.597,14.691 381.699,8.601 331.7,-20 357.6,73.399 582.7,73.399 160,0 111.5,-153.008 373.2,-153.008 v 232 c 0,0 -1962.4,-2.199 -2000.9,-0.102" /><path
         id="path290"
         style="fill:#3b2327;fill-opacity:1;fill-rule:nonzero;stroke:none"
         d="m 1675.7,413.699 h 16.4 c -15.7,217.813 97.3,320 97.3,320 -110.6,-82.097 -114.7,-270.187 -113.7,-320" /><path
         id="path292"
         style="fill:#7fd2f5;fill-opacity:1;fill-rule:nonzero;stroke:none"
         d="m 1762.2,709.512 c 82.1,-21.211 175.8,50.886 175.8,50.886 -114.7,31.204 -175.8,-50.886 -175.8,-50.886" /><path
         id="path294"
         style="fill:#3b2327;fill-opacity:1;fill-rule:nonzero;stroke:none"
         d="m 1718.6,629.602 c 0,0 46.9,72.898 -39.2,160 -14.81,-56.532 -0.06,-116.723 39.2,-160" /><path
         id="path296"
         style="fill:#3b2327;fill-opacity:1;fill-rule:nonzero;stroke:none"
         d="m 1675.8,413.699 h 11.1 c -9,145.602 66.4,214.41 66.4,214.41 -72.7,-54.41 -77.8,-175.398 -77.5,-214.41" /><path
         id="path298"
         style="fill:#3b2327;fill-opacity:1;fill-rule:nonzero;stroke:none"
         d="m 1741.3,619.602 c 50.9,-27.5 124.7,4.808 124.7,4.808 -38.74,23.629 -87.88,21.738 -124.7,-4.808" /><path
         id="path300"
         style="fill:#b41e69;fill-opacity:1;fill-rule:nonzero;stroke:none"
         d="m 1637.9,635.309 c 3.52,-39.727 26.89,-74.977 62.1,-93.707 0,0 13.3,57.308 -62.1,93.707" /></g></g></svg>