<?xml version="1.0" encoding="UTF-8" standalone="no"?>
<svg
   xmlns:dc="http://purl.org/dc/elements/1.1/"
   xmlns:cc="http://creativecommons.org/ns#"
   xmlns:rdf="http://www.w3.org/1999/02/22-rdf-syntax-ns#"
   xmlns:svg="http://www.w3.org/2000/svg"
   xmlns="http://www.w3.org/2000/svg"
   viewBox="0 0 2026.0533 1731.6667"
   height="1731.6667"
   width="2026.0533"
   xml:space="preserve"
   id="svg2"
   version="1.1"><metadata
     id="metadata8"><rdf:RDF><cc:Work
         rdf:about=""><dc:format>image/svg+xml</dc:format><dc:type
           rdf:resource="http://purl.org/dc/dcmitype/StillImage" /></cc:Work></rdf:RDF></metadata><defs
     id="defs6" /><g
     transform="matrix(1.3333333,0,0,-1.3333333,0,1731.6667)"
     id="g10"><g
       transform="scale(0.1)"
       id="g12"><path
         id="path14"
         style="fill:#ffffff;fill-opacity:1;fill-rule:nonzero;stroke:none"
         d="m 6230.07,1204.5 h 8409.23 c 0,0 -689.2,-1289.5 -4543.4,-1194.5 -3854.23,95 -3458.73,702.5 -3458.73,702.5 0,0 -1620.78,20.898 -1837.92,197.699 C 4582.11,1087.1 3019.66,652.5 2226.63,861.898 c -793.02,209.302 0,337.002 0,337.002 l 4003.44,5.6" /><path
         id="path16"
         style="fill:none;stroke:#1b1918;stroke-width:10.08119965;stroke-linecap:round;stroke-linejoin:round;stroke-miterlimit:10;stroke-dasharray:none;stroke-opacity:1"
         d="m 6230.07,1204.5 h 8409.23 c 0,0 -689.2,-1289.5 -4543.4,-1194.5 -3854.23,95 -3458.73,702.5 -3458.73,702.5 0,0 -1620.78,20.898 -1837.92,197.699 C 4582.11,1087.1 3019.66,652.5 2226.63,861.898 c -793.02,209.302 0,337.002 0,337.002 z" /><path
         id="path18"
         style="fill:#ffffff;fill-opacity:1;fill-rule:nonzero;stroke:none"
         d="m 1113.85,1198.9 c 4516.52,0 9033.05,0 13549.55,0 681.2,1523.6 -154.7,3073.09 -1186,3338.57 C 12543.5,4777.9 11226.8,4022.5 10868.3,2595.5 10697.8,2759 10234.9,3156.85 9548.97,3218.08 8700.04,3293.86 7852.03,2823.5 7354.95,2017.3 7215.94,2149.8 5785.53,3467.12 3797.08,3084.66 2088.03,2756 1246.44,1417.8 1113.85,1198.9" /><path
         id="path20"
         style="fill:none;stroke:#1b1918;stroke-width:10.08119965;stroke-linecap:round;stroke-linejoin:round;stroke-miterlimit:10;stroke-dasharray:none;stroke-opacity:1"
         d="m 1113.85,1198.9 c 4516.52,0 9033.05,0 13549.55,0 681.2,1523.6 -154.7,3073.09 -1186,3338.57 C 12543.5,4777.9 11226.8,4022.5 10868.3,2595.5 10697.8,2759 10234.9,3156.85 9548.97,3218.08 8700.04,3293.86 7852.03,2823.5 7354.95,2017.3 7215.94,2149.8 5785.53,3467.12 3797.08,3084.66 2088.03,2756 1246.44,1417.8 1113.85,1198.9 Z" /><path
         id="path22"
         style="fill:#ffffff;fill-opacity:1;fill-rule:nonzero;stroke:none"
         d="m 14563.5,5395.31 c 0,209.94 -170.2,380.14 -380.1,380.14 -210,0 -380.2,-170.2 -380.2,-380.14 0,-209.94 170.2,-380.14 380.2,-380.14 209.9,0 380.1,170.2 380.1,380.14" /><path
         id="path24"
         style="fill:none;stroke:#1b1918;stroke-width:10.08119965;stroke-linecap:round;stroke-linejoin:round;stroke-miterlimit:10;stroke-dasharray:none;stroke-opacity:1"
         d="m 14563.5,5395.31 c 0,209.94 -170.2,380.14 -380.1,380.14 -210,0 -380.2,-170.2 -380.2,-380.14 0,-209.94 170.2,-380.14 380.2,-380.14 209.9,0 380.1,170.2 380.1,380.14 z" /><path
         id="path26"
         style="fill:#1d1316;fill-opacity:1;fill-rule:nonzero;stroke:none"
         d="m 12865.3,12273.4 c 0,393 -318.6,711.6 -711.6,711.6 H 3634.61 c -392.99,0 -711.57,-318.6 -711.57,-711.6 v -39.5 h 9942.26 v 39.5" /><path
         id="path28"
         style="fill:none;stroke:#1b1918;stroke-width:5.04061985;stroke-linecap:round;stroke-linejoin:round;stroke-miterlimit:10;stroke-dasharray:none;stroke-opacity:1"
         d="m 12865.3,12273.4 c 0,393 -318.6,711.6 -711.6,711.6 H 3634.61 c -392.99,0 -711.57,-318.6 -711.57,-711.6 v -39.5 h 9942.26 z" /><path
         id="path30"
         style="fill:#ffffff;fill-opacity:1;fill-rule:nonzero;stroke:none"
         d="M 2923.04,12233.9 V 7272.62 c 0,-392.99 318.58,-711.57 711.57,-711.57 h 8519.09 c 393,0 711.6,318.58 711.6,711.57 V 12233.9 H 2923.04" /><path
         id="path32"
         style="fill:none;stroke:#1b1918;stroke-width:10.08119965;stroke-linecap:round;stroke-linejoin:round;stroke-miterlimit:10;stroke-dasharray:none;stroke-opacity:1"
         d="M 2923.04,12233.9 V 7272.62 c 0,-392.99 318.58,-711.57 711.57,-711.57 h 8519.09 c 393,0 711.6,318.58 711.6,711.57 v 4961.28 z" /><path
         id="path34"
         style="fill:#ffffff;fill-opacity:1;fill-rule:nonzero;stroke:none"
         d="m 13852.3,9959.31 h -1367.8 c -73.5,0 -133.1,59.59 -133.1,133.09 v 485 c 0,73.4 59.6,133 133.1,133 h 1367.8 c 73.5,0 133.1,-59.6 133.1,-133.1 v -484.9 c 0,-73.5 -59.6,-133.09 -133.1,-133.09" /><path
         id="path36"
         style="fill:none;stroke:#1b1918;stroke-width:10.08119965;stroke-linecap:round;stroke-linejoin:round;stroke-miterlimit:10;stroke-dasharray:none;stroke-opacity:1"
         d="m 13852.3,9959.31 h -1367.8 c -73.5,0 -133.1,59.59 -133.1,133.09 v 485 c 0,73.4 59.6,133 133.1,133 h 1367.8 c 73.5,0 133.1,-59.6 133.1,-133.1 v -484.9 c 0,-73.5 -59.6,-133.09 -133.1,-133.09 z" /><path
         id="path38"
         style="fill:#1d1316;fill-opacity:1;fill-rule:nonzero;stroke:none"
         d="m 13852.3,8992.33 h -1367.8 c -73.5,0 -133.1,59.57 -133.1,133.06 v 484.97 c 0,73.49 59.6,133.07 133.1,133.07 h 1367.8 c 73.5,0 133.1,-59.58 133.1,-133.07 v -484.97 c 0,-73.49 -59.6,-133.06 -133.1,-133.06" /><path
         id="path40"
         style="fill:none;stroke:#1b1918;stroke-width:5.04061985;stroke-linecap:round;stroke-linejoin:round;stroke-miterlimit:10;stroke-dasharray:none;stroke-opacity:1"
         d="m 13852.3,8992.33 h -1367.8 c -73.5,0 -133.1,59.57 -133.1,133.06 v 484.97 c 0,73.49 59.6,133.07 133.1,133.07 h 1367.8 c 73.5,0 133.1,-59.58 133.1,-133.07 v -484.97 c 0,-73.49 -59.6,-133.06 -133.1,-133.06 z" /><path
         id="path42"
         style="fill:#ffffff;fill-opacity:1;fill-rule:nonzero;stroke:none"
         d="m 9162.49,9911.37 c 0,0 -69.01,-20.89 -107.07,-9.88" /><path
         id="path44"
         style="fill:none;stroke:#1b1918;stroke-width:10.08119965;stroke-linecap:round;stroke-linejoin:round;stroke-miterlimit:10;stroke-dasharray:none;stroke-opacity:1"
         d="m 9162.49,9911.37 c 0,0 -69.01,-20.89 -107.07,-9.88" /><path
         id="path46"
         style="fill:none;stroke:#1b1918;stroke-width:10.08119965;stroke-linecap:round;stroke-linejoin:round;stroke-miterlimit:4;stroke-dasharray:none;stroke-opacity:1"
         d="m 3713.67,9674.18 c 0,0 6.12,-22.65 19.47,-63.66" /><path
         id="path48"
         style="fill:none;stroke:#1b1918;stroke-width:10.08119965;stroke-linecap:round;stroke-linejoin:round;stroke-miterlimit:4;stroke-dasharray:60.6864, 60.6864;stroke-dashoffset:0;stroke-opacity:1"
         d="M 3777.56,9484.46 C 3961.59,8995.95 4577.26,7703.71 6055.94,7282.51 7277.77,6934.46 8013.2,7049.82 8290.85,7123.02" /><path
         id="path50"
         style="fill:none;stroke:#1b1918;stroke-width:10.08119965;stroke-linecap:round;stroke-linejoin:round;stroke-miterlimit:4;stroke-dasharray:none;stroke-opacity:1"
         d="m 8355.28,7141.58 c 41.88,13.21 62.69,22.33 62.69,22.33" /><path
         id="path52"
         style="fill:none;stroke:#1b1918;stroke-width:10.08119965;stroke-linecap:round;stroke-linejoin:round;stroke-miterlimit:4;stroke-dasharray:none;stroke-opacity:1"
         d="m 4069.46,12233.9 v -66.7" /><path
         id="path54"
         style="fill:none;stroke:#1b1918;stroke-width:10.08119965;stroke-linecap:round;stroke-linejoin:round;stroke-miterlimit:4;stroke-dasharray:61.3029, 61.3029;stroke-dashoffset:0;stroke-opacity:1"
         d="M 4069.46,12032.1 V 6695.26" /><path
         id="path56"
         style="fill:none;stroke:#1b1918;stroke-width:10.08119965;stroke-linecap:round;stroke-linejoin:round;stroke-miterlimit:4;stroke-dasharray:none;stroke-opacity:1"
         d="m 4069.46,6627.7 v -66.65" /><path
         id="path58"
         style="fill:none;stroke:#1b1918;stroke-width:10.08119965;stroke-linecap:round;stroke-linejoin:round;stroke-miterlimit:4;stroke-dasharray:none;stroke-opacity:1"
         d="m 2923.03,11626.1 h 66.66" /><path
         id="path60"
         style="fill:none;stroke:#1b1918;stroke-width:10.08119965;stroke-linecap:round;stroke-linejoin:round;stroke-miterlimit:4;stroke-dasharray:60.9668, 60.9668;stroke-dashoffset:0;stroke-opacity:1"
         d="M 3124.06,11626.1 H 12731.5" /><path
         id="path62"
         style="fill:none;stroke:#1b1918;stroke-width:10.08119965;stroke-linecap:round;stroke-linejoin:round;stroke-miterlimit:4;stroke-dasharray:none;stroke-opacity:1"
         d="m 12798.6,11626.1 h 66.7" /><path
         id="path64"
         style="fill:#ffffff;fill-opacity:1;fill-rule:nonzero;stroke:none"
         d="m 2454,6806.99 297.02,-386.68 679.97,522.32 -286.88,394.46 -690.11,-530.1" /><path
         id="path66"
         style="fill:#ffffff;fill-opacity:1;fill-rule:nonzero;stroke:none"
         d="m 3940.61,6910.33 715.52,549.61 -26.46,619.33 -475.51,-365.26 c 26.29,-79.97 0.97,-171.27 -69.72,-225.57 -70.69,-54.3 -165.43,-55.23 -235.93,-9.2 -18.85,12.26 -35.97,27.95 -50.42,46.75 -16.63,21.66 -28.22,45.62 -35.05,70.45 -21.25,77.73 4.77,163.79 72.6,215.9 67.84,52.1 157.7,55.05 227.33,14.48 l 478.37,367.45 -591.57,185.25 -715.52,-549.62 -61.77,-471.02 -28.37,-21.79 286.88,-394.46 38.51,29.57 471.11,-61.87" /><path
         id="path68"
         style="fill:#ffffff;fill-opacity:1;fill-rule:nonzero;stroke:none"
         d="m 2454,6806.99 -279.6,-214.77 297.02,-386.68 279.6,214.77 -297.02,386.68" /><path
         id="path70"
         style="fill:#ffffff;fill-opacity:1;fill-rule:nonzero;stroke:none"
         d="m 1376.32,5979.19 297.02,-386.67 798.08,613.02 -297.02,386.68 -798.08,-613.03" /><path
         id="path72"
         style="fill:none;stroke:#ffffff;stroke-width:5.04061985;stroke-linecap:butt;stroke-linejoin:miter;stroke-miterlimit:10;stroke-dasharray:none;stroke-opacity:1"
         d="m 2454,6806.99 297.02,-386.68 679.97,522.32 -286.88,394.46 z" /><path
         id="path74"
         style="fill:none;stroke:#ffffff;stroke-width:5.04061985;stroke-linecap:butt;stroke-linejoin:miter;stroke-miterlimit:10;stroke-dasharray:none;stroke-opacity:1"
         d="m 3940.61,6910.33 715.52,549.61 -26.46,619.33 -475.51,-365.26 c 26.29,-79.97 0.97,-171.27 -69.72,-225.57 -70.69,-54.3 -165.43,-55.23 -235.93,-9.2 -18.85,12.26 -35.97,27.95 -50.42,46.75 -16.63,21.66 -28.22,45.62 -35.05,70.45 -21.25,77.73 4.77,163.79 72.6,215.9 67.84,52.1 157.7,55.05 227.33,14.48 l 478.37,367.45 -591.57,185.25 -715.52,-549.62 -61.77,-471.02 -28.37,-21.79 286.88,-394.46 38.51,29.57 z" /><path
         id="path76"
         style="fill:#1d1316;fill-opacity:1;fill-rule:nonzero;stroke:none"
         d="m 2454,6806.99 -279.6,-214.77 297.02,-386.68 279.6,214.77 -297.02,386.68" /><path
         id="path78"
         style="fill:none;stroke:#1b1918;stroke-width:5.04061985;stroke-linecap:round;stroke-linejoin:round;stroke-miterlimit:10;stroke-dasharray:none;stroke-opacity:1"
         d="m 2454,6806.99 -279.6,-214.77 297.02,-386.68 279.6,214.77 z" /><path
         id="path80"
         style="fill:none;stroke:#ffffff;stroke-width:5.04061985;stroke-linecap:butt;stroke-linejoin:miter;stroke-miterlimit:10;stroke-dasharray:none;stroke-opacity:1"
         d="m 1376.32,5979.19 297.02,-386.67 798.08,613.02 -297.02,386.68 z" /><path
         id="path82"
         style="fill:none;stroke:#1b1918;stroke-width:10.08119965;stroke-linecap:round;stroke-linejoin:round;stroke-miterlimit:10;stroke-dasharray:none;stroke-opacity:1"
         d="m 2454,6806.99 297.02,-386.68 679.97,522.32 -286.88,394.46 z" /><path
         id="path84"
         style="fill:none;stroke:#1b1918;stroke-width:10.08119965;stroke-linecap:round;stroke-linejoin:round;stroke-miterlimit:10;stroke-dasharray:none;stroke-opacity:1"
         d="m 3940.61,6910.33 715.52,549.61 -26.46,619.33 -475.51,-365.26 c 26.29,-79.97 0.97,-171.27 -69.72,-225.57 -70.69,-54.3 -165.43,-55.23 -235.93,-9.2 -18.85,12.26 -35.97,27.95 -50.42,46.75 -16.63,21.66 -28.22,45.62 -35.05,70.45 -21.25,77.73 4.77,163.79 72.6,215.9 67.84,52.1 157.7,55.05 227.33,14.48 l 478.37,367.45 -591.57,185.25 -715.52,-549.62 -61.77,-471.02 -28.37,-21.79 286.88,-394.46 38.51,29.57 z" /><path
         id="path86"
         style="fill:none;stroke:#1b1918;stroke-width:10.08119965;stroke-linecap:round;stroke-linejoin:round;stroke-miterlimit:10;stroke-dasharray:none;stroke-opacity:1"
         d="m 2454,6806.99 -279.6,-214.77 297.02,-386.68 279.6,214.77 z" /><path
         id="path88"
         style="fill:none;stroke:#1b1918;stroke-width:10.08119965;stroke-linecap:round;stroke-linejoin:round;stroke-miterlimit:10;stroke-dasharray:none;stroke-opacity:1"
         d="m 1376.32,5979.19 297.02,-386.67 798.08,613.02 -297.02,386.68 z" /><path
         id="path90"
         style="fill:#ffffff;fill-opacity:1;fill-rule:nonzero;stroke:none"
         d="m 1935.66,10568.6 c -26.9,-46.6 -65.58,-85.3 -112.16,-112.2 -22.88,-13.3 -47.69,-23.7 -73.89,-30.6 -25.23,-6.8 -51.85,-10.4 -79.3,-10.4 -27.45,0 -54.07,3.6 -79.3,10.4 -26.2,6.9 -50.88,17.3 -73.76,30.6 -46.58,26.9 -85.26,65.6 -112.16,112.2 -13.3,22.9 -23.7,47.7 -30.77,73.9 -6.66,25.2 -10.26,51.8 -10.26,79.3 0,27.4 3.6,54.1 10.4,79.3 6.93,26.2 17.33,51 30.63,73.9 26.9,46.4 65.58,85.2 112.16,112.1 22.88,13.3 47.56,23.7 73.76,30.7 25.23,6.8 51.85,10.4 79.3,10.4 27.45,0 54.07,-3.6 79.3,-10.4 26.2,-7 51.01,-17.4 73.89,-30.7 46.58,-26.9 85.26,-65.7 112.16,-112.1 13.31,-22.9 23.7,-47.7 30.64,-73.9 6.79,-25.2 10.39,-51.9 10.39,-79.3 0,-27.5 -3.6,-54.1 -10.26,-79.3 -7.07,-26.2 -17.46,-51 -30.77,-73.9 z m 601.95,0 v 306.4 h -316.08 c -12.49,45.3 -30.5,88.3 -53.1,128.2 l 223.48,223.5 -216.69,216.7 -223.48,-223.5 c -39.93,22.6 -82.91,40.6 -128.24,53.1 v 315.9 H 1517.25 V 11273 c -45.33,-12.5 -88.31,-30.5 -128.23,-53.1 l -223.49,223.5 -216.686,-216.7 223.486,-223.5 c -22.6,-39.9 -40.62,-82.9 -53.1,-128.2 H 803.137 v -306.4 h 316.093 c 12.48,-45.3 30.5,-88.3 53.1,-128.2 l -223.486,-223.5 216.686,-216.7 223.49,223.5 c 39.92,-22.6 82.9,-40.7 128.23,-53.1 v -315.98 h 306.25 v 315.98 c 45.33,12.4 88.31,30.5 128.24,53.1 l 223.48,-223.5 216.69,216.7 -223.48,223.5 c 22.6,39.9 40.61,82.9 53.1,128.2 h 316.08" /><path
         id="path92"
         style="fill:none;stroke:#1b1918;stroke-width:10.08119965;stroke-linecap:round;stroke-linejoin:round;stroke-miterlimit:10;stroke-dasharray:none;stroke-opacity:1"
         d="m 1935.66,10568.6 c -26.9,-46.6 -65.58,-85.3 -112.16,-112.2 -22.88,-13.3 -47.69,-23.7 -73.89,-30.6 -25.23,-6.8 -51.85,-10.4 -79.3,-10.4 -27.45,0 -54.07,3.6 -79.3,10.4 -26.2,6.9 -50.88,17.3 -73.76,30.6 -46.58,26.9 -85.26,65.6 -112.16,112.2 -13.3,22.9 -23.7,47.7 -30.77,73.9 -6.66,25.2 -10.26,51.8 -10.26,79.3 0,27.4 3.6,54.1 10.4,79.3 6.93,26.2 17.33,51 30.63,73.9 26.9,46.4 65.58,85.2 112.16,112.1 22.88,13.3 47.56,23.7 73.76,30.7 25.23,6.8 51.85,10.4 79.3,10.4 27.45,0 54.07,-3.6 79.3,-10.4 26.2,-7 51.01,-17.4 73.89,-30.7 46.58,-26.9 85.26,-65.7 112.16,-112.1 13.31,-22.9 23.7,-47.7 30.64,-73.9 6.79,-25.2 10.39,-51.9 10.39,-79.3 0,-27.5 -3.6,-54.1 -10.26,-79.3 -7.07,-26.2 -17.46,-51 -30.77,-73.9 z m 601.95,0 v 306.4 h -316.08 c -12.49,45.3 -30.5,88.3 -53.1,128.2 l 223.48,223.5 -216.69,216.7 -223.48,-223.5 c -39.93,22.6 -82.91,40.6 -128.24,53.1 v 315.9 H 1517.25 V 11273 c -45.33,-12.5 -88.31,-30.5 -128.23,-53.1 l -223.49,223.5 -216.686,-216.7 223.486,-223.5 c -22.6,-39.9 -40.62,-82.9 -53.1,-128.2 H 803.137 v -306.4 h 316.093 c 12.48,-45.3 30.5,-88.3 53.1,-128.2 l -223.486,-223.5 216.686,-216.7 223.49,223.5 c 39.92,-22.6 82.9,-40.7 128.23,-53.1 v -315.98 h 306.25 v 315.98 c 45.33,12.4 88.31,30.5 128.24,53.1 l 223.48,-223.5 216.69,216.7 -223.48,223.5 c 22.6,39.9 40.61,82.9 53.1,128.2 z" /><path
         id="path94"
         style="fill:#ffffff;fill-opacity:1;fill-rule:nonzero;stroke:none"
         d="m 4277,12609.4 c 0,107.4 -87.02,194.4 -194.36,194.4 -107.34,0 -194.37,-87 -194.37,-194.4 0,-107.3 87.03,-194.3 194.37,-194.3 107.34,0 194.36,87 194.36,194.3" /><path
         id="path96"
         style="fill:none;stroke:#1b1918;stroke-width:10.08119965;stroke-linecap:round;stroke-linejoin:round;stroke-miterlimit:10;stroke-dasharray:none;stroke-opacity:1"
         d="m 4277,12609.4 c 0,107.4 -87.02,194.4 -194.36,194.4 -107.34,0 -194.37,-87 -194.37,-194.4 0,-107.3 87.03,-194.3 194.37,-194.3 107.34,0 194.36,87 194.36,194.3 z" /><path
         id="path98"
         style="fill:#ffffff;fill-opacity:1;fill-rule:nonzero;stroke:none"
         d="M 6130.96,12464.5 H 4626.95 c -25.89,0 -46.87,21 -46.87,46.8 v 163.3 c 0,25.9 20.98,46.8 46.87,46.8 h 1504.01 c 25.89,0 46.87,-20.9 46.87,-46.8 v -163.3 c 0,-25.8 -20.98,-46.8 -46.87,-46.8" /><path
         id="path100"
         style="fill:none;stroke:#1b1918;stroke-width:10.08119965;stroke-linecap:round;stroke-linejoin:round;stroke-miterlimit:10;stroke-dasharray:none;stroke-opacity:1"
         d="M 6130.96,12464.5 H 4626.95 c -25.89,0 -46.87,21 -46.87,46.8 v 163.3 c 0,25.9 20.98,46.8 46.87,46.8 h 1504.01 c 25.89,0 46.87,-20.9 46.87,-46.8 v -163.3 c 0,-25.8 -20.98,-46.8 -46.87,-46.8 z" /><path
         id="path102"
         style="fill:#ffffff;fill-opacity:1;fill-rule:nonzero;stroke:none"
         d="m 4484.55,11552.8 v -1148.9 c 0,-124.6 101.05,-225.7 225.7,-225.7 h 5537.65 c 124.7,0 225.7,101.1 225.7,225.7 v 1148.9 H 4484.55" /><path
         id="path104"
         style="fill:none;stroke:#1b1918;stroke-width:10.08119965;stroke-linecap:round;stroke-linejoin:round;stroke-miterlimit:10;stroke-dasharray:none;stroke-opacity:1"
         d="m 4484.55,11552.8 v -1148.9 c 0,-124.6 101.05,-225.7 225.7,-225.7 h 5537.65 c 124.7,0 225.7,101.1 225.7,225.7 v 1148.9 z" /><path
         id="path106"
         style="fill:#1d1316;fill-opacity:1;fill-rule:nonzero;stroke:none"
         d="m 10473.6,11652.4 c 0,124.6 -101,225.7 -225.7,225.7 H 4710.25 c -124.65,0 -225.7,-101.1 -225.7,-225.7 v -99.6 h 5989.05 v 99.6" /><path
         id="path108"
         style="fill:none;stroke:#1b1918;stroke-width:5.04061985;stroke-linecap:round;stroke-linejoin:round;stroke-miterlimit:10;stroke-dasharray:none;stroke-opacity:1"
         d="m 10473.6,11652.4 c 0,124.6 -101,225.7 -225.7,225.7 H 4710.25 c -124.65,0 -225.7,-101.1 -225.7,-225.7 v -99.6 h 5989.05 z" /><path
         id="path110"
         style="fill:#ffffff;fill-opacity:1;fill-rule:nonzero;stroke:none"
         d="M 10290.9,9816.47 H 4667.31 c -100.94,0 -182.76,-81.83 -182.76,-182.77 v -636.57 c 0,-100.94 81.82,-182.76 182.76,-182.76 h 5623.59 c 100.9,0 182.7,81.82 182.7,182.76 v 636.57 c 0,100.94 -81.8,182.77 -182.7,182.77" /><path
         id="path112"
         style="fill:none;stroke:#1b1918;stroke-width:10.08119965;stroke-linecap:round;stroke-linejoin:round;stroke-miterlimit:10;stroke-dasharray:none;stroke-opacity:1"
         d="M 10290.9,9816.47 H 4667.31 c -100.94,0 -182.76,-81.83 -182.76,-182.77 v -636.57 c 0,-100.94 81.82,-182.76 182.76,-182.76 h 5623.59 c 100.9,0 182.7,81.82 182.7,182.76 v 636.57 c 0,100.94 -81.8,182.77 -182.7,182.77 z" /><path
         id="path114"
         style="fill:#73cff5;fill-opacity:1;fill-rule:nonzero;stroke:none"
         d="m 6868.68,3279.6 c -141.25,131.7 -296.97,297.23 -263.89,487.51 24.98,143.59 150.11,244.05 238.52,359.93 122.22,160.2 179.3,373.55 133.14,569.7 -46.16,196.16 -202.15,367.44 -398.43,413.02 -196.28,45.59 -421.82,-48.92 -511.08,-229.58 -69.96,-141.58 -54.08,-308.04 -68.51,-465.31 -14.43,-157.26 -81.79,-333.78 -232.55,-380.76 -125.93,-39.24 -259.27,28.14 -366.66,104.72 -107.39,76.58 -213.99,167.94 -344.81,184.73 -153.53,19.7 -307.1,-75.63 -384.85,-209.48 -77.75,-133.84 -88.56,-298.26 -61.3,-450.63 27.26,-152.37 89.67,-295.86 151.58,-437.73 L 4352.78,2759.4 4219.19,1204.5 h 1398.6 c 144.2,65.1 278.85,150.6 412.5,235.9 110.41,70.4 220.84,140.8 331.26,211.3 74.73,47.6 157.61,108.5 162.58,197 10.09,179.5 -295.58,248.9 -290.57,428.6 2.05,73.2 61.2,134.7 128.62,163.4 67.43,28.6 142.53,31.4 215.64,36.1 112.05,7.2 226.1,20.4 327.93,67.7 101.84,47.3 190.84,134.1 215.01,243.8 41.57,188.6 -110.83,359.59 -252.08,491.3" /><path
         id="path116"
         style="fill:none;stroke:#1b1918;stroke-width:5.04061985;stroke-linecap:round;stroke-linejoin:round;stroke-miterlimit:10;stroke-dasharray:none;stroke-opacity:1"
         d="m 6868.68,3279.6 c -141.25,131.7 -296.97,297.23 -263.89,487.51 24.98,143.59 150.11,244.05 238.52,359.93 122.22,160.2 179.3,373.55 133.14,569.7 -46.16,196.16 -202.15,367.44 -398.43,413.02 -196.28,45.59 -421.82,-48.92 -511.08,-229.58 -69.96,-141.58 -54.08,-308.04 -68.51,-465.31 -14.43,-157.26 -81.79,-333.78 -232.55,-380.76 -125.93,-39.24 -259.27,28.14 -366.66,104.72 -107.39,76.58 -213.99,167.94 -344.81,184.73 -153.53,19.7 -307.1,-75.63 -384.85,-209.48 -77.75,-133.84 -88.56,-298.26 -61.3,-450.63 27.26,-152.37 89.67,-295.86 151.58,-437.73 L 4352.78,2759.4 4219.19,1204.5 h 1398.6 c 144.2,65.1 278.85,150.6 412.5,235.9 110.41,70.4 220.84,140.8 331.26,211.3 74.73,47.6 157.61,108.5 162.58,197 10.09,179.5 -295.58,248.9 -290.57,428.6 2.05,73.2 61.2,134.7 128.62,163.4 67.43,28.6 142.53,31.4 215.64,36.1 112.05,7.2 226.1,20.4 327.93,67.7 101.84,47.3 190.84,134.1 215.01,243.8 41.57,188.6 -110.83,359.59 -252.08,491.3 z" /><path
         id="path118"
         style="fill:none;stroke:#ffffff;stroke-width:15.1218996;stroke-linecap:round;stroke-linejoin:round;stroke-miterlimit:10;stroke-dasharray:none;stroke-opacity:1"
         d="m 6276.66,4149 c 0,0 -147.9,-859.83 -607.63,-1282.8 -459.73,-423.1 -538.8,-989.7 -519.03,-1240.1 19.77,-250.3 -210.84,-421.6 -210.84,-421.6" /><path
         id="path120"
         style="fill:none;stroke:#ffffff;stroke-width:15.1218996;stroke-linecap:round;stroke-linejoin:round;stroke-miterlimit:10;stroke-dasharray:none;stroke-opacity:1"
         d="m 5742.98,1995.1 c 0,0 -412.59,141.9 -581.85,-106.9" /><path
         id="path122"
         style="fill:none;stroke:#ffffff;stroke-width:15.1218996;stroke-linecap:round;stroke-linejoin:round;stroke-miterlimit:10;stroke-dasharray:none;stroke-opacity:1"
         d="m 5209.3,3089.64 c 0,0 195.12,-94.74 183.21,-558.44" /><path
         id="path124"
         style="fill:none;stroke:#ffffff;stroke-width:15.1218996;stroke-linecap:round;stroke-linejoin:round;stroke-miterlimit:10;stroke-dasharray:none;stroke-opacity:1"
         d="m 6322.78,3293.08 c 0,0 -139.27,-203.21 -488.01,-239.97" /><path
         id="path126"
         style="fill:#ffffff;fill-opacity:1;fill-rule:nonzero;stroke:none"
         d="m 4842.6,1562.9 c 145.15,284.9 -0.79,510.9 -241.89,668 -238.12,221.4 -58.6,366.8 153.19,501.4 380.59,332.34 1.83,937.8 -463.97,738.91 -167.38,-81.02 -361.75,-313.39 -556.96,-177.55 -112.18,88.83 -75.15,262.14 -63.16,404.73 37.28,357.58 -232.3,867.26 -640.08,801.84 -181.63,-45.48 -285.13,-241.32 -454.1,-321.96 -499.28,-216.83 -886.56,485.95 -1373.26,440.22 -943.557,-211.56 -644.218,-1861.39 707.2,-1657.69 107.97,-8.9 220.93,-49.7 281.26,-139.7 196.17,-307.8 -305.75,-672.2 -118.18,-981.3 163.52,-235 488.16,-113.7 725.63,-108.8 333.2,10.2 466.15,-280.7 281.88,-526.5 h 1294.35 c 194.07,65.9 369.15,171.7 468.09,358.4" /><path
         id="path128"
         style="fill:none;stroke:#1b1918;stroke-width:10.08119965;stroke-linecap:round;stroke-linejoin:round;stroke-miterlimit:10;stroke-dasharray:none;stroke-opacity:1"
         d="m 4842.6,1562.9 c 145.15,284.9 -0.79,510.9 -241.89,668 -238.12,221.4 -58.6,366.8 153.19,501.4 380.59,332.34 1.83,937.8 -463.97,738.91 -167.38,-81.02 -361.75,-313.39 -556.96,-177.55 -112.18,88.83 -75.15,262.14 -63.16,404.73 37.28,357.58 -232.3,867.26 -640.08,801.84 -181.63,-45.48 -285.13,-241.32 -454.1,-321.96 -499.28,-216.83 -886.56,485.95 -1373.26,440.22 -943.557,-211.56 -644.218,-1861.39 707.2,-1657.69 107.97,-8.9 220.93,-49.7 281.26,-139.7 196.17,-307.8 -305.75,-672.2 -118.18,-981.3 163.52,-235 488.16,-113.7 725.63,-108.8 333.2,10.2 466.15,-280.7 281.88,-526.5 h 1294.35 c 194.07,65.9 369.15,171.7 468.09,358.4 z" /><path
         id="path130"
         style="fill:#ffffff;fill-opacity:1;fill-rule:nonzero;stroke:none"
         d="m 3520.95,1204.5 103.78,197.6 C 4079.34,2973.5 1697.55,3793.81 1697.55,3793.81" /><path
         id="path132"
         style="fill:none;stroke:#1b1918;stroke-width:10.08119965;stroke-linecap:round;stroke-linejoin:round;stroke-miterlimit:10;stroke-dasharray:none;stroke-opacity:1"
         d="m 3520.95,1204.5 103.78,197.6 C 4079.34,2973.5 1697.55,3793.81 1697.55,3793.81" /><path
         id="path134"
         style="fill:#ffffff;fill-opacity:1;fill-rule:nonzero;stroke:none"
         d="m 3842.15,2637.5 c 0,0 54.6,-350.6 -191.77,-555.8" /><path
         id="path136"
         style="fill:none;stroke:#1b1918;stroke-width:10.08119965;stroke-linecap:round;stroke-linejoin:round;stroke-miterlimit:10;stroke-dasharray:none;stroke-opacity:1"
         d="m 3842.15,2637.5 c 0,0 54.6,-350.6 -191.77,-555.8" /><path
         id="path138"
         style="fill:#ffffff;fill-opacity:1;fill-rule:nonzero;stroke:none"
         d="m 2837.38,3793.81 c 6.59,-16.46 199.93,-340.65 42.31,-643.06" /><path
         id="path140"
         style="fill:none;stroke:#1b1918;stroke-width:10.08119965;stroke-linecap:round;stroke-linejoin:round;stroke-miterlimit:10;stroke-dasharray:none;stroke-opacity:1"
         d="m 2837.38,3793.81 c 6.59,-16.46 199.93,-340.65 42.31,-643.06" /><path
         id="path142"
         style="fill:#ffffff;fill-opacity:1;fill-rule:nonzero;stroke:none"
         d="m 2860.45,2670.4 c 0,0 416.44,48.2 567.3,-86.2" /><path
         id="path144"
         style="fill:none;stroke:#1b1918;stroke-width:10.08119965;stroke-linecap:round;stroke-linejoin:round;stroke-miterlimit:10;stroke-dasharray:none;stroke-opacity:1"
         d="m 2860.45,2670.4 c 0,0 416.44,48.2 567.3,-86.2" /><path
         id="path146"
         style="fill:#ffffff;fill-opacity:1;fill-rule:nonzero;stroke:none"
         d="m 1802.97,3550.04 c 0,0 226.95,-72.74 431.38,6.45" /><path
         id="path148"
         style="fill:none;stroke:#1b1918;stroke-width:10.08119965;stroke-linecap:round;stroke-linejoin:round;stroke-miterlimit:10;stroke-dasharray:none;stroke-opacity:1"
         d="m 1802.97,3550.04 c 0,0 226.95,-72.74 431.38,6.45" /><path
         id="path150"
         style="fill:none;stroke:#1b1918;stroke-width:15.1218996;stroke-linecap:round;stroke-linejoin:round;stroke-miterlimit:10;stroke-dasharray:none;stroke-opacity:1"
         d="M 7.5625,1203.3 H 15187.8" /><path
         id="path152"
         style="fill:#1d1316;fill-opacity:1;fill-rule:nonzero;stroke:none"
         d="m 5393.78,7399.91 110.54,243.69 213.8,-103.12 -104.45,-239.85 -219.89,99.28" /><path
         id="path154"
         style="fill:none;stroke:#1b1918;stroke-width:5.04061985;stroke-linecap:round;stroke-linejoin:round;stroke-miterlimit:10;stroke-dasharray:none;stroke-opacity:1"
         d="m 5393.78,7399.91 110.54,243.69 213.8,-103.12 -104.45,-239.85 z" /><path
         id="path156"
         style="fill:#1d1316;fill-opacity:1;fill-rule:nonzero;stroke:none"
         d="m 8707.95,898.902 c -18.11,59 -39.85,127.098 -45.37,132.598 -9.89,9.9 -313.79,0 -313.79,0 0,0 -47.23,-22.8 -117.69,-58.199 116.71,-138.199 299.1,-128.602 476.85,-74.399" /><path
         id="path158"
         style="fill:none;stroke:#1b1918;stroke-width:5.04061985;stroke-linecap:round;stroke-linejoin:round;stroke-miterlimit:10;stroke-dasharray:none;stroke-opacity:1"
         d="m 8707.95,898.902 c -18.11,59 -39.85,127.098 -45.37,132.598 -9.89,9.9 -313.79,0 -313.79,0 0,0 -47.23,-22.8 -117.69,-58.199 116.71,-138.199 299.1,-128.602 476.85,-74.399 z" /><path
         id="path160"
         style="fill:#ffffff;fill-opacity:1;fill-rule:nonzero;stroke:none"
         d="m 8757.24,640.301 c 4.21,40.199 -2.1,94.898 -23.01,171.301 0,0 -12.02,40.898 -26.28,87.3 -177.75,-54.203 -360.14,-63.8 -476.85,74.399 C 8035.27,875 7659.89,679.902 7619.92,609 c -24.74,-43.801 -37.63,-98.898 -29.28,-145.699 389.76,-35.102 814.76,5.801 1166.6,177" /><path
         id="path162"
         style="fill:none;stroke:#1b1918;stroke-width:10.08119965;stroke-linecap:round;stroke-linejoin:round;stroke-miterlimit:10;stroke-dasharray:none;stroke-opacity:1"
         d="m 8757.24,640.301 c 4.21,40.199 -2.1,94.898 -23.01,171.301 0,0 -12.02,40.898 -26.28,87.3 -177.75,-54.203 -360.14,-63.8 -476.85,74.399 C 8035.27,875 7659.89,679.902 7619.92,609 c -24.74,-43.801 -37.63,-98.898 -29.28,-145.699 389.76,-35.102 814.76,5.801 1166.6,177 z" /><path
         id="path164"
         style="fill:#ffffff;fill-opacity:1;fill-rule:nonzero;stroke:none"
         d="m 7590.64,463.301 c 10,-56.102 50.49,-100.199 137.99,-98.903 160.6,2.5 748.71,96.301 867.24,138.403 78.72,28 151.17,40 161.37,137.5 -351.84,-171.199 -776.84,-212.102 -1166.6,-177" /><path
         id="path166"
         style="fill:none;stroke:#1b1918;stroke-width:10.08119965;stroke-linecap:round;stroke-linejoin:round;stroke-miterlimit:10;stroke-dasharray:none;stroke-opacity:1"
         d="m 7590.64,463.301 c 10,-56.102 50.49,-100.199 137.99,-98.903 160.6,2.5 748.71,96.301 867.24,138.403 78.72,28 151.17,40 161.37,137.5 -351.84,-171.199 -776.84,-212.102 -1166.6,-177 z" /><path
         id="path168"
         style="fill:#1d1316;fill-opacity:1;fill-rule:nonzero;stroke:none"
         d="m 12872,1304.2 c -76.5,78.5 -145.1,137.5 -145.1,137.5 l -400.2,-195.2 c 0,0 -58.5,-55.5 -136.1,-129.4 247.4,-59.9 531.8,0.4 681.4,187.1" /><path
         id="path170"
         style="fill:none;stroke:#1b1918;stroke-width:5.04061985;stroke-linecap:round;stroke-linejoin:round;stroke-miterlimit:10;stroke-dasharray:none;stroke-opacity:1"
         d="m 12872,1304.2 c -76.5,78.5 -145.1,137.5 -145.1,137.5 l -400.2,-195.2 c 0,0 -58.5,-55.5 -136.1,-129.4 247.4,-59.9 531.8,0.4 681.4,187.1 z" /><path
         id="path172"
         style="fill:#ffffff;fill-opacity:1;fill-rule:nonzero;stroke:none"
         d="m 12119.2,617.5 c -118.2,-33.801 -249.2,-48.199 -373.6,-23.898 3.5,-13.102 9.3,-26.801 17.8,-41.403 46.9,-81.5 358.2,-12.398 669.5,96.403 287.8,100.398 638.8,232.597 635.7,374.898 -245.7,-256.5 -632.7,-287.301 -949.4,-406" /><path
         id="path174"
         style="fill:none;stroke:#1b1918;stroke-width:10.08119965;stroke-linecap:round;stroke-linejoin:round;stroke-miterlimit:10;stroke-dasharray:none;stroke-opacity:1"
         d="m 12119.2,617.5 c -118.2,-33.801 -249.2,-48.199 -373.6,-23.898 3.5,-13.102 9.3,-26.801 17.8,-41.403 46.9,-81.5 358.2,-12.398 669.5,96.403 287.8,100.398 638.8,232.597 635.7,374.898 -245.7,-256.5 -632.7,-287.301 -949.4,-406 z" /><path
         id="path176"
         style="fill:#ffffff;fill-opacity:1;fill-rule:nonzero;stroke:none"
         d="m 12872,1304.2 c -149.6,-186.7 -434,-247 -681.4,-187.1 -132.7,-126.299 -321.2,-306.498 -367.9,-354.901 -60.9,-62.801 -93.3,-109.097 -77.1,-168.597 124.4,-24.301 255.4,-9.903 373.6,23.898 316.7,118.699 703.7,149.5 949.4,406 -0.3,11.7 -2.9,23.4 -8.1,35.2 -33.9,76.4 -114.9,170 -188.5,245.5" /><path
         id="path178"
         style="fill:none;stroke:#1b1918;stroke-width:10.08119965;stroke-linecap:round;stroke-linejoin:round;stroke-miterlimit:10;stroke-dasharray:none;stroke-opacity:1"
         d="m 12872,1304.2 c -149.6,-186.7 -434,-247 -681.4,-187.1 -132.7,-126.299 -321.2,-306.498 -367.9,-354.901 -60.9,-62.801 -93.3,-109.097 -77.1,-168.597 124.4,-24.301 255.4,-9.903 373.6,23.898 316.7,118.699 703.7,149.5 949.4,406 -0.3,11.7 -2.9,23.4 -8.1,35.2 -33.9,76.4 -114.9,170 -188.5,245.5 z" /><path
         id="path180"
         style="fill:#ffffff;fill-opacity:1;fill-rule:nonzero;stroke:none"
         d="m 10644.9,4913.88 c 125.2,-1212.3 1548.4,-3659.98 1578,-3689.68 29.7,-29.6 464.5,-59.3 533.7,148.3 69.2,207.5 -395.3,1769.04 -563.3,2302.72 118.6,563.33 158.1,2114.95 -148.3,2729.59 -306.4,614.64 -770.9,689.92 -770.9,689.92 l -800.5,-266.84" /><path
         id="path182"
         style="fill:none;stroke:#1b1918;stroke-width:10.08119965;stroke-linecap:round;stroke-linejoin:round;stroke-miterlimit:10;stroke-dasharray:none;stroke-opacity:1"
         d="m 10644.9,4913.88 c 125.2,-1212.3 1548.4,-3659.98 1578,-3689.68 29.7,-29.6 464.5,-59.3 533.7,148.3 69.2,207.5 -395.3,1769.04 -563.3,2302.72 118.6,563.33 158.1,2114.95 -148.3,2729.59 -306.4,614.64 -770.9,689.92 -770.9,689.92 l -800.5,-266.84" /><path
         id="path184"
         style="fill:#ffffff;fill-opacity:1;fill-rule:nonzero;stroke:none"
         d="m 11348.8,6170.67 c 0,0 192.2,-380.5 -193.2,-1013.01 C 10686,4387.13 9379.91,4077.13 9014.23,3958.53 9116.34,3128.37 8826.46,1237.4 8674.93,947.5 c -158.14,-105.398 -395.32,46.102 -395.32,46.102 0,0 -421.67,2154.528 -224.02,3307.538 197.66,1153.02 1970.01,2187.43 1970.01,2187.43 l 853.2,339.32" /><path
         id="path186"
         style="fill:none;stroke:#1b1918;stroke-width:10.08119965;stroke-linecap:round;stroke-linejoin:round;stroke-miterlimit:10;stroke-dasharray:none;stroke-opacity:1"
         d="m 11348.8,6170.67 c 0,0 192.2,-380.5 -193.2,-1013.01 C 10686,4387.13 9379.91,4077.13 9014.23,3958.53 9116.34,3128.37 8826.46,1237.4 8674.93,947.5 c -158.14,-105.398 -395.32,46.102 -395.32,46.102 0,0 -421.67,2154.528 -224.02,3307.538 197.66,1153.02 1970.01,2187.43 1970.01,2187.43 l 853.2,339.32" /><path
         id="path188"
         style="fill:#1d1316;fill-opacity:1;fill-rule:nonzero;stroke:none"
         d="m 9859.4,6384.64 c 0,0 498.4,-118.18 795.3,-11.26 297,106.91 643.8,261.34 694.1,534.57 -1,134.87 -1,134.87 -1,134.87 L 9961.78,6492.17 9859.4,6384.64" /><path
         id="path190"
         style="fill:none;stroke:#1b1918;stroke-width:5.04061985;stroke-linecap:round;stroke-linejoin:round;stroke-miterlimit:10;stroke-dasharray:none;stroke-opacity:1"
         d="m 9859.4,6384.64 c 0,0 498.4,-118.18 795.3,-11.26 297,106.91 643.8,261.34 694.1,534.57 -1,134.87 -1,134.87 -1,134.87 L 9961.78,6492.17 Z" /><path
         id="path192"
         style="fill:#ffffff;fill-opacity:1;fill-rule:nonzero;stroke:none"
         d="m 9569.33,9446.88 c 0,0 -163.06,355.78 -138.36,518.85 24.71,163.07 380.5,345.87 4.94,676.97 -375.55,331.1 -632.5,-44.5 -657.21,-212.5 -24.71,-168 -24.71,-454.58 276.72,-528.71 -9.89,-553.44 -9.89,-553.44 -9.89,-553.44" /><path
         id="path194"
         style="fill:none;stroke:#1b1918;stroke-width:10.08119965;stroke-linecap:round;stroke-linejoin:round;stroke-miterlimit:10;stroke-dasharray:none;stroke-opacity:1"
         d="m 9569.33,9446.88 c 0,0 -163.06,355.78 -138.36,518.85 24.71,163.07 380.5,345.87 4.94,676.97 -375.55,331.1 -632.5,-44.5 -657.21,-212.5 -24.71,-168 -24.71,-454.58 276.72,-528.71 -9.89,-553.44 -9.89,-553.44 -9.89,-553.44" /><path
         id="path196"
         style="fill:#1d1316;fill-opacity:1;fill-rule:nonzero;stroke:none"
         d="m 9168.5,9923.98 -113.08,-22.49 -0.89,-50.12 z" /><path
         id="path198"
         style="fill:none;stroke:#1b1918;stroke-width:5.04061985;stroke-linecap:round;stroke-linejoin:round;stroke-miterlimit:10;stroke-dasharray:none;stroke-opacity:1"
         d="m 9168.5,9923.98 -113.08,-22.49 -0.89,-50.12 z" /><path
         id="path200"
         style="fill:#ffffff;fill-opacity:1;fill-rule:nonzero;stroke:none"
         d="m 10910.9,11255.5 c 0,0 -222.3,294 -489.2,308.8 -266.8,14.8 -316.2,-111.2 -254.4,-185.3 61.7,-74.1 217.4,-98.8 252,-98.8 34.6,0 -103.8,-71.7 -91.5,-101.3 12.4,-29.7 128.5,-12.4 187.8,9.9 59.3,22.2 175.5,29.6 205.1,-14.9 29.6,-44.5 190.2,81.6 190.2,81.6" /><path
         id="path202"
         style="fill:none;stroke:#1b1918;stroke-width:10.08119965;stroke-linecap:round;stroke-linejoin:round;stroke-miterlimit:10;stroke-dasharray:none;stroke-opacity:1"
         d="m 10910.9,11255.5 c 0,0 -222.3,294 -489.2,308.8 -266.8,14.8 -316.2,-111.2 -254.4,-185.3 61.7,-74.1 217.4,-98.8 252,-98.8 34.6,0 -103.8,-71.7 -91.5,-101.3 12.4,-29.7 128.5,-12.4 187.8,9.9 59.3,22.2 175.5,29.6 205.1,-14.9 29.6,-44.5 190.2,81.6 190.2,81.6 z" /><path
         id="path204"
         style="fill:#73cff5;fill-opacity:1;fill-rule:nonzero;stroke:none"
         d="m 9648.4,9422.17 c 0,0 914.2,-118.6 1151.4,281.66 237.2,400.27 131.4,1116.07 -118.6,1413.27 -58.5,59.8 4.9,123.5 79,153.2 74.2,29.6 153.2,84 271.8,-84 118.6,-168 602.9,-983.4 506.8,-1744.36 -88.3,-699.01 -408,-1057.49 -857.6,-1111.84 -474.4,464.5 -1032.8,1092.07 -1032.8,1092.07" /><path
         id="path206"
         style="fill:none;stroke:#1b1918;stroke-width:10.08119965;stroke-linecap:round;stroke-linejoin:round;stroke-miterlimit:10;stroke-dasharray:none;stroke-opacity:1"
         d="m 9648.4,9422.17 c 0,0 914.2,-118.6 1151.4,281.66 237.2,400.27 131.4,1116.07 -118.6,1413.27 -58.5,59.8 4.9,123.5 79,153.2 74.2,29.6 153.2,84 271.8,-84 118.6,-168 602.9,-983.4 506.8,-1744.36 -88.3,-699.01 -408,-1057.49 -857.6,-1111.84 -474.4,464.5 -1032.8,1092.07 -1032.8,1092.07 z" /><path
         id="path208"
         style="fill:#ffffff;fill-opacity:1;fill-rule:nonzero;stroke:none"
         d="m 6006.52,9913.84 c 0,0 -281.66,350.86 -291.54,494.16 -9.89,143.3 19.76,217.4 108.71,239.7 88.94,22.2 123.53,-116.2 192.72,-145.8 69.18,-29.7 165.54,81.5 180.36,-9.9 14.82,-91.4 -108.71,-276.7 -98.83,-378 9.88,-101.3 51.89,-130.98 51.89,-130.98 l -143.31,-69.18" /><path
         id="path210"
         style="fill:none;stroke:#1b1918;stroke-width:10.08119965;stroke-linecap:round;stroke-linejoin:round;stroke-miterlimit:10;stroke-dasharray:none;stroke-opacity:1"
         d="m 6006.52,9913.84 c 0,0 -281.66,350.86 -291.54,494.16 -9.89,143.3 19.76,217.4 108.71,239.7 88.94,22.2 123.53,-116.2 192.72,-145.8 69.18,-29.7 165.54,81.5 180.36,-9.9 14.82,-91.4 -108.71,-276.7 -98.83,-378 9.88,-101.3 51.89,-130.98 51.89,-130.98 z" /><path
         id="path212"
         style="fill:#73cff5;fill-opacity:1;fill-rule:nonzero;stroke:none"
         d="m 9238.26,8270.8 c -2139.67,-405.2 -3271.8,1597.03 -3293.38,1642.29 -21.58,45.26 123.23,182.01 193.42,146.51 70.19,-35.4 1439.62,-756.03 2536.63,-696.73 321.22,19.6 353.31,22.23 469.43,69.18 116.13,46.95 444.74,128.48 536.15,56.83 91.42,-71.65 457.09,-284.14 941.39,-896.88 484.2,-612.75 770.8,-1467.62 721.4,-1620.81 -49.4,-153.19 -454.6,-607.8 -1284.8,-563.33 -597.88,49.41 -1590.49,1094.69 -1807.91,1845.8" /><path
         id="path214"
         style="fill:none;stroke:#1b1918;stroke-width:10.08119965;stroke-linecap:round;stroke-linejoin:round;stroke-miterlimit:10;stroke-dasharray:none;stroke-opacity:1"
         d="m 9238.26,8270.8 c -2139.67,-405.2 -3271.8,1597.03 -3293.38,1642.29 -21.58,45.26 123.23,182.01 193.42,146.51 70.19,-35.4 1439.62,-756.03 2536.63,-696.73 321.22,19.6 353.31,22.23 469.43,69.18 116.13,46.95 444.74,128.48 536.15,56.83 91.42,-71.65 457.09,-284.14 941.39,-896.88 484.2,-612.75 770.8,-1467.62 721.4,-1620.81 -49.4,-153.19 -454.6,-607.8 -1284.8,-563.33 -597.88,49.41 -1590.49,1094.69 -1807.91,1845.8" /><path
         id="path216"
         style="fill:#1d1316;fill-opacity:1;fill-rule:nonzero;stroke:none"
         d="m 8791.31,10733.8 c -26.74,226.2 239.94,363.3 433.83,280.4 281.03,-81 300.79,-458.4 561.34,-557.5 68.79,-21.2 144.24,-11.8 212.85,-33.5 222.77,-73.3 234.67,-380.9 75.57,-527.54 -198.39,-205.76 -643.54,-253.43 -740.56,76.21 -38.13,105.33 -146.88,227.03 25.33,266.63 169.38,78.6 107.19,270 -81.18,204.3 -91.3,3.6 -177.94,51.6 -262.79,82.7 -104.65,27.8 -212.2,89.3 -224.39,208.3" /><path
         id="path218"
         style="fill:none;stroke:#1b1918;stroke-width:5.04061985;stroke-linecap:round;stroke-linejoin:round;stroke-miterlimit:10;stroke-dasharray:none;stroke-opacity:1"
         d="m 8791.31,10733.8 c -26.74,226.2 239.94,363.3 433.83,280.4 281.03,-81 300.79,-458.4 561.34,-557.5 68.79,-21.2 144.24,-11.8 212.85,-33.5 222.77,-73.3 234.67,-380.9 75.57,-527.54 -198.39,-205.76 -643.54,-253.43 -740.56,76.21 -38.13,105.33 -146.88,227.03 25.33,266.63 169.38,78.6 107.19,270 -81.18,204.3 -91.3,3.6 -177.94,51.6 -262.79,82.7 -104.65,27.8 -212.2,89.3 -224.39,208.3 z" /><path
         id="path220"
         style="fill:#ffffff;fill-opacity:1;fill-rule:nonzero;stroke:none"
         d="m 13733.4,8162.12 h -1164.2 v 369.12 h 1164.2 v -369.12" /><path
         id="path222"
         style="fill:none;stroke:#1b1918;stroke-width:10.08119965;stroke-linecap:round;stroke-linejoin:round;stroke-miterlimit:10;stroke-dasharray:none;stroke-opacity:1"
         d="m 13733.4,8162.12 h -1164.2 v 369.12 h 1164.2 z" /><path
         id="path224"
         style="fill:#ffffff;fill-opacity:1;fill-rule:nonzero;stroke:none"
         d="m 13270.1,7733.87 h -700.9 v 270.72 h 700.9 v -270.72" /><path
         id="path226"
         style="fill:none;stroke:#1b1918;stroke-width:10.08119965;stroke-linecap:round;stroke-linejoin:round;stroke-miterlimit:10;stroke-dasharray:none;stroke-opacity:1"
         d="m 13270.1,7733.87 h -700.9 v 270.72 h 700.9 z" /><path
         id="path228"
         style="fill:#ffffff;fill-opacity:1;fill-rule:nonzero;stroke:none"
         d="m 12467.5,7693.08 h -116.1 v 881.72 h 116.1 v -881.72" /><path
         id="path230"
         style="fill:none;stroke:#1b1918;stroke-width:10.08119965;stroke-linecap:round;stroke-linejoin:round;stroke-miterlimit:10;stroke-dasharray:none;stroke-opacity:1"
         d="m 12467.5,7693.08 h -116.1 v 881.72 h 116.1 z" /><path
         id="path232"
         style="fill:#ffffff;fill-opacity:1;fill-rule:nonzero;stroke:none"
         d="M 2310.75,7910.43 H 668.066 V 9020.15 H 2310.75 V 7910.43" /><path
         id="path234"
         style="fill:none;stroke:#1b1918;stroke-width:10.08119965;stroke-linecap:round;stroke-linejoin:round;stroke-miterlimit:10;stroke-dasharray:none;stroke-opacity:1"
         d="M 2310.75,7910.43 H 668.066 V 9020.15 H 2310.75 Z" /><path
         id="path236"
         style="fill:#ffffff;fill-opacity:1;fill-rule:nonzero;stroke:none"
         d="m 1135.95,8282.97 245.61,425.41 245.61,-425.41 z" /><path
         id="path238"
         style="fill:none;stroke:#1b1918;stroke-width:10.08119965;stroke-linecap:round;stroke-linejoin:round;stroke-miterlimit:10;stroke-dasharray:none;stroke-opacity:1"
         d="m 1135.95,8282.97 245.61,425.41 245.61,-425.41 z" /><path
         id="path240"
         style="fill:#73cff5;fill-opacity:1;fill-rule:nonzero;stroke:none"
         d="m 1682.89,8712.76 c 120.73,0 218.61,-100.15 218.61,-223.69 0,-123.53 -97.88,-223.68 -218.61,-223.68 -120.74,0 -218.61,100.15 -218.61,223.68 0,123.54 97.87,223.69 218.61,223.69" /><path
         id="path242"
         style="fill:none;stroke:#1b1918;stroke-width:5.04061985;stroke-linecap:round;stroke-linejoin:round;stroke-miterlimit:10;stroke-dasharray:none;stroke-opacity:1"
         d="m 1682.89,8712.76 c 120.73,0 218.61,-100.15 218.61,-223.69 0,-123.53 -97.88,-223.68 -218.61,-223.68 -120.74,0 -218.61,100.15 -218.61,223.68 0,123.54 97.87,223.69 218.61,223.69 z" /><path
         id="path244"
         style="fill:#ffffff;fill-opacity:1;fill-rule:nonzero;stroke:none"
         d="m 14337.8,11928.8 c 20,-90.1 -42.1,-180.6 -138.7,-202.1 -96.6,-21.4 -191.3,34.3 -211.3,124.4 -19.9,90 42.3,180.5 138.9,202 96.6,21.4 191.1,-34.3 211.1,-124.3 z m -403,-89.4 c 14.7,-66.2 60.3,-118.2 119.8,-145.9 l -129.1,-28.6 -101.5,68.7 -740.3,-164.3 157.6,-107 985.7,218.8 1.5,1.1 c 115.3,34.8 187.2,146.8 162.5,258.4 -26.1,117.3 -149.4,189.9 -275.3,161.9 -126,-27.9 -206.9,-145.8 -180.9,-263.1" /><path
         id="path246"
         style="fill:none;stroke:#1b1918;stroke-width:10.08119965;stroke-linecap:round;stroke-linejoin:round;stroke-miterlimit:10;stroke-dasharray:none;stroke-opacity:1"
         d="m 14337.8,11928.8 c 20,-90.1 -42.1,-180.6 -138.7,-202.1 -96.6,-21.4 -191.3,34.3 -211.3,124.4 -19.9,90 42.3,180.5 138.9,202 96.6,21.4 191.1,-34.3 211.1,-124.3 z m -403,-89.4 c 14.7,-66.2 60.3,-118.2 119.8,-145.9 l -129.1,-28.6 -101.5,68.7 -740.3,-164.3 157.6,-107 985.7,218.8 1.5,1.1 c 115.3,34.8 187.2,146.8 162.5,258.4 -26.1,117.3 -149.4,189.9 -275.3,161.9 -126,-27.9 -206.9,-145.8 -180.9,-263.1 z" /><path
         id="path248"
         style="fill:#ffffff;fill-opacity:1;fill-rule:nonzero;stroke:none"
         d="m 14100.2,11200.3 c -96,24.1 -155.7,116.3 -133.3,205.7 22.5,89.6 118.6,142.6 214.7,118.5 96,-24.1 155.5,-116.2 133.1,-205.7 -22.5,-89.5 -118.5,-142.6 -214.5,-118.5 z m -12.4,-49.1 c 125.1,-31.4 250.4,37.7 279.6,154.3 27.9,110.9 -41,224.8 -155.3,262.8 l -1.4,1.1 -936.7,235.2 -203.1,-92 735.5,-184.6 103.4,65.9 128.2,-32.2 c -60.3,-26 -107.3,-76.7 -123.8,-142.4 -29.2,-116.6 48.4,-236.7 173.6,-268.1" /><path
         id="path250"
         style="fill:none;stroke:#1b1918;stroke-width:10.08119965;stroke-linecap:round;stroke-linejoin:round;stroke-miterlimit:10;stroke-dasharray:none;stroke-opacity:1"
         d="m 14100.2,11200.3 c -96,24.1 -155.7,116.3 -133.3,205.7 22.5,89.6 118.6,142.6 214.7,118.5 96,-24.1 155.5,-116.2 133.1,-205.7 -22.5,-89.5 -118.5,-142.6 -214.5,-118.5 z m -12.4,-49.1 c 125.1,-31.4 250.4,37.7 279.6,154.3 27.9,110.9 -41,224.8 -155.3,262.8 l -1.4,1.1 -936.7,235.2 -203.1,-92 735.5,-184.6 103.4,65.9 128.2,-32.2 c -60.3,-26 -107.3,-76.7 -123.8,-142.4 -29.2,-116.6 48.4,-236.7 173.6,-268.1 z" /><path
         id="path252"
         style="fill:#ffffff;fill-opacity:1;fill-rule:nonzero;stroke:none"
         d="m 13751.9,11689.1 c -32.4,-7.2 -52.9,-39.3 -45.7,-71.7 7.2,-32.5 39.4,-52.9 71.8,-45.7 32.4,7.2 52.9,39.3 45.7,71.7 -7.2,32.5 -39.3,52.9 -71.8,45.7" /><path
         id="path254"
         style="fill:none;stroke:#1b1918;stroke-width:10.08119965;stroke-linecap:round;stroke-linejoin:round;stroke-miterlimit:10;stroke-dasharray:none;stroke-opacity:1"
         d="m 13751.9,11689.1 c -32.4,-7.2 -52.9,-39.3 -45.7,-71.7 7.2,-32.5 39.4,-52.9 71.8,-45.7 32.4,7.2 52.9,39.3 45.7,71.7 -7.2,32.5 -39.3,52.9 -71.8,45.7 z" /><path
         id="path256"
         style="fill:#dfdfdd;fill-opacity:1;fill-rule:nonzero;stroke:none"
         d="m 14504.6,2051.9 c 0,-24.9 -20.2,-45 -45,-45 -24.9,0 -45.1,20.1 -45.1,45 0,24.9 20.2,45 45.1,45 24.8,0 45,-20.1 45,-45" /><path
         id="path258"
         style="fill:#73cff5;fill-opacity:1;fill-rule:nonzero;stroke:none"
         d="m 14724.5,2053.4 c 0,-24.8 -20.2,-45 -45,-45 -24.9,0 -45.1,20.2 -45.1,45 0,24.9 20.2,45.1 45.1,45.1 24.8,0 45,-20.2 45,-45.1" /><path
         id="path260"
         style="fill:#dfdfdd;fill-opacity:1;fill-rule:nonzero;stroke:none"
         d="m 14938.7,2050.1 c 0,-24.8 -20.2,-45 -45.1,-45 -24.8,0 -45,20.2 -45,45 0,24.9 20.2,45 45,45 24.9,0 45.1,-20.1 45.1,-45" /></g></g></svg>